<svg width="1080" height="1080" viewBox="0 0 1080 1080" fill="none" xmlns="http://www.w3.org/2000/svg">
<rect width="1080" height="1080" fill="#fef9f6"/>
<g clip-path="url(#clip0_109_2932)">
<rect width="1080" height="1080" fill="#E5E5E5"/>
<path d="M900 180H180V900H900V180Z" fill="#fef9f6"/>
<path d="M874 424.667H406.667V873.333H874V424.667Z" fill="#fbdfd4"/>
<path fill-rule="evenodd" clip-rule="evenodd" d="M440 458.667C447.364 458.667 453.333 452.697 453.333 445.333C453.333 437.969 447.364 432 440 432C432.636 432 426.667 437.969 426.667 445.333C426.667 452.697 432.636 458.667 440 458.667ZM443.167 442C443.167 443.841 441.675 445.333 439.833 445.333C437.992 445.333 436.5 443.841 436.5 442C436.5 440.159 437.992 438.667 439.833 438.667C441.675 438.667 443.167 440.159 443.167 442ZM441.732 446.167H442.167C444.099 446.167 445.667 447.735 445.667 449.667V450.75C445.667 451.44 445.107 452 444.417 452H435.25C434.56 452 434 451.44 434 450.75V449.667C434 447.735 435.568 446.167 437.5 446.167H437.935C438.515 446.432 439.156 446.583 439.833 446.583C440.511 446.583 441.153 446.432 441.732 446.167Z" fill="#743e29"/>
<path d="M594 442H474.667C473.562 442 472.667 442.895 472.667 444V446.667C472.667 447.771 473.562 448.667 474.667 448.667H594C595.104 448.667 596 447.771 596 446.667V444C596 442.895 595.104 442 594 442Z" fill="#f2a587"/>
<path d="M694 442H624.667C623.562 442 622.667 442.895 622.667 444V446.667C622.667 447.771 623.562 448.667 624.667 448.667H694C695.105 448.667 696 447.771 696 446.667V444C696 442.895 695.105 442 694 442Z" fill="#f2a587"/>
<path d="M794 442H724.667C723.562 442 722.667 442.895 722.667 444V446.667C722.667 447.771 723.562 448.667 724.667 448.667H794C795.105 448.667 796 447.771 796 446.667V444C796 442.895 795.105 442 794 442Z" fill="#f2a587"/>
<path d="M821.865 442.29L823.627 444.052C823.701 444.126 823.701 444.247 823.627 444.322L819.361 448.588L817.547 448.789C817.305 448.817 817.1 448.611 817.127 448.369L817.329 446.557L821.595 442.29C821.669 442.216 821.791 442.216 821.865 442.29ZM825.029 441.843L824.076 440.889C823.779 440.593 823.297 440.593 822.998 440.889L822.306 441.581C822.232 441.655 822.232 441.776 822.306 441.851L824.069 443.613C824.143 443.687 824.264 443.687 824.338 443.613L825.029 442.921C825.327 442.622 825.327 442.139 825.029 441.843ZM821.501 447.428V449.417H815.25V443.165H819.739C819.802 443.165 819.861 443.14 819.905 443.097L820.687 442.315C820.835 442.167 820.73 441.915 820.521 441.915H814.938C814.42 441.915 814 442.335 814 442.853V449.729C814 450.247 814.42 450.667 814.938 450.667H821.814C822.332 450.667 822.752 450.247 822.752 449.729V446.647C822.752 446.437 822.5 446.334 822.351 446.48L821.57 447.262C821.527 447.307 821.501 447.365 821.501 447.428Z" fill="#743e29"/>
<path d="M847.107 441.292H844.761L844.577 440.927C844.538 440.849 844.478 440.783 844.404 440.737C844.329 440.691 844.244 440.667 844.157 440.667H841.925C841.837 440.667 841.752 440.691 841.678 440.737C841.604 440.783 841.545 440.848 841.507 440.927L841.323 441.292H838.979C838.896 441.292 838.817 441.325 838.758 441.383C838.699 441.442 838.667 441.521 838.667 441.604V442.229C838.667 442.312 838.699 442.391 838.758 442.45C838.817 442.509 838.896 442.542 838.979 442.542H847.107C847.187 442.542 847.267 442.509 847.327 442.45C847.387 442.391 847.413 442.312 847.413 442.229V441.604C847.413 441.521 847.387 441.442 847.327 441.383C847.267 441.325 847.187 441.292 847.107 441.292ZM839.706 449.788C839.721 450.026 839.826 450.249 839.999 450.413C840.173 450.576 840.403 450.667 840.641 450.667H845.442C845.681 450.667 845.91 450.576 846.084 450.413C846.257 450.249 846.363 450.026 846.377 449.788L846.793 443.167H839.291L839.706 449.788Z" fill="#743e29"/>
<path fill-rule="evenodd" clip-rule="evenodd" d="M440 621.333C447.364 621.333 453.333 615.364 453.333 608C453.333 600.636 447.364 594.667 440 594.667C432.636 594.667 426.667 600.636 426.667 608C426.667 615.364 432.636 621.333 440 621.333ZM443.167 604.667C443.167 606.508 441.675 608 439.833 608C437.992 608 436.5 606.508 436.5 604.667C436.5 602.825 437.992 601.333 439.833 601.333C441.675 601.333 443.167 602.825 443.167 604.667ZM441.732 608.833H442.167C444.099 608.833 445.667 610.401 445.667 612.333V613.417C445.667 614.107 445.107 614.667 444.417 614.667H435.25C434.56 614.667 434 614.107 434 613.417V612.333C434 610.401 435.568 608.833 437.5 608.833H437.935C438.515 609.099 439.156 609.25 439.833 609.25C440.511 609.25 441.153 609.099 441.732 608.833Z" fill="#743e29"/>
<path d="M594 604.667H474.667C473.562 604.667 472.667 605.562 472.667 606.667V609.333C472.667 610.438 473.562 611.333 474.667 611.333H594C595.104 611.333 596 610.438 596 609.333V606.667C596 605.562 595.104 604.667 594 604.667Z" fill="#f2a587"/>
<path d="M694 604.667H624.667C623.562 604.667 622.667 605.562 622.667 606.667V609.333C622.667 610.438 623.562 611.333 624.667 611.333H694C695.105 611.333 696 610.438 696 609.333V606.667C696 605.562 695.105 604.667 694 604.667Z" fill="#f2a587"/>
<path d="M794 604.667H724.667C723.562 604.667 722.667 605.562 722.667 606.667V609.333C722.667 610.438 723.562 611.333 724.667 611.333H794C795.105 611.333 796 610.438 796 609.333V606.667C796 605.562 795.105 604.667 794 604.667Z" fill="#f2a587"/>
<path d="M821.865 604.957L823.627 606.719C823.701 606.793 823.701 606.914 823.627 606.989L819.361 611.255L817.547 611.456C817.305 611.483 817.1 611.278 817.127 611.036L817.329 609.223L821.595 604.957C821.669 604.883 821.791 604.883 821.865 604.957ZM825.029 604.509L824.076 603.556C823.779 603.259 823.297 603.259 822.998 603.556L822.306 604.247C822.232 604.322 822.232 604.443 822.306 604.517L824.069 606.279C824.143 606.353 824.264 606.353 824.338 606.279L825.029 605.588C825.327 605.289 825.327 604.806 825.029 604.509ZM821.501 610.095V612.083H815.25V605.832H819.739C819.802 605.832 819.861 605.807 819.905 605.763L820.687 604.982C820.835 604.833 820.73 604.581 820.521 604.581H814.938C814.42 604.581 814 605.001 814 605.519V612.395C814 612.913 814.42 613.333 814.938 613.333H821.814C822.332 613.333 822.752 612.913 822.752 612.395V609.313C822.752 609.104 822.5 609.001 822.351 609.147L821.57 609.929C821.527 609.973 821.501 610.032 821.501 610.095Z" fill="#743e29"/>
<path d="M847.107 603.959H844.761L844.577 603.593C844.538 603.515 844.478 603.449 844.404 603.403C844.329 603.357 844.244 603.333 844.157 603.333H841.925C841.837 603.333 841.752 603.357 841.678 603.403C841.604 603.449 841.545 603.515 841.507 603.593L841.323 603.959H838.979C838.896 603.959 838.817 603.991 838.758 604.05C838.699 604.109 838.667 604.188 838.667 604.271V604.896C838.667 604.979 838.699 605.058 838.758 605.117C838.817 605.175 838.896 605.209 838.979 605.209H847.107C847.187 605.209 847.267 605.175 847.327 605.117C847.387 605.058 847.413 604.979 847.413 604.896V604.271C847.413 604.188 847.387 604.109 847.327 604.05C847.267 603.991 847.187 603.959 847.107 603.959ZM839.706 612.455C839.721 612.693 839.826 612.916 839.999 613.079C840.173 613.243 840.403 613.333 840.641 613.333H845.442C845.681 613.333 845.91 613.243 846.084 613.079C846.257 612.916 846.363 612.693 846.377 612.455L846.793 605.833H839.291L839.706 612.455Z" fill="#743e29"/>
<path fill-rule="evenodd" clip-rule="evenodd" d="M440 538.667C447.364 538.667 453.333 532.697 453.333 525.333C453.333 517.969 447.364 512 440 512C432.636 512 426.667 517.969 426.667 525.333C426.667 532.697 432.636 538.667 440 538.667ZM443.167 522C443.167 523.841 441.675 525.333 439.833 525.333C437.992 525.333 436.5 523.841 436.5 522C436.5 520.159 437.992 518.667 439.833 518.667C441.675 518.667 443.167 520.159 443.167 522ZM441.732 526.167H442.167C444.099 526.167 445.667 527.735 445.667 529.667V530.75C445.667 531.44 445.107 532 444.417 532H435.25C434.56 532 434 531.44 434 530.75V529.667C434 527.735 435.568 526.167 437.5 526.167H437.935C438.515 526.432 439.156 526.583 439.833 526.583C440.511 526.583 441.153 526.432 441.732 526.167Z" fill="#743e29"/>
<path d="M594 522H474.667C473.562 522 472.667 522.895 472.667 524V526.667C472.667 527.771 473.562 528.667 474.667 528.667H594C595.104 528.667 596 527.771 596 526.667V524C596 522.895 595.104 522 594 522Z" fill="#f2a587"/>
<path d="M694 522H624.667C623.562 522 622.667 522.895 622.667 524V526.667C622.667 527.771 623.562 528.667 624.667 528.667H694C695.105 528.667 696 527.771 696 526.667V524C696 522.895 695.105 522 694 522Z" fill="#f2a587"/>
<path d="M794 522H724.667C723.562 522 722.667 522.895 722.667 524V526.667C722.667 527.771 723.562 528.667 724.667 528.667H794C795.105 528.667 796 527.771 796 526.667V524C796 522.895 795.105 522 794 522Z" fill="#f2a587"/>
<path d="M821.865 522.29L823.627 524.052C823.701 524.126 823.701 524.247 823.627 524.322L819.361 528.588L817.547 528.789C817.305 528.817 817.1 528.611 817.127 528.369L817.329 526.557L821.595 522.29C821.669 522.216 821.791 522.216 821.865 522.29ZM825.029 521.843L824.076 520.889C823.779 520.593 823.297 520.593 822.998 520.889L822.306 521.581C822.232 521.655 822.232 521.776 822.306 521.851L824.069 523.613C824.143 523.687 824.264 523.687 824.338 523.613L825.029 522.921C825.327 522.622 825.327 522.139 825.029 521.843ZM821.501 527.428V529.417H815.25V523.165H819.739C819.802 523.165 819.861 523.14 819.905 523.097L820.687 522.315C820.835 522.167 820.73 521.915 820.521 521.915H814.938C814.42 521.915 814 522.335 814 522.853V529.729C814 530.247 814.42 530.667 814.938 530.667H821.814C822.332 530.667 822.752 530.247 822.752 529.729V526.647C822.752 526.437 822.5 526.334 822.351 526.48L821.57 527.262C821.527 527.307 821.501 527.365 821.501 527.428Z" fill="#743e29"/>
<path d="M847.107 521.292H844.761L844.577 520.927C844.538 520.849 844.478 520.783 844.404 520.737C844.329 520.691 844.244 520.667 844.157 520.667H841.925C841.837 520.667 841.752 520.691 841.678 520.737C841.604 520.783 841.545 520.848 841.507 520.927L841.323 521.292H838.979C838.896 521.292 838.817 521.325 838.758 521.383C838.699 521.442 838.667 521.521 838.667 521.604V522.229C838.667 522.312 838.699 522.391 838.758 522.45C838.817 522.509 838.896 522.542 838.979 522.542H847.107C847.187 522.542 847.267 522.509 847.327 522.45C847.387 522.391 847.413 522.312 847.413 522.229V521.604C847.413 521.521 847.387 521.442 847.327 521.383C847.267 521.325 847.187 521.292 847.107 521.292ZM839.706 529.788C839.721 530.026 839.826 530.249 839.999 530.413C840.173 530.576 840.403 530.667 840.641 530.667H845.442C845.681 530.667 845.91 530.576 846.084 530.413C846.257 530.249 846.363 530.026 846.377 529.788L846.793 523.167H839.291L839.706 529.788Z" fill="#743e29"/>
<path fill-rule="evenodd" clip-rule="evenodd" d="M440 701.333C447.364 701.333 453.333 695.364 453.333 688C453.333 680.636 447.364 674.667 440 674.667C432.636 674.667 426.667 680.636 426.667 688C426.667 695.364 432.636 701.333 440 701.333ZM443.167 684.667C443.167 686.508 441.675 688 439.833 688C437.992 688 436.5 686.508 436.5 684.667C436.5 682.825 437.992 681.333 439.833 681.333C441.675 681.333 443.167 682.825 443.167 684.667ZM441.732 688.833H442.167C444.099 688.833 445.667 690.401 445.667 692.333V693.417C445.667 694.107 445.107 694.667 444.417 694.667H435.25C434.56 694.667 434 694.107 434 693.417V692.333C434 690.401 435.568 688.833 437.5 688.833H437.935C438.515 689.099 439.156 689.25 439.833 689.25C440.511 689.25 441.153 689.099 441.732 688.833Z" fill="#743e29"/>
<path d="M594 684.667H474.667C473.562 684.667 472.667 685.562 472.667 686.667V689.333C472.667 690.438 473.562 691.333 474.667 691.333H594C595.104 691.333 596 690.438 596 689.333V686.667C596 685.562 595.104 684.667 594 684.667Z" fill="#f2a587"/>
<path d="M694 684.667H624.667C623.562 684.667 622.667 685.562 622.667 686.667V689.333C622.667 690.438 623.562 691.333 624.667 691.333H694C695.105 691.333 696 690.438 696 689.333V686.667C696 685.562 695.105 684.667 694 684.667Z" fill="#f2a587"/>
<path d="M794 684.667H724.667C723.562 684.667 722.667 685.562 722.667 686.667V689.333C722.667 690.438 723.562 691.333 724.667 691.333H794C795.105 691.333 796 690.438 796 689.333V686.667C796 685.562 795.105 684.667 794 684.667Z" fill="#f2a587"/>
<path d="M821.865 684.957L823.627 686.719C823.701 686.793 823.701 686.914 823.627 686.989L819.361 691.255L817.547 691.456C817.305 691.483 817.1 691.278 817.127 691.036L817.329 689.223L821.595 684.957C821.669 684.883 821.791 684.883 821.865 684.957ZM825.029 684.509L824.076 683.556C823.779 683.259 823.297 683.259 822.998 683.556L822.306 684.247C822.232 684.322 822.232 684.443 822.306 684.517L824.069 686.279C824.143 686.353 824.264 686.353 824.338 686.279L825.029 685.588C825.327 685.289 825.327 684.806 825.029 684.509ZM821.501 690.095V692.083H815.25V685.832H819.739C819.802 685.832 819.861 685.807 819.905 685.763L820.687 684.982C820.835 684.833 820.73 684.581 820.521 684.581H814.938C814.42 684.581 814 685.001 814 685.519V692.395C814 692.913 814.42 693.333 814.938 693.333H821.814C822.332 693.333 822.752 692.913 822.752 692.395V689.313C822.752 689.104 822.5 689.001 822.351 689.147L821.57 689.929C821.527 689.973 821.501 690.032 821.501 690.095Z" fill="#743e29"/>
<path d="M847.107 683.959H844.761L844.577 683.593C844.538 683.515 844.478 683.449 844.404 683.403C844.329 683.357 844.244 683.333 844.157 683.333H841.925C841.837 683.333 841.752 683.357 841.678 683.403C841.604 683.449 841.545 683.515 841.507 683.593L841.323 683.959H838.979C838.896 683.959 838.817 683.991 838.758 684.05C838.699 684.109 838.667 684.188 838.667 684.271V684.896C838.667 684.979 838.699 685.058 838.758 685.117C838.817 685.175 838.896 685.209 838.979 685.209H847.107C847.187 685.209 847.267 685.175 847.327 685.117C847.387 685.058 847.413 684.979 847.413 684.896V684.271C847.413 684.188 847.387 684.109 847.327 684.05C847.267 683.991 847.187 683.959 847.107 683.959ZM839.706 692.455C839.721 692.693 839.826 692.916 839.999 693.079C840.173 693.243 840.403 693.333 840.641 693.333H845.442C845.681 693.333 845.91 693.243 846.084 693.079C846.257 692.916 846.363 692.693 846.377 692.455L846.793 685.833H839.291L839.706 692.455Z" fill="#743e29"/>
<path fill-rule="evenodd" clip-rule="evenodd" d="M440 498.667C447.364 498.667 453.333 492.697 453.333 485.333C453.333 477.969 447.364 472 440 472C432.636 472 426.667 477.969 426.667 485.333C426.667 492.697 432.636 498.667 440 498.667ZM443.167 482C443.167 483.841 441.675 485.333 439.833 485.333C437.992 485.333 436.5 483.841 436.5 482C436.5 480.159 437.992 478.667 439.833 478.667C441.675 478.667 443.167 480.159 443.167 482ZM441.732 486.167H442.167C444.099 486.167 445.667 487.735 445.667 489.667V490.75C445.667 491.44 445.107 492 444.417 492H435.25C434.56 492 434 491.44 434 490.75V489.667C434 487.735 435.568 486.167 437.5 486.167H437.935C438.515 486.432 439.156 486.583 439.833 486.583C440.511 486.583 441.153 486.432 441.732 486.167Z" fill="#743e29"/>
<path d="M594 482H474.667C473.562 482 472.667 482.895 472.667 484V486.667C472.667 487.771 473.562 488.667 474.667 488.667H594C595.104 488.667 596 487.771 596 486.667V484C596 482.895 595.104 482 594 482Z" fill="#f2a587"/>
<path d="M694 482H624.667C623.562 482 622.667 482.895 622.667 484V486.667C622.667 487.771 623.562 488.667 624.667 488.667H694C695.105 488.667 696 487.771 696 486.667V484C696 482.895 695.105 482 694 482Z" fill="#f2a587"/>
<path d="M794 482H724.667C723.562 482 722.667 482.895 722.667 484V486.667C722.667 487.771 723.562 488.667 724.667 488.667H794C795.105 488.667 796 487.771 796 486.667V484C796 482.895 795.105 482 794 482Z" fill="#f2a587"/>
<path d="M821.865 482.29L823.627 484.052C823.701 484.126 823.701 484.247 823.627 484.322L819.361 488.588L817.547 488.789C817.305 488.817 817.1 488.611 817.127 488.369L817.329 486.557L821.595 482.29C821.669 482.216 821.791 482.216 821.865 482.29ZM825.029 481.843L824.076 480.889C823.779 480.593 823.297 480.593 822.998 480.889L822.306 481.581C822.232 481.655 822.232 481.776 822.306 481.851L824.069 483.613C824.143 483.687 824.264 483.687 824.338 483.613L825.029 482.921C825.327 482.622 825.327 482.139 825.029 481.843ZM821.501 487.428V489.417H815.25V483.165H819.739C819.802 483.165 819.861 483.14 819.905 483.097L820.687 482.315C820.835 482.167 820.73 481.915 820.521 481.915H814.938C814.42 481.915 814 482.335 814 482.853V489.729C814 490.247 814.42 490.667 814.938 490.667H821.814C822.332 490.667 822.752 490.247 822.752 489.729V486.647C822.752 486.437 822.5 486.334 822.351 486.48L821.57 487.262C821.527 487.307 821.501 487.365 821.501 487.428Z" fill="#743e29"/>
<path d="M847.107 481.292H844.761L844.577 480.927C844.538 480.849 844.478 480.783 844.404 480.737C844.329 480.691 844.244 480.667 844.157 480.667H841.925C841.837 480.667 841.752 480.691 841.678 480.737C841.604 480.783 841.545 480.848 841.507 480.927L841.323 481.292H838.979C838.896 481.292 838.817 481.325 838.758 481.383C838.699 481.442 838.667 481.521 838.667 481.604V482.229C838.667 482.312 838.699 482.391 838.758 482.45C838.817 482.509 838.896 482.542 838.979 482.542H847.107C847.187 482.542 847.267 482.509 847.327 482.45C847.387 482.391 847.413 482.312 847.413 482.229V481.604C847.413 481.521 847.387 481.442 847.327 481.383C847.267 481.325 847.187 481.292 847.107 481.292ZM839.706 489.788C839.721 490.026 839.826 490.249 839.999 490.413C840.173 490.576 840.403 490.667 840.641 490.667H845.442C845.681 490.667 845.91 490.576 846.084 490.413C846.257 490.249 846.363 490.026 846.377 489.788L846.793 483.167H839.291L839.706 489.788Z" fill="#743e29"/>
<path fill-rule="evenodd" clip-rule="evenodd" d="M440 661.333C447.364 661.333 453.333 655.364 453.333 648C453.333 640.636 447.364 634.667 440 634.667C432.636 634.667 426.667 640.636 426.667 648C426.667 655.364 432.636 661.333 440 661.333ZM443.167 644.667C443.167 646.508 441.675 648 439.833 648C437.992 648 436.5 646.508 436.5 644.667C436.5 642.825 437.992 641.333 439.833 641.333C441.675 641.333 443.167 642.825 443.167 644.667ZM441.732 648.833H442.167C444.099 648.833 445.667 650.401 445.667 652.333V653.417C445.667 654.107 445.107 654.667 444.417 654.667H435.25C434.56 654.667 434 654.107 434 653.417V652.333C434 650.401 435.568 648.833 437.5 648.833H437.935C438.515 649.099 439.156 649.25 439.833 649.25C440.511 649.25 441.153 649.099 441.732 648.833Z" fill="#743e29"/>
<path d="M594 644.667H474.667C473.562 644.667 472.667 645.562 472.667 646.667V649.333C472.667 650.438 473.562 651.333 474.667 651.333H594C595.104 651.333 596 650.438 596 649.333V646.667C596 645.562 595.104 644.667 594 644.667Z" fill="#f2a587"/>
<path d="M694 644.667H624.667C623.562 644.667 622.667 645.562 622.667 646.667V649.333C622.667 650.438 623.562 651.333 624.667 651.333H694C695.105 651.333 696 650.438 696 649.333V646.667C696 645.562 695.105 644.667 694 644.667Z" fill="#f2a587"/>
<path d="M794 644.667H724.667C723.562 644.667 722.667 645.562 722.667 646.667V649.333C722.667 650.438 723.562 651.333 724.667 651.333H794C795.105 651.333 796 650.438 796 649.333V646.667C796 645.562 795.105 644.667 794 644.667Z" fill="#f2a587"/>
<path d="M821.865 644.957L823.627 646.719C823.701 646.793 823.701 646.914 823.627 646.989L819.361 651.255L817.547 651.456C817.305 651.483 817.1 651.278 817.127 651.036L817.329 649.223L821.595 644.957C821.669 644.883 821.791 644.883 821.865 644.957ZM825.029 644.509L824.076 643.556C823.779 643.259 823.297 643.259 822.998 643.556L822.306 644.247C822.232 644.322 822.232 644.443 822.306 644.517L824.069 646.279C824.143 646.353 824.264 646.353 824.338 646.279L825.029 645.588C825.327 645.289 825.327 644.806 825.029 644.509ZM821.501 650.095V652.083H815.25V645.832H819.739C819.802 645.832 819.861 645.807 819.905 645.763L820.687 644.982C820.835 644.833 820.73 644.581 820.521 644.581H814.938C814.42 644.581 814 645.001 814 645.519V652.395C814 652.913 814.42 653.333 814.938 653.333H821.814C822.332 653.333 822.752 652.913 822.752 652.395V649.313C822.752 649.104 822.5 649.001 822.351 649.147L821.57 649.929C821.527 649.973 821.501 650.032 821.501 650.095Z" fill="#743e29"/>
<path d="M847.107 643.959H844.761L844.577 643.593C844.538 643.515 844.478 643.449 844.404 643.403C844.329 643.357 844.244 643.333 844.157 643.333H841.925C841.837 643.333 841.752 643.357 841.678 643.403C841.604 643.449 841.545 643.515 841.507 643.593L841.323 643.959H838.979C838.896 643.959 838.817 643.991 838.758 644.05C838.699 644.109 838.667 644.188 838.667 644.271V644.896C838.667 644.979 838.699 645.058 838.758 645.117C838.817 645.175 838.896 645.209 838.979 645.209H847.107C847.187 645.209 847.267 645.175 847.327 645.117C847.387 645.058 847.413 644.979 847.413 644.896V644.271C847.413 644.188 847.387 644.109 847.327 644.05C847.267 643.991 847.187 643.959 847.107 643.959ZM839.706 652.455C839.721 652.693 839.826 652.916 839.999 653.079C840.173 653.243 840.403 653.333 840.641 653.333H845.442C845.681 653.333 845.91 653.243 846.084 653.079C846.257 652.916 846.363 652.693 846.377 652.455L846.793 645.833H839.291L839.706 652.455Z" fill="#743e29"/>
<path fill-rule="evenodd" clip-rule="evenodd" d="M440 578.667C447.364 578.667 453.333 572.697 453.333 565.333C453.333 557.969 447.364 552 440 552C432.636 552 426.667 557.969 426.667 565.333C426.667 572.697 432.636 578.667 440 578.667ZM443.167 562C443.167 563.841 441.675 565.333 439.833 565.333C437.992 565.333 436.5 563.841 436.5 562C436.5 560.159 437.992 558.667 439.833 558.667C441.675 558.667 443.167 560.159 443.167 562ZM441.732 566.167H442.167C444.099 566.167 445.667 567.735 445.667 569.667V570.75C445.667 571.44 445.107 572 444.417 572H435.25C434.56 572 434 571.44 434 570.75V569.667C434 567.735 435.568 566.167 437.5 566.167H437.935C438.515 566.432 439.156 566.583 439.833 566.583C440.511 566.583 441.153 566.432 441.732 566.167Z" fill="#743e29"/>
<path d="M594 562H474.667C473.562 562 472.667 562.895 472.667 564V566.667C472.667 567.771 473.562 568.667 474.667 568.667H594C595.104 568.667 596 567.771 596 566.667V564C596 562.895 595.104 562 594 562Z" fill="#f2a587"/>
<path d="M694 562H624.667C623.562 562 622.667 562.895 622.667 564V566.667C622.667 567.771 623.562 568.667 624.667 568.667H694C695.105 568.667 696 567.771 696 566.667V564C696 562.895 695.105 562 694 562Z" fill="#f2a587"/>
<path d="M794 562H724.667C723.562 562 722.667 562.895 722.667 564V566.667C722.667 567.771 723.562 568.667 724.667 568.667H794C795.105 568.667 796 567.771 796 566.667V564C796 562.895 795.105 562 794 562Z" fill="#f2a587"/>
<path d="M821.865 562.29L823.627 564.052C823.701 564.126 823.701 564.247 823.627 564.322L819.361 568.588L817.547 568.789C817.305 568.817 817.1 568.611 817.127 568.369L817.329 566.557L821.595 562.29C821.669 562.216 821.791 562.216 821.865 562.29ZM825.029 561.843L824.076 560.889C823.779 560.593 823.297 560.593 822.998 560.889L822.306 561.581C822.232 561.655 822.232 561.776 822.306 561.851L824.069 563.613C824.143 563.687 824.264 563.687 824.338 563.613L825.029 562.921C825.327 562.622 825.327 562.139 825.029 561.843ZM821.501 567.428V569.417H815.25V563.165H819.739C819.802 563.165 819.861 563.14 819.905 563.097L820.687 562.315C820.835 562.167 820.73 561.915 820.521 561.915H814.938C814.42 561.915 814 562.335 814 562.853V569.729C814 570.247 814.42 570.667 814.938 570.667H821.814C822.332 570.667 822.752 570.247 822.752 569.729V566.647C822.752 566.437 822.5 566.334 822.351 566.48L821.57 567.262C821.527 567.307 821.501 567.365 821.501 567.428Z" fill="#743e29"/>
<path d="M847.107 561.292H844.761L844.577 560.927C844.538 560.849 844.478 560.783 844.404 560.737C844.329 560.691 844.244 560.667 844.157 560.667H841.925C841.837 560.667 841.752 560.691 841.678 560.737C841.604 560.783 841.545 560.848 841.507 560.927L841.323 561.292H838.979C838.896 561.292 838.817 561.325 838.758 561.383C838.699 561.442 838.667 561.521 838.667 561.604V562.229C838.667 562.312 838.699 562.391 838.758 562.45C838.817 562.509 838.896 562.542 838.979 562.542H847.107C847.187 562.542 847.267 562.509 847.327 562.45C847.387 562.391 847.413 562.312 847.413 562.229V561.604C847.413 561.521 847.387 561.442 847.327 561.383C847.267 561.325 847.187 561.292 847.107 561.292ZM839.706 569.788C839.721 570.026 839.826 570.249 839.999 570.413C840.173 570.576 840.403 570.667 840.641 570.667H845.442C845.681 570.667 845.91 570.576 846.084 570.413C846.257 570.249 846.363 570.026 846.377 569.788L846.793 563.167H839.291L839.706 569.788Z" fill="#743e29"/>
<path fill-rule="evenodd" clip-rule="evenodd" d="M440 741.333C447.364 741.333 453.333 735.364 453.333 728C453.333 720.636 447.364 714.667 440 714.667C432.636 714.667 426.667 720.636 426.667 728C426.667 735.364 432.636 741.333 440 741.333ZM443.167 724.667C443.167 726.508 441.675 728 439.833 728C437.992 728 436.5 726.508 436.5 724.667C436.5 722.825 437.992 721.333 439.833 721.333C441.675 721.333 443.167 722.825 443.167 724.667ZM441.732 728.833H442.167C444.099 728.833 445.667 730.401 445.667 732.333V733.417C445.667 734.107 445.107 734.667 444.417 734.667H435.25C434.56 734.667 434 734.107 434 733.417V732.333C434 730.401 435.568 728.833 437.5 728.833H437.935C438.515 729.099 439.156 729.25 439.833 729.25C440.511 729.25 441.153 729.099 441.732 728.833Z" fill="#743e29"/>
<path d="M594 724.667H474.667C473.562 724.667 472.667 725.562 472.667 726.667V729.333C472.667 730.438 473.562 731.333 474.667 731.333H594C595.104 731.333 596 730.438 596 729.333V726.667C596 725.562 595.104 724.667 594 724.667Z" fill="#f2a587"/>
<path d="M694 724.667H624.667C623.562 724.667 622.667 725.562 622.667 726.667V729.333C622.667 730.438 623.562 731.333 624.667 731.333H694C695.105 731.333 696 730.438 696 729.333V726.667C696 725.562 695.105 724.667 694 724.667Z" fill="#f2a587"/>
<path d="M794 724.667H724.667C723.562 724.667 722.667 725.562 722.667 726.667V729.333C722.667 730.438 723.562 731.333 724.667 731.333H794C795.105 731.333 796 730.438 796 729.333V726.667C796 725.562 795.105 724.667 794 724.667Z" fill="#f2a587"/>
<path d="M821.865 724.957L823.627 726.719C823.701 726.793 823.701 726.914 823.627 726.989L819.361 731.255L817.547 731.456C817.305 731.483 817.1 731.278 817.127 731.036L817.329 729.223L821.595 724.957C821.669 724.883 821.791 724.883 821.865 724.957ZM825.029 724.509L824.076 723.556C823.779 723.259 823.297 723.259 822.998 723.556L822.306 724.247C822.232 724.322 822.232 724.443 822.306 724.517L824.069 726.279C824.143 726.353 824.264 726.353 824.338 726.279L825.029 725.588C825.327 725.289 825.327 724.806 825.029 724.509ZM821.501 730.095V732.083H815.25V725.832H819.739C819.802 725.832 819.861 725.807 819.905 725.763L820.687 724.982C820.835 724.833 820.73 724.581 820.521 724.581H814.938C814.42 724.581 814 725.001 814 725.519V732.395C814 732.913 814.42 733.333 814.938 733.333H821.814C822.332 733.333 822.752 732.913 822.752 732.395V729.313C822.752 729.104 822.5 729.001 822.351 729.147L821.57 729.929C821.527 729.973 821.501 730.032 821.501 730.095Z" fill="#743e29"/>
<path d="M847.107 723.959H844.761L844.577 723.593C844.538 723.515 844.478 723.449 844.404 723.403C844.329 723.357 844.244 723.333 844.157 723.333H841.925C841.837 723.333 841.752 723.357 841.678 723.403C841.604 723.449 841.545 723.515 841.507 723.593L841.323 723.959H838.979C838.896 723.959 838.817 723.991 838.758 724.05C838.699 724.109 838.667 724.188 838.667 724.271V724.896C838.667 724.979 838.699 725.058 838.758 725.117C838.817 725.175 838.896 725.209 838.979 725.209H847.107C847.187 725.209 847.267 725.175 847.327 725.117C847.387 725.058 847.413 724.979 847.413 724.896V724.271C847.413 724.188 847.387 724.109 847.327 724.05C847.267 723.991 847.187 723.959 847.107 723.959ZM839.706 732.455C839.721 732.693 839.826 732.916 839.999 733.079C840.173 733.243 840.403 733.333 840.641 733.333H845.442C845.681 733.333 845.91 733.243 846.084 733.079C846.257 732.916 846.363 732.693 846.377 732.455L846.793 725.833H839.291L839.706 732.455Z" fill="#743e29"/>
<path d="M874 464.667H405.333V465.333H874V464.667Z" fill="#fef9f6"/>
<path d="M874 627.333H405.333V628H874V627.333Z" fill="#fef9f6"/>
<path d="M874 505.333H405.333V506H874V505.333Z" fill="#fef9f6"/>
<path d="M874 668H405.333V668.667H874V668Z" fill="#fef9f6"/>
<path d="M874 545.333H405.333V546H874V545.333Z" fill="#fef9f6"/>
<path d="M874 708H405.333V708.667H874V708Z" fill="#fef9f6"/>
<path d="M874 585.333H405.333V586H874V585.333Z" fill="#fef9f6"/>
<path d="M874 748H405.333V748.667H874V748Z" fill="#fef9f6"/>
<path fill-rule="evenodd" clip-rule="evenodd" d="M440 784C447.364 784 453.333 778.031 453.333 770.667C453.333 763.303 447.364 757.333 440 757.333C432.636 757.333 426.667 763.303 426.667 770.667C426.667 778.031 432.636 784 440 784ZM443.167 767.333C443.167 769.175 441.675 770.667 439.833 770.667C437.992 770.667 436.5 769.175 436.5 767.333C436.5 765.492 437.992 764 439.833 764C441.675 764 443.167 765.492 443.167 767.333ZM441.732 771.5H442.167C444.099 771.5 445.667 773.068 445.667 775V776.083C445.667 776.773 445.107 777.333 444.417 777.333H435.25C434.56 777.333 434 776.773 434 776.083V775C434 773.068 435.568 771.5 437.5 771.5H437.935C438.515 771.765 439.156 771.917 439.833 771.917C440.511 771.917 441.153 771.765 441.732 771.5Z" fill="#743e29"/>
<path d="M594 767.333H474.667C473.562 767.333 472.667 768.229 472.667 769.333V772C472.667 773.105 473.562 774 474.667 774H594C595.104 774 596 773.105 596 772V769.333C596 768.229 595.104 767.333 594 767.333Z" fill="#f2a587"/>
<path d="M694 767.333H624.667C623.562 767.333 622.667 768.229 622.667 769.333V772C622.667 773.105 623.562 774 624.667 774H694C695.105 774 696 773.105 696 772V769.333C696 768.229 695.105 767.333 694 767.333Z" fill="#f2a587"/>
<path d="M794 767.333H724.667C723.562 767.333 722.667 768.229 722.667 769.333V772C722.667 773.105 723.562 774 724.667 774H794C795.105 774 796 773.105 796 772V769.333C796 768.229 795.105 767.333 794 767.333Z" fill="#f2a587"/>
<path d="M821.865 767.623L823.627 769.385C823.701 769.459 823.701 769.581 823.627 769.655L819.361 773.921L817.547 774.123C817.305 774.15 817.1 773.945 817.127 773.703L817.329 771.89L821.595 767.623C821.669 767.549 821.791 767.549 821.865 767.623ZM825.029 767.176L824.076 766.223C823.779 765.926 823.297 765.926 822.998 766.223L822.306 766.914C822.232 766.989 822.232 767.109 822.306 767.184L824.069 768.946C824.143 769.02 824.264 769.02 824.338 768.946L825.029 768.255C825.327 767.955 825.327 767.473 825.029 767.176ZM821.501 772.761V774.75H815.25V768.499H819.739C819.802 768.499 819.861 768.473 819.905 768.43L820.687 767.649C820.835 767.5 820.73 767.248 820.521 767.248H814.938C814.42 767.248 814 767.668 814 768.186V775.062C814 775.58 814.42 776 814.938 776H821.814C822.332 776 822.752 775.58 822.752 775.062V771.98C822.752 771.771 822.5 771.667 822.351 771.813L821.57 772.595C821.527 772.64 821.501 772.699 821.501 772.761Z" fill="#743e29"/>
<path d="M847.107 766.625H844.761L844.577 766.26C844.538 766.182 844.478 766.116 844.404 766.07C844.329 766.024 844.244 766 844.157 766H841.925C841.837 766 841.752 766.024 841.678 766.07C841.604 766.116 841.545 766.181 841.507 766.26L841.323 766.625H838.979C838.896 766.625 838.817 766.658 838.758 766.717C838.699 766.775 838.667 766.855 838.667 766.937V767.563C838.667 767.645 838.699 767.725 838.758 767.783C838.817 767.842 838.896 767.875 838.979 767.875H847.107C847.187 767.875 847.267 767.842 847.327 767.783C847.387 767.725 847.413 767.645 847.413 767.563V766.937C847.413 766.855 847.387 766.775 847.327 766.717C847.267 766.658 847.187 766.625 847.107 766.625ZM839.706 775.121C839.721 775.359 839.826 775.583 839.999 775.746C840.173 775.909 840.403 776 840.641 776H845.442C845.681 776 845.91 775.909 846.084 775.746C846.257 775.583 846.363 775.359 846.377 775.121L846.793 768.5H839.291L839.706 775.121Z" fill="#743e29"/>
<path fill-rule="evenodd" clip-rule="evenodd" d="M440 864C447.364 864 453.333 858.033 453.333 850.667C453.333 843.303 447.364 837.333 440 837.333C432.636 837.333 426.667 843.303 426.667 850.667C426.667 858.033 432.636 864 440 864ZM443.167 847.333C443.167 849.173 441.675 850.667 439.833 850.667C437.992 850.667 436.5 849.173 436.5 847.333C436.5 845.492 437.992 844 439.833 844C441.675 844 443.167 845.492 443.167 847.333ZM441.732 851.5H442.167C444.099 851.5 445.667 853.067 445.667 855V856.08C445.667 856.773 445.107 857.333 444.417 857.333H435.25C434.56 857.333 434 856.773 434 856.08V855C434 853.067 435.568 851.5 437.5 851.5H437.935C438.515 851.767 439.156 851.92 439.833 851.92C440.511 851.92 441.153 851.767 441.732 851.5Z" fill="#743e29"/>
<path d="M594 847.333H474.667C473.562 847.333 472.667 848.229 472.667 849.333V852C472.667 853.105 473.562 854 474.667 854H594C595.104 854 596 853.105 596 852V849.333C596 848.229 595.104 847.333 594 847.333Z" fill="#f2a587"/>
<path d="M694 847.333H624.667C623.562 847.333 622.667 848.229 622.667 849.333V852C622.667 853.105 623.562 854 624.667 854H694C695.105 854 696 853.105 696 852V849.333C696 848.229 695.105 847.333 694 847.333Z" fill="#f2a587"/>
<path d="M794 847.333H724.667C723.562 847.333 722.667 848.229 722.667 849.333V852C722.667 853.105 723.562 854 724.667 854H794C795.105 854 796 853.105 796 852V849.333C796 848.229 795.105 847.333 794 847.333Z" fill="#f2a587"/>
<path d="M821.865 847.627L823.627 849.387C823.701 849.46 823.701 849.58 823.627 849.653L819.361 853.92L817.547 854.12C817.305 854.153 817.1 853.947 817.127 853.7L817.329 851.887L821.595 847.627C821.669 847.547 821.791 847.547 821.865 847.627ZM825.029 847.173L824.076 846.223C823.779 845.926 823.297 845.926 822.998 846.223L822.306 846.913C822.232 846.987 822.232 847.107 822.306 847.187L824.069 848.947C824.143 849.02 824.264 849.02 824.338 848.947L825.029 848.253C825.327 847.953 825.327 847.473 825.029 847.173ZM821.501 852.76V854.747H815.25V848.5H819.739C819.802 848.5 819.861 848.473 819.905 848.433L820.687 847.647C820.835 847.5 820.73 847.247 820.521 847.247H814.938C814.42 847.247 814 847.667 814 848.187V855.06C814 855.58 814.42 856 814.938 856H821.814C822.332 856 822.752 855.58 822.752 855.06V851.98C822.752 851.773 822.5 851.667 822.351 851.813L821.57 852.593C821.527 852.64 821.501 852.7 821.501 852.76Z" fill="#743e29"/>
<path d="M847.107 846.625H844.761L844.577 846.26C844.538 846.182 844.478 846.116 844.404 846.07C844.329 846.024 844.244 846 844.157 846H841.925C841.837 846 841.752 846.024 841.678 846.07C841.604 846.116 841.545 846.181 841.507 846.26L841.323 846.625H838.979C838.896 846.625 838.817 846.658 838.758 846.713C838.699 846.773 838.667 846.853 838.667 846.94V847.56C838.667 847.647 838.699 847.727 838.758 847.787C838.817 847.84 838.896 847.873 838.979 847.873H847.107C847.187 847.873 847.267 847.84 847.327 847.787C847.387 847.727 847.413 847.647 847.413 847.56V846.94C847.413 846.853 847.387 846.773 847.327 846.713C847.267 846.658 847.187 846.625 847.107 846.625ZM839.706 855.12C839.721 855.36 839.826 855.58 839.999 855.747C840.173 855.907 840.403 856 840.641 856H845.442C845.681 856 845.91 855.907 846.084 855.747C846.257 855.58 846.363 855.36 846.377 855.12L846.793 848.5H839.291L839.706 855.12Z" fill="#743e29"/>
<path fill-rule="evenodd" clip-rule="evenodd" d="M440 824C447.364 824 453.333 818.031 453.333 810.667C453.333 803.303 447.364 797.333 440 797.333C432.636 797.333 426.667 803.303 426.667 810.667C426.667 818.031 432.636 824 440 824ZM443.167 807.333C443.167 809.175 441.675 810.667 439.833 810.667C437.992 810.667 436.5 809.175 436.5 807.333C436.5 805.492 437.992 804 439.833 804C441.675 804 443.167 805.492 443.167 807.333ZM441.732 811.5H442.167C444.099 811.5 445.667 813.068 445.667 815V816.083C445.667 816.773 445.107 817.333 444.417 817.333H435.25C434.56 817.333 434 816.773 434 816.083V815C434 813.068 435.568 811.5 437.5 811.5H437.935C438.515 811.765 439.156 811.917 439.833 811.917C440.511 811.917 441.153 811.765 441.732 811.5Z" fill="#743e29"/>
<path d="M594 807.333H474.667C473.562 807.333 472.667 808.229 472.667 809.333V812C472.667 813.105 473.562 814 474.667 814H594C595.104 814 596 813.105 596 812V809.333C596 808.229 595.104 807.333 594 807.333Z" fill="#f2a587"/>
<path d="M694 807.333H624.667C623.562 807.333 622.667 808.229 622.667 809.333V812C622.667 813.105 623.562 814 624.667 814H694C695.105 814 696 813.105 696 812V809.333C696 808.229 695.105 807.333 694 807.333Z" fill="#f2a587"/>
<path d="M794 807.333H724.667C723.562 807.333 722.667 808.229 722.667 809.333V812C722.667 813.105 723.562 814 724.667 814H794C795.105 814 796 813.105 796 812V809.333C796 808.229 795.105 807.333 794 807.333Z" fill="#f2a587"/>
<path d="M821.865 807.623L823.627 809.385C823.701 809.459 823.701 809.581 823.627 809.655L819.361 813.921L817.547 814.123C817.305 814.15 817.1 813.945 817.127 813.703L817.329 811.89L821.595 807.623C821.669 807.549 821.791 807.549 821.865 807.623ZM825.029 807.176L824.076 806.223C823.779 805.926 823.297 805.926 822.998 806.223L822.306 806.914C822.232 806.989 822.232 807.109 822.306 807.184L824.069 808.946C824.143 809.02 824.264 809.02 824.338 808.946L825.029 808.255C825.327 807.955 825.327 807.473 825.029 807.176ZM821.501 812.761V814.75H815.25V808.499H819.739C819.802 808.499 819.861 808.473 819.905 808.43L820.687 807.649C820.835 807.5 820.73 807.248 820.521 807.248H814.938C814.42 807.248 814 807.668 814 808.186V815.062C814 815.58 814.42 816 814.938 816H821.814C822.332 816 822.752 815.58 822.752 815.062V811.98C822.752 811.771 822.5 811.667 822.351 811.813L821.57 812.595C821.527 812.64 821.501 812.699 821.501 812.761Z" fill="#743e29"/>
<path d="M847.107 806.625H844.761L844.577 806.26C844.538 806.182 844.478 806.116 844.404 806.07C844.329 806.024 844.244 806 844.157 806H841.925C841.837 806 841.752 806.024 841.678 806.07C841.604 806.116 841.545 806.181 841.507 806.26L841.323 806.625H838.979C838.896 806.625 838.817 806.658 838.758 806.717C838.699 806.775 838.667 806.855 838.667 806.937V807.563C838.667 807.645 838.699 807.725 838.758 807.783C838.817 807.842 838.896 807.875 838.979 807.875H847.107C847.187 807.875 847.267 807.842 847.327 807.783C847.387 807.725 847.413 807.645 847.413 807.563V806.937C847.413 806.855 847.387 806.775 847.327 806.717C847.267 806.658 847.187 806.625 847.107 806.625ZM839.706 815.121C839.721 815.359 839.826 815.583 839.999 815.746C840.173 815.909 840.403 816 840.641 816H845.442C845.681 816 845.91 815.909 846.084 815.746C846.257 815.583 846.363 815.359 846.377 815.121L846.793 808.5H839.291L839.706 815.121Z" fill="#743e29"/>
<path d="M874 790H405.333V790.667H874V790Z" fill="#fef9f6"/>
<path d="M874 830.667H405.333V831.333H874V830.667Z" fill="#fef9f6"/>
<path d="M874 260H736V398H874V260Z" fill="#fbdfd4"/>
<path d="M779.292 293.63C779.302 293.531 779.333 293.437 779.333 293.339C779.333 291.5 777.839 290.005 776 290.005C775.344 290.005 774.739 290.203 774.224 290.526C773.307 288.505 771.281 287.089 768.917 287.089C765.698 287.089 763.083 289.698 763.083 292.922C763.083 293.078 763.12 293.224 763.13 293.375C760.547 293.568 758.5 295.703 758.5 298.339C758.5 301.099 760.739 303.339 763.5 303.339H777.667C780.427 303.339 782.667 301.099 782.667 298.339C782.667 296.146 781.25 294.307 779.292 293.63ZM756.875 292.453C754.599 290.177 754.599 286.479 756.875 284.208C759.151 281.932 762.849 281.932 765.125 284.208C765.63 284.713 766.005 285.297 766.287 285.911C766.797 285.719 767.333 285.599 767.885 285.521L769.437 280.891C769.646 280.271 769.057 279.687 768.437 279.891L763.865 281.417L761.703 277.104C761.417 276.521 760.583 276.521 760.292 277.104L758.135 281.417L753.557 279.891C752.943 279.687 752.354 280.276 752.557 280.891L754.083 285.463L749.771 287.625C749.187 287.917 749.187 288.745 749.771 289.037L754.083 291.193L752.557 295.765C752.349 296.385 752.937 296.969 753.557 296.765L757.521 295.448C757.839 294.802 758.25 294.213 758.75 293.703C758.068 293.422 757.427 293.005 756.875 292.453ZM756.625 288.328C756.625 290.453 758.151 292.224 760.161 292.615C760.578 292.37 761.011 292.156 761.474 292.005C761.755 289.698 763.089 287.708 764.985 286.537C764.297 285.021 762.771 283.959 761 283.959C758.589 283.959 756.625 285.917 756.625 288.328Z" fill="#743e29"/>
<path d="M824.081 300H836.525V296.983H829.195V296.863L831.743 294.367C835.331 291.094 836.295 289.457 836.295 287.471C836.295 284.446 833.823 282.307 830.081 282.307C826.417 282.307 823.903 284.497 823.911 287.923H827.414C827.405 286.253 828.462 285.23 830.056 285.23C831.59 285.23 832.732 286.185 832.732 287.719C832.732 289.108 831.88 290.063 830.295 291.588L824.081 297.341V300ZM845.514 282.307C841.611 282.29 838.977 284.847 838.994 288.358C839.003 291.613 841.261 293.975 844.355 293.975C846.273 293.975 847.98 293.045 848.753 291.511H848.873C848.867 294.971 847.66 297.077 845.386 297.077C844.048 297.077 843.085 296.344 842.804 295.074H839.165C839.505 298.014 841.892 300.239 845.386 300.239C849.707 300.239 852.493 296.744 852.487 290.821C852.48 284.497 849.1 282.324 845.514 282.307ZM845.539 285.205C847.233 285.205 848.487 286.585 848.507 288.247C848.513 289.917 847.193 291.298 845.505 291.298C843.801 291.298 842.582 289.969 842.573 288.256C842.557 286.551 843.827 285.205 845.539 285.205ZM859.14 290.804C861.46 290.804 863.327 288.929 863.327 286.619C863.327 284.301 861.46 282.426 859.14 282.426C856.833 282.426 854.96 284.301 854.96 286.619C854.96 288.929 856.833 290.804 859.14 290.804ZM859.14 288.383C858.173 288.383 857.38 287.591 857.38 286.619C857.38 285.639 858.173 284.847 859.14 284.847C860.12 284.847 860.907 285.639 860.907 286.619C860.907 287.591 860.12 288.383 859.14 288.383Z" fill="#743e29"/>
<path fill-rule="evenodd" clip-rule="evenodd" d="M874 361.772V398H736V348.585C741.705 350.296 747.047 360.408 752.117 370.003C757.09 379.417 761.801 388.333 766.333 388.333C772.252 388.333 775.901 381.927 779.598 375.433C783.397 368.763 787.248 362 793.667 362C800.13 362 803.643 366.166 807.083 370.247C810.385 374.163 813.62 378 819.333 378C824.315 378 826.684 370.523 829.397 361.955C833.039 350.459 837.301 337 849.333 337C857.9 337 860.86 343.607 863.733 350.028C866.14 355.395 868.487 360.633 874 361.772Z" fill="#743e29"/>
<path d="M709.333 260H571.333V398H709.333V260Z" fill="#fbdfd4"/>
<path d="M634.431 334.167V293.383C634.431 291.741 632.991 290.392 631.37 290.623C610.925 293.517 595.296 311.411 596.024 332.856C596.772 354.88 615.701 372.941 637.696 372.664C646.343 372.555 654.333 369.764 660.903 365.096C662.258 364.133 662.347 362.135 661.172 360.957L634.431 334.167Z" fill="#8e4c32"/>
<path d="M645.549 284.673C666.045 286.089 682.423 302.496 683.836 323.029C683.945 324.596 682.627 325.916 681.059 325.916H642.667V287.457C642.667 285.886 643.984 284.565 645.549 284.673Z" fill="#f2a587"/>
<path d="M645.841 334.167H686.552C688.191 334.167 689.537 335.609 689.307 337.235C687.967 346.731 683.4 355.179 676.761 361.445C675.695 362.451 673.99 362.367 672.953 361.329L645.841 334.167Z" fill="#b25f3e"/>
<path d="M544.667 260H406.667V398H544.667V260Z" fill="#fbdfd4"/>
<g opacity="0.15">
<path d="M380 233.333H180V900H380V233.333Z" fill="#fbdfd4"/>
<path d="M338 260H195.333C194.229 260 193.333 260.895 193.333 262V264.667C193.333 265.771 194.229 266.667 195.333 266.667H338C339.105 266.667 340 265.771 340 264.667V262C340 260.895 339.105 260 338 260Z" fill="#f2a587"/>
<path d="M366.101 263.775L361.04 268.836C360.796 269.081 360.4 269.081 360.156 268.836L359.566 268.246C359.322 268.003 359.321 267.607 359.565 267.363L363.575 263.333L359.565 259.303C359.321 259.059 359.322 258.665 359.566 258.421L360.156 257.831C360.4 257.586 360.796 257.586 361.04 257.831L366.101 262.891C366.345 263.135 366.345 263.531 366.101 263.775Z" fill="#743e29"/>
<path d="M380 290.667H180V290H380V290.667Z" fill="#fef9f6"/>
<path d="M338 368H195.333C194.229 368 193.333 368.895 193.333 370V372.667C193.333 373.771 194.229 374.667 195.333 374.667H338C339.105 374.667 340 373.771 340 372.667V370C340 368.895 339.105 368 338 368Z" fill="#f2a587"/>
<path d="M366.101 371.775L361.04 376.836C360.796 377.081 360.4 377.081 360.156 376.836L359.566 376.246C359.322 376.003 359.321 375.607 359.565 375.363L363.575 371.333L359.565 367.303C359.321 367.059 359.322 366.665 359.566 366.421L360.156 365.831C360.4 365.586 360.796 365.586 361.04 365.831L366.101 370.891C366.345 371.135 366.345 371.531 366.101 371.775Z" fill="#743e29"/>
<path d="M380 398.667H180V398H380V398.667Z" fill="#fef9f6"/>
<path d="M338 314H195.333C194.229 314 193.333 314.895 193.333 316V318.667C193.333 319.771 194.229 320.667 195.333 320.667H338C339.105 320.667 340 319.771 340 318.667V316C340 314.895 339.105 314 338 314Z" fill="#f2a587"/>
<path d="M366.101 317.775L361.04 322.836C360.796 323.081 360.4 323.081 360.156 322.836L359.566 322.246C359.322 322.003 359.321 321.607 359.565 321.363L363.575 317.333L359.565 313.303C359.321 313.059 359.322 312.665 359.566 312.421L360.156 311.831C360.4 311.586 360.796 311.586 361.04 311.831L366.101 316.891C366.345 317.135 366.345 317.531 366.101 317.775Z" fill="#743e29"/>
<path d="M380 344.667H180V344H380V344.667Z" fill="#fef9f6"/>
<path d="M338 422H195.333C194.229 422 193.333 422.895 193.333 424V426.667C193.333 427.771 194.229 428.667 195.333 428.667H338C339.105 428.667 340 427.771 340 426.667V424C340 422.895 339.105 422 338 422Z" fill="#f2a587"/>
<path d="M366.101 425.775L361.04 430.836C360.796 431.081 360.4 431.081 360.156 430.836L359.566 430.246C359.322 430.003 359.321 429.607 359.565 429.363L363.575 425.333L359.565 421.303C359.321 421.059 359.322 420.665 359.566 420.421L360.156 419.831C360.4 419.586 360.796 419.586 361.04 419.831L366.101 424.891C366.345 425.135 366.345 425.531 366.101 425.775Z" fill="#743e29"/>
<path d="M380 452.667H180V452H380V452.667Z" fill="#fef9f6"/>
<path d="M314.667 873.333H245.333C244.229 873.333 243.333 874.229 243.333 875.333V878C243.333 879.105 244.229 880 245.333 880H314.667C315.771 880 316.667 879.105 316.667 878V875.333C316.667 874.229 315.771 873.333 314.667 873.333Z" fill="#f2a587"/>
<path d="M900 180H180V233.333H900V180Z" fill="#743e29"/>
<path d="M843.333 203.333H767.333C766.229 203.333 765.333 204.229 765.333 205.333V208C765.333 209.105 766.229 210 767.333 210H843.333C844.438 210 845.333 209.105 845.333 208V205.333C845.333 204.229 844.438 203.333 843.333 203.333Z" fill="#f2a587"/>
</g>
<path d="M867.06 210.101L862 205.04C861.753 204.796 861.753 204.4 862 204.156L862.587 203.566C862.833 203.322 863.227 203.322 863.473 203.565L867.5 207.576L871.527 203.565C871.773 203.322 872.167 203.322 872.413 203.566L873 204.156C873.247 204.4 873.247 204.796 873 205.04L867.94 210.101C867.7 210.345 867.3 210.345 867.06 210.101Z" fill="#fef9f6"/>
<path d="M194.345 212.667H196.805V208.894H198.873C201.549 208.894 203.106 207.297 203.106 204.973C203.106 202.661 201.578 201.03 198.936 201.03H194.345V212.667ZM196.805 206.922V203.042H198.464C199.885 203.042 200.572 203.814 200.572 204.973C200.572 206.127 199.885 206.922 198.475 206.922H196.805ZM208.495 212.837C210.654 212.837 212.109 211.786 212.45 210.167L210.211 210.019C209.967 210.684 209.342 211.03 208.535 211.03C207.325 211.03 206.558 210.229 206.558 208.928V208.922H212.501V208.258C212.501 205.292 210.706 203.826 208.399 203.826C205.831 203.826 204.166 205.65 204.166 208.343C204.166 211.11 205.808 212.837 208.495 212.837ZM206.558 207.422C206.609 206.428 207.365 205.633 208.439 205.633C209.49 205.633 210.217 206.383 210.223 207.422H206.558ZM218.723 203.939H217.081V201.848H214.66V203.939H213.467V205.758H214.66V210.303C214.649 212.013 215.814 212.86 217.569 212.786C218.194 212.763 218.637 212.638 218.882 212.559L218.501 210.758C218.382 210.78 218.126 210.837 217.899 210.837C217.416 210.837 217.081 210.655 217.081 209.985V205.758H218.723V203.939ZM224.183 212.837C226.342 212.837 227.796 211.786 228.137 210.167L225.899 210.019C225.654 210.684 225.029 211.03 224.223 211.03C223.012 211.03 222.245 210.229 222.245 208.928V208.922H228.189V208.258C228.189 205.292 226.393 203.826 224.086 203.826C221.518 203.826 219.853 205.65 219.853 208.343C219.853 211.11 221.495 212.837 224.183 212.837ZM222.245 207.422C222.296 206.428 223.052 205.633 224.126 205.633C225.177 205.633 225.904 206.383 225.91 207.422H222.245ZM229.768 212.667H232.189V207.729C232.189 206.655 232.973 205.917 234.041 205.917C234.376 205.917 234.836 205.973 235.064 206.047V203.9C234.848 203.848 234.546 203.814 234.302 203.814C233.325 203.814 232.524 204.383 232.206 205.462H232.115V203.939H229.768V212.667ZM238.609 201.03H236.791V202.269C236.791 203.229 236.45 203.928 236.069 204.53L237.137 205.161C237.939 204.491 238.609 203.297 238.609 202.258V201.03ZM246.389 206.428C246.173 204.82 244.877 203.826 242.673 203.826C240.44 203.826 238.968 204.86 238.974 206.542C238.968 207.848 239.792 208.695 241.497 209.036L243.008 209.337C243.769 209.491 244.116 209.769 244.127 210.206C244.116 210.723 243.554 211.093 242.707 211.093C241.843 211.093 241.269 210.723 241.122 210.013L238.741 210.138C238.968 211.809 240.389 212.837 242.701 212.837C244.963 212.837 246.582 211.684 246.588 209.962C246.582 208.701 245.758 207.945 244.065 207.598L242.485 207.28C241.673 207.104 241.372 206.826 241.377 206.405C241.372 205.883 241.963 205.542 242.713 205.542C243.554 205.542 244.054 206.002 244.173 206.564L246.389 206.428ZM251.729 204.667H253.548V203.428C253.548 202.536 253.843 201.837 254.269 201.167L253.201 200.536C252.411 201.178 251.729 202.4 251.729 203.439V204.667ZM255.735 212.667H258.195V208.894H260.264C262.94 208.894 264.497 207.297 264.497 204.973C264.497 202.661 262.968 201.03 260.326 201.03H255.735V212.667ZM258.195 206.922V203.042H259.855C261.275 203.042 261.963 203.814 261.963 204.973C261.963 206.127 261.275 206.922 259.866 206.922H258.195ZM271.646 208.951C271.651 210.121 270.851 210.735 269.981 210.735C269.066 210.735 268.475 210.093 268.47 209.064V203.939H266.049V209.496C266.055 211.536 267.248 212.78 269.004 212.78C270.316 212.78 271.259 212.104 271.651 211.081H271.743V212.667H274.066V203.939H271.646V208.951ZM280.645 203.939H279.003V201.848H276.582V203.939H275.389V205.758H276.582V210.303C276.571 212.013 277.735 212.86 279.491 212.786C280.116 212.763 280.559 212.638 280.803 212.559L280.423 210.758C280.303 210.78 280.048 210.837 279.821 210.837C279.337 210.837 279.003 210.655 279.003 209.985V205.758H280.645V203.939ZM286.105 212.837C288.264 212.837 289.718 211.786 290.059 210.167L287.821 210.019C287.576 210.684 286.951 211.03 286.145 211.03C284.934 211.03 284.167 210.229 284.167 208.928V208.922H290.11V208.258C290.11 205.292 288.315 203.826 286.008 203.826C283.44 203.826 281.775 205.65 281.775 208.343C281.775 211.11 283.417 212.837 286.105 212.837ZM284.167 207.422C284.218 206.428 284.974 205.633 286.048 205.633C287.099 205.633 287.826 206.383 287.832 207.422H284.167ZM291.69 212.667H294.11V207.729C294.11 206.655 294.895 205.917 295.963 205.917C296.298 205.917 296.758 205.973 296.985 206.047V203.9C296.769 203.848 296.468 203.814 296.224 203.814C295.247 203.814 294.445 204.383 294.127 205.462H294.037V203.939H291.69V212.667ZM305.498 206.428C305.282 204.82 303.987 203.826 301.782 203.826C299.549 203.826 298.077 204.86 298.083 206.542C298.077 207.848 298.901 208.695 300.606 209.036L302.117 209.337C302.879 209.491 303.225 209.769 303.237 210.206C303.225 210.723 302.663 211.093 301.816 211.093C300.953 211.093 300.379 210.723 300.231 210.013L297.851 210.138C298.077 211.809 299.498 212.837 301.811 212.837C304.072 212.837 305.691 211.684 305.697 209.962C305.691 208.701 304.867 207.945 303.174 207.598L301.595 207.28C300.782 207.104 300.481 206.826 300.487 206.405C300.481 205.883 301.072 205.542 301.822 205.542C302.663 205.542 303.163 206.002 303.282 206.564L305.498 206.428ZM315.095 212.667C318.64 212.667 320.788 210.473 320.788 206.837C320.788 203.212 318.64 201.03 315.129 201.03H310.97V212.667H315.095ZM313.43 210.559V203.138H314.998C317.18 203.138 318.333 204.252 318.333 206.837C318.333 209.434 317.18 210.559 314.993 210.559H313.43ZM325.053 212.831C326.343 212.831 327.179 212.269 327.605 211.456H327.673V212.667H329.968V206.78C329.968 204.701 328.207 203.826 326.264 203.826C324.173 203.826 322.798 204.826 322.463 206.417L324.701 206.598C324.866 206.019 325.383 205.593 326.253 205.593C327.076 205.593 327.548 206.008 327.548 206.723V206.758C327.548 207.32 326.951 207.394 325.434 207.542C323.707 207.701 322.156 208.28 322.156 210.229C322.156 211.956 323.389 212.831 325.053 212.831ZM325.747 211.161C325.003 211.161 324.468 210.814 324.468 210.15C324.468 209.468 325.031 209.133 325.883 209.013C326.411 208.939 327.275 208.814 327.565 208.621V209.547C327.565 210.462 326.809 211.161 325.747 211.161ZM339.107 206.428C338.891 204.82 337.596 203.826 335.391 203.826C333.159 203.826 331.687 204.86 331.693 206.542C331.687 207.848 332.511 208.695 334.215 209.036L335.727 209.337C336.488 209.491 336.835 209.769 336.846 210.206C336.835 210.723 336.272 211.093 335.425 211.093C334.562 211.093 333.988 210.723 333.841 210.013L331.46 210.138C331.687 211.809 333.107 212.837 335.42 212.837C337.681 212.837 339.301 211.684 339.307 209.962C339.301 208.701 338.477 207.945 336.783 207.598L335.204 207.28C334.391 207.104 334.091 206.826 334.096 206.405C334.091 205.883 334.681 205.542 335.431 205.542C336.272 205.542 336.772 206.002 336.891 206.564L339.107 206.428ZM343.251 207.621C343.257 206.496 343.944 205.837 344.933 205.837C345.916 205.837 346.495 206.468 346.489 207.542V212.667H348.91V207.11C348.916 205.064 347.711 203.826 345.893 203.826C344.569 203.826 343.683 204.451 343.285 205.479H343.183V201.03H340.831V212.667H343.251V207.621ZM350.86 212.667H353.247V211.269H353.355C353.69 211.996 354.423 212.809 355.832 212.809C357.821 212.809 359.372 211.235 359.372 208.314C359.372 205.314 357.753 203.826 355.837 203.826C354.377 203.826 353.679 204.695 353.355 205.405H353.281V201.03H350.86V212.667ZM353.229 208.303C353.229 206.746 353.889 205.752 355.065 205.752C356.264 205.752 356.9 206.792 356.9 208.303C356.9 209.826 356.253 210.883 355.065 210.883C353.9 210.883 353.229 209.86 353.229 208.303ZM364.93 212.837C367.577 212.837 369.225 211.025 369.225 208.337C369.225 205.633 367.577 203.826 364.93 203.826C362.282 203.826 360.635 205.633 360.635 208.337C360.635 211.025 362.282 212.837 364.93 212.837ZM364.941 210.962C363.72 210.962 363.095 209.843 363.095 208.32C363.095 206.797 363.72 205.672 364.941 205.672C366.14 205.672 366.765 206.797 366.765 208.32C366.765 209.843 366.14 210.962 364.941 210.962ZM373.288 212.831C374.577 212.831 375.413 212.269 375.839 211.456H375.907V212.667H378.203V206.78C378.203 204.701 376.441 203.826 374.498 203.826C372.407 203.826 371.032 204.826 370.697 206.417L372.935 206.598C373.101 206.019 373.617 205.593 374.487 205.593C375.311 205.593 375.782 206.008 375.782 206.723V206.758C375.782 207.32 375.185 207.394 373.669 207.542C371.941 207.701 370.39 208.28 370.39 210.229C370.39 211.956 371.623 212.831 373.288 212.831ZM373.981 211.161C373.237 211.161 372.703 210.814 372.703 210.15C372.703 209.468 373.265 209.133 374.117 209.013C374.646 208.939 375.509 208.814 375.799 208.621V209.547C375.799 210.462 375.043 211.161 373.981 211.161ZM380.081 212.667H382.501V207.729C382.501 206.655 383.285 205.917 384.353 205.917C384.689 205.917 385.149 205.973 385.376 206.047V203.9C385.16 203.848 384.859 203.814 384.615 203.814C383.637 203.814 382.836 204.383 382.518 205.462H382.427V203.939H380.081V212.667ZM389.437 212.809C390.846 212.809 391.579 211.996 391.914 211.269H392.017V212.667H394.403V201.03H391.988V205.405H391.914C391.591 204.695 390.891 203.826 389.431 203.826C387.517 203.826 385.897 205.314 385.897 208.314C385.897 211.235 387.449 212.809 389.437 212.809ZM390.204 210.883C389.017 210.883 388.369 209.826 388.369 208.303C388.369 206.792 389.005 205.752 390.204 205.752C391.38 205.752 392.039 206.746 392.039 208.303C392.039 209.86 391.369 210.883 390.204 210.883Z" fill="#fef9f6"/>
<path d="M488.333 342.167H494.833C495.917 342.167 497 341.083 497 340V317.25C497 316.167 495.917 315.083 494.833 315.083H488.333C487.25 315.083 486.167 316.167 486.167 317.25V340C486.167 341.083 487.25 342.167 488.333 342.167ZM455.833 342.167H462.333C463.417 342.167 464.5 341.083 464.5 340V328.083C464.5 327 463.417 325.917 462.333 325.917H455.833C454.75 325.917 453.667 327 453.667 328.083V340C453.667 341.083 454.75 342.167 455.833 342.167ZM472.083 342.167H478.583C479.667 342.167 480.75 341.083 480.75 340V306.417C480.75 305.333 479.667 304.25 478.583 304.25H472.083C471 304.25 469.917 305.333 469.917 306.417V340C469.917 341.083 471 342.167 472.083 342.167ZM515.959 353H442.833V301.541C442.833 300.045 441.621 298.833 440.125 298.833H434.708C433.212 298.833 432 300.045 432 301.541V358.417C432 361.408 434.425 363.833 437.417 363.833H515.959C517.455 363.833 518.667 362.621 518.667 361.125V355.708C518.667 354.212 517.455 353 515.959 353Z" fill="#8e4c32"/>
<path d="M511.083 342.167H504.583C503.5 342.167 502.417 341.083 502.417 340V301C502.417 299.917 503.5 298.833 504.583 298.833H511.083C512.167 298.833 513.25 299.917 513.25 301V340C513.25 341.083 512.167 342.167 511.083 342.167Z" fill="#8e4c32"/>
</g>
<rect x="182" y="182" width="716" height="716" stroke="#743e29" stroke-width="4"/>
<defs>
<clipPath id="clip0_109_2932">
<rect x="180" y="180" width="720" height="720" fill="white"/>
</clipPath>
</defs>
</svg>
