<svg width="1080" height="1080" viewBox="0 0 1080 1080" fill="none" xmlns="http://www.w3.org/2000/svg">
<rect width="1080" height="1080" fill="#fef9f6"/>
<g clip-path="url(#clip0_109_3569)">
<rect width="1080" height="1080" fill="#E5E5E5"/>
<path d="M900 180H180V900H900V180Z" fill="#fef9f6"/>
<path d="M874 424.667H736V562.667H874V424.667Z" fill="#fbdfd4"/>
<path d="M874 589.333H406.667V1038H874V589.333Z" fill="#fbdfd4"/>
<path fill-rule="evenodd" clip-rule="evenodd" d="M440 623.333C447.364 623.333 453.333 617.364 453.333 610C453.333 602.636 447.364 596.667 440 596.667C432.636 596.667 426.667 602.636 426.667 610C426.667 617.364 432.636 623.333 440 623.333ZM443.167 606.667C443.167 608.508 441.675 610 439.833 610C437.992 610 436.5 608.508 436.5 606.667C436.5 604.825 437.992 603.333 439.833 603.333C441.675 603.333 443.167 604.825 443.167 606.667ZM441.732 610.833H442.167C444.099 610.833 445.667 612.401 445.667 614.333V615.417C445.667 616.107 445.107 616.667 444.417 616.667H435.25C434.56 616.667 434 616.107 434 615.417V614.333C434 612.401 435.568 610.833 437.5 610.833H437.935C438.515 611.099 439.156 611.25 439.833 611.25C440.511 611.25 441.153 611.099 441.732 610.833Z" fill="#743e29"/>
<path d="M594 606.667H474.667C473.562 606.667 472.667 607.562 472.667 608.667V611.333C472.667 612.438 473.562 613.333 474.667 613.333H594C595.105 613.333 596 612.438 596 611.333V608.667C596 607.562 595.105 606.667 594 606.667Z" fill="#f2a587"/>
<path d="M694 606.667H624.667C623.562 606.667 622.667 607.562 622.667 608.667V611.333C622.667 612.438 623.562 613.333 624.667 613.333H694C695.105 613.333 696 612.438 696 611.333V608.667C696 607.562 695.105 606.667 694 606.667Z" fill="#f2a587"/>
<path d="M794 606.667H724.667C723.562 606.667 722.667 607.562 722.667 608.667V611.333C722.667 612.438 723.562 613.333 724.667 613.333H794C795.105 613.333 796 612.438 796 611.333V608.667C796 607.562 795.105 606.667 794 606.667Z" fill="#f2a587"/>
<path d="M821.865 606.957L823.627 608.719C823.701 608.793 823.701 608.914 823.627 608.989L819.361 613.255L817.547 613.456C817.305 613.483 817.1 613.278 817.127 613.036L817.329 611.223L821.595 606.957C821.669 606.883 821.791 606.883 821.865 606.957ZM825.029 606.509L824.076 605.556C823.779 605.259 823.297 605.259 822.998 605.556L822.306 606.247C822.232 606.322 822.232 606.443 822.306 606.517L824.069 608.279C824.143 608.353 824.264 608.353 824.338 608.279L825.029 607.588C825.327 607.289 825.327 606.806 825.029 606.509ZM821.501 612.095V614.083H815.25V607.832H819.739C819.802 607.832 819.861 607.807 819.905 607.763L820.687 606.982C820.835 606.833 820.73 606.581 820.521 606.581H814.938C814.42 606.581 814 607.001 814 607.519V614.395C814 614.913 814.42 615.333 814.938 615.333H821.814C822.332 615.333 822.752 614.913 822.752 614.395V611.313C822.752 611.104 822.5 611.001 822.351 611.147L821.57 611.929C821.527 611.973 821.501 612.032 821.501 612.095Z" fill="#743e29"/>
<path d="M847.107 605.959H844.761L844.577 605.593C844.538 605.515 844.478 605.449 844.404 605.403C844.329 605.357 844.244 605.333 844.157 605.333H841.925C841.837 605.333 841.752 605.357 841.678 605.403C841.604 605.449 841.545 605.515 841.507 605.593L841.323 605.959H838.979C838.896 605.959 838.817 605.991 838.758 606.05C838.699 606.109 838.667 606.188 838.667 606.271V606.896C838.667 606.979 838.699 607.058 838.758 607.117C838.817 607.175 838.896 607.209 838.979 607.209H847.107C847.187 607.209 847.267 607.175 847.327 607.117C847.387 607.058 847.413 606.979 847.413 606.896V606.271C847.413 606.188 847.387 606.109 847.327 606.05C847.267 605.991 847.187 605.959 847.107 605.959ZM839.706 614.455C839.721 614.693 839.826 614.916 839.999 615.079C840.173 615.243 840.403 615.333 840.641 615.333H845.442C845.681 615.333 845.91 615.243 846.084 615.079C846.257 614.916 846.363 614.693 846.377 614.455L846.793 607.833H839.291L839.706 614.455Z" fill="#743e29"/>
<path fill-rule="evenodd" clip-rule="evenodd" d="M440 786C447.364 786 453.333 780.031 453.333 772.667C453.333 765.303 447.364 759.333 440 759.333C432.636 759.333 426.667 765.303 426.667 772.667C426.667 780.031 432.636 786 440 786ZM443.167 769.333C443.167 771.175 441.675 772.667 439.833 772.667C437.992 772.667 436.5 771.175 436.5 769.333C436.5 767.492 437.992 766 439.833 766C441.675 766 443.167 767.492 443.167 769.333ZM441.732 773.5H442.167C444.099 773.5 445.667 775.068 445.667 777V778.083C445.667 778.773 445.107 779.333 444.417 779.333H435.25C434.56 779.333 434 778.773 434 778.083V777C434 775.068 435.568 773.5 437.5 773.5H437.935C438.515 773.765 439.156 773.917 439.833 773.917C440.511 773.917 441.153 773.765 441.732 773.5Z" fill="#743e29"/>
<path d="M594 769.333H474.667C473.562 769.333 472.667 770.229 472.667 771.333V774C472.667 775.105 473.562 776 474.667 776H594C595.105 776 596 775.105 596 774V771.333C596 770.229 595.105 769.333 594 769.333Z" fill="#f2a587"/>
<path d="M694 769.333H624.667C623.562 769.333 622.667 770.229 622.667 771.333V774C622.667 775.105 623.562 776 624.667 776H694C695.105 776 696 775.105 696 774V771.333C696 770.229 695.105 769.333 694 769.333Z" fill="#f2a587"/>
<path d="M794 769.333H724.667C723.562 769.333 722.667 770.229 722.667 771.333V774C722.667 775.105 723.562 776 724.667 776H794C795.105 776 796 775.105 796 774V771.333C796 770.229 795.105 769.333 794 769.333Z" fill="#f2a587"/>
<path d="M821.865 769.623L823.627 771.385C823.701 771.459 823.701 771.581 823.627 771.655L819.361 775.921L817.547 776.123C817.305 776.15 817.1 775.945 817.127 775.703L817.329 773.89L821.595 769.623C821.669 769.549 821.791 769.549 821.865 769.623ZM825.029 769.176L824.076 768.223C823.779 767.926 823.297 767.926 822.998 768.223L822.306 768.914C822.232 768.989 822.232 769.109 822.306 769.184L824.069 770.946C824.143 771.02 824.264 771.02 824.338 770.946L825.029 770.255C825.327 769.955 825.327 769.473 825.029 769.176ZM821.501 774.761V776.75H815.25V770.499H819.739C819.802 770.499 819.861 770.473 819.905 770.43L820.687 769.649C820.835 769.5 820.73 769.248 820.521 769.248H814.938C814.42 769.248 814 769.668 814 770.186V777.062C814 777.58 814.42 778 814.938 778H821.814C822.332 778 822.752 777.58 822.752 777.062V773.98C822.752 773.771 822.5 773.667 822.351 773.813L821.57 774.595C821.527 774.64 821.501 774.699 821.501 774.761Z" fill="#743e29"/>
<path d="M847.107 768.625H844.761L844.577 768.26C844.538 768.182 844.478 768.116 844.404 768.07C844.329 768.024 844.244 768 844.157 768H841.925C841.837 768 841.752 768.024 841.678 768.07C841.604 768.116 841.545 768.181 841.507 768.26L841.323 768.625H838.979C838.896 768.625 838.817 768.658 838.758 768.717C838.699 768.775 838.667 768.855 838.667 768.937V769.563C838.667 769.645 838.699 769.725 838.758 769.783C838.817 769.842 838.896 769.875 838.979 769.875H847.107C847.187 769.875 847.267 769.842 847.327 769.783C847.387 769.725 847.413 769.645 847.413 769.563V768.937C847.413 768.855 847.387 768.775 847.327 768.717C847.267 768.658 847.187 768.625 847.107 768.625ZM839.706 777.121C839.721 777.359 839.826 777.583 839.999 777.746C840.173 777.909 840.403 778 840.641 778H845.442C845.681 778 845.91 777.909 846.084 777.746C846.257 777.583 846.363 777.359 846.377 777.121L846.793 770.5H839.291L839.706 777.121Z" fill="#743e29"/>
<path fill-rule="evenodd" clip-rule="evenodd" d="M440 703.333C447.364 703.333 453.333 697.364 453.333 690C453.333 682.636 447.364 676.667 440 676.667C432.636 676.667 426.667 682.636 426.667 690C426.667 697.364 432.636 703.333 440 703.333ZM443.167 686.667C443.167 688.508 441.675 690 439.833 690C437.992 690 436.5 688.508 436.5 686.667C436.5 684.825 437.992 683.333 439.833 683.333C441.675 683.333 443.167 684.825 443.167 686.667ZM441.732 690.833H442.167C444.099 690.833 445.667 692.401 445.667 694.333V695.417C445.667 696.107 445.107 696.667 444.417 696.667H435.25C434.56 696.667 434 696.107 434 695.417V694.333C434 692.401 435.568 690.833 437.5 690.833H437.935C438.515 691.099 439.156 691.25 439.833 691.25C440.511 691.25 441.153 691.099 441.732 690.833Z" fill="#743e29"/>
<path d="M594 686.667H474.667C473.562 686.667 472.667 687.562 472.667 688.667V691.333C472.667 692.438 473.562 693.333 474.667 693.333H594C595.105 693.333 596 692.438 596 691.333V688.667C596 687.562 595.105 686.667 594 686.667Z" fill="#f2a587"/>
<path d="M694 686.667H624.667C623.562 686.667 622.667 687.562 622.667 688.667V691.333C622.667 692.438 623.562 693.333 624.667 693.333H694C695.105 693.333 696 692.438 696 691.333V688.667C696 687.562 695.105 686.667 694 686.667Z" fill="#f2a587"/>
<path d="M794 686.667H724.667C723.562 686.667 722.667 687.562 722.667 688.667V691.333C722.667 692.438 723.562 693.333 724.667 693.333H794C795.105 693.333 796 692.438 796 691.333V688.667C796 687.562 795.105 686.667 794 686.667Z" fill="#f2a587"/>
<path d="M821.865 686.957L823.627 688.719C823.701 688.793 823.701 688.914 823.627 688.989L819.361 693.255L817.547 693.456C817.305 693.483 817.1 693.278 817.127 693.036L817.329 691.223L821.595 686.957C821.669 686.883 821.791 686.883 821.865 686.957ZM825.029 686.509L824.076 685.556C823.779 685.259 823.297 685.259 822.998 685.556L822.306 686.247C822.232 686.322 822.232 686.443 822.306 686.517L824.069 688.279C824.143 688.353 824.264 688.353 824.338 688.279L825.029 687.588C825.327 687.289 825.327 686.806 825.029 686.509ZM821.501 692.095V694.083H815.25V687.832H819.739C819.802 687.832 819.861 687.807 819.905 687.763L820.687 686.982C820.835 686.833 820.73 686.581 820.521 686.581H814.938C814.42 686.581 814 687.001 814 687.519V694.395C814 694.913 814.42 695.333 814.938 695.333H821.814C822.332 695.333 822.752 694.913 822.752 694.395V691.313C822.752 691.104 822.5 691.001 822.351 691.147L821.57 691.929C821.527 691.973 821.501 692.032 821.501 692.095Z" fill="#743e29"/>
<path d="M847.107 685.959H844.761L844.577 685.593C844.538 685.515 844.478 685.449 844.404 685.403C844.329 685.357 844.244 685.333 844.157 685.333H841.925C841.837 685.333 841.752 685.357 841.678 685.403C841.604 685.449 841.545 685.515 841.507 685.593L841.323 685.959H838.979C838.896 685.959 838.817 685.991 838.758 686.05C838.699 686.109 838.667 686.188 838.667 686.271V686.896C838.667 686.979 838.699 687.058 838.758 687.117C838.817 687.175 838.896 687.209 838.979 687.209H847.107C847.187 687.209 847.267 687.175 847.327 687.117C847.387 687.058 847.413 686.979 847.413 686.896V686.271C847.413 686.188 847.387 686.109 847.327 686.05C847.267 685.991 847.187 685.959 847.107 685.959ZM839.706 694.455C839.721 694.693 839.826 694.916 839.999 695.079C840.173 695.243 840.403 695.333 840.641 695.333H845.442C845.681 695.333 845.91 695.243 846.084 695.079C846.257 694.916 846.363 694.693 846.377 694.455L846.793 687.833H839.291L839.706 694.455Z" fill="#743e29"/>
<path fill-rule="evenodd" clip-rule="evenodd" d="M440 866C447.364 866 453.333 860.033 453.333 852.667C453.333 845.303 447.364 839.333 440 839.333C432.636 839.333 426.667 845.303 426.667 852.667C426.667 860.033 432.636 866 440 866ZM443.167 849.333C443.167 851.173 441.675 852.667 439.833 852.667C437.992 852.667 436.5 851.173 436.5 849.333C436.5 847.493 437.992 846 439.833 846C441.675 846 443.167 847.493 443.167 849.333ZM441.732 853.5H442.167C444.099 853.5 445.667 855.067 445.667 857V858.08C445.667 858.773 445.107 859.333 444.417 859.333H435.25C434.56 859.333 434 858.773 434 858.08V857C434 855.067 435.568 853.5 437.5 853.5H437.935C438.515 853.767 439.156 853.92 439.833 853.92C440.511 853.92 441.153 853.767 441.732 853.5Z" fill="#743e29"/>
<path d="M594 849.333H474.667C473.562 849.333 472.667 850.229 472.667 851.333V854C472.667 855.105 473.562 856 474.667 856H594C595.105 856 596 855.105 596 854V851.333C596 850.229 595.105 849.333 594 849.333Z" fill="#f2a587"/>
<path d="M694 849.333H624.667C623.562 849.333 622.667 850.229 622.667 851.333V854C622.667 855.105 623.562 856 624.667 856H694C695.105 856 696 855.105 696 854V851.333C696 850.229 695.105 849.333 694 849.333Z" fill="#f2a587"/>
<path d="M794 849.333H724.667C723.562 849.333 722.667 850.229 722.667 851.333V854C722.667 855.105 723.562 856 724.667 856H794C795.105 856 796 855.105 796 854V851.333C796 850.229 795.105 849.333 794 849.333Z" fill="#f2a587"/>
<path d="M821.865 849.627L823.627 851.387C823.701 851.46 823.701 851.58 823.627 851.653L819.361 855.92L817.547 856.12C817.305 856.153 817.1 855.947 817.127 855.7L817.329 853.887L821.595 849.627C821.669 849.547 821.791 849.547 821.865 849.627ZM825.029 849.173L824.076 848.22C823.779 847.927 823.297 847.927 822.998 848.22L822.306 848.913C822.232 848.987 822.232 849.107 822.306 849.187L824.069 850.947C824.143 851.02 824.264 851.02 824.338 850.947L825.029 850.253C825.327 849.953 825.327 849.473 825.029 849.173ZM821.501 854.76V856.747H815.25V850.5H819.739C819.802 850.5 819.861 850.473 819.905 850.433L820.687 849.647C820.835 849.5 820.73 849.247 820.521 849.247H814.938C814.42 849.247 814 849.667 814 850.187V857.06C814 857.58 814.42 858 814.938 858H821.814C822.332 858 822.752 857.58 822.752 857.06V853.98C822.752 853.773 822.5 853.667 822.351 853.813L821.57 854.593C821.527 854.64 821.501 854.7 821.501 854.76Z" fill="#743e29"/>
<path d="M847.107 848.627H844.761L844.577 848.26C844.538 848.18 844.478 848.113 844.404 848.073C844.329 848.027 844.244 848 844.157 848H841.925C841.837 848 841.752 848.027 841.678 848.067C841.604 848.113 841.545 848.18 841.507 848.26L841.323 848.627H838.979C838.896 848.627 838.817 848.66 838.758 848.713C838.699 848.773 838.667 848.853 838.667 848.94V849.56C838.667 849.647 838.699 849.727 838.758 849.787C838.817 849.84 838.896 849.873 838.979 849.873H847.107C847.187 849.873 847.267 849.84 847.327 849.787C847.387 849.727 847.413 849.647 847.413 849.56V848.94C847.413 848.853 847.387 848.773 847.327 848.713C847.267 848.66 847.187 848.627 847.107 848.627ZM839.706 857.12C839.721 857.36 839.826 857.58 839.999 857.747C840.173 857.907 840.403 858 840.641 858H845.442C845.681 858 845.91 857.907 846.084 857.747C846.257 857.58 846.363 857.36 846.377 857.12L846.793 850.5H839.291L839.706 857.12Z" fill="#743e29"/>
<path fill-rule="evenodd" clip-rule="evenodd" d="M440 663.333C447.364 663.333 453.333 657.364 453.333 650C453.333 642.636 447.364 636.667 440 636.667C432.636 636.667 426.667 642.636 426.667 650C426.667 657.364 432.636 663.333 440 663.333ZM443.167 646.667C443.167 648.508 441.675 650 439.833 650C437.992 650 436.5 648.508 436.5 646.667C436.5 644.825 437.992 643.333 439.833 643.333C441.675 643.333 443.167 644.825 443.167 646.667ZM441.732 650.833H442.167C444.099 650.833 445.667 652.401 445.667 654.333V655.417C445.667 656.107 445.107 656.667 444.417 656.667H435.25C434.56 656.667 434 656.107 434 655.417V654.333C434 652.401 435.568 650.833 437.5 650.833H437.935C438.515 651.099 439.156 651.25 439.833 651.25C440.511 651.25 441.153 651.099 441.732 650.833Z" fill="#743e29"/>
<path d="M594 646.667H474.667C473.562 646.667 472.667 647.562 472.667 648.667V651.333C472.667 652.438 473.562 653.333 474.667 653.333H594C595.105 653.333 596 652.438 596 651.333V648.667C596 647.562 595.105 646.667 594 646.667Z" fill="#f2a587"/>
<path d="M694 646.667H624.667C623.562 646.667 622.667 647.562 622.667 648.667V651.333C622.667 652.438 623.562 653.333 624.667 653.333H694C695.105 653.333 696 652.438 696 651.333V648.667C696 647.562 695.105 646.667 694 646.667Z" fill="#f2a587"/>
<path d="M794 646.667H724.667C723.562 646.667 722.667 647.562 722.667 648.667V651.333C722.667 652.438 723.562 653.333 724.667 653.333H794C795.105 653.333 796 652.438 796 651.333V648.667C796 647.562 795.105 646.667 794 646.667Z" fill="#f2a587"/>
<path d="M821.865 646.957L823.627 648.719C823.701 648.793 823.701 648.914 823.627 648.989L819.361 653.255L817.547 653.456C817.305 653.483 817.1 653.278 817.127 653.036L817.329 651.223L821.595 646.957C821.669 646.883 821.791 646.883 821.865 646.957ZM825.029 646.509L824.076 645.556C823.779 645.259 823.297 645.259 822.998 645.556L822.306 646.247C822.232 646.322 822.232 646.443 822.306 646.517L824.069 648.279C824.143 648.353 824.264 648.353 824.338 648.279L825.029 647.588C825.327 647.289 825.327 646.806 825.029 646.509ZM821.501 652.095V654.083H815.25V647.832H819.739C819.802 647.832 819.861 647.807 819.905 647.763L820.687 646.982C820.835 646.833 820.73 646.581 820.521 646.581H814.938C814.42 646.581 814 647.001 814 647.519V654.395C814 654.913 814.42 655.333 814.938 655.333H821.814C822.332 655.333 822.752 654.913 822.752 654.395V651.313C822.752 651.104 822.5 651.001 822.351 651.147L821.57 651.929C821.527 651.973 821.501 652.032 821.501 652.095Z" fill="#743e29"/>
<path d="M847.107 645.959H844.761L844.577 645.593C844.538 645.515 844.478 645.449 844.404 645.403C844.329 645.357 844.244 645.333 844.157 645.333H841.925C841.837 645.333 841.752 645.357 841.678 645.403C841.604 645.449 841.545 645.515 841.507 645.593L841.323 645.959H838.979C838.896 645.959 838.817 645.991 838.758 646.05C838.699 646.109 838.667 646.188 838.667 646.271V646.896C838.667 646.979 838.699 647.058 838.758 647.117C838.817 647.175 838.896 647.209 838.979 647.209H847.107C847.187 647.209 847.267 647.175 847.327 647.117C847.387 647.058 847.413 646.979 847.413 646.896V646.271C847.413 646.188 847.387 646.109 847.327 646.05C847.267 645.991 847.187 645.959 847.107 645.959ZM839.706 654.455C839.721 654.693 839.826 654.916 839.999 655.079C840.173 655.243 840.403 655.333 840.641 655.333H845.442C845.681 655.333 845.91 655.243 846.084 655.079C846.257 654.916 846.363 654.693 846.377 654.455L846.793 647.833H839.291L839.706 654.455Z" fill="#743e29"/>
<path fill-rule="evenodd" clip-rule="evenodd" d="M440 826C447.364 826 453.333 820.031 453.333 812.667C453.333 805.303 447.364 799.333 440 799.333C432.636 799.333 426.667 805.303 426.667 812.667C426.667 820.031 432.636 826 440 826ZM443.167 809.333C443.167 811.175 441.675 812.667 439.833 812.667C437.992 812.667 436.5 811.175 436.5 809.333C436.5 807.492 437.992 806 439.833 806C441.675 806 443.167 807.492 443.167 809.333ZM441.732 813.5H442.167C444.099 813.5 445.667 815.068 445.667 817V818.083C445.667 818.773 445.107 819.333 444.417 819.333H435.25C434.56 819.333 434 818.773 434 818.083V817C434 815.068 435.568 813.5 437.5 813.5H437.935C438.515 813.765 439.156 813.917 439.833 813.917C440.511 813.917 441.153 813.765 441.732 813.5Z" fill="#743e29"/>
<path d="M594 809.333H474.667C473.562 809.333 472.667 810.229 472.667 811.333V814C472.667 815.105 473.562 816 474.667 816H594C595.105 816 596 815.105 596 814V811.333C596 810.229 595.105 809.333 594 809.333Z" fill="#f2a587"/>
<path d="M694 809.333H624.667C623.562 809.333 622.667 810.229 622.667 811.333V814C622.667 815.105 623.562 816 624.667 816H694C695.105 816 696 815.105 696 814V811.333C696 810.229 695.105 809.333 694 809.333Z" fill="#f2a587"/>
<path d="M794 809.333H724.667C723.562 809.333 722.667 810.229 722.667 811.333V814C722.667 815.105 723.562 816 724.667 816H794C795.105 816 796 815.105 796 814V811.333C796 810.229 795.105 809.333 794 809.333Z" fill="#f2a587"/>
<path d="M821.865 809.623L823.627 811.385C823.701 811.459 823.701 811.581 823.627 811.655L819.361 815.921L817.547 816.123C817.305 816.15 817.1 815.945 817.127 815.703L817.329 813.89L821.595 809.623C821.669 809.549 821.791 809.549 821.865 809.623ZM825.029 809.176L824.076 808.223C823.779 807.926 823.297 807.926 822.998 808.223L822.306 808.914C822.232 808.989 822.232 809.109 822.306 809.184L824.069 810.946C824.143 811.02 824.264 811.02 824.338 810.946L825.029 810.255C825.327 809.955 825.327 809.473 825.029 809.176ZM821.501 814.761V816.75H815.25V810.499H819.739C819.802 810.499 819.861 810.473 819.905 810.43L820.687 809.649C820.835 809.5 820.73 809.248 820.521 809.248H814.938C814.42 809.248 814 809.668 814 810.186V817.062C814 817.58 814.42 818 814.938 818H821.814C822.332 818 822.752 817.58 822.752 817.062V813.98C822.752 813.771 822.5 813.667 822.351 813.813L821.57 814.595C821.527 814.64 821.501 814.699 821.501 814.761Z" fill="#743e29"/>
<path d="M847.107 808.625H844.761L844.577 808.26C844.538 808.182 844.478 808.116 844.404 808.07C844.329 808.024 844.244 808 844.157 808H841.925C841.837 808 841.752 808.024 841.678 808.07C841.604 808.116 841.545 808.181 841.507 808.26L841.323 808.625H838.979C838.896 808.625 838.817 808.658 838.758 808.717C838.699 808.775 838.667 808.855 838.667 808.937V809.563C838.667 809.645 838.699 809.725 838.758 809.783C838.817 809.842 838.896 809.875 838.979 809.875H847.107C847.187 809.875 847.267 809.842 847.327 809.783C847.387 809.725 847.413 809.645 847.413 809.563V808.937C847.413 808.855 847.387 808.775 847.327 808.717C847.267 808.658 847.187 808.625 847.107 808.625ZM839.706 817.121C839.721 817.359 839.826 817.583 839.999 817.746C840.173 817.909 840.403 818 840.641 818H845.442C845.681 818 845.91 817.909 846.084 817.746C846.257 817.583 846.363 817.359 846.377 817.121L846.793 810.5H839.291L839.706 817.121Z" fill="#743e29"/>
<path fill-rule="evenodd" clip-rule="evenodd" d="M440 743.333C447.364 743.333 453.333 737.364 453.333 730C453.333 722.636 447.364 716.667 440 716.667C432.636 716.667 426.667 722.636 426.667 730C426.667 737.364 432.636 743.333 440 743.333ZM443.167 726.667C443.167 728.508 441.675 730 439.833 730C437.992 730 436.5 728.508 436.5 726.667C436.5 724.825 437.992 723.333 439.833 723.333C441.675 723.333 443.167 724.825 443.167 726.667ZM441.732 730.833H442.167C444.099 730.833 445.667 732.401 445.667 734.333V735.417C445.667 736.107 445.107 736.667 444.417 736.667H435.25C434.56 736.667 434 736.107 434 735.417V734.333C434 732.401 435.568 730.833 437.5 730.833H437.935C438.515 731.099 439.156 731.25 439.833 731.25C440.511 731.25 441.153 731.099 441.732 730.833Z" fill="#743e29"/>
<path d="M594 726.667H474.667C473.562 726.667 472.667 727.562 472.667 728.667V731.333C472.667 732.438 473.562 733.333 474.667 733.333H594C595.105 733.333 596 732.438 596 731.333V728.667C596 727.562 595.105 726.667 594 726.667Z" fill="#f2a587"/>
<path d="M694 726.667H624.667C623.562 726.667 622.667 727.562 622.667 728.667V731.333C622.667 732.438 623.562 733.333 624.667 733.333H694C695.105 733.333 696 732.438 696 731.333V728.667C696 727.562 695.105 726.667 694 726.667Z" fill="#f2a587"/>
<path d="M794 726.667H724.667C723.562 726.667 722.667 727.562 722.667 728.667V731.333C722.667 732.438 723.562 733.333 724.667 733.333H794C795.105 733.333 796 732.438 796 731.333V728.667C796 727.562 795.105 726.667 794 726.667Z" fill="#f2a587"/>
<path d="M821.865 726.957L823.627 728.719C823.701 728.793 823.701 728.914 823.627 728.989L819.361 733.255L817.547 733.456C817.305 733.483 817.1 733.278 817.127 733.036L817.329 731.223L821.595 726.957C821.669 726.883 821.791 726.883 821.865 726.957ZM825.029 726.509L824.076 725.556C823.779 725.259 823.297 725.259 822.998 725.556L822.306 726.247C822.232 726.322 822.232 726.443 822.306 726.517L824.069 728.279C824.143 728.353 824.264 728.353 824.338 728.279L825.029 727.588C825.327 727.289 825.327 726.806 825.029 726.509ZM821.501 732.095V734.083H815.25V727.832H819.739C819.802 727.832 819.861 727.807 819.905 727.763L820.687 726.982C820.835 726.833 820.73 726.581 820.521 726.581H814.938C814.42 726.581 814 727.001 814 727.519V734.395C814 734.913 814.42 735.333 814.938 735.333H821.814C822.332 735.333 822.752 734.913 822.752 734.395V731.313C822.752 731.104 822.5 731.001 822.351 731.147L821.57 731.929C821.527 731.973 821.501 732.032 821.501 732.095Z" fill="#743e29"/>
<path d="M847.107 725.959H844.761L844.577 725.593C844.538 725.515 844.478 725.449 844.404 725.403C844.329 725.357 844.244 725.333 844.157 725.333H841.925C841.837 725.333 841.752 725.357 841.678 725.403C841.604 725.449 841.545 725.515 841.507 725.593L841.323 725.959H838.979C838.896 725.959 838.817 725.991 838.758 726.05C838.699 726.109 838.667 726.188 838.667 726.271V726.896C838.667 726.979 838.699 727.058 838.758 727.117C838.817 727.175 838.896 727.209 838.979 727.209H847.107C847.187 727.209 847.267 727.175 847.327 727.117C847.387 727.058 847.413 726.979 847.413 726.896V726.271C847.413 726.188 847.387 726.109 847.327 726.05C847.267 725.991 847.187 725.959 847.107 725.959ZM839.706 734.455C839.721 734.693 839.826 734.916 839.999 735.079C840.173 735.243 840.403 735.333 840.641 735.333H845.442C845.681 735.333 845.91 735.243 846.084 735.079C846.257 734.916 846.363 734.693 846.377 734.455L846.793 727.833H839.291L839.706 734.455Z" fill="#743e29"/>
<path fill-rule="evenodd" clip-rule="evenodd" d="M440 906C447.364 906 453.333 900.033 453.333 892.667C453.333 885.3 447.364 879.333 440 879.333C432.636 879.333 426.667 885.3 426.667 892.667C426.667 900.033 432.636 906 440 906ZM443.167 889.333C443.167 891.173 441.675 892.667 439.833 892.667C437.992 892.667 436.5 891.173 436.5 889.333C436.5 887.493 437.992 886 439.833 886C441.675 886 443.167 887.493 443.167 889.333ZM441.732 893.5H442.167C444.099 893.5 445.667 895.067 445.667 897V898.08C445.667 898.773 445.107 899.333 444.417 899.333H435.25C434.56 899.333 434 898.773 434 898.08V897C434 895.067 435.568 893.5 437.5 893.5H437.935C438.515 893.767 439.156 893.92 439.833 893.92C440.511 893.92 441.153 893.767 441.732 893.5Z" fill="#743e29"/>
<path d="M594 889.333H474.667C473.562 889.333 472.667 890.229 472.667 891.333V894C472.667 895.105 473.562 896 474.667 896H594C595.105 896 596 895.105 596 894V891.333C596 890.229 595.105 889.333 594 889.333Z" fill="#f2a587"/>
<path d="M694 889.333H624.667C623.562 889.333 622.667 890.229 622.667 891.333V894C622.667 895.105 623.562 896 624.667 896H694C695.105 896 696 895.105 696 894V891.333C696 890.229 695.105 889.333 694 889.333Z" fill="#f2a587"/>
<path d="M794 889.333H724.667C723.562 889.333 722.667 890.229 722.667 891.333V894C722.667 895.105 723.562 896 724.667 896H794C795.105 896 796 895.105 796 894V891.333C796 890.229 795.105 889.333 794 889.333Z" fill="#f2a587"/>
<path d="M821.865 889.627L823.627 891.387C823.701 891.46 823.701 891.58 823.627 891.653L819.361 895.92L817.547 896.12C817.305 896.153 817.1 895.947 817.127 895.7L817.329 893.887L821.595 889.627C821.669 889.547 821.791 889.547 821.865 889.627ZM825.029 889.173L824.076 888.22C823.779 887.927 823.297 887.927 822.998 888.22L822.306 888.913C822.232 888.987 822.232 889.107 822.306 889.187L824.069 890.947C824.143 891.02 824.264 891.02 824.338 890.947L825.029 890.253C825.327 889.953 825.327 889.473 825.029 889.173ZM821.501 894.76V896.747H815.25V890.5H819.739C819.802 890.5 819.861 890.473 819.905 890.433L820.687 889.647C820.835 889.5 820.73 889.247 820.521 889.247H814.938C814.42 889.247 814 889.667 814 890.187V897.06C814 897.58 814.42 898 814.938 898H821.814C822.332 898 822.752 897.58 822.752 897.06V893.98C822.752 893.773 822.5 893.667 822.351 893.813L821.57 894.593C821.527 894.64 821.501 894.7 821.501 894.76Z" fill="#743e29"/>
<path d="M847.107 888.627H844.761L844.577 888.26C844.538 888.18 844.478 888.113 844.404 888.073C844.329 888.027 844.244 888 844.157 888H841.925C841.837 888 841.752 888.027 841.678 888.067C841.604 888.113 841.545 888.18 841.507 888.26L841.323 888.627H838.979C838.896 888.627 838.817 888.66 838.758 888.713C838.699 888.773 838.667 888.853 838.667 888.94V889.56C838.667 889.647 838.699 889.727 838.758 889.787C838.817 889.84 838.896 889.873 838.979 889.873H847.107C847.187 889.873 847.267 889.84 847.327 889.787C847.387 889.727 847.413 889.647 847.413 889.56V888.94C847.413 888.853 847.387 888.773 847.327 888.713C847.267 888.66 847.187 888.627 847.107 888.627ZM839.706 897.12C839.721 897.36 839.826 897.58 839.999 897.747C840.173 897.907 840.403 898 840.641 898H845.442C845.681 898 845.91 897.907 846.084 897.747C846.257 897.58 846.363 897.36 846.377 897.12L846.793 890.5H839.291L839.706 897.12Z" fill="#743e29"/>
<path d="M874 629.333H405.333V630H874V629.333Z" fill="#fef9f6"/>
<path d="M874 792H405.333V792.667H874V792Z" fill="#fef9f6"/>
<path d="M874 670H405.333V670.667H874V670Z" fill="#fef9f6"/>
<path d="M874 832.667H405.333V833.333H874V832.667Z" fill="#fef9f6"/>
<path d="M874 710H405.333V710.667H874V710Z" fill="#fef9f6"/>
<path d="M874 872.667H405.333V873.333H874V872.667Z" fill="#fef9f6"/>
<path d="M874 750H405.333V750.667H874V750Z" fill="#fef9f6"/>
<path d="M874 260H736V398H874V260Z" fill="#fbdfd4"/>
<path d="M779.292 293.63C779.302 293.531 779.333 293.437 779.333 293.339C779.333 291.5 777.839 290.005 776 290.005C775.344 290.005 774.739 290.203 774.224 290.526C773.307 288.505 771.281 287.089 768.917 287.089C765.698 287.089 763.083 289.698 763.083 292.922C763.083 293.078 763.12 293.224 763.13 293.375C760.547 293.568 758.5 295.703 758.5 298.339C758.5 301.099 760.739 303.339 763.5 303.339H777.667C780.427 303.339 782.667 301.099 782.667 298.339C782.667 296.146 781.25 294.307 779.292 293.63ZM756.875 292.453C754.599 290.177 754.599 286.479 756.875 284.208C759.151 281.932 762.849 281.932 765.125 284.208C765.63 284.713 766.005 285.297 766.287 285.911C766.797 285.719 767.333 285.599 767.885 285.521L769.437 280.891C769.646 280.271 769.057 279.687 768.437 279.891L763.865 281.417L761.703 277.104C761.417 276.521 760.583 276.521 760.292 277.104L758.135 281.417L753.557 279.891C752.943 279.687 752.354 280.276 752.557 280.891L754.083 285.463L749.771 287.625C749.187 287.917 749.187 288.745 749.771 289.037L754.083 291.193L752.557 295.765C752.349 296.385 752.937 296.969 753.557 296.765L757.521 295.448C757.839 294.802 758.25 294.213 758.75 293.703C758.068 293.422 757.427 293.005 756.875 292.453ZM756.625 288.328C756.625 290.453 758.151 292.224 760.161 292.615C760.578 292.37 761.011 292.156 761.474 292.005C761.755 289.698 763.089 287.708 764.985 286.537C764.297 285.021 762.771 283.959 761 283.959C758.589 283.959 756.625 285.917 756.625 288.328Z" fill="#743e29"/>
<path d="M824.081 300H836.525V296.983H829.195V296.863L831.743 294.367C835.331 291.094 836.295 289.457 836.295 287.471C836.295 284.446 833.823 282.307 830.081 282.307C826.417 282.307 823.903 284.497 823.911 287.923H827.414C827.405 286.253 828.462 285.23 830.056 285.23C831.59 285.23 832.732 286.185 832.732 287.719C832.732 289.108 831.88 290.063 830.295 291.588L824.081 297.341V300ZM845.514 282.307C841.611 282.29 838.977 284.847 838.994 288.358C839.003 291.613 841.261 293.975 844.355 293.975C846.273 293.975 847.98 293.045 848.753 291.511H848.873C848.867 294.971 847.66 297.077 845.386 297.077C844.048 297.077 843.085 296.344 842.804 295.074H839.165C839.505 298.014 841.892 300.239 845.386 300.239C849.707 300.239 852.493 296.744 852.487 290.821C852.48 284.497 849.1 282.324 845.514 282.307ZM845.539 285.205C847.233 285.205 848.487 286.585 848.507 288.247C848.513 289.917 847.193 291.298 845.505 291.298C843.801 291.298 842.582 289.969 842.573 288.256C842.557 286.551 843.827 285.205 845.539 285.205ZM859.14 290.804C861.46 290.804 863.327 288.929 863.327 286.619C863.327 284.301 861.46 282.426 859.14 282.426C856.833 282.426 854.96 284.301 854.96 286.619C854.96 288.929 856.833 290.804 859.14 290.804ZM859.14 288.383C858.173 288.383 857.38 287.591 857.38 286.619C857.38 285.639 858.173 284.847 859.14 284.847C860.12 284.847 860.907 285.639 860.907 286.619C860.907 287.591 860.12 288.383 859.14 288.383Z" fill="#743e29"/>
<path fill-rule="evenodd" clip-rule="evenodd" d="M874 361.772V398H736V348.585C741.705 350.296 747.047 360.408 752.117 370.003C757.09 379.417 761.801 388.333 766.333 388.333C772.252 388.333 775.901 381.927 779.598 375.433C783.397 368.763 787.248 362 793.667 362C800.13 362 803.643 366.166 807.083 370.247C810.385 374.163 813.62 378 819.333 378C824.315 378 826.684 370.523 829.397 361.955C833.039 350.459 837.301 337 849.333 337C857.9 337 860.86 343.607 863.733 350.028C866.14 355.395 868.487 360.633 874 361.772Z" fill="#743e29"/>
<path d="M709.333 260H406.667V562.667H709.333V260Z" fill="#fbdfd4"/>
<path d="M548.947 420.012V350.109C548.947 347.295 546.49 344.983 543.722 345.377C508.815 350.338 482.133 381.008 483.375 417.765C484.652 455.513 516.97 486.469 554.522 485.995C569.285 485.809 582.926 481.025 594.142 473.024C596.456 471.374 596.608 467.948 594.601 465.93L548.947 420.012Z" fill="#8e4c32"/>
<path d="M568.233 335.344C603.077 337.77 630.919 365.879 633.323 401.053C633.507 403.739 631.267 406 628.601 406H563.333V340.114C563.333 337.423 565.573 335.159 568.233 335.344Z" fill="#f2a587"/>
<path d="M568.667 420H637.935C640.723 420 643.014 422.473 642.623 425.261C640.343 441.547 632.573 456.035 621.275 466.783C619.463 468.507 616.561 468.363 614.798 466.582L568.667 420Z" fill="#b25f3e"/>
<path d="M498 344H428.667C427.562 344 426.667 344.895 426.667 346V348.667C426.667 349.771 427.562 350.667 428.667 350.667H498C499.105 350.667 500 349.771 500 348.667V346C500 344.895 499.105 344 498 344Z" fill="#f2a587"/>
<path d="M664 318.667H594.667C593.562 318.667 592.667 319.562 592.667 320.667V323.333C592.667 324.438 593.562 325.333 594.667 325.333H664C665.105 325.333 666 324.438 666 323.333V320.667C666 319.562 665.105 318.667 664 318.667Z" fill="#f2a587"/>
<path d="M640.667 528.667H475.333C474.229 528.667 473.333 529.562 473.333 530.667V533.333C473.333 534.438 474.229 535.333 475.333 535.333H640.667C641.771 535.333 642.667 534.438 642.667 533.333V530.667C642.667 529.562 641.771 528.667 640.667 528.667Z" fill="#f2a587"/>
<path d="M680.667 508.667H435.333C434.229 508.667 433.333 509.562 433.333 510.667V513.333C433.333 514.438 434.229 515.333 435.333 515.333H680.667C681.771 515.333 682.667 514.438 682.667 513.333V510.667C682.667 509.562 681.771 508.667 680.667 508.667Z" fill="#f2a587"/>
<path d="M680.667 463.333H644.667C643.562 463.333 642.667 464.229 642.667 465.333V468C642.667 469.105 643.562 470 644.667 470H680.667C681.771 470 682.667 469.105 682.667 468V465.333C682.667 464.229 681.771 463.333 680.667 463.333Z" fill="#f2a587"/>
<g opacity="0.15">
<path d="M380 233.333H180V900H380V233.333Z" fill="#fbdfd4"/>
<path d="M338 260H195.333C194.229 260 193.333 260.895 193.333 262V264.667C193.333 265.771 194.229 266.667 195.333 266.667H338C339.104 266.667 340 265.771 340 264.667V262C340 260.895 339.104 260 338 260Z" fill="#f2a587"/>
<path d="M366.101 263.775L361.04 268.836C360.796 269.081 360.4 269.081 360.156 268.836L359.566 268.246C359.322 268.003 359.321 267.607 359.565 267.363L363.575 263.333L359.565 259.303C359.321 259.059 359.322 258.665 359.566 258.421L360.156 257.831C360.4 257.586 360.796 257.586 361.04 257.831L366.101 262.891C366.345 263.135 366.345 263.531 366.101 263.775Z" fill="#743e29"/>
<path d="M380 290.667H180V290H380V290.667Z" fill="#fef9f6"/>
<path d="M338 368H195.333C194.229 368 193.333 368.895 193.333 370V372.667C193.333 373.771 194.229 374.667 195.333 374.667H338C339.104 374.667 340 373.771 340 372.667V370C340 368.895 339.104 368 338 368Z" fill="#f2a587"/>
<path d="M366.101 371.775L361.04 376.836C360.796 377.081 360.4 377.081 360.156 376.836L359.566 376.246C359.322 376.003 359.321 375.607 359.565 375.363L363.575 371.333L359.565 367.303C359.321 367.059 359.322 366.665 359.566 366.421L360.156 365.831C360.4 365.586 360.796 365.586 361.04 365.831L366.101 370.891C366.345 371.135 366.345 371.531 366.101 371.775Z" fill="#743e29"/>
<path d="M380 398.667H180V398H380V398.667Z" fill="#fef9f6"/>
<path d="M338 314H195.333C194.229 314 193.333 314.895 193.333 316V318.667C193.333 319.771 194.229 320.667 195.333 320.667H338C339.104 320.667 340 319.771 340 318.667V316C340 314.895 339.104 314 338 314Z" fill="#f2a587"/>
<path d="M366.101 317.775L361.04 322.836C360.796 323.081 360.4 323.081 360.156 322.836L359.566 322.246C359.322 322.003 359.321 321.607 359.565 321.363L363.575 317.333L359.565 313.303C359.321 313.059 359.322 312.665 359.566 312.421L360.156 311.831C360.4 311.586 360.796 311.586 361.04 311.831L366.101 316.891C366.345 317.135 366.345 317.531 366.101 317.775Z" fill="#743e29"/>
<path d="M380 344.667H180V344H380V344.667Z" fill="#fef9f6"/>
<path d="M338 422H195.333C194.229 422 193.333 422.895 193.333 424V426.667C193.333 427.771 194.229 428.667 195.333 428.667H338C339.104 428.667 340 427.771 340 426.667V424C340 422.895 339.104 422 338 422Z" fill="#f2a587"/>
<path d="M366.101 425.775L361.04 430.836C360.796 431.081 360.4 431.081 360.156 430.836L359.566 430.246C359.322 430.003 359.321 429.607 359.565 429.363L363.575 425.333L359.565 421.303C359.321 421.059 359.322 420.665 359.566 420.421L360.156 419.831C360.4 419.586 360.796 419.586 361.04 419.831L366.101 424.891C366.345 425.135 366.345 425.531 366.101 425.775Z" fill="#743e29"/>
<path d="M380 452.667H180V452H380V452.667Z" fill="#fef9f6"/>
<path d="M314.667 873.333H245.333C244.229 873.333 243.333 874.229 243.333 875.333V878C243.333 879.105 244.229 880 245.333 880H314.667C315.771 880 316.667 879.105 316.667 878V875.333C316.667 874.229 315.771 873.333 314.667 873.333Z" fill="#f2a587"/>
<path d="M900 180H180V233.333H900V180Z" fill="#743e29"/>
<path d="M843.333 203.333H767.333C766.229 203.333 765.333 204.229 765.333 205.333V208C765.333 209.105 766.229 210 767.333 210H843.333C844.438 210 845.333 209.105 845.333 208V205.333C845.333 204.229 844.438 203.333 843.333 203.333Z" fill="#f2a587"/>
<path d="M867.06 210.101L862 205.04C861.753 204.796 861.753 204.4 862 204.156L862.587 203.566C862.833 203.322 863.227 203.322 863.473 203.565L867.5 207.576L871.527 203.565C871.773 203.322 872.167 203.322 872.413 203.566L873 204.156C873.247 204.4 873.247 204.796 873 205.04L867.94 210.101C867.7 210.345 867.3 210.345 867.06 210.101Z" fill="#fef9f6"/>
<path d="M194.345 212.667H196.805V208.894H198.873C201.549 208.894 203.106 207.297 203.106 204.973C203.106 202.661 201.578 201.03 198.936 201.03H194.345V212.667ZM196.805 206.922V203.042H198.464C199.885 203.042 200.572 203.814 200.572 204.973C200.572 206.127 199.885 206.922 198.475 206.922H196.805ZM208.495 212.837C210.654 212.837 212.109 211.786 212.45 210.167L210.211 210.019C209.967 210.684 209.342 211.03 208.535 211.03C207.325 211.03 206.558 210.229 206.558 208.928V208.922H212.501V208.258C212.501 205.292 210.706 203.826 208.399 203.826C205.831 203.826 204.166 205.65 204.166 208.343C204.166 211.11 205.808 212.837 208.495 212.837ZM206.558 207.422C206.609 206.428 207.365 205.633 208.439 205.633C209.49 205.633 210.217 206.383 210.223 207.422H206.558ZM218.723 203.939H217.081V201.848H214.66V203.939H213.467V205.758H214.66V210.303C214.649 212.013 215.814 212.86 217.569 212.786C218.194 212.763 218.637 212.638 218.882 212.559L218.501 210.758C218.382 210.78 218.126 210.837 217.899 210.837C217.416 210.837 217.081 210.655 217.081 209.985V205.758H218.723V203.939ZM224.183 212.837C226.342 212.837 227.796 211.786 228.137 210.167L225.899 210.019C225.654 210.684 225.029 211.03 224.223 211.03C223.012 211.03 222.245 210.229 222.245 208.928V208.922H228.189V208.258C228.189 205.292 226.393 203.826 224.086 203.826C221.518 203.826 219.853 205.65 219.853 208.343C219.853 211.11 221.495 212.837 224.183 212.837ZM222.245 207.422C222.296 206.428 223.052 205.633 224.126 205.633C225.177 205.633 225.904 206.383 225.91 207.422H222.245ZM229.768 212.667H232.189V207.729C232.189 206.655 232.973 205.917 234.041 205.917C234.376 205.917 234.836 205.973 235.064 206.047V203.9C234.848 203.848 234.546 203.814 234.302 203.814C233.325 203.814 232.524 204.383 232.206 205.462H232.115V203.939H229.768V212.667ZM238.609 201.03H236.791V202.269C236.791 203.229 236.45 203.928 236.069 204.53L237.137 205.161C237.939 204.491 238.609 203.297 238.609 202.258V201.03ZM246.389 206.428C246.173 204.82 244.877 203.826 242.673 203.826C240.44 203.826 238.968 204.86 238.974 206.542C238.968 207.848 239.792 208.695 241.497 209.036L243.008 209.337C243.769 209.491 244.116 209.769 244.127 210.206C244.116 210.723 243.554 211.093 242.707 211.093C241.843 211.093 241.269 210.723 241.122 210.013L238.741 210.138C238.968 211.809 240.389 212.837 242.701 212.837C244.963 212.837 246.582 211.684 246.588 209.962C246.582 208.701 245.758 207.945 244.065 207.598L242.485 207.28C241.673 207.104 241.372 206.826 241.377 206.405C241.372 205.883 241.963 205.542 242.713 205.542C243.554 205.542 244.054 206.002 244.173 206.564L246.389 206.428ZM251.729 204.667H253.548V203.428C253.548 202.536 253.843 201.837 254.269 201.167L253.201 200.536C252.411 201.178 251.729 202.4 251.729 203.439V204.667ZM255.735 212.667H258.195V208.894H260.264C262.94 208.894 264.497 207.297 264.497 204.973C264.497 202.661 262.968 201.03 260.326 201.03H255.735V212.667ZM258.195 206.922V203.042H259.855C261.275 203.042 261.963 203.814 261.963 204.973C261.963 206.127 261.275 206.922 259.866 206.922H258.195ZM271.646 208.951C271.651 210.121 270.851 210.735 269.981 210.735C269.066 210.735 268.475 210.093 268.47 209.064V203.939H266.049V209.496C266.055 211.536 267.248 212.78 269.004 212.78C270.316 212.78 271.259 212.104 271.651 211.081H271.743V212.667H274.066V203.939H271.646V208.951ZM280.645 203.939H279.003V201.848H276.582V203.939H275.389V205.758H276.582V210.303C276.571 212.013 277.735 212.86 279.491 212.786C280.116 212.763 280.559 212.638 280.803 212.559L280.423 210.758C280.303 210.78 280.048 210.837 279.821 210.837C279.337 210.837 279.003 210.655 279.003 209.985V205.758H280.645V203.939ZM286.105 212.837C288.264 212.837 289.718 211.786 290.059 210.167L287.821 210.019C287.576 210.684 286.951 211.03 286.145 211.03C284.934 211.03 284.167 210.229 284.167 208.928V208.922H290.11V208.258C290.11 205.292 288.315 203.826 286.008 203.826C283.44 203.826 281.775 205.65 281.775 208.343C281.775 211.11 283.417 212.837 286.105 212.837ZM284.167 207.422C284.218 206.428 284.974 205.633 286.048 205.633C287.099 205.633 287.826 206.383 287.832 207.422H284.167ZM291.69 212.667H294.11V207.729C294.11 206.655 294.895 205.917 295.963 205.917C296.298 205.917 296.758 205.973 296.985 206.047V203.9C296.769 203.848 296.468 203.814 296.224 203.814C295.247 203.814 294.445 204.383 294.127 205.462H294.037V203.939H291.69V212.667ZM305.498 206.428C305.282 204.82 303.987 203.826 301.782 203.826C299.549 203.826 298.077 204.86 298.083 206.542C298.077 207.848 298.901 208.695 300.606 209.036L302.117 209.337C302.879 209.491 303.225 209.769 303.237 210.206C303.225 210.723 302.663 211.093 301.816 211.093C300.953 211.093 300.379 210.723 300.231 210.013L297.851 210.138C298.077 211.809 299.498 212.837 301.811 212.837C304.072 212.837 305.691 211.684 305.697 209.962C305.691 208.701 304.867 207.945 303.174 207.598L301.595 207.28C300.782 207.104 300.481 206.826 300.487 206.405C300.481 205.883 301.072 205.542 301.822 205.542C302.663 205.542 303.163 206.002 303.282 206.564L305.498 206.428ZM315.095 212.667C318.64 212.667 320.788 210.473 320.788 206.837C320.788 203.212 318.64 201.03 315.129 201.03H310.97V212.667H315.095ZM313.43 210.559V203.138H314.998C317.18 203.138 318.333 204.252 318.333 206.837C318.333 209.434 317.18 210.559 314.993 210.559H313.43ZM325.053 212.831C326.343 212.831 327.179 212.269 327.605 211.456H327.673V212.667H329.968V206.78C329.968 204.701 328.207 203.826 326.264 203.826C324.173 203.826 322.798 204.826 322.463 206.417L324.701 206.598C324.866 206.019 325.383 205.593 326.253 205.593C327.076 205.593 327.548 206.008 327.548 206.723V206.758C327.548 207.32 326.951 207.394 325.434 207.542C323.707 207.701 322.156 208.28 322.156 210.229C322.156 211.956 323.389 212.831 325.053 212.831ZM325.747 211.161C325.003 211.161 324.468 210.814 324.468 210.15C324.468 209.468 325.031 209.133 325.883 209.013C326.411 208.939 327.275 208.814 327.565 208.621V209.547C327.565 210.462 326.809 211.161 325.747 211.161ZM339.107 206.428C338.891 204.82 337.596 203.826 335.391 203.826C333.159 203.826 331.687 204.86 331.693 206.542C331.687 207.848 332.511 208.695 334.215 209.036L335.727 209.337C336.488 209.491 336.835 209.769 336.846 210.206C336.835 210.723 336.272 211.093 335.425 211.093C334.562 211.093 333.988 210.723 333.841 210.013L331.46 210.138C331.687 211.809 333.107 212.837 335.42 212.837C337.681 212.837 339.301 211.684 339.307 209.962C339.301 208.701 338.477 207.945 336.783 207.598L335.204 207.28C334.391 207.104 334.091 206.826 334.096 206.405C334.091 205.883 334.681 205.542 335.431 205.542C336.272 205.542 336.772 206.002 336.891 206.564L339.107 206.428ZM343.251 207.621C343.257 206.496 343.944 205.837 344.933 205.837C345.916 205.837 346.495 206.468 346.489 207.542V212.667H348.91V207.11C348.916 205.064 347.711 203.826 345.893 203.826C344.569 203.826 343.683 204.451 343.285 205.479H343.183V201.03H340.831V212.667H343.251V207.621ZM350.86 212.667H353.247V211.269H353.355C353.69 211.996 354.423 212.809 355.832 212.809C357.821 212.809 359.372 211.235 359.372 208.314C359.372 205.314 357.753 203.826 355.837 203.826C354.377 203.826 353.679 204.695 353.355 205.405H353.281V201.03H350.86V212.667ZM353.229 208.303C353.229 206.746 353.889 205.752 355.065 205.752C356.264 205.752 356.9 206.792 356.9 208.303C356.9 209.826 356.253 210.883 355.065 210.883C353.9 210.883 353.229 209.86 353.229 208.303ZM364.93 212.837C367.577 212.837 369.225 211.025 369.225 208.337C369.225 205.633 367.577 203.826 364.93 203.826C362.282 203.826 360.635 205.633 360.635 208.337C360.635 211.025 362.282 212.837 364.93 212.837ZM364.941 210.962C363.72 210.962 363.095 209.843 363.095 208.32C363.095 206.797 363.72 205.672 364.941 205.672C366.14 205.672 366.765 206.797 366.765 208.32C366.765 209.843 366.14 210.962 364.941 210.962ZM373.288 212.831C374.577 212.831 375.413 212.269 375.839 211.456H375.907V212.667H378.203V206.78C378.203 204.701 376.441 203.826 374.498 203.826C372.407 203.826 371.032 204.826 370.697 206.417L372.935 206.598C373.101 206.019 373.617 205.593 374.487 205.593C375.311 205.593 375.782 206.008 375.782 206.723V206.758C375.782 207.32 375.185 207.394 373.669 207.542C371.941 207.701 370.39 208.28 370.39 210.229C370.39 211.956 371.623 212.831 373.288 212.831ZM373.981 211.161C373.237 211.161 372.703 210.814 372.703 210.15C372.703 209.468 373.265 209.133 374.117 209.013C374.646 208.939 375.509 208.814 375.799 208.621V209.547C375.799 210.462 375.043 211.161 373.981 211.161ZM380.081 212.667H382.501V207.729C382.501 206.655 383.285 205.917 384.353 205.917C384.689 205.917 385.149 205.973 385.376 206.047V203.9C385.16 203.848 384.859 203.814 384.615 203.814C383.637 203.814 382.836 204.383 382.518 205.462H382.427V203.939H380.081V212.667ZM389.437 212.809C390.846 212.809 391.579 211.996 391.914 211.269H392.017V212.667H394.403V201.03H391.988V205.405H391.914C391.591 204.695 390.891 203.826 389.431 203.826C387.517 203.826 385.897 205.314 385.897 208.314C385.897 211.235 387.449 212.809 389.437 212.809ZM390.204 210.883C389.017 210.883 388.369 209.826 388.369 208.303C388.369 206.792 389.005 205.752 390.204 205.752C391.38 205.752 392.039 206.746 392.039 208.303C392.039 209.86 391.369 210.883 390.204 210.883Z" fill="#fef9f6"/>
</g>
<path d="M818.333 504H824.833C825.917 504 827 502.917 827 501.833V479.083C827 478 825.917 476.917 824.833 476.917H818.333C817.25 476.917 816.167 478 816.167 479.083V501.833C816.167 502.917 817.25 504 818.333 504ZM785.833 504H792.333C793.417 504 794.5 502.917 794.5 501.833V489.917C794.5 488.833 793.417 487.75 792.333 487.75H785.833C784.75 487.75 783.667 488.833 783.667 489.917V501.833C783.667 502.917 784.75 504 785.833 504ZM802.083 504H808.583C809.667 504 810.75 502.917 810.75 501.833V468.25C810.75 467.167 809.667 466.083 808.583 466.083H802.083C801 466.083 799.917 467.167 799.917 468.25V501.833C799.917 502.917 801 504 802.083 504ZM845.959 514.833H772.833V463.375C772.833 461.879 771.621 460.667 770.125 460.667H764.708C763.212 460.667 762 461.879 762 463.375V520.25C762 523.241 764.425 525.667 767.417 525.667H845.959C847.453 525.667 848.667 524.455 848.667 522.959V517.541C848.667 516.045 847.453 514.833 845.959 514.833Z" fill="#8e4c32"/>
<path d="M841.083 504H834.583C833.5 504 832.417 502.917 832.417 501.833V462.833C832.417 461.75 833.5 460.667 834.583 460.667H841.083C842.167 460.667 843.25 461.75 843.25 462.833V501.833C843.25 502.917 842.167 504 841.083 504Z" fill="#8e4c32"/>
</g>
<rect x="182" y="182" width="716" height="716" stroke="#743e29" stroke-width="4"/>
<defs>
<clipPath id="clip0_109_3569">
<rect x="180" y="180" width="720" height="720" fill="white"/>
</clipPath>
</defs>
</svg>
