<svg width="756" height="426" viewBox="0 0 756 426" fill="none" xmlns="http://www.w3.org/2000/svg">
  <rect width="756" height="426" fill="#FDF2EF" />
  <path d="M359.667 61H57V363.667H359.667V61Z" fill="#fbdfd4" />
  <path
    d="M102.784 132.177C97.792 127.185 97.792 119.075 102.784 114.095C107.776 109.103 115.886 109.103 120.878 114.095C121.986 115.203 122.809 116.482 123.425 117.83C124.545 117.407 125.721 117.145 126.932 116.973L130.337 106.818C130.793 105.459 129.503 104.179 128.143 104.625L118.113 107.972L113.373 98.5133C112.745 97.234 110.917 97.234 110.277 98.5133L105.548 107.972L95.5073 104.625C94.1593 104.179 92.8687 105.47 93.314 106.818L96.6613 116.847L87.2027 121.588C85.9233 122.228 85.9233 124.044 87.2027 124.684L96.6613 129.413L93.314 139.443C92.8573 140.802 94.148 142.081 95.5073 141.636L104.2 138.746C104.897 137.329 105.799 136.039 106.896 134.919C105.4 134.302 103.995 133.388 102.784 132.177ZM102.235 123.13C102.235 127.791 105.583 131.675 109.992 132.531C110.905 131.995 111.854 131.526 112.871 131.195C113.487 126.135 116.411 121.771 120.569 119.201C119.062 115.877 115.715 113.546 111.831 113.546C106.542 113.546 102.235 117.841 102.235 123.13Z"
    fill="#8e4c32" />
  <path
    d="M151.949 134.759C151.972 134.542 152.04 134.337 152.04 134.119C152.04 130.087 148.762 126.809 144.729 126.809C143.29 126.809 141.965 127.243 140.834 127.951C138.824 123.519 134.38 120.411 129.194 120.411C122.135 120.411 116.4 126.135 116.4 133.205C116.4 133.548 116.48 133.868 116.503 134.199C110.837 134.622 106.348 139.305 106.348 145.085C106.348 151.14 111.26 156.052 117.314 156.052H148.385C154.439 156.052 159.351 151.14 159.351 145.085C159.351 140.277 156.244 136.244 151.949 134.759Z"
    fill="#728FE4" />
  <path
    d="M188.415 120.887H200.858V117.87H193.529V117.751L196.077 115.254C199.665 111.981 200.628 110.345 200.628 108.359C200.628 105.333 198.156 103.194 194.415 103.194C190.75 103.194 188.236 105.385 188.244 108.811H191.747C191.739 107.14 192.795 106.117 194.389 106.117C195.923 106.117 197.065 107.072 197.065 108.606C197.065 109.995 196.213 110.95 194.628 112.475L188.415 118.228V120.887ZM209.847 103.194C205.944 103.177 203.311 105.734 203.327 109.245C203.336 112.501 205.595 114.862 208.688 114.862C210.606 114.862 212.311 113.933 213.086 112.399H213.205C213.197 115.859 211.995 117.964 209.719 117.964C208.381 117.964 207.418 117.231 207.137 115.961H203.498C203.839 118.901 206.225 121.126 209.719 121.126C214.041 121.126 216.827 117.631 216.819 111.708C216.811 105.385 213.435 103.211 209.847 103.194ZM209.873 106.092C211.569 106.092 212.822 107.473 212.839 109.135C212.847 110.805 211.526 112.185 209.839 112.185C208.134 112.185 206.915 110.856 206.907 109.143C206.89 107.439 208.16 106.092 209.873 106.092ZM223.475 111.691C225.793 111.691 227.66 109.816 227.66 107.507C227.66 105.189 225.793 103.313 223.475 103.313C221.165 103.313 219.291 105.189 219.291 107.507C219.291 109.816 221.165 111.691 223.475 111.691ZM223.475 109.271C222.503 109.271 221.711 108.478 221.711 107.507C221.711 106.527 222.503 105.734 223.475 105.734C224.455 105.734 225.239 106.527 225.239 107.507C225.239 108.478 224.455 109.271 223.475 109.271Z"
    fill="#743E29" />
  <path fill-rule="evenodd" clip-rule="evenodd"
    d="M348.993 253.149C348.507 253.634 348.507 254.421 348.993 254.906C349.48 255.391 350.267 255.391 350.747 254.906L357.987 247.667H359.667V253.018L345.3 267.385C344.813 267.87 344.813 268.657 345.3 269.142C345.787 269.627 346.573 269.627 347.06 269.142L359.667 256.532V263.561L359.533 263.692C359.053 264.177 359.053 264.964 359.533 265.449C359.58 265.491 359.62 265.529 359.667 265.563V274.105L355.84 277.928C355.36 278.413 355.36 279.2 355.84 279.685C356.327 280.171 357.113 280.171 357.6 279.685L359.667 277.619V284.649L356.633 287.68C354.56 287.533 352.5 287.239 350.467 286.821L351.36 285.925C351.847 285.439 351.847 284.653 351.36 284.167C350.873 283.682 350.087 283.682 349.607 284.167L347.613 286.155C345.813 285.684 344.033 285.121 342.26 284.484L355.053 271.689C355.54 271.203 355.54 270.417 355.053 269.931C354.567 269.447 353.78 269.447 353.293 269.931L339.713 283.514C338.073 282.855 336.447 282.137 334.827 281.372L340.82 275.381C341.3 274.896 341.3 274.109 340.82 273.624C340.333 273.139 339.547 273.139 339.06 273.624L332.467 280.219C330.845 279.406 329.237 278.551 327.641 277.667C327.896 277.63 328.142 277.513 328.339 277.316L344.507 261.145C344.993 260.66 344.993 259.873 344.507 259.388C344.027 258.903 343.24 258.903 342.753 259.388L326.581 275.559C326.211 275.929 326.124 276.475 326.318 276.928C324.592 275.953 322.879 274.95 321.178 273.933L330.274 264.838C330.759 264.353 330.759 263.566 330.274 263.081C329.789 262.595 329.002 262.595 328.517 263.081L318.985 272.613C317.646 271.801 316.315 270.985 314.991 270.175H314.99L314.989 270.174L314.987 270.172C312.653 268.743 310.342 267.328 308.053 265.972L319.731 254.294C320.216 253.809 320.216 253.022 319.731 252.537C319.245 252.051 318.459 252.051 317.973 252.537L305.836 264.674C304.299 263.787 302.773 262.933 301.255 262.127C301.476 261.665 301.395 261.094 301.013 260.711C300.527 260.226 299.741 260.226 299.255 260.711L299.004 260.963C297.392 260.155 295.79 259.407 294.199 258.739L305.271 247.667H312.3L305.495 254.472C305.009 254.957 305.009 255.744 305.495 256.229C305.98 256.715 306.767 256.715 307.252 256.229L315.815 247.667H323.949C324.009 247.807 324.097 247.939 324.213 248.055C324.698 248.54 325.485 248.54 325.97 248.055L326.358 247.667H343.933L334.753 256.841C334.273 257.326 334.273 258.113 334.753 258.598C335.24 259.083 336.027 259.083 336.513 258.598L347.447 247.667H354.473L348.993 253.149ZM175.002 260.199C174.517 259.713 174.517 258.927 175.002 258.441L185.777 247.667H178.745C178.729 247.685 178.712 247.703 178.695 247.72L162.523 263.891C162.039 264.377 161.251 264.377 160.767 263.891C160.281 263.406 160.281 262.619 160.767 262.134L175.233 247.667H168.205L166.216 249.655C165.731 250.141 164.944 250.141 164.459 249.655C163.973 249.17 163.973 248.383 164.459 247.898L164.69 247.667H157.661L151.98 253.347C151.495 253.833 150.708 253.833 150.223 253.347C149.737 252.862 149.737 252.075 150.223 251.59L154.147 247.667H147.117L133.262 261.522C132.777 262.007 131.99 262.007 131.505 261.522C131.019 261.037 131.019 260.25 131.505 259.765L143.603 247.667H135.457C135.656 248.121 135.569 248.671 135.197 249.043L119.026 265.215C118.541 265.699 117.754 265.699 117.269 265.215C116.783 264.729 116.783 263.943 117.269 263.457L133.059 247.667H126.031L122.719 250.979C122.233 251.464 121.447 251.464 120.961 250.979C120.476 250.493 120.476 249.707 120.961 249.221L122.516 247.667H115.487L108.483 254.671C107.997 255.156 107.211 255.156 106.725 254.671C106.24 254.185 106.24 253.399 106.725 252.913L111.972 247.667H104.943L89.7646 262.845C89.2793 263.331 88.4927 263.331 88.0073 262.845C87.522 262.36 87.522 261.573 88.0073 261.088L101.429 247.667H83.856L79.2213 252.301C78.736 252.787 77.9493 252.787 77.464 252.301C76.9787 251.817 76.9787 251.029 77.464 250.545L80.3413 247.667H73.3127L64.9854 255.994C64.5 256.479 63.7133 256.479 63.228 255.994C62.7427 255.509 62.7427 254.722 63.228 254.237L69.798 247.667H62.6753C62.6167 247.786 62.5373 247.898 62.438 247.997L57 253.435V260.465C57.486 259.991 58.264 259.995 58.746 260.476C59.2307 260.961 59.2307 261.748 58.746 262.233L57 263.979V271.008L71.2246 256.783C71.7093 256.299 72.4967 256.299 72.9813 256.783C73.4667 257.269 73.4667 258.055 72.9813 258.541L57 274.523V281.552L67.532 271.019C68.0173 270.535 68.804 270.535 69.2893 271.019C69.7747 271.505 69.7747 272.291 69.2893 272.777L57 285.066V296.075C58.8133 296.353 60.7753 296.574 62.908 296.731L78.076 281.563C78.5607 281.078 79.348 281.078 79.8327 281.563C80.318 282.049 80.318 282.835 79.8327 283.321L66.238 296.916C67.6687 296.971 69.17 297 70.7467 297C75.9113 297 80.5067 296.681 84.622 296.104L88.6193 292.107C89.1047 291.621 89.8913 291.621 90.3767 292.107C90.862 292.592 90.862 293.379 90.3767 293.864L88.8487 295.392C92.5153 294.663 95.7613 293.715 98.6673 292.603L102.855 288.415C103.341 287.929 104.127 287.929 104.613 288.415C104.966 288.768 105.062 289.281 104.901 289.721C111.828 285.913 116.505 281.136 120.832 276.716C125.683 271.76 130.095 267.253 136.747 265.066L143.983 257.829C144.469 257.345 145.255 257.345 145.741 257.829C146.226 258.315 146.226 259.101 145.741 259.587L141.325 264.003C142.812 263.788 144.403 263.674 146.117 263.674C146.983 263.674 147.827 263.685 148.649 263.707L158.219 254.137C158.705 253.652 159.491 253.652 159.977 254.137C160.462 254.623 160.462 255.409 159.977 255.895L152.009 263.863C157.931 264.257 162.697 265.234 166.96 266.484L168.763 264.681C169.248 264.195 170.035 264.195 170.52 264.681C171.005 265.166 171.005 265.953 170.52 266.438L169.637 267.321C171.412 267.91 173.118 268.538 174.809 269.179L187.481 256.507C187.966 256.021 188.753 256.021 189.238 256.507C189.723 256.992 189.723 257.779 189.238 258.264L177.351 270.151C181.437 271.719 185.593 273.288 190.58 274.495L198.025 267.05C198.51 266.565 199.297 266.565 199.782 267.05C200.267 267.535 200.267 268.322 199.782 268.807L193.459 275.129C195.351 275.506 197.366 275.828 199.538 276.08L212.261 263.358C212.745 262.873 213.533 262.873 214.017 263.358C214.503 263.843 214.503 264.63 214.017 265.115L202.744 276.389C205.163 276.576 207.769 276.679 210.601 276.679C214.333 276.679 217.721 276.385 220.841 275.865L222.804 273.901C223.289 273.416 224.076 273.416 224.561 273.901C224.868 274.208 224.981 274.636 224.899 275.031C229.133 273.995 232.871 272.542 236.358 270.891L241.522 265.727C242.007 265.241 242.794 265.241 243.279 265.727C243.658 266.106 243.741 266.669 243.528 267.128C244.337 266.675 245.14 266.218 245.943 265.762L245.946 265.76C251.155 262.8 256.325 259.863 262.484 257.853C262.306 257.795 262.139 257.694 261.997 257.553C261.512 257.067 261.512 256.281 261.997 255.795L270.125 247.667H263.097L249.519 261.245C249.033 261.73 248.247 261.73 247.761 261.245C247.276 260.759 247.276 259.973 247.761 259.487L259.582 247.667H242.009L238.975 250.701C238.489 251.187 237.703 251.187 237.217 250.701C236.733 250.216 236.733 249.429 237.217 248.944L238.495 247.667H231.466L220.257 258.875C219.772 259.361 218.985 259.361 218.5 258.875C218.015 258.391 218.015 257.603 218.5 257.119L227.951 247.667H220.923L206.021 262.568C205.536 263.053 204.749 263.053 204.264 262.568C203.779 262.083 203.779 261.296 204.264 260.811L217.408 247.667H210.379L209.713 248.332C209.228 248.817 208.441 248.817 207.956 248.332C207.768 248.144 207.653 247.911 207.611 247.667H199.835L195.477 252.025C194.992 252.509 194.205 252.509 193.72 252.025C193.235 251.539 193.235 250.753 193.72 250.267L196.321 247.667H189.291L176.759 260.199C176.274 260.684 175.487 260.684 175.002 260.199ZM273.64 247.667L263.891 257.416C266.603 256.615 269.513 255.997 272.7 255.636L274.476 253.86C274.961 253.375 275.748 253.375 276.233 253.86C276.634 254.261 276.703 254.867 276.443 255.339C277.363 255.297 278.305 255.275 279.271 255.275C280.613 255.275 281.96 255.375 283.314 255.565L288.711 250.167C289.197 249.683 289.983 249.683 290.469 250.167C290.954 250.653 290.954 251.44 290.469 251.925L286.277 256.117C288.065 256.528 289.865 257.079 291.678 257.745L301.756 247.667H284.184L282.473 249.378C281.987 249.863 281.201 249.863 280.715 249.378C280.245 248.908 280.23 248.155 280.671 247.667H273.64ZM57 247.667H59.2547L57 249.921V247.667ZM84.3147 277.081C83.83 276.596 83.83 275.809 84.3147 275.324L100.486 259.153C100.971 258.667 101.758 258.667 102.243 259.153C102.729 259.638 102.729 260.425 102.243 260.91L86.072 277.081C85.5866 277.567 84.8 277.567 84.3147 277.081ZM73.7713 266.537C73.286 266.052 73.286 265.265 73.7713 264.78L89.9427 248.609C90.4273 248.124 91.2147 248.124 91.6993 248.609C92.1847 249.095 92.1847 249.881 91.6993 250.367L75.5287 266.537C75.0434 267.023 74.2567 267.023 73.7713 266.537ZM94.8587 287.625C94.3733 287.139 94.3733 286.353 94.8587 285.867L111.029 269.697C111.515 269.211 112.301 269.211 112.787 269.697C113.272 270.182 113.272 270.969 112.787 271.454L96.616 287.625C96.1307 288.11 95.344 288.11 94.8587 287.625ZM214.807 271.354C214.322 271.839 214.322 272.626 214.807 273.111C215.293 273.597 216.079 273.597 216.565 273.111L232.735 256.941C233.221 256.455 233.221 255.669 232.735 255.183C232.25 254.698 231.463 254.698 230.978 255.183L214.807 271.354ZM229.043 267.662C228.558 268.147 228.558 268.934 229.043 269.419C229.529 269.905 230.315 269.905 230.801 269.419L246.971 253.248C247.457 252.763 247.457 251.976 246.971 251.491C246.486 251.005 245.699 251.005 245.214 251.491L229.043 267.662ZM316.038 265.015C315.553 265.501 315.553 266.287 316.038 266.773C316.523 267.258 317.31 267.258 317.795 266.773L333.967 250.602C334.453 250.117 334.453 249.33 333.967 248.845C333.48 248.359 332.693 248.359 332.209 248.845L316.038 265.015ZM76.1407 295.799C75.6553 295.314 75.6553 294.527 76.1407 294.042L92.3113 277.871C92.7967 277.385 93.5833 277.385 94.0687 277.871C94.554 278.356 94.554 279.143 94.0687 279.628L77.898 295.799C77.4127 296.285 76.626 296.285 76.1407 295.799ZM65.5973 285.255C65.112 284.77 65.112 283.983 65.5973 283.498L81.768 267.327C82.2533 266.842 83.04 266.842 83.5253 267.327C84.0107 267.813 84.0107 268.599 83.5253 269.085L67.354 285.255C66.8693 285.741 66.082 285.741 65.5973 285.255ZM98.5507 273.389C98.0653 272.903 98.0653 272.117 98.5507 271.631L114.722 255.461C115.207 254.975 115.994 254.975 116.479 255.461C116.965 255.946 116.965 256.733 116.479 257.218L100.308 273.389C99.8226 273.874 99.036 273.874 98.5507 273.389ZM185.546 270.743C185.061 270.257 185.061 269.471 185.546 268.985L201.717 252.814C202.202 252.329 202.989 252.329 203.474 252.814C203.959 253.299 203.959 254.086 203.474 254.571L187.303 270.743C186.818 271.227 186.031 271.227 185.546 270.743ZM109.095 283.933C108.609 283.447 108.609 282.661 109.095 282.175L125.265 266.004C125.751 265.519 126.537 265.519 127.023 266.004C127.508 266.489 127.508 267.276 127.023 267.761L110.852 283.933C110.367 284.417 109.58 284.417 109.095 283.933Z"
    fill="url(#paint0_linear_105_57)" />
  <path fill-rule="evenodd" clip-rule="evenodd"
    d="M359.667 175.331V254.787H57V146.41C69.5113 150.161 81.2287 172.339 92.3473 193.385C103.255 214.03 113.587 233.586 123.528 233.586C136.51 233.586 144.511 219.535 152.621 205.294C160.953 190.663 169.399 175.831 183.477 175.831C197.653 175.831 205.357 184.968 212.902 193.918C220.143 202.507 227.239 210.923 239.77 210.923C250.697 210.923 255.891 194.523 261.843 175.731C269.829 150.519 279.178 121 305.567 121C324.359 121 330.848 135.491 337.153 149.573C342.427 161.345 347.573 172.831 359.667 175.331Z"
    fill="url(#paint1_linear_105_57)" />
  <path
    d="M77.2551 318.273V327H79.0451V321.298H79.1171L81.3758 326.957H82.5945L84.8532 321.319H84.9258V327H86.7151V318.273H84.4398L82.0365 324.137H81.9338L79.5305 318.273H77.2551ZM91.1591 327.128C93.1445 327.128 94.3805 325.769 94.3805 323.753C94.3805 321.725 93.1445 320.369 91.1591 320.369C89.1731 320.369 87.9371 321.725 87.9371 323.753C87.9371 325.769 89.1731 327.128 91.1591 327.128ZM91.1671 325.721C90.2511 325.721 89.7825 324.882 89.7825 323.74C89.7825 322.598 90.2511 321.754 91.1671 321.754C92.0665 321.754 92.5351 322.598 92.5351 323.74C92.5351 324.882 92.0665 325.721 91.1671 325.721Z"
    fill="#743E29" />
  <path
    d="M75.9677 348.333H82.189V346.825H78.5244V346.765L79.7984 345.517C81.5924 343.88 82.0744 343.062 82.0744 342.069C82.0744 340.557 80.8384 339.487 78.9677 339.487C77.135 339.487 75.8777 340.582 75.8823 342.295H77.6337C77.6297 341.46 78.1577 340.949 78.955 340.949C79.7217 340.949 80.293 341.425 80.293 342.193C80.293 342.887 79.8664 343.365 79.0744 344.127L75.9677 347.004V348.333ZM86.7137 348.453C88.657 348.453 89.9777 347.187 89.9737 345.423C89.9777 343.753 88.8104 342.551 87.2377 342.551C86.4704 342.551 85.8104 342.87 85.5037 343.301H85.4524L85.6784 341.115H89.4917V339.606H84.1571L83.7437 344.208L85.3844 344.503C85.6524 344.14 86.1724 343.914 86.6877 343.914C87.5657 343.919 88.1964 344.553 88.1964 345.47C88.1964 346.377 87.5784 347.004 86.7137 347.004C85.9804 347.004 85.3884 346.543 85.3457 345.866H83.5557C83.5897 347.375 84.907 348.453 86.7137 348.453ZM93.3104 343.735C94.4691 343.735 95.4024 342.798 95.4024 341.643C95.4024 340.484 94.4691 339.547 93.3104 339.547C92.1551 339.547 91.2177 340.484 91.2177 341.643C91.2177 342.798 92.1551 343.735 93.3104 343.735ZM93.3104 342.525C92.8244 342.525 92.4284 342.129 92.4284 341.643C92.4284 341.153 92.8244 340.757 93.3104 340.757C93.8004 340.757 94.1924 341.153 94.1924 341.643C94.1924 342.129 93.8004 342.525 93.3104 342.525Z"
    fill="#743E29" />
  <path
    d="M120.131 319.794H122.803V327H124.627V319.794H127.299V318.273H120.131V319.794ZM131.752 324.213C131.756 325.091 131.155 325.551 130.503 325.551C129.817 325.551 129.374 325.069 129.37 324.298V320.455H127.555V324.622C127.559 326.152 128.453 327.085 129.771 327.085C130.755 327.085 131.462 326.578 131.756 325.811H131.825V327H133.567V320.455H131.752V324.213Z"
    fill="#743E29" />
  <path
    d="M117.267 348.333H123.488V346.825H119.823V346.765L121.097 345.517C122.891 343.88 123.373 343.062 123.373 342.069C123.373 340.557 122.137 339.487 120.267 339.487C118.434 339.487 117.177 340.582 117.181 342.295H118.932C118.928 341.46 119.456 340.949 120.254 340.949C121.02 340.949 121.592 341.425 121.592 342.193C121.592 342.887 121.166 343.365 120.373 344.127L117.267 347.004V348.333ZM125.17 348.333H127.075L130.697 341.136V339.606H124.574V341.115H128.788V341.174L125.17 348.333ZM134.011 343.735C135.17 343.735 136.104 342.798 136.104 341.643C136.104 340.484 135.17 339.547 134.011 339.547C132.856 339.547 131.919 340.484 131.919 341.643C131.919 342.798 132.856 343.735 134.011 343.735ZM134.011 342.525C133.526 342.525 133.129 342.129 133.129 341.643C133.129 341.153 133.526 340.757 134.011 340.757C134.502 340.757 134.894 341.153 134.894 341.643C134.894 342.129 134.502 342.525 134.011 342.525Z"
    fill="#743E29" />
  <path
    d="M161.272 327H163.07L164.728 321.294H164.796L166.458 327H168.256L170.753 318.273H168.738L167.293 324.349H167.216L165.626 318.273H163.901L162.307 324.337H162.234L160.79 318.273H158.774L161.272 327ZM173.986 327.128C175.606 327.128 176.696 326.339 176.952 325.125L175.273 325.014C175.09 325.513 174.621 325.773 174.016 325.773C173.108 325.773 172.533 325.172 172.533 324.196V324.192H176.99V323.693C176.99 321.469 175.644 320.369 173.914 320.369C171.988 320.369 170.739 321.737 170.739 323.757C170.739 325.833 171.971 327.128 173.986 327.128ZM172.533 323.067C172.572 322.321 173.138 321.725 173.944 321.725C174.732 321.725 175.278 322.287 175.282 323.067H172.533Z"
    fill="#743E29" />
  <path
    d="M157.968 348.333H164.189V346.825H160.525V346.765L161.799 345.517C163.593 343.88 164.075 343.062 164.075 342.069C164.075 340.557 162.839 339.487 160.968 339.487C159.135 339.487 157.878 340.582 157.883 342.295H159.634C159.63 341.46 160.158 340.949 160.955 340.949C161.722 340.949 162.293 341.425 162.293 342.193C162.293 342.887 161.867 343.365 161.075 344.127L157.968 347.004V348.333ZM168.714 348.453C170.657 348.453 171.978 347.187 171.974 345.423C171.978 343.753 170.811 342.551 169.238 342.551C168.471 342.551 167.811 342.87 167.504 343.301H167.453L167.679 341.115H171.492V339.606H166.157L165.744 344.208L167.385 344.503C167.653 344.14 168.173 343.914 168.688 343.914C169.566 343.919 170.197 344.553 170.197 345.47C170.197 346.377 169.579 347.004 168.714 347.004C167.981 347.004 167.389 346.543 167.346 345.866H165.556C165.59 347.375 166.907 348.453 168.714 348.453ZM175.311 343.735C176.469 343.735 177.403 342.798 177.403 341.643C177.403 340.484 176.469 339.547 175.311 339.547C174.155 339.547 173.218 340.484 173.218 341.643C173.218 342.798 174.155 343.735 175.311 343.735ZM175.311 342.525C174.825 342.525 174.429 342.129 174.429 341.643C174.429 341.153 174.825 340.757 175.311 340.757C175.801 340.757 176.193 341.153 176.193 341.643C176.193 342.129 175.801 342.525 175.311 342.525Z"
    fill="#743E29" />
  <path
    d="M201.674 319.794H204.346V327H206.17V319.794H208.842V318.273H201.674V319.794ZM211.803 323.216C211.808 322.372 212.323 321.878 213.064 321.878C213.802 321.878 214.236 322.351 214.232 323.156V327H216.048V322.833C216.052 321.298 215.148 320.369 213.784 320.369C212.792 320.369 212.127 320.838 211.829 321.609H211.752V318.273H209.988V327H211.803V323.216Z"
    fill="#743E29" />
  <path
    d="M199.267 348.333H205.488V346.825H201.823V346.765L203.097 345.517C204.891 343.88 205.373 343.062 205.373 342.069C205.373 340.557 204.137 339.487 202.267 339.487C200.434 339.487 199.177 340.582 199.181 342.295H200.933C200.929 341.46 201.456 340.949 202.254 340.949C203.02 340.949 203.592 341.425 203.592 342.193C203.592 342.887 203.166 343.365 202.373 344.127L199.267 347.004V348.333ZM207.17 348.333H209.075L212.697 341.136V339.606H206.574V341.115H210.788V341.174L207.17 348.333ZM216.011 343.735C217.171 343.735 218.104 342.798 218.104 341.643C218.104 340.484 217.171 339.547 216.011 339.547C214.857 339.547 213.919 340.484 213.919 341.643C213.919 342.798 214.857 343.735 216.011 343.735ZM216.011 342.525C215.526 342.525 215.129 342.129 215.129 341.643C215.129 341.153 215.526 340.757 216.011 340.757C216.502 340.757 216.894 341.153 216.894 341.643C216.894 342.129 216.502 342.525 216.011 342.525Z"
    fill="#743E29" />
  <path
    d="M243.211 327H245.057V323.395H248.606V321.873H245.057V319.794H248.99V318.273H243.211V327ZM250.091 327H251.906V323.297C251.906 322.491 252.495 321.937 253.296 321.937C253.547 321.937 253.892 321.98 254.063 322.035V320.425C253.901 320.387 253.675 320.361 253.492 320.361C252.759 320.361 252.159 320.787 251.92 321.597H251.851V320.455H250.091V327ZM255.002 327H256.817V320.455H255.002V327ZM255.914 319.611C256.454 319.611 256.898 319.197 256.898 318.691C256.898 318.187 256.454 317.774 255.914 317.774C255.376 317.774 254.933 318.187 254.933 318.691C254.933 319.197 255.376 319.611 255.914 319.611Z"
    fill="#743E29" />
  <path
    d="M239.862 348.333H246.084V346.825H242.419V346.765L243.693 345.517C245.487 343.88 245.968 343.062 245.968 342.069C245.968 340.557 244.733 339.487 242.862 339.487C241.03 339.487 239.772 340.582 239.777 342.295H241.528C241.524 341.46 242.052 340.949 242.849 340.949C243.616 340.949 244.187 341.425 244.187 342.193C244.187 342.887 243.761 343.365 242.968 344.127L239.862 347.004V348.333ZM247.101 346.799H251.29V348.333H253.054V346.799H254.136V345.321H253.054V339.606H250.744L247.101 345.346V346.799ZM251.324 345.321H248.959V345.253L251.256 341.617H251.324V345.321ZM257.416 343.735C258.575 343.735 259.508 342.798 259.508 341.643C259.508 340.484 258.575 339.547 257.416 339.547C256.261 339.547 255.323 340.484 255.323 341.643C255.323 342.798 256.261 343.735 257.416 343.735ZM257.416 342.525C256.93 342.525 256.534 342.129 256.534 341.643C256.534 341.153 256.93 340.757 257.416 340.757C257.906 340.757 258.298 341.153 258.298 341.643C258.298 342.129 257.906 342.525 257.416 342.525Z"
    fill="#743E29" />
  <path
    d="M289.414 320.783H291.182C291.157 319.227 289.878 318.153 287.935 318.153C286.022 318.153 284.62 319.21 284.628 320.795C284.624 322.083 285.532 322.819 287.006 323.173L287.956 323.412C288.907 323.642 289.435 323.915 289.44 324.503C289.435 325.142 288.83 325.577 287.892 325.577C286.934 325.577 286.244 325.133 286.184 324.26H284.398C284.445 326.148 285.796 327.123 287.914 327.123C290.044 327.123 291.297 326.105 291.302 324.507C291.297 323.054 290.202 322.283 288.685 321.942L287.901 321.754C287.142 321.579 286.508 321.298 286.52 320.672C286.52 320.109 287.019 319.696 287.922 319.696C288.804 319.696 289.346 320.097 289.414 320.783ZM294.375 327.123C295.342 327.123 295.969 326.702 296.288 326.092H296.34V327H298.061V322.585C298.061 321.025 296.74 320.369 295.283 320.369C293.714 320.369 292.683 321.119 292.432 322.313L294.111 322.449C294.234 322.014 294.622 321.695 295.274 321.695C295.892 321.695 296.246 322.006 296.246 322.543V322.568C296.246 322.99 295.798 323.045 294.66 323.156C293.365 323.275 292.202 323.71 292.202 325.172C292.202 326.467 293.126 327.123 294.375 327.123ZM294.895 325.871C294.337 325.871 293.936 325.611 293.936 325.112C293.936 324.601 294.358 324.349 294.997 324.26C295.394 324.205 296.041 324.111 296.258 323.966V324.661C296.258 325.347 295.692 325.871 294.895 325.871Z"
    fill="#743E29" />
  <path
    d="M281.201 348.333H287.423V346.825H283.758V346.765L285.032 345.517C286.826 343.88 287.308 343.062 287.308 342.069C287.308 340.557 286.072 339.487 284.201 339.487C282.369 339.487 281.112 340.582 281.116 342.295H282.868C282.863 341.46 283.392 340.949 284.188 340.949C284.956 340.949 285.526 341.425 285.526 342.193C285.526 342.887 285.1 343.365 284.308 344.127L281.201 347.004V348.333ZM292.016 348.453C293.984 348.453 295.399 347.4 295.403 345.985C295.399 344.895 294.56 344.004 293.511 343.829V343.769C294.423 343.582 295.075 342.793 295.08 341.835C295.075 340.484 293.78 339.487 292.016 339.487C290.247 339.487 288.952 340.484 288.956 341.835C288.952 342.789 289.595 343.582 290.524 343.769V343.829C289.458 344.004 288.628 344.895 288.632 345.985C288.628 347.4 290.047 348.453 292.016 348.453ZM292.016 347.097C291.138 347.097 290.55 346.577 290.55 345.841C290.55 345.086 291.168 344.541 292.016 344.541C292.859 344.541 293.482 345.086 293.482 345.841C293.482 346.582 292.889 347.097 292.016 347.097ZM292.016 343.199C291.278 343.199 290.754 342.717 290.754 342.027C290.754 341.345 291.27 340.876 292.016 340.876C292.757 340.876 293.277 341.349 293.277 342.027C293.277 342.717 292.748 343.199 292.016 343.199ZM298.743 343.735C299.902 343.735 300.836 342.798 300.836 341.643C300.836 340.484 299.902 339.547 298.743 339.547C297.588 339.547 296.651 340.484 296.651 341.643C296.651 342.798 297.588 343.735 298.743 343.735ZM298.743 342.525C298.257 342.525 297.861 342.129 297.861 341.643C297.861 341.153 298.257 340.757 298.743 340.757C299.233 340.757 299.625 341.153 299.625 341.643C299.625 342.129 299.233 342.525 298.743 342.525Z"
    fill="#743E29" />
  <path
    d="M329.162 320.783H330.93C330.905 319.227 329.627 318.153 327.683 318.153C325.77 318.153 324.368 319.21 324.377 320.795C324.373 322.083 325.28 322.819 326.755 323.173L327.704 323.412C328.655 323.642 329.183 323.915 329.188 324.503C329.183 325.142 328.578 325.577 327.64 325.577C326.682 325.577 325.992 325.133 325.932 324.26H324.146C324.193 326.148 325.544 327.123 327.662 327.123C329.792 327.123 331.046 326.105 331.05 324.507C331.046 323.054 329.951 322.283 328.433 321.942L327.649 321.754C326.89 321.579 326.256 321.298 326.269 320.672C326.269 320.109 326.767 319.696 327.67 319.696C328.552 319.696 329.094 320.097 329.162 320.783ZM336.453 324.213C336.46 325.091 335.86 325.551 335.206 325.551C334.52 325.551 334.073 325.069 334.073 324.298V320.455H332.256V324.622C332.261 326.152 333.153 327.085 334.473 327.085C335.46 327.085 336.166 326.578 336.46 325.811H336.526V327H338.266V320.455H336.453V324.213Z"
    fill="#743E29" />
  <path
    d="M325.616 348.453C327.576 348.453 328.978 347.375 328.974 345.883C328.978 344.797 328.288 344.021 327.005 343.859V343.791C327.981 343.616 328.654 342.925 328.65 341.945C328.654 340.569 327.449 339.487 325.642 339.487C323.852 339.487 322.505 340.535 322.48 342.043H324.248C324.269 341.379 324.879 340.949 325.633 340.949C326.379 340.949 326.877 341.4 326.873 342.057C326.877 342.743 326.294 343.207 325.454 343.207H324.64V344.562H325.454C326.443 344.562 327.061 345.057 327.057 345.759C327.061 346.454 326.464 346.931 325.621 346.931C324.807 346.931 324.197 346.505 324.163 345.866H322.305C322.335 347.391 323.699 348.453 325.616 348.453ZM334.1 339.606H332.36L330.202 340.974V342.61L332.201 341.357H332.252V348.333H334.1V339.606ZM338.22 343.735C339.38 343.735 340.313 342.798 340.313 341.643C340.313 340.484 339.38 339.547 338.22 339.547C337.066 339.547 336.126 340.484 336.126 341.643C336.126 342.798 337.066 343.735 338.22 343.735ZM338.22 342.525C337.733 342.525 337.34 342.129 337.34 341.643C337.34 341.153 337.733 340.757 338.22 340.757C338.713 340.757 339.106 341.153 339.106 341.643C339.106 342.129 338.713 342.525 338.22 342.525Z"
    fill="#743E29" />
  <rect x="380" y="61" width="150" height="150" fill="#fbdfd4" />
  <path
    d="M403.145 96.1643C400.687 93.6896 400.687 89.6691 403.145 87.2C405.603 84.7252 409.597 84.7252 412.055 87.2C412.601 87.7493 413.006 88.3835 413.309 89.0517C413.86 88.8422 414.44 88.712 415.036 88.6271L416.713 83.5926C416.937 82.9188 416.302 82.2845 415.633 82.5053L410.694 84.1647L408.359 79.4757C408.05 78.8414 407.15 78.8414 406.835 79.4757L404.506 84.1647L399.562 82.5053C398.898 82.2845 398.263 82.9244 398.482 83.5926L400.13 88.5646L395.472 90.9147C394.843 91.232 394.843 92.1323 395.472 92.4496L400.13 94.7941L398.482 99.7661C398.257 100.44 398.893 101.074 399.562 100.853L403.842 99.4207C404.186 98.7184 404.63 98.0786 405.17 97.5233C404.433 97.2176 403.741 96.7645 403.145 96.1643ZM402.875 91.6792C402.875 93.9897 404.523 95.9151 406.694 96.3398C407.144 96.0738 407.611 95.8414 408.112 95.6775C408.416 93.1687 409.855 91.0053 411.903 89.7312C411.161 88.0834 409.512 86.928 407.6 86.928C404.996 86.928 402.875 89.0574 402.875 91.6792Z"
    fill="#8e4c32" />
  <path
    d="M427.355 97.4443C427.366 97.3366 427.4 97.2348 427.4 97.1271C427.4 95.1279 425.785 93.5029 423.8 93.5029C423.091 93.5029 422.439 93.718 421.882 94.069C420.892 91.8719 418.703 90.3314 416.15 90.3314C412.674 90.3314 409.85 93.1687 409.85 96.6739C409.85 96.8438 409.889 97.0025 409.9 97.1667C407.111 97.3763 404.9 99.698 404.9 102.563C404.9 105.565 407.319 108 410.3 108H425.6C428.581 108 431 105.565 431 102.563C431 100.18 429.47 98.1803 427.355 97.4443Z"
    fill="#728FE4" />
  <path
    d="M489.416 97.1159V95.1216L494.076 90.807C494.472 90.4235 494.805 90.0783 495.073 89.7715C495.346 89.4647 495.552 89.1642 495.693 88.8702C495.834 88.5719 495.904 88.2502 495.904 87.905C495.904 87.5215 495.817 87.1912 495.642 86.9142C495.467 86.633 495.229 86.4178 494.926 86.2686C494.624 86.1152 494.28 86.0385 493.897 86.0385C493.496 86.0385 493.147 86.1195 492.849 86.2814C492.55 86.4434 492.32 86.6756 492.158 86.9782C491.996 87.2807 491.915 87.6408 491.915 88.0584H489.288C489.288 87.2019 489.482 86.4583 489.87 85.8276C490.258 85.1969 490.801 84.709 491.5 84.3638C492.199 84.0186 493.004 83.8461 493.916 83.8461C494.854 83.8461 495.67 84.0123 496.364 84.3446C497.063 84.6728 497.606 85.1287 497.994 85.7125C498.382 86.2963 498.576 86.9654 498.576 87.7196C498.576 88.214 498.478 88.7019 498.282 89.1834C498.09 89.6649 497.747 90.1998 497.253 90.7878C496.758 91.3716 496.062 92.0726 495.163 92.8908L493.251 94.7637V94.8532H498.749V97.1159H489.416ZM505.491 83.8461C506.164 83.8461 506.812 83.959 507.434 84.1848C508.06 84.4107 508.618 84.7708 509.108 85.2651C509.603 85.7594 509.993 86.4157 510.278 87.2338C510.568 88.0478 510.715 89.0471 510.719 90.2317C510.719 91.3439 510.594 92.3368 510.342 93.2104C510.095 94.0797 509.739 94.8191 509.275 95.4284C508.81 96.0378 508.25 96.5023 507.594 96.8219C506.937 97.1373 506.204 97.2949 505.395 97.2949C504.521 97.2949 503.75 97.1266 503.081 96.7899C502.412 96.449 501.873 95.9867 501.464 95.4029C501.059 94.8148 500.814 94.1543 500.728 93.4213H503.458C503.564 93.8986 503.788 94.2694 504.129 94.5336C504.47 94.7935 504.892 94.9235 505.395 94.9235C506.247 94.9235 506.895 94.5527 507.338 93.8113C507.781 93.0655 508.005 92.0449 508.009 90.7495H507.92C507.723 91.133 507.459 91.4632 507.127 91.7402C506.795 92.013 506.413 92.2239 505.983 92.373C505.557 92.5222 505.103 92.5968 504.621 92.5968C503.85 92.5968 503.162 92.4157 502.557 92.0534C501.951 91.6912 501.474 91.1926 501.125 90.5577C500.775 89.9228 500.601 89.1983 500.601 88.3844C500.596 87.5066 500.799 86.7246 501.208 86.0385C501.617 85.3524 502.188 84.8155 502.921 84.4277C503.658 84.0357 504.515 83.8418 505.491 83.8461ZM505.51 86.0194C505.079 86.0194 504.696 86.1216 504.359 86.3262C504.027 86.5307 503.763 86.8056 503.567 87.1507C503.375 87.4959 503.281 87.8816 503.285 88.3077C503.285 88.7381 503.379 89.1259 503.567 89.4711C503.758 89.812 504.018 90.0847 504.346 90.2892C504.679 90.4895 505.058 90.5897 505.484 90.5897C505.804 90.5897 506.1 90.53 506.373 90.4107C506.645 90.2914 506.882 90.1273 507.082 89.9185C507.287 89.7054 507.446 89.4604 507.562 89.1834C507.677 88.9064 507.734 88.6124 507.734 88.3013C507.73 87.888 507.632 87.5087 507.44 87.1635C507.248 86.8184 506.984 86.5414 506.647 86.3326C506.311 86.1238 505.932 86.0194 505.51 86.0194ZM515.711 90.2189C515.132 90.2189 514.603 90.0783 514.126 89.7971C513.653 89.5115 513.276 89.1323 512.995 88.6593C512.714 88.182 512.573 87.6536 512.573 87.074C512.573 86.4988 512.714 85.9746 512.995 85.5016C513.276 85.0243 513.653 84.6451 514.126 84.3638C514.603 84.0783 515.132 83.9355 515.711 83.9355C516.291 83.9355 516.817 84.0783 517.29 84.3638C517.768 84.6451 518.147 85.0243 518.428 85.5016C518.709 85.9746 518.85 86.4988 518.85 87.074C518.85 87.6536 518.709 88.182 518.428 88.6593C518.147 89.1323 517.768 89.5115 517.29 89.7971C516.817 90.0783 516.291 90.2189 515.711 90.2189ZM515.711 88.4036C515.959 88.4036 516.182 88.3439 516.383 88.2246C516.583 88.1053 516.741 87.9455 516.856 87.7452C516.975 87.5449 517.035 87.3212 517.035 87.074C517.035 86.8311 516.975 86.6096 516.856 86.4093C516.741 86.209 516.583 86.0492 516.383 85.9299C516.182 85.8105 515.959 85.7509 515.711 85.7509C515.469 85.7509 515.247 85.8105 515.047 85.9299C514.846 86.0492 514.687 86.209 514.567 86.4093C514.448 86.6096 514.388 86.8311 514.388 87.074C514.388 87.3212 514.448 87.5449 514.567 87.7452C514.687 87.9455 514.846 88.1053 515.047 88.2246C515.247 88.3439 515.469 88.4036 515.711 88.4036Z"
    fill="#743E29" />
  <path fill-rule="evenodd" clip-rule="evenodd"
    d="M530 171.622V211H380V157.289C386.201 159.147 392.008 170.139 397.518 180.569C402.924 190.801 408.044 200.493 412.971 200.493C419.405 200.493 423.37 193.529 427.389 186.471C431.518 179.22 435.704 171.87 442.681 171.87C449.707 171.87 453.525 176.398 457.264 180.833C460.853 185.09 464.369 189.261 470.58 189.261C475.995 189.261 478.569 181.133 481.519 171.82C485.477 159.325 490.11 144.696 503.188 144.696C512.501 144.696 515.717 151.877 518.843 158.856C521.456 164.69 524.005 170.383 530 171.622Z"
    fill="url(#paint2_linear_105_57)" />
  <rect x="550" y="61" width="65" height="65" fill="#fbdfd4" />
  <path
    d="M569.31 96.6749C565.897 93.2615 565.897 87.716 569.31 84.3103C572.724 80.8969 578.269 80.8969 581.683 84.3103C582.44 85.068 583.003 85.9427 583.424 86.8645C584.19 86.5755 584.994 86.3959 585.822 86.2787L588.15 79.3347C588.463 78.4052 587.58 77.5304 586.651 77.8349L579.792 80.1238L576.551 73.6561C576.121 72.7813 574.872 72.7813 574.434 73.6561L571.2 80.1238L564.335 77.8349C563.413 77.5304 562.53 78.4129 562.835 79.3347L565.124 86.1925L558.656 89.4341C557.781 89.8718 557.781 91.1135 558.656 91.5511L565.124 94.785L562.835 101.643C562.523 102.572 563.405 103.447 564.335 103.143L570.279 101.166C570.755 100.198 571.372 99.3152 572.122 98.5494C571.099 98.1277 570.138 97.5028 569.31 96.6749ZM568.935 90.4885C568.935 93.6754 571.224 96.3312 574.239 96.917C574.864 96.55 575.512 96.2296 576.207 96.0035C576.629 92.5431 578.628 89.559 581.472 87.8017C580.441 85.5288 578.152 83.9352 575.496 83.9352C571.88 83.9352 568.935 86.8722 568.935 90.4885Z"
    fill="#8e4c32" />
  <path
    d="M602.928 98.4405C602.944 98.2919 602.991 98.1514 602.991 98.0028C602.991 95.2454 600.749 93.0039 597.992 93.0039C597.008 93.0039 596.102 93.3007 595.328 93.7848C593.954 90.7543 590.915 88.6296 587.369 88.6296C582.542 88.6296 578.621 92.5431 578.621 97.3779C578.621 97.6122 578.675 97.831 578.691 98.0575C574.817 98.3465 571.747 101.549 571.747 105.501C571.747 109.641 575.106 113 579.246 113H600.491C604.631 113 607.99 109.641 607.99 105.501C607.99 102.213 605.865 99.4557 602.928 98.4405Z"
    fill="#728FE4" />
  <rect x="550" y="146" width="65" height="65" fill="#fbdfd4" />
  <path
    d="M569.31 181.675C565.897 178.261 565.897 172.716 569.31 169.31C572.724 165.897 578.269 165.897 581.683 169.31C582.44 170.068 583.003 170.943 583.424 171.864C584.19 171.575 584.994 171.396 585.822 171.279L588.15 164.335C588.463 163.405 587.58 162.53 586.651 162.835L579.792 165.124L576.551 158.656C576.121 157.781 574.872 157.781 574.434 158.656L571.2 165.124L564.335 162.835C563.413 162.53 562.53 163.413 562.835 164.335L565.124 171.193L558.656 174.434C557.781 174.872 557.781 176.114 558.656 176.551L565.124 179.785L562.835 186.643C562.523 187.572 563.405 188.447 564.335 188.143L570.279 186.166C570.755 185.198 571.372 184.315 572.122 183.549C571.099 183.128 570.138 182.503 569.31 181.675ZM568.935 175.489C568.935 178.675 571.224 181.331 574.239 181.917C574.864 181.55 575.512 181.23 576.207 181.003C576.629 177.543 578.628 174.559 581.472 172.802C580.441 170.529 578.152 168.935 575.496 168.935C571.88 168.935 568.935 171.872 568.935 175.489Z"
    fill="#8e4c32" />
  <path
    d="M602.928 183.44C602.944 183.292 602.991 183.151 602.991 183.003C602.991 180.245 600.749 178.004 597.992 178.004C597.008 178.004 596.102 178.301 595.328 178.785C593.954 175.754 590.915 173.63 587.369 173.63C582.542 173.63 578.621 177.543 578.621 182.378C578.621 182.612 578.675 182.831 578.691 183.058C574.817 183.347 571.747 186.549 571.747 190.501C571.747 194.641 575.106 198 579.246 198H600.491C604.631 198 607.99 194.641 607.99 190.501C607.99 187.213 605.865 184.456 602.928 183.44Z"
    fill="#728FE4" />
  <rect x="634" y="146" width="65" height="65" fill="#fbdfd4" />
  <path
    d="M653.31 181.675C649.897 178.261 649.897 172.716 653.31 169.31C656.724 165.897 662.269 165.897 665.683 169.31C666.44 170.068 667.003 170.943 667.424 171.864C668.19 171.575 668.994 171.396 669.822 171.279L672.15 164.335C672.463 163.405 671.58 162.53 670.651 162.835L663.792 165.124L660.551 158.656C660.121 157.781 658.872 157.781 658.434 158.656L655.2 165.124L648.335 162.835C647.413 162.53 646.53 163.413 646.835 164.335L649.124 171.193L642.656 174.434C641.781 174.872 641.781 176.114 642.656 176.551L649.124 179.785L646.835 186.643C646.523 187.572 647.405 188.447 648.335 188.143L654.279 186.166C654.755 185.198 655.372 184.315 656.122 183.549C655.099 183.128 654.138 182.503 653.31 181.675ZM652.935 175.489C652.935 178.675 655.224 181.331 658.239 181.917C658.864 181.55 659.512 181.23 660.207 181.003C660.629 177.543 662.628 174.559 665.472 172.802C664.441 170.529 662.152 168.935 659.496 168.935C655.88 168.935 652.935 171.872 652.935 175.489Z"
    fill="#8e4c32" />
  <path
    d="M686.928 183.44C686.944 183.292 686.991 183.151 686.991 183.003C686.991 180.245 684.749 178.004 681.992 178.004C681.008 178.004 680.102 178.301 679.328 178.785C677.954 175.754 674.915 173.63 671.369 173.63C666.542 173.63 662.621 177.543 662.621 182.378C662.621 182.612 662.675 182.831 662.691 183.058C658.817 183.347 655.747 186.549 655.747 190.501C655.747 194.641 659.106 198 663.246 198H684.491C688.631 198 691.99 194.641 691.99 190.501C691.99 187.213 689.865 184.456 686.928 183.44Z"
    fill="#728FE4" />
  <rect x="634" y="61" width="65" height="65" fill="#fbdfd4" />
  <path
    d="M653.31 96.6749C649.897 93.2615 649.897 87.716 653.31 84.3103C656.724 80.8969 662.269 80.8969 665.683 84.3103C666.44 85.068 667.003 85.9427 667.424 86.8645C668.19 86.5755 668.994 86.3959 669.822 86.2787L672.15 79.3347C672.463 78.4052 671.58 77.5304 670.651 77.8349L663.792 80.1238L660.551 73.6561C660.121 72.7813 658.872 72.7813 658.434 73.6561L655.2 80.1238L648.335 77.8349C647.413 77.5304 646.53 78.4129 646.835 79.3347L649.124 86.1925L642.656 89.4341C641.781 89.8718 641.781 91.1135 642.656 91.5511L649.124 94.785L646.835 101.643C646.523 102.572 647.405 103.447 648.335 103.143L654.279 101.166C654.755 100.198 655.372 99.3152 656.122 98.5494C655.099 98.1277 654.138 97.5028 653.31 96.6749ZM652.935 90.4885C652.935 93.6754 655.224 96.3312 658.239 96.917C658.864 96.55 659.512 96.2296 660.207 96.0035C660.629 92.5431 662.628 89.559 665.472 87.8017C664.441 85.5288 662.152 83.9352 659.496 83.9352C655.88 83.9352 652.935 86.8722 652.935 90.4885Z"
    fill="#8e4c32" />
  <path
    d="M686.928 98.4405C686.944 98.2919 686.991 98.1514 686.991 98.0028C686.991 95.2454 684.749 93.0039 681.992 93.0039C681.008 93.0039 680.102 93.3007 679.328 93.7848C677.954 90.7543 674.915 88.6296 671.369 88.6296C666.542 88.6296 662.621 92.5431 662.621 97.3779C662.621 97.6122 662.675 97.831 662.691 98.0575C658.817 98.3465 655.747 101.549 655.747 105.501C655.747 109.641 659.106 113 663.246 113H684.491C688.631 113 691.99 109.641 691.99 105.501C691.99 102.213 689.865 99.4557 686.928 98.4405Z"
    fill="#728FE4" />
  <rect x="380" y="231" width="319" height="133" fill="#fbdfd4" />
  <path fill-rule="evenodd" clip-rule="evenodd"
    d="M699 331.929V364H380V320.256C393.186 321.77 405.536 330.722 417.255 339.216C428.751 347.549 439.641 355.443 450.118 355.443C463.8 355.443 472.233 349.771 480.781 344.023C489.562 338.118 498.464 332.131 513.302 332.131C528.243 332.131 536.362 335.819 544.315 339.431C551.947 342.898 559.425 346.295 572.633 346.295C584.15 346.295 589.624 339.676 595.897 332.091C604.313 321.915 614.167 310 641.98 310C661.786 310 668.626 315.849 675.273 321.533C680.829 326.284 686.251 330.921 699 331.929Z"
    fill="url(#paint3_linear_105_57)" />
  <path
    d="M641.415 266V263.341L647.628 257.588C648.156 257.077 648.599 256.616 648.957 256.207C649.321 255.798 649.597 255.398 649.784 255.006C649.972 254.608 650.065 254.179 650.065 253.719C650.065 253.207 649.949 252.767 649.716 252.398C649.483 252.023 649.165 251.736 648.761 251.537C648.358 251.332 647.901 251.23 647.389 251.23C646.855 251.23 646.389 251.338 645.991 251.554C645.594 251.77 645.287 252.08 645.071 252.483C644.855 252.886 644.747 253.366 644.747 253.923H641.244C641.244 252.781 641.503 251.79 642.02 250.949C642.537 250.108 643.261 249.457 644.193 248.997C645.125 248.537 646.199 248.307 647.415 248.307C648.665 248.307 649.753 248.528 650.679 248.972C651.611 249.409 652.335 250.017 652.852 250.795C653.369 251.574 653.628 252.466 653.628 253.472C653.628 254.131 653.497 254.781 653.236 255.423C652.98 256.065 652.523 256.778 651.864 257.562C651.205 258.341 650.276 259.276 649.077 260.366L646.528 262.864V262.983H653.858V266H641.415ZM662.847 248.307C663.745 248.307 664.609 248.457 665.438 248.759C666.273 249.06 667.018 249.54 667.671 250.199C668.33 250.858 668.85 251.733 669.231 252.824C669.617 253.909 669.813 255.241 669.819 256.821C669.819 258.304 669.651 259.628 669.316 260.793C668.987 261.952 668.512 262.938 667.893 263.75C667.273 264.562 666.526 265.182 665.651 265.608C664.776 266.028 663.799 266.239 662.719 266.239C661.555 266.239 660.526 266.014 659.634 265.565C658.742 265.111 658.023 264.494 657.478 263.716C656.938 262.932 656.612 262.051 656.498 261.074H660.137C660.279 261.71 660.577 262.205 661.032 262.557C661.487 262.903 662.049 263.077 662.719 263.077C663.856 263.077 664.719 262.582 665.31 261.594C665.901 260.599 666.2 259.239 666.205 257.511H666.086C665.825 258.023 665.472 258.463 665.029 258.832C664.586 259.196 664.077 259.477 663.504 259.676C662.935 259.875 662.33 259.974 661.688 259.974C660.66 259.974 659.742 259.733 658.935 259.25C658.129 258.767 657.492 258.102 657.026 257.256C656.56 256.409 656.327 255.443 656.327 254.358C656.322 253.188 656.592 252.145 657.137 251.23C657.683 250.315 658.444 249.599 659.421 249.082C660.404 248.56 661.546 248.301 662.847 248.307ZM662.873 251.205C662.299 251.205 661.788 251.341 661.339 251.614C660.896 251.886 660.543 252.253 660.282 252.713C660.026 253.173 659.901 253.687 659.907 254.256C659.907 254.83 660.032 255.347 660.282 255.807C660.538 256.261 660.884 256.625 661.322 256.898C661.765 257.165 662.271 257.298 662.839 257.298C663.265 257.298 663.66 257.219 664.023 257.06C664.387 256.901 664.702 256.682 664.969 256.403C665.242 256.119 665.455 255.793 665.609 255.423C665.762 255.054 665.839 254.662 665.839 254.247C665.833 253.696 665.702 253.19 665.447 252.73C665.191 252.27 664.839 251.901 664.39 251.622C663.941 251.344 663.435 251.205 662.873 251.205ZM676.475 256.804C675.702 256.804 674.998 256.616 674.362 256.241C673.731 255.861 673.228 255.355 672.853 254.724C672.478 254.088 672.29 253.384 672.29 252.611C672.29 251.844 672.478 251.145 672.853 250.514C673.228 249.878 673.731 249.372 674.362 248.997C674.998 248.616 675.702 248.426 676.475 248.426C677.248 248.426 677.95 248.616 678.58 248.997C679.217 249.372 679.722 249.878 680.097 250.514C680.472 251.145 680.66 251.844 680.66 252.611C680.66 253.384 680.472 254.088 680.097 254.724C679.722 255.355 679.217 255.861 678.58 256.241C677.95 256.616 677.248 256.804 676.475 256.804ZM676.475 254.384C676.805 254.384 677.103 254.304 677.37 254.145C677.637 253.986 677.847 253.773 678.001 253.506C678.16 253.239 678.239 252.94 678.239 252.611C678.239 252.287 678.16 251.991 678.001 251.724C677.847 251.457 677.637 251.244 677.37 251.085C677.103 250.926 676.805 250.847 676.475 250.847C676.151 250.847 675.856 250.926 675.589 251.085C675.322 251.244 675.109 251.457 674.95 251.724C674.79 251.991 674.711 252.287 674.711 252.611C674.711 252.94 674.79 253.239 674.95 253.506C675.109 253.773 675.322 253.986 675.589 254.145C675.856 254.304 676.151 254.384 676.475 254.384Z"
    fill="#743E29" />
  <defs>
    <linearGradient id="paint0_linear_105_57" x1="57" y1="248" x2="360" y2="286.5" gradientUnits="userSpaceOnUse">
      <stop stop-color="#AFBFF0" />
      <stop offset="1" stop-color="#3156C3" />
    </linearGradient>
    <linearGradient id="paint1_linear_105_57" x1="357" y1="129.5" x2="57" y2="247.5" gradientUnits="userSpaceOnUse">
      <stop stop-color="#D5724B" />
      <stop offset="1" stop-color="#fbdfd4" />
    </linearGradient>
    <linearGradient id="paint2_linear_105_57" x1="528.678" y1="148.908" x2="380" y2="207.388"
      gradientUnits="userSpaceOnUse">
      <stop stop-color="#D5724B" />
      <stop offset="1" stop-color="#fbdfd4" />
    </linearGradient>
    <linearGradient id="paint3_linear_105_57" x1="696.189" y1="313.431" x2="518.514" y2="495.919"
      gradientUnits="userSpaceOnUse">
      <stop stop-color="#D5724B" />
      <stop offset="1" stop-color="#fbdfd4" />
    </linearGradient>
  </defs>
</svg>