<svg width="110" height="46" xmlns="http://www.w3.org/2000/svg" xmlns:xlink="http://www.w3.org/1999/xlink" xml:space="preserve" overflow="hidden"><defs><clipPath id="clip0"><rect x="0" y="0" width="110" height="46"/></clipPath></defs><g clip-path="url(#clip0)"><path d="M83.8-1C84.9046-1 85.8-0.104569 85.8 1L85.8 42.1C85.8 43.2046 84.9046 44.1 83.8 44.1L2 44.1C0.895434 44.1 3.09944e-06 43.2046 3.09944e-06 42.1L3.09944e-06 0.999998C3.09944e-06-0.104571 0.895434-1 2-1Z" fill="#595B5C"/><path d="M88 7.8 108 7.8C109.105 7.8 110 8.69543 110 9.8L110 33.3C110 34.4046 109.105 35.3 108 35.3L88 35.3 88 7.8Z" fill="#595B5C"/><path d="M88.55 14.95 106.15 14.95" stroke="#000000" stroke-linecap="square" fill="none" fill-rule="evenodd"/><path d="M88.55 28.15 106.15 28.15" stroke="#000000" stroke-linecap="square" fill="none" fill-rule="evenodd"/><path d="M88.3559 19.35 99.7441 19.35" stroke="#000000" stroke-linecap="square" fill="none" fill-rule="evenodd"/><path d="M88.3559 23.75 99.7441 23.75" stroke="#000000" stroke-linecap="square" fill="none" fill-rule="evenodd"/><path d="M57.2 22.1C57.2 29.9977 50.7977 36.4 42.9 36.4 35.0023 36.4 28.6 29.9977 28.6 22.1 28.6 14.2023 35.0023 7.8 42.9 7.8 50.7977 7.8 57.2 14.2023 57.2 22.1Z" stroke="#D43AFF" fill="none" fill-rule="evenodd"/></g></svg>