<svg width="57" height="39" viewBox="0 0 57 39" fill="none" xmlns="http://www.w3.org/2000/svg">
<g clip-path="url(#clip0)">
<path d="M8.58455 14.3293L0 33.6085L9.91384 38.024L14.0829 28.6586C16.5231 23.1788 14.0597 16.7648 8.58455 14.3293Z" fill="black"/>
<path d="M3.08002 0C0.644549 5.47515 3.1079 11.8892 8.58306 14.3293L12.9985 4.41545L3.08002 0Z" fill="black"/>
<path d="M37.5952 10.9689C42.745 10.9689 46.9374 15.1612 46.9374 20.311C46.9374 25.4608 42.745 29.6532 37.5952 29.6532C32.4454 29.6532 28.2531 25.4608 28.2531 20.311C28.2531 15.1612 32.4454 10.9689 37.5952 10.9689ZM37.5952 1.62207C27.2724 1.62207 18.9062 9.98818 18.9062 20.311C18.9062 30.6339 27.2724 39 37.5952 39C47.918 39 56.2842 30.6339 56.2842 20.311C56.2842 9.99282 47.918 1.62207 37.5952 1.62207Z" fill="black"/>
</g>
<defs>
<clipPath id="clip0">
<rect width="56.2853" height="39" fill="white"/>
</clipPath>
</defs>
</svg>
