<svg viewBox="0 0 64 64" fill="none" xmlns="http://www.w3.org/2000/svg"><rect width="64" height="64" rx="32" fill="#1F1F1F" /><g clipPath="url(#a)"><path d="M48.53 21.855a13.027 13.027 0 0 1-3.77 1.033 6.588 6.588 0 0 0 2.887-3.63 13.144 13.144 0 0 1-4.168 1.592 6.56 6.56 0 0 0-4.793-2.072 6.562 6.562 0 0 0-6.562 6.563c0 .514.057 1.016.17 1.496-5.456-.274-10.292-2.887-13.53-6.858a6.544 6.544 0 0 0-.888 3.3 6.564 6.564 0 0 0 2.92 5.464 6.544 6.544 0 0 1-2.973-.821v.082a6.568 6.568 0 0 0 5.264 6.437 6.606 6.606 0 0 1-2.963.113 6.572 6.572 0 0 0 6.13 4.558 13.166 13.166 0 0 1-8.15 2.81c-.53 0-1.053-.03-1.566-.091A18.592 18.592 0 0 0 26.6 44.778c12.072 0 18.675-10.001 18.675-18.675 0-.284-.008-.568-.02-.85a13.315 13.315 0 0 0 3.276-3.398Z" fill="#fff" /></g><defs><clipPath id="a"><path fill="#fff" transform="translate(16 16)" d="M0 0h32v32H0z" /></clipPath></defs></svg>