<svg viewBox="0 0 64 64" fill="none" xmlns="http://www.w3.org/2000/svg"><rect width="64" height="64" rx="32" fill="#1F1F1F" /><path d="M19.686 27.418h5.625v16.93h-5.625v-16.93Zm2.85-8.16c-1.925 0-3.183 1.263-3.183 2.922 0 1.625 1.22 2.926 3.11 2.926h.035c1.962 0 3.184-1.3 3.184-2.926-.036-1.659-1.221-2.923-3.146-2.923Zm16.588 7.762c-2.986 0-4.324 1.643-5.07 2.795v-2.397h-5.628c.075 1.588 0 16.93 0 16.93h5.628v-9.455c0-.506.036-1.01.184-1.374.408-1.01 1.334-2.057 2.887-2.057 2.037 0 2.851 1.553 2.851 3.828v9.057h5.627V34.64c0-5.2-2.776-7.62-6.48-7.62Z" fill="#fff"/></svg>