<svg viewBox="0 0 64 64" fill="none" xmlns="http://www.w3.org/2000/svg"><rect width="64" height="64" rx="32" fill="#1F1F1F" /><path d="M40.889 22H23.111c-2.444 0-4.444 2-4.444 4.445v11.111c0 2.445 2 4.445 4.444 4.445H40.89c2.444 0 4.444-2 4.444-4.445V26.445c0-2.445-2-4.445-4.444-4.445Zm1.778 6.445-8.778 5.889c-.556.333-1.222.555-1.889.555s-1.333-.222-1.889-.555l-8.778-5.89c-.444-.332-.555-1-.222-1.555.334-.444 1-.555 1.556-.222l8.777 5.889c.334.222.89.222 1.223 0l8.777-5.889C42 26.334 42.667 26.445 43 27c.222.445.111 1.112-.333 1.445Z" fill="#fff"/></svg>