<svg width="700pt" height="700pt" viewBox="0 0 700 700" xmlns="http://www.w3.org/2000/svg" xmlns:xlink="http://www.w3.org/1999/xlink"><defs><symbol id="a" overflow="visible"><path d="M3.656-.219A2.844 2.844 0 0 1 3.062 0c-.199.05-.406.078-.625.078-.668 0-1.199-.18-1.593-.547C.457-.844.266-1.348.266-1.984c0-.645.19-1.149.578-1.516.394-.375.925-.562 1.593-.562.22 0 .426.027.625.078.207.054.407.125.594.218v.829a2.366 2.366 0 0 0-.562-.282 1.742 1.742 0 0 0-.578-.093c-.368 0-.657.12-.875.359-.211.23-.313.555-.313.969 0 .406.102.73.313.968.218.23.507.344.875.344.207 0 .398-.023.578-.078.187-.062.375-.16.562-.297z"/></symbol><symbol id="b" overflow="visible"><path d="M2.688-2.172a1.794 1.794 0 0 0-.25-.094 1.123 1.123 0 0 0-.25-.03c-.25 0-.446.085-.579.25-.125.155-.187.382-.187.671V0H.453v-2.984h.969v.484c.113-.195.25-.336.406-.422.164-.094.36-.14.578-.14h.11c.039 0 .093.007.156.015z"/></symbol><symbol id="c" overflow="visible"><path d="M3.438-1.5v.266H1.203c.031.23.113.402.25.515.133.106.328.156.578.156.207 0 .414-.023.625-.078.207-.062.422-.156.64-.28v.733a3.017 3.017 0 0 1-.671.204 4.02 4.02 0 0 1-.672.062C1.41.078.988-.055.687-.328.383-.61.234-1 .234-1.5c0-.477.145-.86.438-1.14.3-.282.707-.423 1.219-.423.468 0 .843.141 1.125.422s.422.664.422 1.141zm-.97-.328a.55.55 0 0 0-.171-.422.534.534 0 0 0-.406-.172.658.658 0 0 0-.453.156.722.722 0 0 0-.22.438z"/></symbol><symbol id="d" overflow="visible"><path d="M1.797-1.344c-.2 0-.352.04-.453.11-.094.062-.14.164-.14.296 0 .118.034.211.109.282a.554.554 0 0 0 .343.093c.176 0 .328-.062.453-.187s.188-.285.188-.484v-.11zm1.469-.36V0h-.97v-.438c-.124.18-.272.309-.437.391a1.24 1.24 0 0 1-.578.125C.97.078.711-.008.516-.188A.954.954 0 0 1 .234-.89c0-.351.118-.613.36-.781.238-.164.617-.25 1.14-.25h.563v-.062c0-.157-.063-.266-.188-.329-.117-.07-.296-.109-.546-.109A2.35 2.35 0 0 0 .5-2.188v-.718c.195-.051.399-.086.61-.11.206-.03.414-.047.624-.047.54 0 .93.11 1.172.329.239.21.36.554.36 1.03z"/></symbol><symbol id="e" overflow="visible"><path d="M1.5-3.844v.86h.984v.671H1.5v1.282c0 .136.023.23.078.28.063.044.176.063.344.063h.484V0h-.812C1.207 0 .938-.078.78-.234S.547-.656.547-1.031v-1.282H.078v-.671h.469v-.86z"/></symbol><symbol id="f" overflow="visible"><path d="M2.5-2.547v-1.61h.953V0H2.5v-.438c-.137.18-.281.309-.438.391-.156.082-.34.125-.546.125-.375 0-.684-.145-.922-.437C.364-.65.25-1.031.25-1.5c0-.457.113-.832.344-1.125.238-.29.547-.438.922-.438.195 0 .375.043.53.125.165.086.317.215.454.391zM1.86-.609c.206 0 .363-.07.468-.22.113-.155.172-.378.172-.671 0-.281-.059-.492-.172-.64a.529.529 0 0 0-.469-.235c-.199 0-.355.078-.468.234-.106.149-.157.36-.157.641 0 .293.051.516.157.672.113.148.27.219.468.219z"/></symbol><symbol id="g" overflow="visible"><path d="M2.047-.61c.207 0 .363-.07.469-.218.113-.156.172-.379.172-.672 0-.281-.06-.492-.172-.64a.529.529 0 0 0-.47-.235c-.198 0-.355.078-.468.234-.105.149-.156.36-.156.641 0 .293.05.516.156.672.113.148.27.219.469.219zm-.625-1.937c.125-.176.266-.305.422-.39.164-.083.351-.126.562-.126.364 0 .664.149.907.438.238.293.359.668.359 1.125 0 .469-.121.852-.36 1.14a1.126 1.126 0 0 1-.906.438c-.21 0-.398-.043-.562-.125a1.2 1.2 0 0 1-.422-.39V0H.453v-4.156h.969z"/></symbol><symbol id="h" overflow="visible"><path d="M.063-2.984h.953L1.828-.97l.688-2.015h.953L2.203.28c-.125.332-.273.567-.437.703-.168.133-.391.203-.672.203H.547v-.64h.297c.164 0 .285-.028.36-.078a.551.551 0 0 0 .171-.266L1.406.11z"/></symbol><symbol id="i" overflow="visible"><path d="M.5-3.984h1.031V0H.5z"/></symbol><symbol id="j" overflow="visible"><path d="M2.875-2.89v.765a1.628 1.628 0 0 0-.39-.187 1.488 1.488 0 0 0-.407-.063c-.273 0-.48.078-.625.234-.148.157-.219.371-.219.641 0 .281.07.5.22.656.144.157.35.235.624.235.145 0 .285-.02.422-.063.133-.039.258-.11.375-.203v.781a1.861 1.861 0 0 1-.453.125 2.385 2.385 0 0 1-.469.047C1.41.078.988-.055.688-.328.383-.61.234-1 .234-1.5c0-.488.149-.867.454-1.14.3-.282.722-.422 1.265-.422.156 0 .313.015.469.046.156.024.305.063.453.125z"/></symbol><symbol id="k" overflow="visible"><path d="M1.875-2.375a.56.56 0 0 0-.484.234c-.106.149-.157.36-.157.641 0 .293.051.516.157.672.113.148.273.219.484.219.207 0 .367-.07.484-.22.114-.155.172-.378.172-.671 0-.281-.058-.492-.172-.64a.57.57 0 0 0-.484-.235zm0-.688c.52 0 .922.141 1.203.422.29.274.438.653.438 1.141 0 .5-.149.89-.438 1.172-.281.273-.683.406-1.203.406-.512 0-.914-.133-1.203-.406C.379-.61.234-1 .234-1.5c0-.488.145-.867.438-1.14.289-.282.691-.423 1.203-.423z"/></symbol><symbol id="l" overflow="visible"><path d="M3.469-1.828V0H2.5v-1.39c0-.258-.008-.438-.016-.532a.488.488 0 0 0-.062-.219.307.307 0 0 0-.156-.14.387.387 0 0 0-.203-.063.56.56 0 0 0-.485.235c-.105.156-.156.37-.156.64v1.47H.453v-2.985h.969v.437c.133-.176.285-.305.453-.39.164-.082.344-.125.531-.125.344 0 .602.109.782.328.187.21.28.511.28.906z"/></symbol><symbol id="m" overflow="visible"><path d="M2.5-.5a1.43 1.43 0 0 1-.438.375A1.12 1.12 0 0 1 1.516 0C1.148 0 .848-.14.609-.422.367-.71.25-1.082.25-1.532c0-.445.117-.812.36-1.093.238-.29.538-.438.906-.438.207 0 .39.043.546.125.157.086.301.215.438.391v-.437h.953v2.687C3.453.18 3.301.547 3 .797c-.305.258-.746.39-1.328.39A3.232 3.232 0 0 1 .609 1V.266c.164.093.329.16.485.203.164.05.332.078.5.078.312 0 .539-.07.687-.203.145-.137.219-.348.219-.64zm-.64-1.875c-.2 0-.356.074-.47.219-.105.148-.156.355-.156.625 0 .273.051.48.157.625.113.148.27.219.468.219.196 0 .352-.07.47-.22.112-.144.171-.35.171-.624 0-.27-.059-.477-.172-.625a.574.574 0 0 0-.469-.219z"/></symbol><symbol id="n" overflow="visible"><path d="M.453-4.156h.969v2.265l1.094-1.093h1.11L2.171-1.625 3.734 0H2.578L1.422-1.25V0H.453z"/></symbol><symbol id="o" overflow="visible"><path d="M1.578-.75h1.75V0H.438v-.75L1.89-2.047c.125-.113.218-.223.28-.328a.737.737 0 0 0 .095-.36.59.59 0 0 0-.188-.453.72.72 0 0 0-.5-.171c-.156 0-.336.039-.531.109-.188.062-.39.164-.61.297v-.875c.239-.07.47-.13.688-.172.227-.04.453-.063.672-.063.476 0 .848.11 1.11.329.257.21.39.5.39.875a1.2 1.2 0 0 1-.172.609c-.105.187-.34.437-.703.75z"/></symbol><symbol id="p" overflow="visible"><path d="M1.984-1.969c-.187 0-.328.059-.421.172-.086.117-.125.293-.125.531 0 .23.039.407.125.532.093.117.234.171.421.171.176 0 .305-.054.391-.171.094-.125.14-.301.14-.532 0-.238-.046-.414-.14-.53-.086-.114-.215-.173-.39-.173zM3.25-3.875v.734a2.01 2.01 0 0 0-.484-.172 1.715 1.715 0 0 0-.438-.062c-.305 0-.543.086-.719.25-.168.168-.265.418-.297.75a1.56 1.56 0 0 1 .391-.188c.133-.039.285-.062.453-.062.406 0 .735.121.985.36.25.23.375.542.375.937 0 .43-.141.773-.422 1.031-.282.25-.657.375-1.125.375-.524 0-.922-.172-1.203-.516-.282-.351-.422-.851-.422-1.5 0-.656.16-1.171.484-1.546.332-.375.79-.563 1.375-.563.188 0 .363.016.531.047.176.023.348.062.516.125z"/></symbol><symbol id="q" overflow="visible"><path d="M2.422-4.156v.625h-.516c-.136 0-.234.027-.297.078-.054.055-.078.137-.078.25v.219h.828v.672h-.828V0H.578v-2.312H.11v-.672h.47v-.22c0-.32.085-.562.265-.718.187-.156.472-.234.86-.234z"/></symbol><symbol id="r" overflow="visible"><path d="M3.234-2.5c.114-.176.254-.313.422-.406a1.05 1.05 0 0 1 .563-.156c.332 0 .586.109.765.328.188.21.282.511.282.906V0h-.97v-1.563a.164.164 0 0 0 .017-.062v-.11c0-.218-.032-.374-.094-.468s-.164-.14-.297-.14a.494.494 0 0 0-.438.234c-.093.148-.14.359-.14.64V0h-.969v-1.562c0-.333-.031-.547-.094-.641-.054-.094-.152-.14-.297-.14-.18 0-.32.077-.421.234-.094.148-.141.359-.141.64v1.47H.453v-2.985h.969v.437c.113-.176.242-.305.39-.39.157-.082.329-.125.516-.125.207 0 .39.054.547.156.156.094.273.23.36.406z"/></symbol><symbol id="s" overflow="visible"><path d="M3.469-1.828V0H2.5v-1.39c0-.258-.008-.438-.016-.532a.488.488 0 0 0-.062-.219.307.307 0 0 0-.156-.14.387.387 0 0 0-.203-.063.56.56 0 0 0-.485.235c-.105.156-.156.37-.156.64v1.47H.453v-4.157h.969v1.61c.133-.177.285-.305.453-.391.164-.082.344-.125.531-.125.344 0 .602.109.782.328.187.21.28.511.28.906z"/></symbol><symbol id="t" overflow="visible"><path d="M.5-3.984h1.156L3.094-1.25v-2.734h.984V0H2.922L1.484-2.734V0H.5z"/></symbol><symbol id="u" overflow="visible"><path d="M.422-1.172v-1.812h.969v1.39c0 .242.004.418.015.531.008.106.032.18.063.22.039.062.094.116.156.155a.476.476 0 0 0 .219.047.557.557 0 0 0 .469-.234c.113-.156.171-.367.171-.64v-1.47h.954V0h-.954v-.438a1.47 1.47 0 0 1-.468.391 1.134 1.134 0 0 1-.532.125c-.343 0-.609-.101-.796-.312-.18-.22-.266-.532-.266-.938z"/></symbol><symbol id="v" overflow="visible"><path d="M.5-3.984h1.703c.508 0 .899.117 1.172.343.27.22.406.54.406.953 0 .418-.136.743-.406.97-.273.218-.664.327-1.172.327h-.672V0H.5zm1.031.75v1.109h.563c.195 0 .347-.047.453-.14a.539.539 0 0 0 .172-.423.5.5 0 0 0-.172-.406c-.106-.094-.258-.14-.453-.14z"/></symbol><symbol id="w" overflow="visible"><path d="M.453-2.984h.969v2.937c0 .395-.102.695-.297.906-.188.22-.465.328-.828.328h-.485v-.64h.172C.16.547.281.504.344.422c.07-.074.11-.23.11-.469zm0-1.172h.969v.78H.453z"/></symbol></defs><path d="M162.95 79.844h374.09c6.031 0 10.922 6.031 10.922 10.922v42.688c0 6.031-4.89 10.922-10.922 10.922H162.95c-6.031 0-10.922-6.031-10.922-10.922V90.766c0-6.031 4.89-10.922 10.922-10.922zM177.19 331.75c0 19.902 16.516 35.75 36.422 35.75h126.55v82.031h-19.688v30.625h59.062v-30.625h-19.688V367.5h126.55c19.906 0 36.422-15.848 36.422-35.75V159.69H177.2z"/><use x="70" y="576.406" xlink:href="#a"/><use x="74.012" y="576.406" xlink:href="#b"/><use x="76.711" y="576.406" xlink:href="#c"/><use x="80.418" y="576.406" xlink:href="#d"/><use x="84.109" y="576.406" xlink:href="#e"/><use x="86.723" y="576.406" xlink:href="#c"/><use x="90.434" y="576.406" xlink:href="#f"/><use x="96.25" y="576.406" xlink:href="#g"/><use x="100.168" y="576.406" xlink:href="#h"/><use x="105.637" y="576.406" xlink:href="#i"/><use x="107.668" y="576.406" xlink:href="#j"/><use x="110.91" y="576.406" xlink:href="#k"/><use x="114.668" y="576.406" xlink:href="#l"/><use x="118.563" y="576.406" xlink:href="#m"/><use x="122.477" y="576.406" xlink:href="#c"/><use x="126.184" y="576.406" xlink:href="#c"/><use x="129.895" y="576.406" xlink:href="#n"/><use x="133.531" y="576.406" xlink:href="#o"/><use x="137.336" y="576.406" xlink:href="#p"/><use x="70" y="581.875" xlink:href="#q"/><use x="72.379" y="581.875" xlink:href="#b"/><use x="75.078" y="581.875" xlink:href="#k"/><use x="78.832" y="581.875" xlink:href="#r"/><use x="86.438" y="581.875" xlink:href="#e"/><use x="89.051" y="581.875" xlink:href="#s"/><use x="92.941" y="581.875" xlink:href="#c"/><use x="98.555" y="581.875" xlink:href="#t"/><use x="103.133" y="581.875" xlink:href="#k"/><use x="106.891" y="581.875" xlink:href="#u"/><use x="110.785" y="581.875" xlink:href="#l"/><use x="116.582" y="581.875" xlink:href="#v"/><use x="120.59" y="581.875" xlink:href="#b"/><use x="123.285" y="581.875" xlink:href="#k"/><use x="127.043" y="581.875" xlink:href="#w"/><use x="128.918" y="581.875" xlink:href="#c"/><use x="132.625" y="581.875" xlink:href="#j"/><use x="135.867" y="581.875" xlink:href="#e"/></svg>