<svg width="1920" height="1080" viewBox="0 0 1920 1080" fill="none" xmlns="http://www.w3.org/2000/svg">
<g clip-path="url(#clip0_201_20)">
<rect width="1920" height="1080" fill="#FDF2EF"/>
<rect width="1920" height="1080" fill="#FDF2EF"/>
<path d="M1657 164H1569C1562.38 164 1557 169.375 1557 176V264C1557 270.625 1562.38 276 1569 276H1657C1663.62 276 1669 270.625 1669 264V176C1669 169.375 1663.62 164 1657 164ZM1588.75 252.125C1587.38 254.525 1584.3 255.325 1581.92 253.95C1579.52 252.575 1578.73 249.5 1580.1 247.125L1583.67 240.95C1587.7 239.725 1591 240.675 1593.58 243.8L1588.75 252.125ZM1623.47 238.65H1578C1575.25 238.65 1573 236.4 1573 233.65C1573 230.9 1575.25 228.65 1578 228.65H1590.75L1607.1 200.35L1601.97 191.5C1600.6 189.1 1601.42 186.05 1603.8 184.675C1606.2 183.3 1609.25 184.125 1610.62 186.5L1612.85 190.35L1615.08 186.5C1616.45 184.1 1619.53 183.3 1621.9 184.675C1624.3 186.05 1625.1 189.125 1623.72 191.5L1602.28 228.65H1617.8C1622.85 228.65 1625.67 234.575 1623.47 238.65V238.65ZM1648 238.65H1640.75L1645.65 247.125C1647.03 249.525 1646.2 252.575 1643.82 253.95C1641.42 255.325 1638.38 254.5 1637 252.125C1628.77 237.9 1622.62 227.2 1618.5 220.1C1614.32 212.85 1617.3 205.6 1620.28 203.15C1623.55 208.825 1628.45 217.325 1635 228.65H1648C1650.75 228.65 1653 230.9 1653 233.65C1653 236.425 1650.75 238.65 1648 238.65V238.65Z" fill="#743E29"/>
<path d="M1509.76 545.412C1511.32 546.975 1513.85 546.975 1515.42 545.412L1518.24 542.585C1519.81 541.022 1519.81 538.49 1518.24 536.928L1509.31 528L1518.24 519.07C1519.8 517.507 1519.8 514.975 1518.24 513.412L1515.41 510.585C1513.85 509.022 1511.32 509.022 1509.76 510.585L1495.17 525.17C1493.61 526.732 1493.61 529.265 1495.17 530.827L1509.76 545.412V545.412ZM1533.76 542.588L1536.59 545.415C1538.15 546.978 1540.68 546.978 1542.25 545.415L1556.83 530.83C1558.39 529.268 1558.39 526.735 1556.83 525.173L1542.25 510.587C1540.68 509.025 1538.15 509.025 1536.59 510.587L1533.76 513.415C1532.2 514.978 1532.2 517.51 1533.76 519.072L1542.69 528L1533.76 536.93C1532.2 538.493 1532.2 541.025 1533.76 542.588V542.588ZM1602 584H1541.39C1541.2 588.952 1537.71 592 1533.2 592H1518C1513.33 592 1509.74 587.632 1509.81 584H1450C1447.8 584 1446 585.8 1446 588V592C1446 600.8 1453.2 608 1462 608H1590C1598.8 608 1606 600.8 1606 592V588C1606 585.8 1604.2 584 1602 584ZM1590 492C1590 485.4 1584.6 480 1578 480H1474C1467.4 480 1462 485.4 1462 492V576H1590V492ZM1574 560H1478V496H1574V560Z" fill="#743E29"/>
<path d="M1580.4 860.65C1581.42 857.975 1582 855.05 1582 852C1582 838.75 1571.25 828 1558 828C1553.07 828 1548.48 829.5 1544.68 832.05C1537.75 820.05 1524.82 812 1510 812C1487.9 812 1470 829.9 1470 852C1470 852.675 1470.02 853.35 1470.05 854.025C1456.05 858.95 1446 872.3 1446 888C1446 907.875 1462.12 924 1482 924H1574C1591.67 924 1606 909.675 1606 892C1606 876.525 1595 863.6 1580.4 860.65Z" fill="#743E29"/>
<path d="M1458 214.575L1402.82 159.25L1473.02 199.55L1458 214.575V214.575ZM1388.42 156C1385.18 157.7 1383 160.8 1383 164.825V275.15C1383 279.175 1385.18 282.275 1388.42 283.975L1452.58 219.975L1388.42 156ZM1494.72 212.4L1480 203.875L1463.57 220L1480 236.125L1495.02 227.6C1499.52 224.025 1499.52 215.975 1494.72 212.4V212.4ZM1402.82 280.75L1473.02 240.45L1458 225.425L1402.82 280.75Z" fill="#743E29"/>
<path d="M972.457 504.495L951.486 483.524C949.236 481.275 946.187 480 943.013 480H891.998C885.374 480.025 880 485.399 880 492.023V596.002C880 602.626 885.374 608 891.998 608H963.984C970.607 608 975.981 602.626 975.981 596.002V512.994C975.981 509.819 974.707 506.745 972.457 504.495ZM963.009 512.019H943.988V492.997L963.009 512.019ZM891.998 596.002V492.023H931.99V518.018C931.99 521.342 934.664 524.016 937.989 524.016H963.984V596.002H891.998Z" fill="url(#paint0_linear_201_20)"/>
<path d="M908.674 559.288C907.594 559.288 906.664 559.036 905.884 558.532C905.116 558.028 904.522 557.344 904.102 556.48C903.694 555.616 903.49 554.644 903.49 553.564V537.976C903.49 536.884 903.694 535.912 904.102 535.06C904.522 534.196 905.116 533.512 905.884 533.008C906.664 532.504 907.594 532.252 908.674 532.252C909.754 532.252 910.678 532.504 911.446 533.008C912.226 533.512 912.82 534.196 913.228 535.06C913.648 535.924 913.858 536.896 913.858 537.976V553.564C913.858 554.644 913.648 555.616 913.228 556.48C912.82 557.344 912.226 558.028 911.446 558.532C910.678 559.036 909.754 559.288 908.674 559.288ZM908.674 555.508C909.154 555.508 909.49 555.31 909.682 554.914C909.874 554.506 909.97 554.056 909.97 553.564V537.976C909.97 537.484 909.868 537.04 909.664 536.644C909.46 536.236 909.13 536.032 908.674 536.032C908.23 536.032 907.9 536.236 907.684 536.644C907.48 537.04 907.378 537.484 907.378 537.976V553.564C907.378 554.056 907.48 554.506 907.684 554.914C907.888 555.31 908.218 555.508 908.674 555.508ZM916.573 559V532.54H920.461C921.937 532.54 923.167 532.864 924.151 533.512C925.147 534.16 925.891 535.078 926.383 536.266C926.875 537.454 927.121 538.852 927.121 540.46C927.121 542.068 926.863 543.454 926.347 544.618C925.831 545.782 925.075 546.694 924.079 547.354C923.095 548.002 921.889 548.356 920.461 548.416V559H916.573ZM920.461 544.456C921.145 544.456 921.685 544.324 922.081 544.06C922.477 543.784 922.759 543.352 922.927 542.764C923.107 542.176 923.197 541.42 923.197 540.496C923.197 539.56 923.107 538.798 922.927 538.21C922.759 537.622 922.471 537.19 922.063 536.914C921.667 536.638 921.133 536.5 920.461 536.5V544.456ZM929.229 559V532.54H938.121V536.536H933.117V543.664H936.717V547.552H933.117V555.004H938.121V559H929.229ZM941.006 559V532.54H944.642L948.242 546.328L948.566 547.552H948.782V532.54H952.346V559H949.07L945.11 545.212L944.786 543.988H944.57V559H941.006Z" fill="url(#paint1_linear_201_20)"/>
<path d="M911.913 588L915.909 561.54H920.661L924.657 588H920.877L920.157 582.6H916.413L915.693 588H911.913ZM916.953 578.496H919.617L918.501 569.604L918.393 568.2H918.177L918.069 569.604L916.953 578.496ZM926.715 588V561.54H930.603C932.079 561.54 933.309 561.864 934.293 562.512C935.289 563.16 936.033 564.078 936.525 565.266C937.017 566.454 937.263 567.852 937.263 569.46C937.263 571.068 937.005 572.454 936.489 573.618C935.973 574.782 935.217 575.694 934.221 576.354C933.237 577.002 932.031 577.356 930.603 577.416V588H926.715ZM930.603 573.456C931.287 573.456 931.827 573.324 932.223 573.06C932.619 572.784 932.901 572.352 933.069 571.764C933.249 571.176 933.339 570.42 933.339 569.496C933.339 568.56 933.249 567.798 933.069 567.21C932.901 566.622 932.613 566.19 932.205 565.914C931.809 565.638 931.275 565.5 930.603 565.5V573.456ZM939.372 588V561.54H943.26V588H939.372Z" fill="url(#paint2_linear_201_20)"/>
<path d="M1355.43 237.598C1355.76 236.257 1354.94 234.903 1353.6 234.573L1331.75 229.191C1330.41 228.861 1329.06 229.68 1328.73 231.021C1328.4 232.361 1329.21 233.716 1330.56 234.046L1349.97 238.83L1345.19 258.249C1344.86 259.59 1345.68 260.944 1347.02 261.274C1348.36 261.605 1349.72 260.786 1350.05 259.445L1355.43 237.598ZM1058.29 418.139L1354.29 239.139L1351.71 234.861L1055.71 413.861L1058.29 418.139Z" fill="#D87953"/>
<path d="M371 520H259C254.582 520 251 516.418 251 512V496C251 491.582 254.582 488 259 488H371C375.418 488 379 491.582 379 496V512C379 516.418 375.418 520 371 520ZM359 498C355.686 498 353 500.686 353 504C353 507.314 355.686 510 359 510C362.314 510 365 507.314 365 504C365 500.686 362.314 498 359 498ZM343 498C339.686 498 337 500.686 337 504C337 507.314 339.686 510 343 510C346.314 510 349 507.314 349 504C349 500.686 346.314 498 343 498ZM371 560H259C254.582 560 251 556.418 251 552V536C251 531.582 254.582 528 259 528H371C375.418 528 379 531.582 379 536V552C379 556.418 375.418 560 371 560ZM359 538C355.686 538 353 540.686 353 544C353 547.314 355.686 550 359 550C362.314 550 365 547.314 365 544C365 540.686 362.314 538 359 538ZM343 538C339.686 538 337 540.686 337 544C337 547.314 339.686 550 343 550C346.314 550 349 547.314 349 544C349 540.686 346.314 538 343 538ZM371 600H259C254.582 600 251 596.418 251 592V576C251 571.582 254.582 568 259 568H371C375.418 568 379 571.582 379 576V592C379 596.418 375.418 600 371 600ZM359 578C355.686 578 353 580.686 353 584C353 587.314 355.686 590 359 590C362.314 590 365 587.314 365 584C365 580.686 362.314 578 359 578ZM343 578C339.686 578 337 580.686 337 584C337 587.314 339.686 590 343 590C346.314 590 349 587.314 349 584C349 580.686 346.314 578 343 578Z" fill="#743E29"/>
<path d="M434.232 541.732C433.255 542.709 433.255 544.291 434.232 545.268L450.142 561.178C451.118 562.154 452.701 562.154 453.677 561.178C454.654 560.201 454.654 558.618 453.677 557.642L439.535 543.5L453.677 529.358C454.654 528.382 454.654 526.799 453.677 525.822C452.701 524.846 451.118 524.846 450.142 525.822L434.232 541.732ZM792.001 541L436 541L436 546L792.001 546L792.001 541Z" fill="#ED7F53"/>
<path d="M1384.77 547.762C1385.75 546.783 1385.74 545.2 1384.76 544.227L1368.8 528.366C1367.82 527.392 1366.24 527.397 1365.27 528.377C1364.29 529.356 1364.3 530.939 1365.28 531.912L1379.46 546.011L1365.37 560.196C1364.39 561.176 1364.4 562.759 1365.38 563.732C1366.36 564.705 1367.94 564.7 1368.91 563.721L1384.77 547.762ZM1057.01 549.5L1383.01 548.5L1382.99 543.5L1056.99 544.5L1057.01 549.5Z" fill="#D87953"/>
<path d="M1383.6 870.426C1384.94 870.092 1385.76 868.736 1385.43 867.396L1379.99 845.563C1379.65 844.223 1378.3 843.407 1376.96 843.741C1375.62 844.075 1374.8 845.431 1375.14 846.771L1379.97 866.178L1360.56 871.011C1359.22 871.345 1358.41 872.702 1358.74 874.042C1359.07 875.381 1360.43 876.197 1361.77 875.863L1383.6 870.426ZM1055.71 674.143L1381.71 870.143L1384.29 865.857L1058.29 669.857L1055.71 674.143Z" fill="#D87953"/>
</g>
<defs>
<linearGradient id="paint0_linear_201_20" x1="880" y1="544" x2="975.981" y2="544" gradientUnits="userSpaceOnUse">
<stop stop-color="#0095D5"/>
<stop offset="1" stop-color="#3178C6"/>
</linearGradient>
<linearGradient id="paint1_linear_201_20" x1="894" y1="545.5" x2="962" y2="545.5" gradientUnits="userSpaceOnUse">
<stop stop-color="#0095D5"/>
<stop offset="1" stop-color="#3178C6"/>
</linearGradient>
<linearGradient id="paint2_linear_201_20" x1="906" y1="575" x2="950" y2="575" gradientUnits="userSpaceOnUse">
<stop stop-color="#0095D5"/>
<stop offset="1" stop-color="#3178C6"/>
</linearGradient>
<clipPath id="clip0_201_20">
<rect width="1920" height="1080" fill="white"/>
</clipPath>
</defs>
</svg>
