<svg width="1920" height="1080" viewBox="0 0 1920 1080" fill="none" xmlns="http://www.w3.org/2000/svg">
<rect width="1920" height="1080" fill="#FDF2EF"/>
<rect opacity="0.33" x="1168.5" y="417.5" width="620" height="253" fill="#ED7F53" stroke="#743E29" stroke-width="3" stroke-linecap="round" stroke-dasharray="10 10"/>
<rect opacity="0.33" x="1168.5" y="84.5" width="620" height="305" fill="#ED7F53" stroke="#743E29" stroke-width="3" stroke-linecap="round" stroke-dasharray="10 10"/>
<rect opacity="0.33" x="1168.5" y="703.5" width="620" height="300" fill="#ED7F53" stroke="#743E29" stroke-width="3" stroke-linecap="round" stroke-dasharray="10 10"/>
<rect opacity="0.33" x="131.5" y="360.5" width="620" height="467" fill="#ED7F53" stroke="#743E29" stroke-width="3" stroke-linecap="round" stroke-dasharray="10 10"/>
<rect opacity="0.33" x="1272.5" y="39.5" width="1002" height="625" transform="rotate(90 1272.5 39.5)" fill="#F5B9A1" stroke="#743E29" stroke-width="3" stroke-linecap="round" stroke-dasharray="10 10"/>
<path d="M937 534H932C929.348 534 926.804 532.946 924.929 531.071C923.054 529.196 922 526.652 922 524V504C922 501.348 923.054 498.804 924.929 496.929C926.804 495.054 929.348 494 932 494H1012C1014.65 494 1017.2 495.054 1019.07 496.929C1020.95 498.804 1022 501.348 1022 504V524C1022 526.652 1020.95 529.196 1019.07 531.071C1017.2 532.946 1014.65 534 1012 534H1007M937 554H932C929.348 554 926.804 555.054 924.929 556.929C923.054 558.804 922 561.348 922 564V584C922 586.652 923.054 589.196 924.929 591.071C926.804 592.946 929.348 594 932 594H1012C1014.65 594 1017.2 592.946 1019.07 591.071C1020.95 589.196 1022 586.652 1022 584V564C1022 561.348 1020.95 558.804 1019.07 556.929C1017.2 555.054 1014.65 554 1012 554H1007M942 514H942.05M942 574H942.05" stroke="#743E29" stroke-width="10" stroke-linecap="round" stroke-linejoin="round"/>
<path d="M972 559C980.284 559 987 552.284 987 544C987 535.716 980.284 529 972 529C963.716 529 957 535.716 957 544C957 552.284 963.716 559 972 559Z" stroke="#743E29" stroke-width="10" stroke-linecap="round" stroke-linejoin="round"/>
<path d="M972 524V529M972 559V564M992 544H987M957 544H952M987 529L982.6 533.4M961.4 554.6L957 559M987 559L982.6 554.6M961.4 533.4L957 529" stroke="#743E29" stroke-width="10" stroke-linecap="round" stroke-linejoin="round"/>
<path d="M859 391L926 397L952 489V520H916.5V506.5H861L859 391Z" fill="#FADFD5"/>
<path d="M942.457 409.495L921.486 388.524C919.236 386.275 916.187 385 913.013 385H861.998C855.374 385.025 850 390.399 850 397.023V501.002C850 507.626 855.374 513 861.998 513H933.984C940.607 513 945.981 507.626 945.981 501.002V417.994C945.981 414.819 944.707 411.745 942.457 409.495ZM933.009 417.019H913.988V397.997L933.009 417.019ZM861.998 501.002V397.023H901.99V423.018C901.99 426.342 904.664 429.016 907.989 429.016H933.984V501.002H861.998Z" fill="url(#paint0_linear_201_230)"/>
<path d="M878.674 463.788C877.594 463.788 876.664 463.536 875.884 463.032C875.116 462.528 874.522 461.844 874.102 460.98C873.694 460.116 873.49 459.144 873.49 458.064V442.476C873.49 441.384 873.694 440.412 874.102 439.56C874.522 438.696 875.116 438.012 875.884 437.508C876.664 437.004 877.594 436.752 878.674 436.752C879.754 436.752 880.678 437.004 881.446 437.508C882.226 438.012 882.82 438.696 883.228 439.56C883.648 440.424 883.858 441.396 883.858 442.476V458.064C883.858 459.144 883.648 460.116 883.228 460.98C882.82 461.844 882.226 462.528 881.446 463.032C880.678 463.536 879.754 463.788 878.674 463.788ZM878.674 460.008C879.154 460.008 879.49 459.81 879.682 459.414C879.874 459.006 879.97 458.556 879.97 458.064V442.476C879.97 441.984 879.868 441.54 879.664 441.144C879.46 440.736 879.13 440.532 878.674 440.532C878.23 440.532 877.9 440.736 877.684 441.144C877.48 441.54 877.378 441.984 877.378 442.476V458.064C877.378 458.556 877.48 459.006 877.684 459.414C877.888 459.81 878.218 460.008 878.674 460.008ZM886.573 463.5V437.04H890.461C891.937 437.04 893.167 437.364 894.151 438.012C895.147 438.66 895.891 439.578 896.383 440.766C896.875 441.954 897.121 443.352 897.121 444.96C897.121 446.568 896.863 447.954 896.347 449.118C895.831 450.282 895.075 451.194 894.079 451.854C893.095 452.502 891.889 452.856 890.461 452.916V463.5H886.573ZM890.461 448.956C891.145 448.956 891.685 448.824 892.081 448.56C892.477 448.284 892.759 447.852 892.927 447.264C893.107 446.676 893.197 445.92 893.197 444.996C893.197 444.06 893.107 443.298 892.927 442.71C892.759 442.122 892.471 441.69 892.063 441.414C891.667 441.138 891.133 441 890.461 441V448.956ZM899.229 463.5V437.04H908.121V441.036H903.117V448.164H906.717V452.052H903.117V459.504H908.121V463.5H899.229ZM911.006 463.5V437.04H914.642L918.242 450.828L918.566 452.052H918.782V437.04H922.346V463.5H919.07L915.11 449.712L914.786 448.488H914.57V463.5H911.006Z" fill="url(#paint1_linear_201_230)"/>
<path d="M881.913 493L885.909 466.54H890.661L894.657 493H890.877L890.157 487.6H886.413L885.693 493H881.913ZM886.953 483.496H889.617L888.501 474.604L888.393 473.2H888.177L888.069 474.604L886.953 483.496ZM896.716 493V466.54H900.604C902.08 466.54 903.31 466.864 904.294 467.512C905.29 468.16 906.034 469.078 906.526 470.266C907.018 471.454 907.264 472.852 907.264 474.46C907.264 476.068 907.006 477.454 906.49 478.618C905.974 479.782 905.218 480.694 904.222 481.354C903.238 482.002 902.032 482.356 900.604 482.416V493H896.716ZM900.604 478.456C901.288 478.456 901.828 478.324 902.224 478.06C902.62 477.784 902.902 477.352 903.07 476.764C903.25 476.176 903.34 475.42 903.34 474.496C903.34 473.56 903.25 472.798 903.07 472.21C902.902 471.622 902.614 471.19 902.206 470.914C901.81 470.638 901.276 470.5 900.604 470.5V478.456ZM909.372 493V466.54H913.26V493H909.372Z" fill="url(#paint2_linear_201_230)"/>
<path d="M403 523H291C286.582 523 283 519.418 283 515V499C283 494.582 286.582 491 291 491H403C407.418 491 411 494.582 411 499V515C411 519.418 407.418 523 403 523ZM391 501C387.686 501 385 503.686 385 507C385 510.314 387.686 513 391 513C394.314 513 397 510.314 397 507C397 503.686 394.314 501 391 501ZM375 501C371.686 501 369 503.686 369 507C369 510.314 371.686 513 375 513C378.314 513 381 510.314 381 507C381 503.686 378.314 501 375 501ZM403 563H291C286.582 563 283 559.418 283 555V539C283 534.582 286.582 531 291 531H403C407.418 531 411 534.582 411 539V555C411 559.418 407.418 563 403 563ZM391 541C387.686 541 385 543.686 385 547C385 550.314 387.686 553 391 553C394.314 553 397 550.314 397 547C397 543.686 394.314 541 391 541ZM375 541C371.686 541 369 543.686 369 547C369 550.314 371.686 553 375 553C378.314 553 381 550.314 381 547C381 543.686 378.314 541 375 541ZM403 603H291C286.582 603 283 599.418 283 595V579C283 574.582 286.582 571 291 571H403C407.418 571 411 574.582 411 579V595C411 599.418 407.418 603 403 603ZM391 581C387.686 581 385 583.686 385 587C385 590.314 387.686 593 391 593C394.314 593 397 590.314 397 587C397 583.686 394.314 581 391 581ZM375 581C371.686 581 369 583.686 369 587C369 590.314 371.686 593 375 593C378.314 593 381 590.314 381 587C381 583.686 378.314 581 375 581Z" fill="#743E29"/>
<path d="M466.232 544.732C465.255 545.709 465.255 547.291 466.232 548.268L482.142 564.178C483.118 565.154 484.701 565.154 485.677 564.178C486.654 563.201 486.654 561.618 485.677 560.642L471.535 546.5L485.677 532.358C486.654 531.382 486.654 529.799 485.677 528.822C484.701 527.846 483.118 527.846 482.142 528.822L466.232 544.732ZM824.001 544L468 544L468 549L824.001 549L824.001 544Z" fill="#743E29"/>
<path d="M973.768 274.232C972.791 273.256 971.209 273.256 970.232 274.232L954.322 290.142C953.346 291.118 953.346 292.701 954.322 293.678C955.299 294.654 956.882 294.654 957.858 293.678L972 279.536L986.142 293.678C987.118 294.654 988.701 294.654 989.678 293.678C990.654 292.701 990.654 291.118 989.678 290.142L973.768 274.232ZM974.5 416L974.5 276L969.5 276L969.5 416L974.5 416Z" fill="#743E29"/>
<path d="M929.333 133C929.333 129.464 930.738 126.073 933.238 123.572C935.739 121.072 939.13 119.667 942.666 119.667H1004C1005.75 119.667 1007.48 120.012 1009.1 120.682C1010.72 121.352 1012.19 122.334 1013.43 123.572C1014.67 124.81 1015.65 126.28 1016.32 127.898C1016.99 129.516 1017.33 131.249 1017.33 133V209C1017.33 210.061 1016.91 211.079 1016.16 211.829C1015.41 212.579 1014.39 213 1013.33 213H937.333C937.333 214.415 937.895 215.771 938.895 216.772C939.895 217.772 941.252 218.334 942.666 218.334H1013.33C1014.39 218.334 1015.41 218.755 1016.16 219.505C1016.91 220.255 1017.33 221.273 1017.33 222.334C1017.33 223.395 1016.91 224.412 1016.16 225.162C1015.41 225.912 1014.39 226.334 1013.33 226.334H942.666C939.13 226.334 935.739 224.929 933.238 222.428C930.738 219.928 929.333 216.537 929.333 213V133ZM973.333 151.667C974.747 151.667 976.104 151.105 977.104 150.105C978.104 149.105 978.666 147.748 978.666 146.334C978.666 144.919 978.104 143.563 977.104 142.562C976.104 141.562 974.747 141 973.333 141C971.919 141 970.562 141.562 969.562 142.562C968.562 143.563 968 144.919 968 146.334C968 147.748 968.562 149.105 969.562 150.105C970.562 151.105 971.919 151.667 973.333 151.667V151.667ZM969.333 161V187.667C969.333 188.728 969.754 189.745 970.505 190.495C971.255 191.246 972.272 191.667 973.333 191.667C974.394 191.667 975.411 191.246 976.161 190.495C976.912 189.745 977.333 188.728 977.333 187.667V161C977.333 159.939 976.912 158.922 976.161 158.172C975.411 157.422 974.394 157 973.333 157C972.272 157 971.255 157.422 970.505 158.172C969.754 158.922 969.333 159.939 969.333 161Z" fill="#743E29"/>
<path d="M1689 164H1601C1594.38 164 1589 169.375 1589 176V264C1589 270.625 1594.38 276 1601 276H1689C1695.62 276 1701 270.625 1701 264V176C1701 169.375 1695.62 164 1689 164ZM1620.75 252.125C1619.38 254.525 1616.3 255.325 1613.92 253.95C1611.52 252.575 1610.73 249.5 1612.1 247.125L1615.67 240.95C1619.7 239.725 1623 240.675 1625.58 243.8L1620.75 252.125ZM1655.47 238.65H1610C1607.25 238.65 1605 236.4 1605 233.65C1605 230.9 1607.25 228.65 1610 228.65H1622.75L1639.1 200.35L1633.97 191.5C1632.6 189.1 1633.42 186.05 1635.8 184.675C1638.2 183.3 1641.25 184.125 1642.62 186.5L1644.85 190.35L1647.08 186.5C1648.45 184.1 1651.53 183.3 1653.9 184.675C1656.3 186.05 1657.1 189.125 1655.72 191.5L1634.28 228.65H1649.8C1654.85 228.65 1657.67 234.575 1655.47 238.65V238.65ZM1680 238.65H1672.75L1677.65 247.125C1679.03 249.525 1678.2 252.575 1675.82 253.95C1673.42 255.325 1670.38 254.5 1669 252.125C1660.77 237.9 1654.62 227.2 1650.5 220.1C1646.32 212.85 1649.3 205.6 1652.28 203.15C1655.55 208.825 1660.45 217.325 1667 228.65H1680C1682.75 228.65 1685 230.9 1685 233.65C1685 236.425 1682.75 238.65 1680 238.65V238.65Z" fill="#743E29"/>
<path d="M1541.76 545.412C1543.32 546.975 1545.85 546.975 1547.42 545.412L1550.24 542.585C1551.81 541.022 1551.81 538.49 1550.24 536.928L1541.31 528L1550.24 519.07C1551.8 517.507 1551.8 514.975 1550.24 513.412L1547.41 510.585C1545.85 509.022 1543.32 509.022 1541.76 510.585L1527.17 525.17C1525.61 526.732 1525.61 529.265 1527.17 530.827L1541.76 545.412V545.412ZM1565.76 542.588L1568.59 545.415C1570.15 546.978 1572.68 546.978 1574.25 545.415L1588.83 530.83C1590.39 529.268 1590.39 526.735 1588.83 525.173L1574.25 510.587C1572.68 509.025 1570.15 509.025 1568.59 510.587L1565.76 513.415C1564.2 514.978 1564.2 517.51 1565.76 519.072L1574.69 528L1565.76 536.93C1564.2 538.493 1564.2 541.025 1565.76 542.588V542.588ZM1634 584H1573.39C1573.2 588.952 1569.71 592 1565.2 592H1550C1545.33 592 1541.74 587.632 1541.81 584H1482C1479.8 584 1478 585.8 1478 588V592C1478 600.8 1485.2 608 1494 608H1622C1630.8 608 1638 600.8 1638 592V588C1638 585.8 1636.2 584 1634 584ZM1622 492C1622 485.4 1616.6 480 1610 480H1506C1499.4 480 1494 485.4 1494 492V576H1622V492ZM1606 560H1510V496H1606V560Z" fill="#743E29"/>
<path d="M1612.4 860.65C1613.42 857.975 1614 855.05 1614 852C1614 838.75 1603.25 828 1590 828C1585.07 828 1580.48 829.5 1576.68 832.05C1569.75 820.05 1556.82 812 1542 812C1519.9 812 1502 829.9 1502 852C1502 852.675 1502.02 853.35 1502.05 854.025C1488.05 858.95 1478 872.3 1478 888C1478 907.875 1494.12 924 1514 924H1606C1623.67 924 1638 909.675 1638 892C1638 876.525 1627 863.6 1612.4 860.65Z" fill="#743E29"/>
<path d="M1490 214.575L1434.82 159.25L1505.02 199.55L1490 214.575V214.575ZM1420.42 156C1417.18 157.7 1415 160.8 1415 164.825V275.15C1415 279.175 1417.18 282.275 1420.42 283.975L1484.58 219.975L1420.42 156ZM1526.72 212.4L1512 203.875L1495.57 220L1512 236.125L1527.02 227.6C1531.52 224.025 1531.52 215.975 1526.72 212.4V212.4ZM1434.82 280.75L1505.02 240.45L1490 225.425L1434.82 280.75Z" fill="#743E29"/>
<path d="M1387.43 237.598C1387.76 236.257 1386.94 234.903 1385.6 234.573L1363.75 229.191C1362.41 228.861 1361.06 229.68 1360.73 231.021C1360.4 232.361 1361.21 233.716 1362.56 234.046L1381.97 238.83L1377.19 258.249C1376.86 259.59 1377.68 260.944 1379.02 261.274C1380.36 261.605 1381.72 260.786 1382.05 259.445L1387.43 237.598ZM1090.29 418.139L1386.29 239.139L1383.71 234.861L1087.71 413.861L1090.29 418.139Z" fill="#743E29"/>
<path d="M1416.77 547.762C1417.75 546.783 1417.74 545.2 1416.76 544.227L1400.8 528.366C1399.82 527.392 1398.24 527.397 1397.27 528.377C1396.29 529.356 1396.3 530.939 1397.28 531.912L1411.46 546.011L1397.37 560.196C1396.39 561.176 1396.4 562.759 1397.38 563.732C1398.36 564.705 1399.94 564.7 1400.91 563.721L1416.77 547.762ZM1089.01 549.5L1415.01 548.5L1414.99 543.5L1088.99 544.5L1089.01 549.5Z" fill="#743E29"/>
<path d="M1415.6 875.426C1416.94 875.092 1417.76 873.736 1417.43 872.396L1411.99 850.563C1411.65 849.223 1410.3 848.407 1408.96 848.741C1407.62 849.075 1406.8 850.431 1407.14 851.771L1411.97 871.178L1392.56 876.011C1391.22 876.345 1390.41 877.702 1390.74 879.042C1391.07 880.381 1392.43 881.197 1393.77 880.863L1415.6 875.426ZM1087.71 679.143L1413.71 875.143L1416.29 870.857L1090.29 674.857L1087.71 679.143Z" fill="#743E29"/>
<path d="M285.107 730V703.818H295.922C297.882 703.818 299.574 704.172 300.997 704.879C302.429 705.578 303.533 706.584 304.308 707.896C305.084 709.2 305.472 710.747 305.472 712.537C305.472 714.352 305.075 715.895 304.283 717.165C303.49 718.426 302.365 719.389 300.908 720.054C299.45 720.71 297.724 721.038 295.73 721.038H288.891V716.053H294.554C295.509 716.053 296.305 715.929 296.945 715.682C297.592 715.426 298.082 715.043 298.415 714.531C298.747 714.011 298.913 713.347 298.913 712.537C298.913 711.727 298.747 711.058 298.415 710.53C298.082 709.993 297.592 709.592 296.945 709.328C296.297 709.055 295.5 708.919 294.554 708.919H291.435V730H285.107ZM299.847 718.034L306.366 730H299.463L293.071 718.034H299.847ZM317.735 730.371C315.681 730.371 313.908 729.966 312.417 729.156C310.934 728.338 309.792 727.175 308.99 725.666C308.198 724.149 307.801 722.347 307.801 720.259C307.801 718.23 308.202 716.457 309.003 714.94C309.804 713.415 310.934 712.23 312.391 711.386C313.848 710.534 315.566 710.108 317.543 710.108C318.941 710.108 320.219 710.325 321.378 710.76C322.537 711.195 323.539 711.838 324.382 712.69C325.226 713.543 325.882 714.595 326.351 715.848C326.82 717.092 327.054 718.52 327.054 720.131V721.69H309.988V718.06H321.238C321.229 717.395 321.071 716.803 320.765 716.283C320.458 715.763 320.036 715.358 319.499 715.068C318.971 714.77 318.361 714.621 317.671 714.621C316.972 714.621 316.346 714.778 315.792 715.094C315.238 715.401 314.799 715.822 314.475 716.359C314.151 716.888 313.98 717.489 313.963 718.162V721.857C313.963 722.658 314.121 723.361 314.436 723.966C314.752 724.562 315.199 725.027 315.779 725.359C316.358 725.692 317.049 725.858 317.85 725.858C318.404 725.858 318.907 725.781 319.358 725.628C319.81 725.474 320.198 725.249 320.522 724.95C320.846 724.652 321.088 724.286 321.25 723.851L326.99 724.017C326.752 725.304 326.228 726.425 325.418 727.379C324.617 728.325 323.564 729.062 322.26 729.591C320.956 730.111 319.448 730.371 317.735 730.371ZM330.247 737.364V710.364H336.435V713.726H336.626C336.882 713.129 337.244 712.554 337.713 712C338.19 711.446 338.795 710.994 339.528 710.645C340.27 710.287 341.156 710.108 342.188 710.108C343.551 710.108 344.825 710.466 346.01 711.182C347.203 711.898 348.166 713.001 348.899 714.493C349.632 715.984 349.999 717.885 349.999 720.195C349.999 722.419 349.645 724.281 348.938 725.781C348.239 727.281 347.293 728.406 346.099 729.156C344.915 729.906 343.598 730.281 342.149 730.281C341.161 730.281 340.304 730.119 339.58 729.795C338.855 729.472 338.246 729.045 337.751 728.517C337.266 727.989 336.891 727.422 336.626 726.817H336.499V737.364H330.247ZM336.371 720.182C336.371 721.239 336.511 722.159 336.793 722.943C337.082 723.727 337.496 724.337 338.033 724.771C338.578 725.197 339.23 725.411 339.989 725.411C340.756 725.411 341.408 725.197 341.945 724.771C342.482 724.337 342.886 723.727 343.159 722.943C343.44 722.159 343.581 721.239 343.581 720.182C343.581 719.125 343.44 718.209 343.159 717.433C342.886 716.658 342.482 716.057 341.945 715.631C341.416 715.205 340.764 714.991 339.989 714.991C339.222 714.991 338.57 715.2 338.033 715.618C337.496 716.036 337.082 716.632 336.793 717.408C336.511 718.183 336.371 719.108 336.371 720.182ZM362.441 730.371C360.378 730.371 358.605 729.949 357.123 729.105C355.648 728.253 354.51 727.068 353.709 725.551C352.917 724.026 352.52 722.257 352.52 720.246C352.52 718.226 352.917 716.457 353.709 714.94C354.51 713.415 355.648 712.23 357.123 711.386C358.605 710.534 360.378 710.108 362.441 710.108C364.503 710.108 366.272 710.534 367.746 711.386C369.229 712.23 370.367 713.415 371.159 714.94C371.961 716.457 372.361 718.226 372.361 720.246C372.361 722.257 371.961 724.026 371.159 725.551C370.367 727.068 369.229 728.253 367.746 729.105C366.272 729.949 364.503 730.371 362.441 730.371ZM362.479 725.653C363.229 725.653 363.864 725.423 364.384 724.963C364.904 724.503 365.3 723.864 365.573 723.045C365.854 722.227 365.995 721.281 365.995 720.207C365.995 719.116 365.854 718.162 365.573 717.344C365.3 716.526 364.904 715.886 364.384 715.426C363.864 714.966 363.229 714.736 362.479 714.736C361.703 714.736 361.047 714.966 360.51 715.426C359.982 715.886 359.577 716.526 359.296 717.344C359.023 718.162 358.887 719.116 358.887 720.207C358.887 721.281 359.023 722.227 359.296 723.045C359.577 723.864 359.982 724.503 360.51 724.963C361.047 725.423 361.703 725.653 362.479 725.653ZM388.961 730H382.16L390.994 703.818H399.419L408.252 730H401.451L395.302 710.415H395.098L388.961 730ZM388.054 719.696H402.27V724.503H388.054V719.696ZM411.071 730V703.818H421.887C423.847 703.818 425.539 704.202 426.962 704.969C428.394 705.727 429.498 706.788 430.273 708.152C431.049 709.507 431.436 711.084 431.436 712.882C431.436 714.689 431.04 716.27 430.248 717.625C429.463 718.972 428.343 720.016 426.885 720.757C425.428 721.499 423.698 721.869 421.695 721.869H415.022V716.884H420.519C421.473 716.884 422.27 716.717 422.909 716.385C423.557 716.053 424.047 715.588 424.38 714.991C424.712 714.386 424.878 713.683 424.878 712.882C424.878 712.072 424.712 711.374 424.38 710.786C424.047 710.189 423.557 709.729 422.909 709.405C422.262 709.081 421.465 708.919 420.519 708.919H417.4V730H411.071ZM440.884 703.818V730H434.556V703.818H440.884Z" fill="#743E29"/>
<path d="M1582.12 134V107.818H1592.93C1594.89 107.818 1596.59 108.172 1598.01 108.879C1599.44 109.578 1600.54 110.584 1601.32 111.896C1602.1 113.2 1602.48 114.747 1602.48 116.537C1602.48 118.352 1602.09 119.895 1601.29 121.165C1600.5 122.426 1599.38 123.389 1597.92 124.054C1596.46 124.71 1594.74 125.038 1592.74 125.038H1585.9V120.053H1591.57C1592.52 120.053 1593.32 119.929 1593.96 119.682C1594.6 119.426 1595.09 119.043 1595.43 118.531C1595.76 118.011 1595.93 117.347 1595.93 116.537C1595.93 115.727 1595.76 115.058 1595.43 114.53C1595.09 113.993 1594.6 113.592 1593.96 113.328C1593.31 113.055 1592.51 112.919 1591.57 112.919H1588.45V134H1582.12ZM1596.86 122.034L1603.38 134H1596.47L1590.08 122.034H1596.86ZM1614.75 134.371C1612.69 134.371 1610.92 133.966 1609.43 133.156C1607.95 132.338 1606.8 131.175 1606 129.666C1605.21 128.149 1604.81 126.347 1604.81 124.259C1604.81 122.23 1605.21 120.457 1606.01 118.94C1606.82 117.415 1607.95 116.23 1609.4 115.386C1610.86 114.534 1612.58 114.108 1614.55 114.108C1615.95 114.108 1617.23 114.325 1618.39 114.76C1619.55 115.195 1620.55 115.838 1621.39 116.69C1622.24 117.543 1622.89 118.595 1623.36 119.848C1623.83 121.092 1624.07 122.52 1624.07 124.131V125.69H1607V122.06H1618.25C1618.24 121.395 1618.08 120.803 1617.78 120.283C1617.47 119.763 1617.05 119.358 1616.51 119.068C1615.98 118.77 1615.37 118.621 1614.68 118.621C1613.98 118.621 1613.36 118.778 1612.8 119.094C1612.25 119.401 1611.81 119.822 1611.49 120.359C1611.16 120.888 1610.99 121.489 1610.98 122.162V125.857C1610.98 126.658 1611.13 127.361 1611.45 127.966C1611.76 128.562 1612.21 129.027 1612.79 129.359C1613.37 129.692 1614.06 129.858 1614.86 129.858C1615.42 129.858 1615.92 129.781 1616.37 129.628C1616.82 129.474 1617.21 129.249 1617.53 128.95C1617.86 128.652 1618.1 128.286 1618.26 127.851L1624 128.017C1623.76 129.304 1623.24 130.425 1622.43 131.379C1621.63 132.325 1620.58 133.062 1619.27 133.591C1617.97 134.111 1616.46 134.371 1614.75 134.371ZM1627.26 141.364V114.364H1633.45V117.726H1633.64C1633.89 117.129 1634.26 116.554 1634.72 116C1635.2 115.446 1635.81 114.994 1636.54 114.645C1637.28 114.287 1638.17 114.108 1639.2 114.108C1640.56 114.108 1641.84 114.466 1643.02 115.182C1644.21 115.898 1645.18 117.001 1645.91 118.493C1646.64 119.984 1647.01 121.885 1647.01 124.195C1647.01 126.419 1646.66 128.281 1645.95 129.781C1645.25 131.281 1644.3 132.406 1643.11 133.156C1641.93 133.906 1640.61 134.281 1639.16 134.281C1638.17 134.281 1637.32 134.119 1636.59 133.795C1635.87 133.472 1635.26 133.045 1634.76 132.517C1634.28 131.989 1633.9 131.422 1633.64 130.817H1633.51V141.364H1627.26ZM1633.38 124.182C1633.38 125.239 1633.52 126.159 1633.8 126.943C1634.09 127.727 1634.51 128.337 1635.04 128.771C1635.59 129.197 1636.24 129.411 1637 129.411C1637.77 129.411 1638.42 129.197 1638.96 128.771C1639.49 128.337 1639.9 127.727 1640.17 126.943C1640.45 126.159 1640.59 125.239 1640.59 124.182C1640.59 123.125 1640.45 122.209 1640.17 121.433C1639.9 120.658 1639.49 120.057 1638.96 119.631C1638.43 119.205 1637.78 118.991 1637 118.991C1636.23 118.991 1635.58 119.2 1635.04 119.618C1634.51 120.036 1634.09 120.632 1633.8 121.408C1633.52 122.183 1633.38 123.108 1633.38 124.182ZM1659.45 134.371C1657.39 134.371 1655.62 133.949 1654.13 133.105C1652.66 132.253 1651.52 131.068 1650.72 129.551C1649.93 128.026 1649.53 126.257 1649.53 124.246C1649.53 122.226 1649.93 120.457 1650.72 118.94C1651.52 117.415 1652.66 116.23 1654.13 115.386C1655.62 114.534 1657.39 114.108 1659.45 114.108C1661.51 114.108 1663.28 114.534 1664.76 115.386C1666.24 116.23 1667.38 117.415 1668.17 118.94C1668.97 120.457 1669.37 122.226 1669.37 124.246C1669.37 126.257 1668.97 128.026 1668.17 129.551C1667.38 131.068 1666.24 132.253 1664.76 133.105C1663.28 133.949 1661.51 134.371 1659.45 134.371ZM1659.49 129.653C1660.24 129.653 1660.88 129.423 1661.4 128.963C1661.92 128.503 1662.31 127.864 1662.58 127.045C1662.87 126.227 1663.01 125.281 1663.01 124.207C1663.01 123.116 1662.87 122.162 1662.58 121.344C1662.31 120.526 1661.92 119.886 1661.4 119.426C1660.88 118.966 1660.24 118.736 1659.49 118.736C1658.72 118.736 1658.06 118.966 1657.52 119.426C1656.99 119.886 1656.59 120.526 1656.31 121.344C1656.03 122.162 1655.9 123.116 1655.9 124.207C1655.9 125.281 1656.03 126.227 1656.31 127.045C1656.59 127.864 1656.99 128.503 1657.52 128.963C1658.06 129.423 1658.72 129.653 1659.49 129.653ZM1685.97 134H1679.17L1688.01 107.818H1696.43L1705.26 134H1698.46L1692.31 114.415H1692.11L1685.97 134ZM1685.07 123.696H1699.28V128.503H1685.07V123.696ZM1708.08 141.364V114.364H1714.27V117.726H1714.46C1714.72 117.129 1715.08 116.554 1715.55 116C1716.03 115.446 1716.63 114.994 1717.36 114.645C1718.11 114.287 1718.99 114.108 1720.02 114.108C1721.39 114.108 1722.66 114.466 1723.85 115.182C1725.04 115.898 1726 117.001 1726.74 118.493C1727.47 119.984 1727.83 121.885 1727.83 124.195C1727.83 126.419 1727.48 128.281 1726.77 129.781C1726.07 131.281 1725.13 132.406 1723.94 133.156C1722.75 133.906 1721.43 134.281 1719.99 134.281C1719 134.281 1718.14 134.119 1717.42 133.795C1716.69 133.472 1716.08 133.045 1715.59 132.517C1715.1 131.989 1714.73 131.422 1714.46 130.817H1714.33V141.364H1708.08ZM1714.21 124.182C1714.21 125.239 1714.35 126.159 1714.63 126.943C1714.92 127.727 1715.33 128.337 1715.87 128.771C1716.41 129.197 1717.07 129.411 1717.82 129.411C1718.59 129.411 1719.24 129.197 1719.78 128.771C1720.32 128.337 1720.72 127.727 1721 126.943C1721.28 126.159 1721.42 125.239 1721.42 124.182C1721.42 123.125 1721.28 122.209 1721 121.433C1720.72 120.658 1720.32 120.057 1719.78 119.631C1719.25 119.205 1718.6 118.991 1717.82 118.991C1717.06 118.991 1716.41 119.2 1715.87 119.618C1715.33 120.036 1714.92 120.632 1714.63 121.408C1714.35 122.183 1714.21 123.108 1714.21 124.182ZM1731.11 141.364V114.364H1737.3V117.726H1737.49C1737.75 117.129 1738.11 116.554 1738.58 116C1739.05 115.446 1739.66 114.994 1740.39 114.645C1741.13 114.287 1742.02 114.108 1743.05 114.108C1744.41 114.108 1745.69 114.466 1746.87 115.182C1748.07 115.898 1749.03 117.001 1749.76 118.493C1750.5 119.984 1750.86 121.885 1750.86 124.195C1750.86 126.419 1750.51 128.281 1749.8 129.781C1749.1 131.281 1748.16 132.406 1746.96 133.156C1745.78 133.906 1744.46 134.281 1743.01 134.281C1742.02 134.281 1741.17 134.119 1740.44 133.795C1739.72 133.472 1739.11 133.045 1738.61 132.517C1738.13 131.989 1737.75 131.422 1737.49 130.817H1737.36V141.364H1731.11ZM1737.23 124.182C1737.23 125.239 1737.37 126.159 1737.66 126.943C1737.95 127.727 1738.36 128.337 1738.9 128.771C1739.44 129.197 1740.09 129.411 1740.85 129.411C1741.62 129.411 1742.27 129.197 1742.81 128.771C1743.34 128.337 1743.75 127.727 1744.02 126.943C1744.3 126.159 1744.44 125.239 1744.44 124.182C1744.44 123.125 1744.3 122.209 1744.02 121.433C1743.75 120.658 1743.34 120.057 1742.81 119.631C1742.28 119.205 1741.63 118.991 1740.85 118.991C1740.08 118.991 1739.43 119.2 1738.9 119.618C1738.36 120.036 1737.95 120.632 1737.66 121.408C1737.37 122.183 1737.23 123.108 1737.23 124.182ZM1771.28 120.359L1765.54 120.513C1765.48 120.104 1765.32 119.741 1765.06 119.426C1764.79 119.102 1764.45 118.851 1764.02 118.672C1763.6 118.484 1763.12 118.391 1762.56 118.391C1761.84 118.391 1761.22 118.536 1760.71 118.825C1760.21 119.115 1759.96 119.507 1759.97 120.001C1759.96 120.385 1760.11 120.717 1760.43 120.999C1760.75 121.28 1761.33 121.506 1762.15 121.676L1765.94 122.392C1767.9 122.767 1769.36 123.389 1770.31 124.259C1771.27 125.128 1771.76 126.278 1771.77 127.71C1771.76 129.057 1771.36 130.229 1770.57 131.226C1769.78 132.223 1768.71 132.999 1767.34 133.553C1765.98 134.098 1764.42 134.371 1762.66 134.371C1759.86 134.371 1757.65 133.795 1756.03 132.645C1754.42 131.486 1753.5 129.935 1753.27 127.991L1759.44 127.838C1759.58 128.554 1759.93 129.099 1760.5 129.474C1761.08 129.849 1761.8 130.037 1762.69 130.037C1763.49 130.037 1764.14 129.888 1764.65 129.589C1765.15 129.291 1765.4 128.895 1765.41 128.401C1765.4 127.957 1765.21 127.604 1764.83 127.339C1764.44 127.067 1763.84 126.854 1763.02 126.7L1759.6 126.048C1757.63 125.69 1756.16 125.03 1755.2 124.067C1754.24 123.095 1753.76 121.859 1753.77 120.359C1753.76 119.047 1754.11 117.926 1754.82 116.997C1755.52 116.06 1756.53 115.344 1757.83 114.849C1759.14 114.355 1760.67 114.108 1762.45 114.108C1765.11 114.108 1767.2 114.666 1768.74 115.783C1770.27 116.891 1771.12 118.416 1771.28 120.359Z" fill="#743E29"/>
<path d="M1595.46 463V436.818H1606.27C1608.23 436.818 1609.92 437.172 1611.35 437.879C1612.78 438.578 1613.88 439.584 1614.66 440.896C1615.43 442.2 1615.82 443.747 1615.82 445.537C1615.82 447.352 1615.42 448.895 1614.63 450.165C1613.84 451.426 1612.71 452.389 1611.26 453.054C1609.8 453.71 1608.07 454.038 1606.08 454.038H1599.24V449.053H1604.9C1605.86 449.053 1606.66 448.929 1607.29 448.682C1607.94 448.426 1608.43 448.043 1608.76 447.531C1609.1 447.011 1609.26 446.347 1609.26 445.537C1609.26 444.727 1609.1 444.058 1608.76 443.53C1608.43 442.993 1607.94 442.592 1607.29 442.328C1606.65 442.055 1605.85 441.919 1604.9 441.919H1601.78V463H1595.46ZM1610.2 451.034L1616.72 463H1609.81L1603.42 451.034H1610.2ZM1628.08 463.371C1626.03 463.371 1624.26 462.966 1622.77 462.156C1621.28 461.338 1620.14 460.175 1619.34 458.666C1618.55 457.149 1618.15 455.347 1618.15 453.259C1618.15 451.23 1618.55 449.457 1619.35 447.94C1620.15 446.415 1621.28 445.23 1622.74 444.386C1624.2 443.534 1625.92 443.108 1627.89 443.108C1629.29 443.108 1630.57 443.325 1631.73 443.76C1632.89 444.195 1633.89 444.838 1634.73 445.69C1635.58 446.543 1636.23 447.595 1636.7 448.848C1637.17 450.092 1637.4 451.52 1637.4 453.131V454.69H1620.34V451.06H1631.59C1631.58 450.395 1631.42 449.803 1631.11 449.283C1630.81 448.763 1630.39 448.358 1629.85 448.068C1629.32 447.77 1628.71 447.621 1628.02 447.621C1627.32 447.621 1626.7 447.778 1626.14 448.094C1625.59 448.401 1625.15 448.822 1624.82 449.359C1624.5 449.888 1624.33 450.489 1624.31 451.162V454.857C1624.31 455.658 1624.47 456.361 1624.79 456.966C1625.1 457.562 1625.55 458.027 1626.13 458.359C1626.71 458.692 1627.4 458.858 1628.2 458.858C1628.75 458.858 1629.26 458.781 1629.71 458.628C1630.16 458.474 1630.55 458.249 1630.87 457.95C1631.2 457.652 1631.44 457.286 1631.6 456.851L1637.34 457.017C1637.1 458.304 1636.58 459.425 1635.77 460.379C1634.97 461.325 1633.91 462.062 1632.61 462.591C1631.31 463.111 1629.8 463.371 1628.08 463.371ZM1640.6 470.364V443.364H1646.78V446.726H1646.98C1647.23 446.129 1647.59 445.554 1648.06 445C1648.54 444.446 1649.15 443.994 1649.88 443.645C1650.62 443.287 1651.51 443.108 1652.54 443.108C1653.9 443.108 1655.17 443.466 1656.36 444.182C1657.55 444.898 1658.52 446.001 1659.25 447.493C1659.98 448.984 1660.35 450.885 1660.35 453.195C1660.35 455.419 1659.99 457.281 1659.29 458.781C1658.59 460.281 1657.64 461.406 1656.45 462.156C1655.26 462.906 1653.95 463.281 1652.5 463.281C1651.51 463.281 1650.65 463.119 1649.93 462.795C1649.2 462.472 1648.6 462.045 1648.1 461.517C1647.62 460.989 1647.24 460.422 1646.98 459.817H1646.85V470.364H1640.6ZM1646.72 453.182C1646.72 454.239 1646.86 455.159 1647.14 455.943C1647.43 456.727 1647.85 457.337 1648.38 457.771C1648.93 458.197 1649.58 458.411 1650.34 458.411C1651.11 458.411 1651.76 458.197 1652.29 457.771C1652.83 457.337 1653.24 456.727 1653.51 455.943C1653.79 455.159 1653.93 454.239 1653.93 453.182C1653.93 452.125 1653.79 451.209 1653.51 450.433C1653.24 449.658 1652.83 449.057 1652.29 448.631C1651.77 448.205 1651.11 447.991 1650.34 447.991C1649.57 447.991 1648.92 448.2 1648.38 448.618C1647.85 449.036 1647.43 449.632 1647.14 450.408C1646.86 451.183 1646.72 452.108 1646.72 453.182ZM1672.79 463.371C1670.73 463.371 1668.96 462.949 1667.47 462.105C1666 461.253 1664.86 460.068 1664.06 458.551C1663.27 457.026 1662.87 455.257 1662.87 453.246C1662.87 451.226 1663.27 449.457 1664.06 447.94C1664.86 446.415 1666 445.23 1667.47 444.386C1668.96 443.534 1670.73 443.108 1672.79 443.108C1674.85 443.108 1676.62 443.534 1678.1 444.386C1679.58 445.23 1680.72 446.415 1681.51 447.94C1682.31 449.457 1682.71 451.226 1682.71 453.246C1682.71 455.257 1682.31 457.026 1681.51 458.551C1680.72 460.068 1679.58 461.253 1678.1 462.105C1676.62 462.949 1674.85 463.371 1672.79 463.371ZM1672.83 458.653C1673.58 458.653 1674.21 458.423 1674.73 457.963C1675.25 457.503 1675.65 456.864 1675.92 456.045C1676.2 455.227 1676.34 454.281 1676.34 453.207C1676.34 452.116 1676.2 451.162 1675.92 450.344C1675.65 449.526 1675.25 448.886 1674.73 448.426C1674.21 447.966 1673.58 447.736 1672.83 447.736C1672.05 447.736 1671.4 447.966 1670.86 448.426C1670.33 448.886 1669.93 449.526 1669.65 450.344C1669.37 451.162 1669.24 452.116 1669.24 453.207C1669.24 454.281 1669.37 455.227 1669.65 456.045C1669.93 456.864 1670.33 457.503 1670.86 457.963C1671.4 458.423 1672.05 458.653 1672.83 458.653ZM1699.92 463L1692.31 436.818H1699.3L1703.25 453.974H1703.47L1707.98 436.818H1713.68L1718.19 454.013H1718.41L1722.37 436.818H1729.35L1721.75 463H1715.65L1710.93 447.122H1710.73L1706.01 463H1699.92ZM1738.97 463.371C1736.91 463.371 1735.14 462.966 1733.65 462.156C1732.17 461.338 1731.02 460.175 1730.22 458.666C1729.43 457.149 1729.03 455.347 1729.03 453.259C1729.03 451.23 1729.43 449.457 1730.24 447.94C1731.04 446.415 1732.17 445.23 1733.62 444.386C1735.08 443.534 1736.8 443.108 1738.78 443.108C1740.17 443.108 1741.45 443.325 1742.61 443.76C1743.77 444.195 1744.77 444.838 1745.61 445.69C1746.46 446.543 1747.11 447.595 1747.58 448.848C1748.05 450.092 1748.29 451.52 1748.29 453.131V454.69H1731.22V451.06H1742.47C1742.46 450.395 1742.3 449.803 1742 449.283C1741.69 448.763 1741.27 448.358 1740.73 448.068C1740.2 447.77 1739.59 447.621 1738.9 447.621C1738.2 447.621 1737.58 447.778 1737.02 448.094C1736.47 448.401 1736.03 448.822 1735.71 449.359C1735.38 449.888 1735.21 450.489 1735.2 451.162V454.857C1735.2 455.658 1735.35 456.361 1735.67 456.966C1735.98 457.562 1736.43 458.027 1737.01 458.359C1737.59 458.692 1738.28 458.858 1739.08 458.858C1739.64 458.858 1740.14 458.781 1740.59 458.628C1741.04 458.474 1741.43 458.249 1741.75 457.95C1742.08 457.652 1742.32 457.286 1742.48 456.851L1748.22 457.017C1747.98 458.304 1747.46 459.425 1746.65 460.379C1745.85 461.325 1744.8 462.062 1743.49 462.591C1742.19 463.111 1740.68 463.371 1738.97 463.371ZM1751.48 463V436.818H1757.73V446.726H1757.86C1758.11 446.129 1758.48 445.554 1758.95 445C1759.42 444.446 1760.03 443.994 1760.76 443.645C1761.5 443.287 1762.39 443.108 1763.42 443.108C1764.78 443.108 1766.06 443.466 1767.24 444.182C1768.44 444.898 1769.4 446.001 1770.13 447.493C1770.86 448.984 1771.23 450.885 1771.23 453.195C1771.23 455.419 1770.88 457.281 1770.17 458.781C1769.47 460.281 1768.53 461.406 1767.33 462.156C1766.15 462.906 1764.83 463.281 1763.38 463.281C1762.39 463.281 1761.54 463.119 1760.81 462.795C1760.09 462.472 1759.48 462.045 1758.98 461.517C1758.5 460.989 1758.12 460.422 1757.86 459.817H1757.67V463H1751.48ZM1757.6 453.182C1757.6 454.239 1757.74 455.159 1758.03 455.943C1758.31 456.727 1758.73 457.337 1759.27 457.771C1759.81 458.197 1760.46 458.411 1761.22 458.411C1761.99 458.411 1762.64 458.197 1763.18 457.771C1763.71 457.337 1764.12 456.727 1764.39 455.943C1764.67 455.159 1764.81 454.239 1764.81 453.182C1764.81 452.125 1764.67 451.209 1764.39 450.433C1764.12 449.658 1763.71 449.057 1763.18 448.631C1762.65 448.205 1762 447.991 1761.22 447.991C1760.45 447.991 1759.8 448.2 1759.27 448.618C1758.73 449.036 1758.31 449.632 1758.03 450.408C1757.74 451.183 1757.6 452.108 1757.6 453.182Z" fill="#743E29"/>
<path d="M1540.36 752V725.818H1551.17C1553.13 725.818 1554.83 726.172 1556.25 726.879C1557.68 727.578 1558.78 728.584 1559.56 729.896C1560.34 731.2 1560.72 732.747 1560.72 734.537C1560.72 736.352 1560.33 737.895 1559.53 739.165C1558.74 740.426 1557.62 741.389 1556.16 742.054C1554.7 742.71 1552.98 743.038 1550.98 743.038H1544.14V738.053H1549.81C1550.76 738.053 1551.56 737.929 1552.2 737.682C1552.84 737.426 1553.33 737.043 1553.67 736.531C1554 736.011 1554.17 735.347 1554.17 734.537C1554.17 733.727 1554 733.058 1553.67 732.53C1553.33 731.993 1552.84 731.592 1552.2 731.328C1551.55 731.055 1550.75 730.919 1549.81 730.919H1546.69V752H1540.36ZM1555.1 740.034L1561.62 752H1554.72L1548.32 740.034H1555.1ZM1572.99 752.371C1570.93 752.371 1569.16 751.966 1567.67 751.156C1566.19 750.338 1565.04 749.175 1564.24 747.666C1563.45 746.149 1563.05 744.347 1563.05 742.259C1563.05 740.23 1563.45 738.457 1564.26 736.94C1565.06 735.415 1566.19 734.23 1567.64 733.386C1569.1 732.534 1570.82 732.108 1572.79 732.108C1574.19 732.108 1575.47 732.325 1576.63 732.76C1577.79 733.195 1578.79 733.838 1579.63 734.69C1580.48 735.543 1581.13 736.595 1581.6 737.848C1582.07 739.092 1582.31 740.52 1582.31 742.131V743.69H1565.24V740.06H1576.49C1576.48 739.395 1576.32 738.803 1576.02 738.283C1575.71 737.763 1575.29 737.358 1574.75 737.068C1574.22 736.77 1573.61 736.621 1572.92 736.621C1572.22 736.621 1571.6 736.778 1571.04 737.094C1570.49 737.401 1570.05 737.822 1569.73 738.359C1569.4 738.888 1569.23 739.489 1569.22 740.162V743.857C1569.22 744.658 1569.37 745.361 1569.69 745.966C1570 746.562 1570.45 747.027 1571.03 747.359C1571.61 747.692 1572.3 747.858 1573.1 747.858C1573.66 747.858 1574.16 747.781 1574.61 747.628C1575.06 747.474 1575.45 747.249 1575.77 746.95C1576.1 746.652 1576.34 746.286 1576.5 745.851L1582.24 746.017C1582 747.304 1581.48 748.425 1580.67 749.379C1579.87 750.325 1578.82 751.062 1577.51 751.591C1576.21 752.111 1574.7 752.371 1572.99 752.371ZM1585.5 759.364V732.364H1591.69V735.726H1591.88C1592.13 735.129 1592.5 734.554 1592.97 734C1593.44 733.446 1594.05 732.994 1594.78 732.645C1595.52 732.287 1596.41 732.108 1597.44 732.108C1598.8 732.108 1600.08 732.466 1601.26 733.182C1602.46 733.898 1603.42 735.001 1604.15 736.493C1604.88 737.984 1605.25 739.885 1605.25 742.195C1605.25 744.419 1604.9 746.281 1604.19 747.781C1603.49 749.281 1602.54 750.406 1601.35 751.156C1600.17 751.906 1598.85 752.281 1597.4 752.281C1596.41 752.281 1595.56 752.119 1594.83 751.795C1594.11 751.472 1593.5 751.045 1593 750.517C1592.52 749.989 1592.14 749.422 1591.88 748.817H1591.75V759.364H1585.5ZM1591.62 742.182C1591.62 743.239 1591.76 744.159 1592.04 744.943C1592.33 745.727 1592.75 746.337 1593.28 746.771C1593.83 747.197 1594.48 747.411 1595.24 747.411C1596.01 747.411 1596.66 747.197 1597.2 746.771C1597.73 746.337 1598.14 745.727 1598.41 744.943C1598.69 744.159 1598.83 743.239 1598.83 742.182C1598.83 741.125 1598.69 740.209 1598.41 739.433C1598.14 738.658 1597.73 738.057 1597.2 737.631C1596.67 737.205 1596.02 736.991 1595.24 736.991C1594.47 736.991 1593.82 737.2 1593.28 737.618C1592.75 738.036 1592.33 738.632 1592.04 739.408C1591.76 740.183 1591.62 741.108 1591.62 742.182ZM1617.69 752.371C1615.63 752.371 1613.86 751.949 1612.37 751.105C1610.9 750.253 1609.76 749.068 1608.96 747.551C1608.17 746.026 1607.77 744.257 1607.77 742.246C1607.77 740.226 1608.17 738.457 1608.96 736.94C1609.76 735.415 1610.9 734.23 1612.37 733.386C1613.86 732.534 1615.63 732.108 1617.69 732.108C1619.76 732.108 1621.52 732.534 1623 733.386C1624.48 734.23 1625.62 735.415 1626.41 736.94C1627.21 738.457 1627.61 740.226 1627.61 742.246C1627.61 744.257 1627.21 746.026 1626.41 747.551C1625.62 749.068 1624.48 750.253 1623 751.105C1621.52 751.949 1619.76 752.371 1617.69 752.371ZM1617.73 747.653C1618.48 747.653 1619.12 747.423 1619.64 746.963C1620.16 746.503 1620.55 745.864 1620.82 745.045C1621.11 744.227 1621.25 743.281 1621.25 742.207C1621.25 741.116 1621.11 740.162 1620.82 739.344C1620.55 738.526 1620.16 737.886 1619.64 737.426C1619.12 736.966 1618.48 736.736 1617.73 736.736C1616.96 736.736 1616.3 736.966 1615.76 737.426C1615.23 737.886 1614.83 738.526 1614.55 739.344C1614.28 740.162 1614.14 741.116 1614.14 742.207C1614.14 743.281 1614.28 744.227 1614.55 745.045C1614.83 745.864 1615.23 746.503 1615.76 746.963C1616.3 747.423 1616.96 747.653 1617.73 747.653ZM1652.7 733.668C1652.62 732.73 1652.24 732.001 1651.56 731.482C1650.9 730.953 1649.95 730.689 1648.71 730.689C1647.9 730.689 1647.21 730.795 1646.67 731.009C1646.12 731.222 1645.71 731.516 1645.44 731.891C1645.17 732.257 1645.03 732.679 1645.02 733.156C1645 733.548 1645.08 733.893 1645.25 734.192C1645.43 734.49 1645.68 734.754 1646.02 734.984C1646.36 735.206 1646.77 735.402 1647.24 735.572C1647.72 735.743 1648.26 735.892 1648.85 736.02L1651.1 736.531C1652.4 736.812 1653.54 737.188 1654.53 737.656C1655.53 738.125 1656.36 738.683 1657.04 739.331C1657.72 739.979 1658.23 740.724 1658.58 741.568C1658.93 742.412 1659.11 743.358 1659.12 744.406C1659.11 746.06 1658.69 747.479 1657.87 748.663C1657.04 749.848 1655.85 750.756 1654.3 751.386C1652.76 752.017 1650.9 752.332 1648.71 752.332C1646.52 752.332 1644.61 752.004 1642.99 751.348C1641.36 750.692 1640.09 749.695 1639.19 748.357C1638.29 747.018 1637.82 745.327 1637.8 743.281H1643.86C1643.91 744.125 1644.13 744.828 1644.53 745.391C1644.93 745.953 1645.48 746.379 1646.18 746.669C1646.89 746.959 1647.71 747.104 1648.64 747.104C1649.49 747.104 1650.21 746.989 1650.81 746.759C1651.41 746.528 1651.88 746.209 1652.2 745.8C1652.53 745.391 1652.69 744.922 1652.7 744.393C1652.69 743.899 1652.54 743.477 1652.24 743.128C1651.94 742.77 1651.48 742.463 1650.86 742.207C1650.25 741.943 1649.46 741.7 1648.51 741.479L1645.77 740.839C1643.51 740.32 1641.72 739.48 1640.42 738.321C1639.11 737.153 1638.46 735.577 1638.47 733.591C1638.46 731.972 1638.9 730.553 1639.78 729.334C1640.66 728.115 1641.87 727.165 1643.42 726.483C1644.97 725.801 1646.74 725.46 1648.73 725.46C1650.75 725.46 1652.51 725.805 1654.01 726.496C1655.51 727.178 1656.67 728.136 1657.5 729.372C1658.32 730.608 1658.74 732.04 1658.76 733.668H1652.7ZM1671.49 752.371C1669.44 752.371 1667.67 751.966 1666.18 751.156C1664.69 750.338 1663.55 749.175 1662.75 747.666C1661.96 746.149 1661.56 744.347 1661.56 742.259C1661.56 740.23 1661.96 738.457 1662.76 736.94C1663.56 735.415 1664.69 734.23 1666.15 733.386C1667.61 732.534 1669.33 732.108 1671.3 732.108C1672.7 732.108 1673.98 732.325 1675.14 732.76C1676.3 733.195 1677.3 733.838 1678.14 734.69C1678.99 735.543 1679.64 736.595 1680.11 737.848C1680.58 739.092 1680.81 740.52 1680.81 742.131V743.69H1663.75V740.06H1675C1674.99 739.395 1674.83 738.803 1674.52 738.283C1674.22 737.763 1673.8 737.358 1673.26 737.068C1672.73 736.77 1672.12 736.621 1671.43 736.621C1670.73 736.621 1670.11 736.778 1669.55 737.094C1669 737.401 1668.56 737.822 1668.23 738.359C1667.91 738.888 1667.74 739.489 1667.72 740.162V743.857C1667.72 744.658 1667.88 745.361 1668.2 745.966C1668.51 746.562 1668.96 747.027 1669.54 747.359C1670.12 747.692 1670.81 747.858 1671.61 747.858C1672.16 747.858 1672.67 747.781 1673.12 747.628C1673.57 747.474 1673.96 747.249 1674.28 746.95C1674.61 746.652 1674.85 746.286 1675.01 745.851L1680.75 746.017C1680.51 747.304 1679.99 748.425 1679.18 749.379C1678.38 750.325 1677.32 751.062 1676.02 751.591C1674.72 752.111 1673.21 752.371 1671.49 752.371ZM1684.01 752V732.364H1690.08V735.943H1690.28C1690.64 734.648 1691.23 733.685 1692.04 733.054C1692.84 732.415 1693.79 732.095 1694.86 732.095C1695.15 732.095 1695.45 732.116 1695.76 732.159C1696.06 732.193 1696.35 732.249 1696.61 732.325V737.759C1696.31 737.656 1695.92 737.575 1695.44 737.516C1694.96 737.456 1694.53 737.426 1694.16 737.426C1693.42 737.426 1692.75 737.592 1692.15 737.925C1691.56 738.249 1691.1 738.705 1690.76 739.293C1690.42 739.872 1690.26 740.554 1690.26 741.338V752H1684.01ZM1718.81 732.364L1712.07 752H1704.91L1698.18 732.364H1704.77L1708.39 745.889H1708.59L1712.22 732.364H1718.81ZM1721.2 752V732.364H1727.45V752H1721.2ZM1724.33 730.075C1723.46 730.075 1722.7 729.786 1722.07 729.206C1721.44 728.618 1721.13 727.911 1721.13 727.084C1721.13 726.266 1721.44 725.567 1722.07 724.987C1722.7 724.399 1723.46 724.105 1724.33 724.105C1725.22 724.105 1725.97 724.399 1726.6 724.987C1727.23 725.567 1727.54 726.266 1727.54 727.084C1727.54 727.911 1727.23 728.618 1726.6 729.206C1725.97 729.786 1725.22 730.075 1724.33 730.075ZM1740.6 752.371C1738.53 752.371 1736.75 751.945 1735.27 751.092C1733.79 750.24 1732.66 749.055 1731.87 747.538C1731.07 746.013 1730.68 744.249 1730.68 742.246C1730.68 740.234 1731.07 738.47 1731.87 736.953C1732.67 735.428 1733.81 734.239 1735.28 733.386C1736.76 732.534 1738.53 732.108 1740.59 732.108C1742.4 732.108 1743.98 732.436 1745.33 733.092C1746.68 733.749 1747.74 734.678 1748.5 735.879C1749.27 737.072 1749.67 738.474 1749.71 740.085H1743.87C1743.75 739.08 1743.41 738.291 1742.85 737.72C1742.29 737.149 1741.57 736.864 1740.68 736.864C1739.95 736.864 1739.32 737.068 1738.77 737.477C1738.23 737.878 1737.8 738.474 1737.49 739.267C1737.19 740.051 1737.04 741.023 1737.04 742.182C1737.04 743.341 1737.19 744.321 1737.49 745.122C1737.8 745.915 1738.23 746.516 1738.77 746.925C1739.32 747.325 1739.95 747.526 1740.68 747.526C1741.26 747.526 1741.77 747.402 1742.21 747.155C1742.66 746.908 1743.03 746.545 1743.32 746.068C1743.61 745.582 1743.79 744.994 1743.87 744.304H1749.71C1749.65 745.923 1749.25 747.338 1748.5 748.548C1747.76 749.759 1746.71 750.7 1745.37 751.374C1744.03 752.038 1742.44 752.371 1740.6 752.371ZM1762.09 752.371C1760.04 752.371 1758.27 751.966 1756.77 751.156C1755.29 750.338 1754.15 749.175 1753.35 747.666C1752.56 746.149 1752.16 744.347 1752.16 742.259C1752.16 740.23 1752.56 738.457 1753.36 736.94C1754.16 735.415 1755.29 734.23 1756.75 733.386C1758.21 732.534 1759.92 732.108 1761.9 732.108C1763.3 732.108 1764.58 732.325 1765.74 732.76C1766.89 733.195 1767.9 733.838 1768.74 734.69C1769.58 735.543 1770.24 736.595 1770.71 737.848C1771.18 739.092 1771.41 740.52 1771.41 742.131V743.69H1754.34V740.06H1765.59C1765.59 739.395 1765.43 738.803 1765.12 738.283C1764.82 737.763 1764.39 737.358 1763.86 737.068C1763.33 736.77 1762.72 736.621 1762.03 736.621C1761.33 736.621 1760.7 736.778 1760.15 737.094C1759.59 737.401 1759.16 737.822 1758.83 738.359C1758.51 738.888 1758.34 739.489 1758.32 740.162V743.857C1758.32 744.658 1758.48 745.361 1758.79 745.966C1759.11 746.562 1759.56 747.027 1760.14 747.359C1760.72 747.692 1761.41 747.858 1762.21 747.858C1762.76 747.858 1763.26 747.781 1763.72 747.628C1764.17 747.474 1764.56 747.249 1764.88 746.95C1765.2 746.652 1765.45 746.286 1765.61 745.851L1771.35 746.017C1771.11 747.304 1770.59 748.425 1769.78 749.379C1768.97 750.325 1767.92 751.062 1766.62 751.591C1765.31 752.111 1763.81 752.371 1762.09 752.371Z" fill="#743E29"/>
<path d="M698.386 1001V974.818H709.201C711.161 974.818 712.853 975.172 714.276 975.879C715.708 976.578 716.812 977.584 717.588 978.896C718.363 980.2 718.751 981.747 718.751 983.537C718.751 985.352 718.355 986.895 717.562 988.165C716.769 989.426 715.644 990.389 714.187 991.054C712.73 991.71 711.004 992.038 709.009 992.038H702.17V987.053H707.833C708.788 987.053 709.585 986.929 710.224 986.682C710.872 986.426 711.362 986.043 711.694 985.531C712.026 985.011 712.193 984.347 712.193 983.537C712.193 982.727 712.026 982.058 711.694 981.53C711.362 980.993 710.872 980.592 710.224 980.328C709.576 980.055 708.779 979.919 707.833 979.919H704.714V1001H698.386ZM713.126 989.034L719.646 1001H712.742L706.35 989.034H713.126ZM731.014 1001.37C728.96 1001.37 727.187 1000.97 725.696 1000.16C724.213 999.338 723.071 998.175 722.27 996.666C721.477 995.149 721.081 993.347 721.081 991.259C721.081 989.23 721.481 987.457 722.282 985.94C723.084 984.415 724.213 983.23 725.67 982.386C727.128 981.534 728.845 981.108 730.822 981.108C732.22 981.108 733.498 981.325 734.657 981.76C735.817 982.195 736.818 982.838 737.662 983.69C738.506 984.543 739.162 985.595 739.631 986.848C740.099 988.092 740.334 989.52 740.334 991.131V992.69H723.267V989.06H734.517C734.508 988.395 734.351 987.803 734.044 987.283C733.737 986.763 733.315 986.358 732.778 986.068C732.25 985.77 731.64 985.621 730.95 985.621C730.251 985.621 729.625 985.778 729.071 986.094C728.517 986.401 728.078 986.822 727.754 987.359C727.43 987.888 727.26 988.489 727.243 989.162V992.857C727.243 993.658 727.4 994.361 727.716 994.966C728.031 995.562 728.479 996.027 729.058 996.359C729.638 996.692 730.328 996.858 731.129 996.858C731.683 996.858 732.186 996.781 732.638 996.628C733.089 996.474 733.477 996.249 733.801 995.95C734.125 995.652 734.368 995.286 734.53 994.851L740.27 995.017C740.031 996.304 739.507 997.425 738.697 998.379C737.896 999.325 736.844 1000.06 735.54 1000.59C734.236 1001.11 732.727 1001.37 731.014 1001.37ZM743.526 1008.36V981.364H749.714V984.726H749.906C750.161 984.129 750.524 983.554 750.992 983C751.47 982.446 752.075 981.994 752.808 981.645C753.549 981.287 754.436 981.108 755.467 981.108C756.83 981.108 758.105 981.466 759.289 982.182C760.482 982.898 761.445 984.001 762.178 985.493C762.911 986.984 763.278 988.885 763.278 991.195C763.278 993.419 762.924 995.281 762.217 996.781C761.518 998.281 760.572 999.406 759.379 1000.16C758.194 1000.91 756.877 1001.28 755.428 1001.28C754.44 1001.28 753.583 1001.12 752.859 1000.8C752.134 1000.47 751.525 1000.05 751.031 999.517C750.545 998.989 750.17 998.422 749.906 997.817H749.778V1008.36H743.526ZM749.65 991.182C749.65 992.239 749.791 993.159 750.072 993.943C750.362 994.727 750.775 995.337 751.312 995.771C751.857 996.197 752.509 996.411 753.268 996.411C754.035 996.411 754.687 996.197 755.224 995.771C755.761 995.337 756.166 994.727 756.438 993.943C756.72 993.159 756.86 992.239 756.86 991.182C756.86 990.125 756.72 989.209 756.438 988.433C756.166 987.658 755.761 987.057 755.224 986.631C754.695 986.205 754.044 985.991 753.268 985.991C752.501 985.991 751.849 986.2 751.312 986.618C750.775 987.036 750.362 987.632 750.072 988.408C749.791 989.183 749.65 990.108 749.65 991.182ZM775.72 1001.37C773.657 1001.37 771.885 1000.95 770.402 1000.11C768.927 999.253 767.79 998.068 766.988 996.551C766.196 995.026 765.8 993.257 765.8 991.246C765.8 989.226 766.196 987.457 766.988 985.94C767.79 984.415 768.927 983.23 770.402 982.386C771.885 981.534 773.657 981.108 775.72 981.108C777.782 981.108 779.551 981.534 781.025 982.386C782.508 983.23 783.646 984.415 784.439 985.94C785.24 987.457 785.64 989.226 785.64 991.246C785.64 993.257 785.24 995.026 784.439 996.551C783.646 998.068 782.508 999.253 781.025 1000.11C779.551 1000.95 777.782 1001.37 775.72 1001.37ZM775.758 996.653C776.508 996.653 777.143 996.423 777.663 995.963C778.183 995.503 778.579 994.864 778.852 994.045C779.133 993.227 779.274 992.281 779.274 991.207C779.274 990.116 779.133 989.162 778.852 988.344C778.579 987.526 778.183 986.886 777.663 986.426C777.143 985.966 776.508 985.736 775.758 985.736C774.983 985.736 774.327 985.966 773.79 986.426C773.261 986.886 772.856 987.526 772.575 988.344C772.302 989.162 772.166 990.116 772.166 991.207C772.166 992.281 772.302 993.227 772.575 994.045C772.856 994.864 773.261 995.503 773.79 995.963C774.327 996.423 774.983 996.653 775.758 996.653ZM821.289 987.909C821.289 990.79 820.735 993.232 819.627 995.234C818.519 997.237 817.019 998.759 815.127 999.798C813.243 1000.84 811.13 1001.36 808.786 1001.36C806.434 1001.36 804.316 1000.83 802.432 999.786C800.549 998.737 799.053 997.216 797.945 995.222C796.846 993.219 796.296 990.781 796.296 987.909C796.296 985.028 796.846 982.587 797.945 980.584C799.053 978.581 800.549 977.06 802.432 976.02C804.316 974.98 806.434 974.46 808.786 974.46C811.13 974.46 813.243 974.98 815.127 976.02C817.019 977.06 818.519 978.581 819.627 980.584C820.735 982.587 821.289 985.028 821.289 987.909ZM814.82 987.909C814.82 986.205 814.577 984.764 814.091 983.588C813.614 982.412 812.924 981.521 812.02 980.916C811.126 980.311 810.047 980.009 808.786 980.009C807.533 980.009 806.455 980.311 805.552 980.916C804.648 981.521 803.954 982.412 803.468 983.588C802.991 984.764 802.752 986.205 802.752 987.909C802.752 989.614 802.991 991.054 803.468 992.23C803.954 993.406 804.648 994.297 805.552 994.902C806.455 995.507 807.533 995.81 808.786 995.81C810.047 995.81 811.126 995.507 812.02 994.902C812.924 994.297 813.614 993.406 814.091 992.23C814.577 991.054 814.82 989.614 814.82 987.909ZM824.983 1008.36V981.364H831.171V984.726H831.363C831.618 984.129 831.981 983.554 832.449 983C832.927 982.446 833.532 981.994 834.265 981.645C835.006 981.287 835.893 981.108 836.924 981.108C838.287 981.108 839.562 981.466 840.746 982.182C841.939 982.898 842.903 984.001 843.635 985.493C844.368 986.984 844.735 988.885 844.735 991.195C844.735 993.419 844.381 995.281 843.674 996.781C842.975 998.281 842.029 999.406 840.836 1000.16C839.651 1000.91 838.334 1001.28 836.885 1001.28C835.897 1001.28 835.04 1001.12 834.316 1000.8C833.591 1000.47 832.982 1000.05 832.488 999.517C832.002 998.989 831.627 998.422 831.363 997.817H831.235V1008.36H824.983ZM831.107 991.182C831.107 992.239 831.248 993.159 831.529 993.943C831.819 994.727 832.232 995.337 832.769 995.771C833.314 996.197 833.966 996.411 834.725 996.411C835.492 996.411 836.144 996.197 836.681 995.771C837.218 995.337 837.623 994.727 837.895 993.943C838.177 993.159 838.317 992.239 838.317 991.182C838.317 990.125 838.177 989.209 837.895 988.433C837.623 987.658 837.218 987.057 836.681 986.631C836.153 986.205 835.501 985.991 834.725 985.991C833.958 985.991 833.306 986.2 832.769 986.618C832.232 987.036 831.819 987.632 831.529 988.408C831.248 989.183 831.107 990.108 831.107 991.182ZM857.19 1001.37C855.136 1001.37 853.363 1000.97 851.872 1000.16C850.389 999.338 849.247 998.175 848.445 996.666C847.653 995.149 847.257 993.347 847.257 991.259C847.257 989.23 847.657 987.457 848.458 985.94C849.259 984.415 850.389 983.23 851.846 982.386C853.303 981.534 855.021 981.108 856.998 981.108C858.396 981.108 859.674 981.325 860.833 981.76C861.992 982.195 862.994 982.838 863.838 983.69C864.681 984.543 865.338 985.595 865.806 986.848C866.275 988.092 866.509 989.52 866.509 991.131V992.69H849.443V989.06H860.693C860.684 988.395 860.526 987.803 860.22 987.283C859.913 986.763 859.491 986.358 858.954 986.068C858.426 985.77 857.816 985.621 857.126 985.621C856.427 985.621 855.801 985.778 855.247 986.094C854.693 986.401 854.254 986.822 853.93 987.359C853.606 987.888 853.436 988.489 853.419 989.162V992.857C853.419 993.658 853.576 994.361 853.892 994.966C854.207 995.562 854.654 996.027 855.234 996.359C855.813 996.692 856.504 996.858 857.305 996.858C857.859 996.858 858.362 996.781 858.813 996.628C859.265 996.474 859.653 996.249 859.977 995.95C860.301 995.652 860.544 995.286 860.705 994.851L866.445 995.017C866.207 996.304 865.683 997.425 864.873 998.379C864.072 999.325 863.019 1000.06 861.715 1000.59C860.411 1001.11 858.903 1001.37 857.19 1001.37ZM875.954 989.801V1001H869.702V981.364H875.647V984.969H875.864C876.299 983.767 877.04 982.825 878.089 982.143C879.137 981.453 880.385 981.108 881.834 981.108C883.215 981.108 884.412 981.419 885.427 982.041C886.449 982.655 887.242 983.516 887.805 984.624C888.376 985.723 888.657 987.01 888.648 988.484V1001H882.397V989.712C882.405 988.621 882.128 987.768 881.566 987.155C881.012 986.541 880.241 986.234 879.252 986.234C878.596 986.234 878.016 986.379 877.513 986.669C877.019 986.95 876.635 987.355 876.363 987.884C876.099 988.412 875.962 989.051 875.954 989.801ZM898.182 1001H891.381L900.215 974.818H908.639L917.473 1001H910.672L904.523 981.415H904.318L898.182 1001ZM897.274 990.696H911.49V995.503H897.274V990.696ZM920.292 1001V974.818H931.107C933.068 974.818 934.759 975.202 936.183 975.969C937.615 976.727 938.718 977.788 939.494 979.152C940.269 980.507 940.657 982.084 940.657 983.882C940.657 985.689 940.261 987.27 939.468 988.625C938.684 989.972 937.563 991.016 936.106 991.757C934.649 992.499 932.919 992.869 930.916 992.869H924.242V987.884H929.74C930.694 987.884 931.491 987.717 932.13 987.385C932.778 987.053 933.268 986.588 933.6 985.991C933.933 985.386 934.099 984.683 934.099 983.882C934.099 983.072 933.933 982.374 933.6 981.786C933.268 981.189 932.778 980.729 932.13 980.405C931.482 980.081 930.686 979.919 929.74 979.919H926.62V1001H920.292ZM950.105 974.818V1001H943.776V974.818H950.105ZM968.983 1001.28C967.535 1001.28 966.218 1000.91 965.033 1000.16C963.849 999.406 962.903 998.281 962.195 996.781C961.488 995.281 961.134 993.419 961.134 991.195C961.134 988.885 961.501 986.984 962.233 985.493C962.966 984.001 963.925 982.898 965.11 982.182C966.303 981.466 967.586 981.108 968.958 981.108C969.989 981.108 970.871 981.287 971.604 981.645C972.337 981.994 972.942 982.446 973.42 983C973.897 983.554 974.259 984.129 974.506 984.726H974.634V974.818H980.885V1001H974.698V997.817H974.506C974.242 998.422 973.867 998.989 973.381 999.517C972.895 1000.05 972.286 1000.47 971.553 1000.8C970.829 1001.12 969.972 1001.28 968.983 1001.28ZM971.157 996.411C971.915 996.411 972.563 996.197 973.1 995.771C973.637 995.337 974.05 994.727 974.34 993.943C974.63 993.159 974.775 992.239 974.775 991.182C974.775 990.108 974.63 989.183 974.34 988.408C974.059 987.632 973.645 987.036 973.1 986.618C972.563 986.2 971.915 985.991 971.157 985.991C970.381 985.991 969.725 986.205 969.188 986.631C968.651 987.057 968.242 987.658 967.961 988.433C967.688 989.209 967.552 990.125 967.552 991.182C967.552 992.239 967.692 993.159 967.974 993.943C968.255 994.727 968.66 995.337 969.188 995.771C969.725 996.197 970.381 996.411 971.157 996.411ZM994.005 1001.37C991.943 1001.37 990.17 1000.95 988.687 1000.11C987.213 999.253 986.075 998.068 985.274 996.551C984.481 995.026 984.085 993.257 984.085 991.246C984.085 989.226 984.481 987.457 985.274 985.94C986.075 984.415 987.213 983.23 988.687 982.386C990.17 981.534 991.943 981.108 994.005 981.108C996.068 981.108 997.836 981.534 999.311 982.386C1000.79 983.23 1001.93 984.415 1002.72 985.94C1003.53 987.457 1003.93 989.226 1003.93 991.246C1003.93 993.257 1003.53 995.026 1002.72 996.551C1001.93 998.068 1000.79 999.253 999.311 1000.11C997.836 1000.95 996.068 1001.37 994.005 1001.37ZM994.044 996.653C994.794 996.653 995.428 996.423 995.948 995.963C996.468 995.503 996.865 994.864 997.137 994.045C997.419 993.227 997.559 992.281 997.559 991.207C997.559 990.116 997.419 989.162 997.137 988.344C996.865 987.526 996.468 986.886 995.948 986.426C995.428 985.966 994.794 985.736 994.044 985.736C993.268 985.736 992.612 985.966 992.075 986.426C991.546 986.886 991.142 987.526 990.86 988.344C990.588 989.162 990.451 990.116 990.451 991.207C990.451 992.281 990.588 993.227 990.86 994.045C991.142 994.864 991.546 995.503 992.075 995.963C992.612 996.423 993.268 996.653 994.044 996.653ZM1016.29 1001.37C1014.22 1001.37 1012.45 1000.94 1010.96 1000.09C1009.49 999.24 1008.36 998.055 1007.56 996.538C1006.77 995.013 1006.37 993.249 1006.37 991.246C1006.37 989.234 1006.77 987.47 1007.56 985.953C1008.36 984.428 1009.5 983.239 1010.98 982.386C1012.46 981.534 1014.23 981.108 1016.28 981.108C1018.1 981.108 1019.68 981.436 1021.02 982.092C1022.38 982.749 1023.44 983.678 1024.19 984.879C1024.96 986.072 1025.37 987.474 1025.41 989.085H1019.57C1019.45 988.08 1019.11 987.291 1018.54 986.72C1017.99 986.149 1017.27 985.864 1016.37 985.864C1015.65 985.864 1015.01 986.068 1014.47 986.477C1013.92 986.878 1013.49 987.474 1013.19 988.267C1012.89 989.051 1012.74 990.023 1012.74 991.182C1012.74 992.341 1012.89 993.321 1013.19 994.122C1013.49 994.915 1013.92 995.516 1014.47 995.925C1015.01 996.325 1015.65 996.526 1016.37 996.526C1016.95 996.526 1017.46 996.402 1017.91 996.155C1018.36 995.908 1018.73 995.545 1019.02 995.068C1019.31 994.582 1019.49 993.994 1019.57 993.304H1025.41C1025.35 994.923 1024.94 996.338 1024.19 997.548C1023.45 998.759 1022.41 999.7 1021.06 1000.37C1019.72 1001.04 1018.14 1001.37 1016.29 1001.37ZM1032.12 1001.37C1031.2 1001.37 1030.42 1001.05 1029.76 1000.4C1029.11 999.751 1028.79 998.967 1028.8 998.047C1028.79 997.143 1029.11 996.372 1029.76 995.733C1030.42 995.085 1031.2 994.761 1032.12 994.761C1032.99 994.761 1033.76 995.085 1034.43 995.733C1035.1 996.372 1035.44 997.143 1035.45 998.047C1035.44 998.661 1035.28 999.219 1034.96 999.722C1034.66 1000.22 1034.25 1000.62 1033.75 1000.92C1033.25 1001.22 1032.71 1001.37 1032.12 1001.37Z" fill="#743E29"/>
<path d="M698.849 770.175C697.562 770.166 696.578 770.584 695.896 771.428C695.214 772.263 694.874 773.431 694.874 774.931C694.874 776.004 695.044 776.963 695.385 777.807C695.717 778.642 696.178 779.324 696.766 779.852C697.345 780.372 698.006 780.692 698.747 780.811C699.369 780.922 699.906 780.867 700.358 780.645C700.81 780.415 701.189 780.087 701.496 779.661C701.794 779.226 702.045 778.749 702.25 778.229C702.446 777.709 702.608 777.206 702.736 776.72L703.401 774.266C703.605 773.473 703.882 772.668 704.232 771.85C704.581 771.031 705.041 770.294 705.612 769.638C706.183 768.982 706.891 768.492 707.734 768.168C708.578 767.844 709.588 767.78 710.764 767.976C712.247 768.232 713.564 768.833 714.714 769.779C715.865 770.725 716.773 771.973 717.437 773.524C718.102 775.075 718.435 776.874 718.435 778.919C718.435 780.879 718.124 782.529 717.501 783.867C716.879 785.196 715.997 786.172 714.855 786.794C713.705 787.416 712.341 787.638 710.764 787.459L710.764 783.483C711.71 783.577 712.499 783.406 713.129 782.972C713.751 782.529 714.216 781.906 714.523 781.105C714.821 780.304 714.97 779.396 714.97 778.382C714.97 777.257 714.795 776.23 714.446 775.301C714.088 774.372 713.594 773.605 712.963 773C712.324 772.395 711.578 772.024 710.726 771.888C709.95 771.752 709.315 771.862 708.821 772.22C708.327 772.57 707.918 773.098 707.594 773.806C707.27 774.504 706.984 775.301 706.737 776.196L705.893 779.149C705.322 781.152 704.483 782.669 703.375 783.7C702.267 784.732 700.801 785.102 698.977 784.813C697.469 784.557 696.152 783.926 695.027 782.921C693.902 781.915 693.028 780.662 692.406 779.162C691.776 777.662 691.46 776.034 691.46 774.279C691.46 772.506 691.776 770.997 692.406 769.753C693.037 768.509 693.906 767.588 695.014 766.992C696.122 766.395 697.401 766.186 698.849 766.365L698.849 770.175ZM709.857 750.97L698.364 749.052L698.364 745.217L718 748.49L718 752.248L714.599 751.673L714.599 751.878C715.648 752.491 716.521 753.361 717.22 754.486C717.911 755.602 718.256 756.898 718.256 758.372C718.256 759.633 717.979 760.703 717.425 761.581C716.862 762.45 716.031 763.068 714.932 763.434C713.832 763.801 712.473 763.852 710.854 763.588L698.364 761.491L698.364 757.669L710.393 759.676C711.732 759.889 712.797 759.689 713.589 759.075C714.382 758.461 714.778 757.567 714.778 756.39C714.778 755.675 714.599 754.933 714.241 754.166C713.884 753.399 713.342 752.721 712.618 752.133C711.893 751.537 710.973 751.149 709.857 750.97ZM718 743.047L691.818 738.7L691.818 734.878L701.547 736.476L701.547 736.246C701.138 735.956 700.665 735.56 700.128 735.057C699.591 734.546 699.122 733.885 698.722 733.075C698.312 732.266 698.108 731.252 698.108 730.033C698.108 728.448 698.509 727.101 699.31 725.993C700.111 724.885 701.266 724.101 702.774 723.641C704.283 723.181 706.098 723.125 708.22 723.475C710.342 723.824 712.162 724.48 713.679 725.443C715.187 726.398 716.351 727.561 717.169 728.933C717.979 730.306 718.384 731.784 718.384 733.369C718.384 734.563 718.183 735.504 717.783 736.195C717.382 736.877 716.913 737.388 716.376 737.729C715.839 738.061 715.362 738.313 714.945 738.483L714.945 738.803L718 739.314L718 743.047ZM708.182 737.665C709.562 737.887 710.773 737.887 711.812 737.665C712.852 737.435 713.666 736.987 714.254 736.323C714.834 735.649 715.124 734.767 715.124 733.676C715.124 732.534 714.821 731.529 714.216 730.659C713.602 729.79 712.771 729.074 711.723 728.512C710.675 727.949 709.494 727.557 708.182 727.335C706.886 727.131 705.723 727.135 704.692 727.348C703.661 727.561 702.847 728.004 702.25 728.678C701.653 729.343 701.355 730.25 701.355 731.401C701.355 732.509 701.641 733.493 702.212 734.354C702.783 735.215 703.58 735.926 704.602 736.489C705.625 737.051 706.818 737.443 708.182 737.665ZM718 720.806L698.364 717.533L698.364 713.864L701.56 714.401L701.56 714.158C700.477 713.562 699.634 712.752 699.028 711.729C698.415 710.698 698.108 709.53 698.108 708.226C698.108 706.931 698.415 705.887 699.028 705.094C699.642 704.293 700.486 703.769 701.56 703.522L701.56 703.317C700.503 702.687 699.663 701.805 699.041 700.671C698.419 699.537 698.108 698.263 698.108 696.849C698.108 695.084 698.67 693.729 699.795 692.783C700.912 691.829 702.591 691.539 704.832 691.914L718 694.113L718 697.948L705.19 695.8C703.852 695.587 702.889 695.792 702.301 696.414C701.705 697.036 701.406 697.85 701.406 698.856C701.406 700.1 701.79 701.131 702.557 701.949C703.315 702.768 704.291 703.27 705.484 703.458L718 705.567L718 709.364L704.947 707.178C703.874 707.008 703.017 707.204 702.378 707.766C701.73 708.32 701.406 709.13 701.406 710.195C701.406 710.92 701.598 711.623 701.982 712.305C702.365 712.978 702.893 713.553 703.567 714.03C704.24 714.508 705.016 714.819 705.893 714.964L718 716.983L718 720.806ZM718.396 680.642C718.396 682.508 717.97 684.068 717.118 685.32C716.257 686.573 715.055 687.455 713.513 687.967C711.962 688.47 710.159 688.555 708.105 688.222C706.094 687.899 704.338 687.247 702.838 686.267C701.338 685.278 700.175 684.042 699.348 682.559C698.521 681.068 698.108 679.41 698.108 677.586C698.108 675.72 698.538 674.164 699.399 672.92C700.26 671.667 701.466 670.785 703.017 670.274C704.568 669.762 706.375 669.673 708.437 670.005C710.432 670.329 712.179 670.99 713.679 671.987C715.17 672.975 716.33 674.211 717.156 675.694C717.983 677.177 718.396 678.826 718.396 680.642ZM715.187 680.424C715.187 679.197 714.864 678.127 714.216 677.215C713.568 676.295 712.707 675.545 711.634 674.965C710.56 674.386 709.384 673.99 708.105 673.776C706.869 673.58 705.74 673.585 704.717 673.789C703.686 673.985 702.859 674.411 702.237 675.068C701.615 675.724 701.304 676.636 701.304 677.803C701.304 679.031 701.632 680.109 702.288 681.038C702.936 681.958 703.801 682.708 704.884 683.288C705.966 683.859 707.146 684.247 708.425 684.451C709.652 684.647 710.781 684.647 711.812 684.451C712.835 684.255 713.653 683.829 714.267 683.173C714.881 682.517 715.187 681.6 715.187 680.424ZM718.384 659.986C718.384 661.579 717.979 662.93 717.169 664.038C716.351 665.138 715.187 665.917 713.679 666.378C712.162 666.829 710.342 666.881 708.22 666.531C706.098 666.173 704.283 665.513 702.774 664.55C701.266 663.586 700.111 662.419 699.31 661.047C698.509 659.675 698.108 658.196 698.108 656.611C698.108 655.392 698.312 654.446 698.722 653.773C699.122 653.091 699.591 652.588 700.128 652.264C700.665 651.94 701.138 651.697 701.547 651.535L701.547 651.318L691.818 649.694L691.818 645.872L718 650.219L718 653.952L714.945 653.427L714.945 653.747C715.362 654.045 715.839 654.459 716.376 654.987C716.913 655.507 717.382 656.172 717.783 656.981C718.183 657.791 718.384 658.792 718.384 659.986ZM715.124 658.694C715.124 657.595 714.834 656.611 714.254 655.741C713.666 654.863 712.852 654.135 711.812 653.555C710.773 652.967 709.562 652.558 708.182 652.328C706.818 652.098 705.625 652.102 704.602 652.341C703.58 652.579 702.783 653.04 702.212 653.721C701.641 654.403 701.355 655.302 701.355 656.419C701.355 657.569 701.653 658.571 702.25 659.423C702.847 660.275 703.661 660.974 704.692 661.52C705.723 662.057 706.886 662.432 708.182 662.645C709.494 662.866 710.675 662.875 711.723 662.67C712.771 662.466 713.602 662.035 714.216 661.379C714.821 660.723 715.124 659.828 715.124 658.694ZM709.857 630.982L698.364 629.064L698.364 625.229L718 628.502L718 632.26L714.599 631.685L714.599 631.889C715.648 632.503 716.521 633.372 717.22 634.497C717.911 635.614 718.256 636.909 718.256 638.384C718.256 639.645 717.979 640.715 717.425 641.593C716.862 642.462 716.031 643.08 714.932 643.446C713.832 643.813 712.473 643.864 710.854 643.6L698.364 641.503L698.364 637.681L710.393 639.688C711.732 639.901 712.797 639.7 713.589 639.087C714.382 638.473 714.778 637.578 714.778 636.402C714.778 635.686 714.599 634.945 714.241 634.178C713.884 633.411 713.342 632.733 712.618 632.145C711.893 631.548 710.973 631.161 709.857 630.982ZM691.818 615.197L718 619.543L718 623.366L691.818 619.019L691.818 615.197ZM718.396 605.989C718.396 607.915 717.983 609.509 717.156 610.77C716.321 612.023 715.149 612.901 713.641 613.404C712.124 613.906 710.347 613.987 708.31 613.646C706.298 613.314 704.526 612.645 702.991 611.639C701.457 610.634 700.26 609.381 699.399 607.881C698.538 606.372 698.108 604.706 698.108 602.882C698.108 601.774 698.291 600.73 698.658 599.75C699.024 598.762 699.599 597.922 700.384 597.232C701.168 596.541 702.186 596.064 703.439 595.8C704.683 595.527 706.196 595.536 707.977 595.825L709.332 596.043L709.332 611.665L706.469 611.218L706.469 599.354C705.463 599.175 704.572 599.222 703.797 599.494C703.013 599.767 702.395 600.236 701.943 600.901C701.491 601.557 701.266 602.384 701.266 603.381C701.266 604.404 701.534 605.358 702.071 606.244C702.608 607.131 703.294 607.872 704.129 608.469C704.956 609.057 705.808 609.428 706.686 609.581L709.307 610.029C710.739 610.25 711.889 610.212 712.759 609.914C713.628 609.607 714.259 609.07 714.651 608.303C715.043 607.536 715.239 606.577 715.239 605.426C715.239 604.685 715.136 603.999 714.932 603.368C714.719 602.729 714.408 602.162 713.999 601.668C713.581 601.173 713.061 600.76 712.439 600.428L713.091 596.925C714.156 597.394 715.089 598.067 715.891 598.945C716.683 599.823 717.301 600.858 717.744 602.051C718.179 603.236 718.396 604.548 718.396 605.989Z" fill="#743E29"/>
<path d="M1221.15 132.825C1222.44 132.834 1223.42 132.416 1224.1 131.572C1224.79 130.737 1225.13 129.569 1225.13 128.069C1225.13 126.996 1224.96 126.037 1224.62 125.193C1224.28 124.358 1223.82 123.676 1223.23 123.148C1222.65 122.628 1221.99 122.308 1221.25 122.189C1220.63 122.078 1220.09 122.133 1219.64 122.355C1219.19 122.585 1218.81 122.913 1218.5 123.339C1218.21 123.774 1217.95 124.251 1217.75 124.771C1217.55 125.291 1217.39 125.794 1217.26 126.28L1216.6 128.734C1216.39 129.527 1216.12 130.332 1215.77 131.15C1215.42 131.969 1214.96 132.706 1214.39 133.362C1213.82 134.018 1213.11 134.508 1212.27 134.832C1211.42 135.156 1210.41 135.22 1209.24 135.024C1207.75 134.768 1206.44 134.167 1205.29 133.221C1204.13 132.275 1203.23 131.027 1202.56 129.476C1201.9 127.925 1201.57 126.126 1201.57 124.081C1201.57 122.121 1201.88 120.471 1202.5 119.133C1203.12 117.804 1204 116.828 1205.14 116.206C1206.3 115.584 1207.66 115.362 1209.24 115.541L1209.24 119.517C1208.29 119.423 1207.5 119.594 1206.87 120.028C1206.25 120.471 1205.78 121.094 1205.48 121.895C1205.18 122.696 1205.03 123.604 1205.03 124.618C1205.03 125.743 1205.2 126.77 1205.55 127.699C1205.91 128.628 1206.41 129.395 1207.04 130C1207.68 130.605 1208.42 130.976 1209.27 131.112C1210.05 131.248 1210.68 131.138 1211.18 130.78C1211.67 130.43 1212.08 129.902 1212.41 129.194C1212.73 128.496 1213.02 127.699 1213.26 126.804L1214.11 123.851C1214.68 121.848 1215.52 120.331 1216.62 119.3C1217.73 118.268 1219.2 117.898 1221.02 118.187C1222.53 118.443 1223.85 119.074 1224.97 120.079C1226.1 121.085 1226.97 122.338 1227.59 123.838C1228.22 125.338 1228.54 126.966 1228.54 128.721C1228.54 130.494 1228.22 132.003 1227.59 133.247C1226.96 134.491 1226.09 135.412 1224.99 136.008C1223.88 136.605 1222.6 136.814 1221.15 136.635L1221.15 132.825ZM1210.14 152.03L1221.64 153.948L1221.64 157.783L1202 154.51L1202 150.752L1205.4 151.327L1205.4 151.122C1204.35 150.509 1203.48 149.639 1202.78 148.514C1202.09 147.398 1201.74 146.102 1201.74 144.628C1201.74 143.367 1202.02 142.297 1202.58 141.419C1203.14 140.55 1203.97 139.932 1205.07 139.566C1206.17 139.199 1207.53 139.148 1209.15 139.412L1221.64 141.509L1221.64 145.331L1209.61 143.324C1208.27 143.111 1207.2 143.311 1206.41 143.925C1205.62 144.539 1205.22 145.433 1205.22 146.61C1205.22 147.325 1205.4 148.067 1205.76 148.834C1206.12 149.601 1206.66 150.279 1207.38 150.867C1208.11 151.463 1209.03 151.851 1210.14 152.03ZM1202 159.953L1228.18 164.3L1228.18 168.122L1218.45 166.524L1218.45 166.754C1218.86 167.044 1219.34 167.44 1219.87 167.943C1220.41 168.454 1220.88 169.115 1221.28 169.925C1221.69 170.734 1221.89 171.748 1221.89 172.967C1221.89 174.552 1221.49 175.899 1220.69 177.007C1219.89 178.115 1218.73 178.899 1217.23 179.359C1215.72 179.819 1213.9 179.875 1211.78 179.525C1209.66 179.176 1207.84 178.52 1206.32 177.557C1204.81 176.602 1203.65 175.439 1202.83 174.067C1202.02 172.694 1201.62 171.216 1201.62 169.631C1201.62 168.437 1201.82 167.496 1202.22 166.805C1202.62 166.123 1203.09 165.612 1203.62 165.271C1204.16 164.939 1204.64 164.687 1205.06 164.517L1205.06 164.197L1202 163.686L1202 159.953ZM1211.82 165.335C1210.44 165.113 1209.23 165.113 1208.19 165.335C1207.15 165.565 1206.33 166.013 1205.75 166.677C1205.17 167.351 1204.88 168.233 1204.88 169.324C1204.88 170.466 1205.18 171.471 1205.78 172.341C1206.4 173.21 1207.23 173.926 1208.28 174.488C1209.33 175.051 1210.51 175.443 1211.82 175.665C1213.11 175.869 1214.28 175.865 1215.31 175.652C1216.34 175.439 1217.15 174.996 1217.75 174.322C1218.35 173.657 1218.64 172.75 1218.64 171.599C1218.64 170.491 1218.36 169.507 1217.79 168.646C1217.22 167.785 1216.42 167.074 1215.4 166.511C1214.37 165.949 1213.18 165.557 1211.82 165.335ZM1202 182.194L1221.64 185.467L1221.64 189.136L1218.44 188.599L1218.44 188.842C1219.52 189.438 1220.37 190.248 1220.97 191.271C1221.59 192.302 1221.89 193.47 1221.89 194.774C1221.89 196.069 1221.59 197.113 1220.97 197.906C1220.36 198.707 1219.51 199.231 1218.44 199.478L1218.44 199.683C1219.5 200.313 1220.34 201.195 1220.96 202.329C1221.58 203.463 1221.89 204.737 1221.89 206.151C1221.89 207.916 1221.33 209.271 1220.2 210.217C1219.09 211.171 1217.41 211.461 1215.17 211.086L1202 208.887L1202 205.052L1214.81 207.2C1216.15 207.413 1217.11 207.208 1217.7 206.586C1218.3 205.964 1218.59 205.15 1218.59 204.144C1218.59 202.9 1218.21 201.869 1217.44 201.051C1216.68 200.232 1215.71 199.73 1214.52 199.542L1202 197.433L1202 193.636L1215.05 195.822C1216.13 195.992 1216.98 195.796 1217.62 195.234C1218.27 194.68 1218.59 193.87 1218.59 192.805C1218.59 192.08 1218.4 191.377 1218.02 190.695C1217.63 190.022 1217.11 189.447 1216.43 188.97C1215.76 188.492 1214.98 188.181 1214.11 188.036L1202 186.017L1202 182.194ZM1201.6 222.358C1201.6 220.492 1202.03 218.932 1202.88 217.68C1203.74 216.427 1204.94 215.545 1206.49 215.033C1208.04 214.53 1209.84 214.445 1211.89 214.778C1213.91 215.101 1215.66 215.753 1217.16 216.733C1218.66 217.722 1219.83 218.958 1220.65 220.441C1221.48 221.932 1221.89 223.59 1221.89 225.414C1221.89 227.28 1221.46 228.836 1220.6 230.08C1219.74 231.333 1218.53 232.215 1216.98 232.726C1215.43 233.238 1213.62 233.327 1211.56 232.995C1209.57 232.671 1207.82 232.01 1206.32 231.013C1204.83 230.025 1203.67 228.789 1202.84 227.306C1202.02 225.823 1201.6 224.174 1201.6 222.358ZM1204.81 222.576C1204.81 223.803 1205.14 224.873 1205.78 225.785C1206.43 226.705 1207.29 227.455 1208.37 228.035C1209.44 228.614 1210.62 229.01 1211.89 229.224C1213.13 229.42 1214.26 229.415 1215.28 229.211C1216.31 229.015 1217.14 228.589 1217.76 227.932C1218.38 227.276 1218.7 226.364 1218.7 225.197C1218.7 223.969 1218.37 222.891 1217.71 221.962C1217.06 221.042 1216.2 220.292 1215.12 219.712C1214.03 219.141 1212.85 218.753 1211.58 218.549C1210.35 218.353 1209.22 218.353 1208.19 218.549C1207.16 218.745 1206.35 219.171 1205.73 219.827C1205.12 220.483 1204.81 221.4 1204.81 222.576ZM1201.62 243.014C1201.62 241.421 1202.02 240.07 1202.83 238.962C1203.65 237.862 1204.81 237.083 1206.32 236.622C1207.84 236.171 1209.66 236.119 1211.78 236.469C1213.9 236.827 1215.72 237.487 1217.23 238.45C1218.73 239.414 1219.89 240.581 1220.69 241.953C1221.49 243.325 1221.89 244.804 1221.89 246.389C1221.89 247.608 1221.69 248.554 1221.28 249.227C1220.88 249.909 1220.41 250.412 1219.87 250.736C1219.34 251.06 1218.86 251.303 1218.45 251.465L1218.45 251.682L1228.18 253.306L1228.18 257.128L1202 252.781L1202 249.048L1205.06 249.573L1205.06 249.253C1204.64 248.955 1204.16 248.541 1203.62 248.013C1203.09 247.493 1202.62 246.828 1202.22 246.019C1201.82 245.209 1201.62 244.208 1201.62 243.014ZM1204.88 244.306C1204.88 245.405 1205.17 246.389 1205.75 247.259C1206.33 248.137 1207.15 248.865 1208.19 249.445C1209.23 250.033 1210.44 250.442 1211.82 250.672C1213.18 250.902 1214.37 250.898 1215.4 250.659C1216.42 250.421 1217.22 249.96 1217.79 249.279C1218.36 248.597 1218.64 247.698 1218.64 246.581C1218.64 245.431 1218.35 244.429 1217.75 243.577C1217.15 242.725 1216.34 242.026 1215.31 241.48C1214.28 240.943 1213.11 240.568 1211.82 240.355C1210.51 240.134 1209.33 240.125 1208.28 240.33C1207.23 240.534 1206.4 240.965 1205.78 241.621C1205.18 242.277 1204.88 243.172 1204.88 244.306ZM1210.14 272.018L1221.64 273.936L1221.64 277.771L1202 274.498L1202 270.74L1205.4 271.315L1205.4 271.111C1204.35 270.497 1203.48 269.628 1202.78 268.503C1202.09 267.386 1201.74 266.091 1201.74 264.616C1201.74 263.355 1202.02 262.285 1202.58 261.407C1203.14 260.538 1203.97 259.92 1205.07 259.554C1206.17 259.187 1207.53 259.136 1209.15 259.4L1221.64 261.497L1221.64 265.319L1209.61 263.312C1208.27 263.099 1207.2 263.3 1206.41 263.913C1205.62 264.527 1205.22 265.422 1205.22 266.598C1205.22 267.314 1205.4 268.055 1205.76 268.822C1206.12 269.589 1206.66 270.267 1207.38 270.855C1208.11 271.452 1209.03 271.839 1210.14 272.018ZM1228.18 287.803L1202 283.457L1202 279.634L1228.18 283.981L1228.18 287.803ZM1201.6 297.011C1201.6 295.085 1202.02 293.491 1202.84 292.23C1203.68 290.977 1204.85 290.099 1206.36 289.596C1207.88 289.094 1209.65 289.013 1211.69 289.354C1213.7 289.686 1215.47 290.355 1217.01 291.361C1218.54 292.366 1219.74 293.619 1220.6 295.119C1221.46 296.628 1221.89 298.294 1221.89 300.118C1221.89 301.226 1221.71 302.27 1221.34 303.25C1220.98 304.238 1220.4 305.078 1219.62 305.768C1218.83 306.459 1217.81 306.936 1216.56 307.2C1215.32 307.473 1213.8 307.464 1212.02 307.175L1210.67 306.957L1210.67 291.335L1213.53 291.782L1213.53 303.646C1214.54 303.825 1215.43 303.778 1216.2 303.506C1216.99 303.233 1217.61 302.764 1218.06 302.099C1218.51 301.443 1218.73 300.616 1218.73 299.619C1218.73 298.596 1218.47 297.642 1217.93 296.756C1217.39 295.869 1216.71 295.128 1215.87 294.531C1215.04 293.943 1214.19 293.572 1213.31 293.419L1210.69 292.971C1209.26 292.75 1208.11 292.788 1207.24 293.086C1206.37 293.393 1205.74 293.93 1205.35 294.697C1204.96 295.464 1204.76 296.423 1204.76 297.574C1204.76 298.315 1204.86 299.001 1205.07 299.632C1205.28 300.271 1205.59 300.838 1206 301.332C1206.42 301.827 1206.94 302.24 1207.56 302.572L1206.91 306.075C1205.84 305.606 1204.91 304.933 1204.11 304.055C1203.32 303.177 1202.7 302.142 1202.26 300.949C1201.82 299.764 1201.6 298.452 1201.6 297.011Z" fill="#743E29"/>
<path d="M1221.15 472.825C1222.44 472.834 1223.42 472.416 1224.1 471.572C1224.79 470.737 1225.13 469.569 1225.13 468.069C1225.13 466.996 1224.96 466.037 1224.62 465.193C1224.28 464.358 1223.82 463.676 1223.23 463.148C1222.65 462.628 1221.99 462.308 1221.25 462.189C1220.63 462.078 1220.09 462.133 1219.64 462.355C1219.19 462.585 1218.81 462.913 1218.5 463.339C1218.21 463.774 1217.95 464.251 1217.75 464.771C1217.55 465.291 1217.39 465.794 1217.26 466.28L1216.6 468.734C1216.39 469.527 1216.12 470.332 1215.77 471.15C1215.42 471.969 1214.96 472.706 1214.39 473.362C1213.82 474.018 1213.11 474.508 1212.27 474.832C1211.42 475.156 1210.41 475.22 1209.24 475.024C1207.75 474.768 1206.44 474.167 1205.29 473.221C1204.13 472.275 1203.23 471.027 1202.56 469.476C1201.9 467.925 1201.57 466.126 1201.57 464.081C1201.57 462.121 1201.88 460.471 1202.5 459.133C1203.12 457.804 1204 456.828 1205.14 456.206C1206.3 455.584 1207.66 455.362 1209.24 455.541L1209.24 459.517C1208.29 459.423 1207.5 459.594 1206.87 460.028C1206.25 460.471 1205.78 461.094 1205.48 461.895C1205.18 462.696 1205.03 463.604 1205.03 464.618C1205.03 465.743 1205.2 466.77 1205.55 467.699C1205.91 468.628 1206.41 469.395 1207.04 470C1207.68 470.605 1208.42 470.976 1209.27 471.112C1210.05 471.248 1210.68 471.138 1211.18 470.78C1211.67 470.43 1212.08 469.902 1212.41 469.194C1212.73 468.496 1213.02 467.699 1213.26 466.804L1214.11 463.851C1214.68 461.848 1215.52 460.331 1216.62 459.3C1217.73 458.268 1219.2 457.898 1221.02 458.187C1222.53 458.443 1223.85 459.074 1224.97 460.079C1226.1 461.085 1226.97 462.338 1227.59 463.838C1228.22 465.338 1228.54 466.966 1228.54 468.721C1228.54 470.494 1228.22 472.003 1227.59 473.247C1226.96 474.491 1226.09 475.412 1224.99 476.008C1223.88 476.605 1222.6 476.814 1221.15 476.635L1221.15 472.825ZM1210.14 492.03L1221.64 493.948L1221.64 497.783L1202 494.51L1202 490.752L1205.4 491.327L1205.4 491.122C1204.35 490.509 1203.48 489.639 1202.78 488.514C1202.09 487.398 1201.74 486.102 1201.74 484.628C1201.74 483.367 1202.02 482.297 1202.58 481.419C1203.14 480.55 1203.97 479.932 1205.07 479.566C1206.17 479.199 1207.53 479.148 1209.15 479.412L1221.64 481.509L1221.64 485.331L1209.61 483.324C1208.27 483.111 1207.2 483.311 1206.41 483.925C1205.62 484.539 1205.22 485.433 1205.22 486.61C1205.22 487.325 1205.4 488.067 1205.76 488.834C1206.12 489.601 1206.66 490.279 1207.38 490.867C1208.11 491.463 1209.03 491.851 1210.14 492.03ZM1202 499.953L1228.18 504.3L1228.18 508.122L1218.45 506.524L1218.45 506.754C1218.86 507.044 1219.34 507.44 1219.87 507.943C1220.41 508.454 1220.88 509.115 1221.28 509.925C1221.69 510.734 1221.89 511.748 1221.89 512.967C1221.89 514.552 1221.49 515.899 1220.69 517.007C1219.89 518.115 1218.73 518.899 1217.23 519.359C1215.72 519.819 1213.9 519.875 1211.78 519.525C1209.66 519.176 1207.84 518.52 1206.32 517.557C1204.81 516.602 1203.65 515.439 1202.83 514.067C1202.02 512.694 1201.62 511.216 1201.62 509.631C1201.62 508.437 1201.82 507.496 1202.22 506.805C1202.62 506.123 1203.09 505.612 1203.62 505.271C1204.16 504.939 1204.64 504.687 1205.06 504.517L1205.06 504.197L1202 503.686L1202 499.953ZM1211.82 505.335C1210.44 505.113 1209.23 505.113 1208.19 505.335C1207.15 505.565 1206.33 506.013 1205.75 506.677C1205.17 507.351 1204.88 508.233 1204.88 509.324C1204.88 510.466 1205.18 511.471 1205.78 512.341C1206.4 513.21 1207.23 513.926 1208.28 514.488C1209.33 515.051 1210.51 515.443 1211.82 515.665C1213.11 515.869 1214.28 515.865 1215.31 515.652C1216.34 515.439 1217.15 514.996 1217.75 514.322C1218.35 513.657 1218.64 512.75 1218.64 511.599C1218.64 510.491 1218.36 509.507 1217.79 508.646C1217.22 507.785 1216.42 507.074 1215.4 506.511C1214.37 505.949 1213.18 505.557 1211.82 505.335ZM1202 522.194L1221.64 525.467L1221.64 529.136L1218.44 528.599L1218.44 528.842C1219.52 529.438 1220.37 530.248 1220.97 531.271C1221.59 532.302 1221.89 533.47 1221.89 534.774C1221.89 536.069 1221.59 537.113 1220.97 537.906C1220.36 538.707 1219.51 539.231 1218.44 539.478L1218.44 539.683C1219.5 540.313 1220.34 541.195 1220.96 542.329C1221.58 543.463 1221.89 544.737 1221.89 546.151C1221.89 547.916 1221.33 549.271 1220.2 550.217C1219.09 551.171 1217.41 551.461 1215.17 551.086L1202 548.887L1202 545.052L1214.81 547.2C1216.15 547.413 1217.11 547.208 1217.7 546.586C1218.3 545.964 1218.59 545.15 1218.59 544.144C1218.59 542.9 1218.21 541.869 1217.44 541.051C1216.68 540.232 1215.71 539.73 1214.52 539.542L1202 537.433L1202 533.636L1215.05 535.822C1216.13 535.992 1216.98 535.796 1217.62 535.234C1218.27 534.68 1218.59 533.87 1218.59 532.805C1218.59 532.08 1218.4 531.377 1218.02 530.695C1217.63 530.022 1217.11 529.447 1216.43 528.97C1215.76 528.492 1214.98 528.181 1214.11 528.036L1202 526.017L1202 522.194ZM1201.6 562.358C1201.6 560.492 1202.03 558.932 1202.88 557.68C1203.74 556.427 1204.94 555.545 1206.49 555.033C1208.04 554.53 1209.84 554.445 1211.89 554.778C1213.91 555.101 1215.66 555.753 1217.16 556.733C1218.66 557.722 1219.83 558.958 1220.65 560.441C1221.48 561.932 1221.89 563.59 1221.89 565.414C1221.89 567.28 1221.46 568.836 1220.6 570.08C1219.74 571.333 1218.53 572.215 1216.98 572.726C1215.43 573.238 1213.62 573.327 1211.56 572.995C1209.57 572.671 1207.82 572.01 1206.32 571.013C1204.83 570.025 1203.67 568.789 1202.84 567.306C1202.02 565.823 1201.6 564.174 1201.6 562.358ZM1204.81 562.576C1204.81 563.803 1205.14 564.873 1205.78 565.785C1206.43 566.705 1207.29 567.455 1208.37 568.035C1209.44 568.614 1210.62 569.01 1211.89 569.224C1213.13 569.42 1214.26 569.415 1215.28 569.211C1216.31 569.015 1217.14 568.589 1217.76 567.932C1218.38 567.276 1218.7 566.364 1218.7 565.197C1218.7 563.969 1218.37 562.891 1217.71 561.962C1217.06 561.042 1216.2 560.292 1215.12 559.712C1214.03 559.141 1212.85 558.753 1211.58 558.549C1210.35 558.353 1209.22 558.353 1208.19 558.549C1207.16 558.745 1206.35 559.171 1205.73 559.827C1205.12 560.483 1204.81 561.4 1204.81 562.576ZM1201.62 583.014C1201.62 581.421 1202.02 580.07 1202.83 578.962C1203.65 577.862 1204.81 577.083 1206.32 576.622C1207.84 576.171 1209.66 576.119 1211.78 576.469C1213.9 576.827 1215.72 577.487 1217.23 578.45C1218.73 579.414 1219.89 580.581 1220.69 581.953C1221.49 583.325 1221.89 584.804 1221.89 586.389C1221.89 587.608 1221.69 588.554 1221.28 589.227C1220.88 589.909 1220.41 590.412 1219.87 590.736C1219.34 591.06 1218.86 591.303 1218.45 591.465L1218.45 591.682L1228.18 593.306L1228.18 597.128L1202 592.781L1202 589.048L1205.06 589.573L1205.06 589.253C1204.64 588.955 1204.16 588.541 1203.62 588.013C1203.09 587.493 1202.62 586.828 1202.22 586.019C1201.82 585.209 1201.62 584.208 1201.62 583.014ZM1204.88 584.306C1204.88 585.405 1205.17 586.389 1205.75 587.259C1206.33 588.137 1207.15 588.865 1208.19 589.445C1209.23 590.033 1210.44 590.442 1211.82 590.672C1213.18 590.902 1214.37 590.898 1215.4 590.659C1216.42 590.421 1217.22 589.96 1217.79 589.279C1218.36 588.597 1218.64 587.698 1218.64 586.581C1218.64 585.431 1218.35 584.429 1217.75 583.577C1217.15 582.725 1216.34 582.026 1215.31 581.48C1214.28 580.943 1213.11 580.568 1211.82 580.355C1210.51 580.134 1209.33 580.125 1208.28 580.33C1207.23 580.534 1206.4 580.965 1205.78 581.621C1205.18 582.277 1204.88 583.172 1204.88 584.306ZM1210.14 612.018L1221.64 613.936L1221.64 617.771L1202 614.498L1202 610.74L1205.4 611.315L1205.4 611.111C1204.35 610.497 1203.48 609.628 1202.78 608.503C1202.09 607.386 1201.74 606.091 1201.74 604.616C1201.74 603.355 1202.02 602.285 1202.58 601.407C1203.14 600.538 1203.97 599.92 1205.07 599.554C1206.17 599.187 1207.53 599.136 1209.15 599.4L1221.64 601.497L1221.64 605.319L1209.61 603.312C1208.27 603.099 1207.2 603.3 1206.41 603.913C1205.62 604.527 1205.22 605.422 1205.22 606.598C1205.22 607.314 1205.4 608.055 1205.76 608.822C1206.12 609.589 1206.66 610.267 1207.38 610.855C1208.11 611.452 1209.03 611.839 1210.14 612.018ZM1228.18 627.803L1202 623.457L1202 619.634L1228.18 623.981L1228.18 627.803ZM1201.6 637.011C1201.6 635.085 1202.02 633.491 1202.84 632.23C1203.68 630.977 1204.85 630.099 1206.36 629.596C1207.88 629.094 1209.65 629.013 1211.69 629.354C1213.7 629.686 1215.47 630.355 1217.01 631.361C1218.54 632.366 1219.74 633.619 1220.6 635.119C1221.46 636.628 1221.89 638.294 1221.89 640.118C1221.89 641.226 1221.71 642.27 1221.34 643.25C1220.98 644.238 1220.4 645.078 1219.62 645.768C1218.83 646.459 1217.81 646.936 1216.56 647.2C1215.32 647.473 1213.8 647.464 1212.02 647.175L1210.67 646.957L1210.67 631.335L1213.53 631.782L1213.53 643.646C1214.54 643.825 1215.43 643.778 1216.2 643.506C1216.99 643.233 1217.61 642.764 1218.06 642.099C1218.51 641.443 1218.73 640.616 1218.73 639.619C1218.73 638.596 1218.47 637.642 1217.93 636.756C1217.39 635.869 1216.71 635.128 1215.87 634.531C1215.04 633.943 1214.19 633.572 1213.31 633.419L1210.69 632.971C1209.26 632.75 1208.11 632.788 1207.24 633.086C1206.37 633.393 1205.74 633.93 1205.35 634.697C1204.96 635.464 1204.76 636.423 1204.76 637.574C1204.76 638.315 1204.86 639.001 1205.07 639.632C1205.28 640.271 1205.59 640.838 1206 641.332C1206.42 641.827 1206.94 642.24 1207.56 642.572L1206.91 646.075C1205.84 645.606 1204.91 644.933 1204.11 644.055C1203.32 643.177 1202.7 642.142 1202.26 640.949C1201.82 639.764 1201.6 638.452 1201.6 637.011Z" fill="#743E29"/>
<path d="M1221.15 789.825C1222.44 789.834 1223.42 789.416 1224.1 788.572C1224.79 787.737 1225.13 786.569 1225.13 785.069C1225.13 783.996 1224.96 783.037 1224.62 782.193C1224.28 781.358 1223.82 780.676 1223.23 780.148C1222.65 779.628 1221.99 779.308 1221.25 779.189C1220.63 779.078 1220.09 779.133 1219.64 779.355C1219.19 779.585 1218.81 779.913 1218.5 780.339C1218.21 780.774 1217.95 781.251 1217.75 781.771C1217.55 782.291 1217.39 782.794 1217.26 783.28L1216.6 785.734C1216.39 786.527 1216.12 787.332 1215.77 788.15C1215.42 788.969 1214.96 789.706 1214.39 790.362C1213.82 791.018 1213.11 791.508 1212.27 791.832C1211.42 792.156 1210.41 792.22 1209.24 792.024C1207.75 791.768 1206.44 791.167 1205.29 790.221C1204.13 789.275 1203.23 788.027 1202.56 786.476C1201.9 784.925 1201.57 783.126 1201.57 781.081C1201.57 779.121 1201.88 777.471 1202.5 776.133C1203.12 774.804 1204 773.828 1205.14 773.206C1206.3 772.584 1207.66 772.362 1209.24 772.541L1209.24 776.517C1208.29 776.423 1207.5 776.594 1206.87 777.028C1206.25 777.471 1205.78 778.094 1205.48 778.895C1205.18 779.696 1205.03 780.604 1205.03 781.618C1205.03 782.743 1205.2 783.77 1205.55 784.699C1205.91 785.628 1206.41 786.395 1207.04 787C1207.68 787.605 1208.42 787.976 1209.27 788.112C1210.05 788.248 1210.68 788.138 1211.18 787.78C1211.67 787.43 1212.08 786.902 1212.41 786.194C1212.73 785.496 1213.02 784.699 1213.26 783.804L1214.11 780.851C1214.68 778.848 1215.52 777.331 1216.62 776.3C1217.73 775.268 1219.2 774.898 1221.02 775.187C1222.53 775.443 1223.85 776.074 1224.97 777.079C1226.1 778.085 1226.97 779.338 1227.59 780.838C1228.22 782.338 1228.54 783.966 1228.54 785.721C1228.54 787.494 1228.22 789.003 1227.59 790.247C1226.96 791.491 1226.09 792.412 1224.99 793.008C1223.88 793.605 1222.6 793.814 1221.15 793.635L1221.15 789.825ZM1210.14 809.03L1221.64 810.948L1221.64 814.783L1202 811.51L1202 807.752L1205.4 808.327L1205.4 808.122C1204.35 807.509 1203.48 806.639 1202.78 805.514C1202.09 804.398 1201.74 803.102 1201.74 801.628C1201.74 800.367 1202.02 799.297 1202.58 798.419C1203.14 797.55 1203.97 796.932 1205.07 796.566C1206.17 796.199 1207.53 796.148 1209.15 796.412L1221.64 798.509L1221.64 802.331L1209.61 800.324C1208.27 800.111 1207.2 800.311 1206.41 800.925C1205.62 801.539 1205.22 802.433 1205.22 803.61C1205.22 804.325 1205.4 805.067 1205.76 805.834C1206.12 806.601 1206.66 807.279 1207.38 807.867C1208.11 808.463 1209.03 808.851 1210.14 809.03ZM1202 816.953L1228.18 821.3L1228.18 825.122L1218.45 823.524L1218.45 823.754C1218.86 824.044 1219.34 824.44 1219.87 824.943C1220.41 825.454 1220.88 826.115 1221.28 826.925C1221.69 827.734 1221.89 828.748 1221.89 829.967C1221.89 831.552 1221.49 832.899 1220.69 834.007C1219.89 835.115 1218.73 835.899 1217.23 836.359C1215.72 836.819 1213.9 836.875 1211.78 836.525C1209.66 836.176 1207.84 835.52 1206.32 834.557C1204.81 833.602 1203.65 832.439 1202.83 831.067C1202.02 829.694 1201.62 828.216 1201.62 826.631C1201.62 825.437 1201.82 824.496 1202.22 823.805C1202.62 823.123 1203.09 822.612 1203.62 822.271C1204.16 821.939 1204.64 821.687 1205.06 821.517L1205.06 821.197L1202 820.686L1202 816.953ZM1211.82 822.335C1210.44 822.113 1209.23 822.113 1208.19 822.335C1207.15 822.565 1206.33 823.013 1205.75 823.677C1205.17 824.351 1204.88 825.233 1204.88 826.324C1204.88 827.466 1205.18 828.471 1205.78 829.341C1206.4 830.21 1207.23 830.926 1208.28 831.488C1209.33 832.051 1210.51 832.443 1211.82 832.665C1213.11 832.869 1214.28 832.865 1215.31 832.652C1216.34 832.439 1217.15 831.996 1217.75 831.322C1218.35 830.657 1218.64 829.75 1218.64 828.599C1218.64 827.491 1218.36 826.507 1217.79 825.646C1217.22 824.785 1216.42 824.074 1215.4 823.511C1214.37 822.949 1213.18 822.557 1211.82 822.335ZM1202 839.194L1221.64 842.467L1221.64 846.136L1218.44 845.599L1218.44 845.842C1219.52 846.438 1220.37 847.248 1220.97 848.271C1221.59 849.302 1221.89 850.47 1221.89 851.774C1221.89 853.069 1221.59 854.113 1220.97 854.906C1220.36 855.707 1219.51 856.231 1218.44 856.478L1218.44 856.683C1219.5 857.313 1220.34 858.195 1220.96 859.329C1221.58 860.463 1221.89 861.737 1221.89 863.151C1221.89 864.916 1221.33 866.271 1220.2 867.217C1219.09 868.171 1217.41 868.461 1215.17 868.086L1202 865.887L1202 862.052L1214.81 864.2C1216.15 864.413 1217.11 864.208 1217.7 863.586C1218.3 862.964 1218.59 862.15 1218.59 861.144C1218.59 859.9 1218.21 858.869 1217.44 858.051C1216.68 857.232 1215.71 856.73 1214.52 856.542L1202 854.433L1202 850.636L1215.05 852.822C1216.13 852.992 1216.98 852.796 1217.62 852.234C1218.27 851.68 1218.59 850.87 1218.59 849.805C1218.59 849.08 1218.4 848.377 1218.02 847.695C1217.63 847.022 1217.11 846.447 1216.43 845.97C1215.76 845.492 1214.98 845.181 1214.11 845.036L1202 843.017L1202 839.194ZM1201.6 879.358C1201.6 877.492 1202.03 875.932 1202.88 874.68C1203.74 873.427 1204.94 872.545 1206.49 872.033C1208.04 871.53 1209.84 871.445 1211.89 871.778C1213.91 872.101 1215.66 872.753 1217.16 873.733C1218.66 874.722 1219.83 875.958 1220.65 877.441C1221.48 878.932 1221.89 880.59 1221.89 882.414C1221.89 884.28 1221.46 885.836 1220.6 887.08C1219.74 888.333 1218.53 889.215 1216.98 889.726C1215.43 890.238 1213.62 890.327 1211.56 889.995C1209.57 889.671 1207.82 889.01 1206.32 888.013C1204.83 887.025 1203.67 885.789 1202.84 884.306C1202.02 882.823 1201.6 881.174 1201.6 879.358ZM1204.81 879.576C1204.81 880.803 1205.14 881.873 1205.78 882.785C1206.43 883.705 1207.29 884.455 1208.37 885.035C1209.44 885.614 1210.62 886.01 1211.89 886.224C1213.13 886.42 1214.26 886.415 1215.28 886.211C1216.31 886.015 1217.14 885.589 1217.76 884.932C1218.38 884.276 1218.7 883.364 1218.7 882.197C1218.7 880.969 1218.37 879.891 1217.71 878.962C1217.06 878.042 1216.2 877.292 1215.12 876.712C1214.03 876.141 1212.85 875.753 1211.58 875.549C1210.35 875.353 1209.22 875.353 1208.19 875.549C1207.16 875.745 1206.35 876.171 1205.73 876.827C1205.12 877.483 1204.81 878.4 1204.81 879.576ZM1201.62 900.014C1201.62 898.421 1202.02 897.07 1202.83 895.962C1203.65 894.862 1204.81 894.083 1206.32 893.622C1207.84 893.171 1209.66 893.119 1211.78 893.469C1213.9 893.827 1215.72 894.487 1217.23 895.45C1218.73 896.414 1219.89 897.581 1220.69 898.953C1221.49 900.325 1221.89 901.804 1221.89 903.389C1221.89 904.608 1221.69 905.554 1221.28 906.227C1220.88 906.909 1220.41 907.412 1219.87 907.736C1219.34 908.06 1218.86 908.303 1218.45 908.465L1218.45 908.682L1228.18 910.306L1228.18 914.128L1202 909.781L1202 906.048L1205.06 906.573L1205.06 906.253C1204.64 905.955 1204.16 905.541 1203.62 905.013C1203.09 904.493 1202.62 903.828 1202.22 903.019C1201.82 902.209 1201.62 901.208 1201.62 900.014ZM1204.88 901.306C1204.88 902.405 1205.17 903.389 1205.75 904.259C1206.33 905.137 1207.15 905.865 1208.19 906.445C1209.23 907.033 1210.44 907.442 1211.82 907.672C1213.18 907.902 1214.37 907.898 1215.4 907.659C1216.42 907.421 1217.22 906.96 1217.79 906.279C1218.36 905.597 1218.64 904.698 1218.64 903.581C1218.64 902.431 1218.35 901.429 1217.75 900.577C1217.15 899.725 1216.34 899.026 1215.31 898.48C1214.28 897.943 1213.11 897.568 1211.82 897.355C1210.51 897.134 1209.33 897.125 1208.28 897.33C1207.23 897.534 1206.4 897.965 1205.78 898.621C1205.18 899.277 1204.88 900.172 1204.88 901.306ZM1210.14 929.018L1221.64 930.936L1221.64 934.771L1202 931.498L1202 927.74L1205.4 928.315L1205.4 928.111C1204.35 927.497 1203.48 926.628 1202.78 925.503C1202.09 924.386 1201.74 923.091 1201.74 921.616C1201.74 920.355 1202.02 919.285 1202.58 918.407C1203.14 917.538 1203.97 916.92 1205.07 916.554C1206.17 916.187 1207.53 916.136 1209.15 916.4L1221.64 918.497L1221.64 922.319L1209.61 920.312C1208.27 920.099 1207.2 920.3 1206.41 920.913C1205.62 921.527 1205.22 922.422 1205.22 923.598C1205.22 924.314 1205.4 925.055 1205.76 925.822C1206.12 926.589 1206.66 927.267 1207.38 927.855C1208.11 928.452 1209.03 928.839 1210.14 929.018ZM1228.18 944.803L1202 940.457L1202 936.634L1228.18 940.981L1228.18 944.803ZM1201.6 954.011C1201.6 952.085 1202.02 950.491 1202.84 949.23C1203.68 947.977 1204.85 947.099 1206.36 946.596C1207.88 946.094 1209.65 946.013 1211.69 946.354C1213.7 946.686 1215.47 947.355 1217.01 948.361C1218.54 949.366 1219.74 950.619 1220.6 952.119C1221.46 953.628 1221.89 955.294 1221.89 957.118C1221.89 958.226 1221.71 959.27 1221.34 960.25C1220.98 961.238 1220.4 962.078 1219.62 962.768C1218.83 963.459 1217.81 963.936 1216.56 964.2C1215.32 964.473 1213.8 964.464 1212.02 964.175L1210.67 963.957L1210.67 948.335L1213.53 948.782L1213.53 960.646C1214.54 960.825 1215.43 960.778 1216.2 960.506C1216.99 960.233 1217.61 959.764 1218.06 959.099C1218.51 958.443 1218.73 957.616 1218.73 956.619C1218.73 955.596 1218.47 954.642 1217.93 953.756C1217.39 952.869 1216.71 952.128 1215.87 951.531C1215.04 950.943 1214.19 950.572 1213.31 950.419L1210.69 949.971C1209.26 949.75 1208.11 949.788 1207.24 950.086C1206.37 950.393 1205.74 950.93 1205.35 951.697C1204.96 952.464 1204.76 953.423 1204.76 954.574C1204.76 955.315 1204.86 956.001 1205.07 956.632C1205.28 957.271 1205.59 957.838 1206 958.332C1206.42 958.827 1206.94 959.24 1207.56 959.572L1206.91 963.075C1205.84 962.606 1204.91 961.933 1204.11 961.055C1203.32 960.177 1202.7 959.142 1202.26 957.949C1201.82 956.764 1201.6 955.452 1201.6 954.011Z" fill="#743E29"/>
<defs>
<linearGradient id="paint0_linear_201_230" x1="850" y1="449" x2="945.981" y2="449" gradientUnits="userSpaceOnUse">
<stop stop-color="#0095D5"/>
<stop offset="1" stop-color="#3178C6"/>
</linearGradient>
<linearGradient id="paint1_linear_201_230" x1="867" y1="450.5" x2="929" y2="450.5" gradientUnits="userSpaceOnUse">
<stop stop-color="#0095D5"/>
<stop offset="1" stop-color="#3178C6"/>
</linearGradient>
<linearGradient id="paint2_linear_201_230" x1="877.941" y1="480" x2="918.059" y2="480" gradientUnits="userSpaceOnUse">
<stop stop-color="#0095D5"/>
<stop offset="1" stop-color="#3178C6"/>
</linearGradient>
</defs>
</svg>
