<svg width="1920" height="1080" viewBox="0 0 1920 1080" fill="none" xmlns="http://www.w3.org/2000/svg">
<rect width="1920" height="1080" fill="#FDF2EF"/>
<path d="M905 558H900C897.348 558 894.804 556.946 892.929 555.071C891.054 553.196 890 550.652 890 548V528C890 525.348 891.054 522.804 892.929 520.929C894.804 519.054 897.348 518 900 518H980C982.652 518 985.196 519.054 987.071 520.929C988.946 522.804 990 525.348 990 528V548C990 550.652 988.946 553.196 987.071 555.071C985.196 556.946 982.652 558 980 558H975M905 578H900C897.348 578 894.804 579.054 892.929 580.929C891.054 582.804 890 585.348 890 588V608C890 610.652 891.054 613.196 892.929 615.071C894.804 616.946 897.348 618 900 618H980C982.652 618 985.196 616.946 987.071 615.071C988.946 613.196 990 610.652 990 608V588C990 585.348 988.946 582.804 987.071 580.929C985.196 579.054 982.652 578 980 578H975M910 538H910.05M910 598H910.05" stroke="#743E29" stroke-width="10" stroke-linecap="round" stroke-linejoin="round"/>
<path d="M940 583C948.284 583 955 576.284 955 568C955 559.716 948.284 553 940 553C931.716 553 925 559.716 925 568C925 576.284 931.716 583 940 583Z" stroke="#743E29" stroke-width="10" stroke-linecap="round" stroke-linejoin="round"/>
<path d="M940 548V553M940 583V588M960 568H955M925 568H920M955 553L950.6 557.4M929.4 578.6L925 583M955 583L950.6 578.6M929.4 557.4L925 553" stroke="#743E29" stroke-width="10" stroke-linecap="round" stroke-linejoin="round"/>
<rect x="805" y="410" width="115" height="134" fill="#FDF2EF"/>
<path d="M910.457 433.495L889.486 412.524C887.236 410.275 884.187 409 881.013 409H829.998C823.374 409.025 818 414.399 818 421.023V525.002C818 531.626 823.374 537 829.998 537H901.984C908.607 537 913.981 531.626 913.981 525.002V441.994C913.981 438.819 912.707 435.745 910.457 433.495ZM901.009 441.019H881.988V421.997L901.009 441.019ZM829.998 525.002V421.023H869.99V447.018C869.99 450.342 872.664 453.016 875.989 453.016H901.984V525.002H829.998Z" fill="url(#paint0_linear_201_202)"/>
<path d="M846.674 488.288C845.594 488.288 844.664 488.036 843.884 487.532C843.116 487.028 842.522 486.344 842.102 485.48C841.694 484.616 841.49 483.644 841.49 482.564V466.976C841.49 465.884 841.694 464.912 842.102 464.06C842.522 463.196 843.116 462.512 843.884 462.008C844.664 461.504 845.594 461.252 846.674 461.252C847.754 461.252 848.678 461.504 849.446 462.008C850.226 462.512 850.82 463.196 851.228 464.06C851.648 464.924 851.858 465.896 851.858 466.976V482.564C851.858 483.644 851.648 484.616 851.228 485.48C850.82 486.344 850.226 487.028 849.446 487.532C848.678 488.036 847.754 488.288 846.674 488.288ZM846.674 484.508C847.154 484.508 847.49 484.31 847.682 483.914C847.874 483.506 847.97 483.056 847.97 482.564V466.976C847.97 466.484 847.868 466.04 847.664 465.644C847.46 465.236 847.13 465.032 846.674 465.032C846.23 465.032 845.9 465.236 845.684 465.644C845.48 466.04 845.378 466.484 845.378 466.976V482.564C845.378 483.056 845.48 483.506 845.684 483.914C845.888 484.31 846.218 484.508 846.674 484.508ZM854.573 488V461.54H858.461C859.937 461.54 861.167 461.864 862.151 462.512C863.147 463.16 863.891 464.078 864.383 465.266C864.875 466.454 865.121 467.852 865.121 469.46C865.121 471.068 864.863 472.454 864.347 473.618C863.831 474.782 863.075 475.694 862.079 476.354C861.095 477.002 859.889 477.356 858.461 477.416V488H854.573ZM858.461 473.456C859.145 473.456 859.685 473.324 860.081 473.06C860.477 472.784 860.759 472.352 860.927 471.764C861.107 471.176 861.197 470.42 861.197 469.496C861.197 468.56 861.107 467.798 860.927 467.21C860.759 466.622 860.471 466.19 860.063 465.914C859.667 465.638 859.133 465.5 858.461 465.5V473.456ZM867.229 488V461.54H876.121V465.536H871.117V472.664H874.717V476.552H871.117V484.004H876.121V488H867.229ZM879.006 488V461.54H882.642L886.242 475.328L886.566 476.552H886.782V461.54H890.346V488H887.07L883.11 474.212L882.786 472.988H882.57V488H879.006Z" fill="url(#paint1_linear_201_202)"/>
<path d="M849.913 517L853.909 490.54H858.661L862.657 517H858.877L858.157 511.6H854.413L853.693 517H849.913ZM854.953 507.496H857.617L856.501 498.604L856.393 497.2H856.177L856.069 498.604L854.953 507.496ZM864.715 517V490.54H868.603C870.079 490.54 871.309 490.864 872.293 491.512C873.289 492.16 874.033 493.078 874.525 494.266C875.017 495.454 875.263 496.852 875.263 498.46C875.263 500.068 875.005 501.454 874.489 502.618C873.973 503.782 873.217 504.694 872.221 505.354C871.237 506.002 870.031 506.356 868.603 506.416V517H864.715ZM868.603 502.456C869.287 502.456 869.827 502.324 870.223 502.06C870.619 501.784 870.901 501.352 871.069 500.764C871.249 500.176 871.339 499.42 871.339 498.496C871.339 497.56 871.249 496.798 871.069 496.21C870.901 495.622 870.613 495.19 870.205 494.914C869.809 494.638 869.275 494.5 868.603 494.5V502.456ZM877.372 517V490.54H881.26V517H877.372Z" fill="url(#paint2_linear_201_202)"/>
<path d="M371 547H259C254.582 547 251 543.418 251 539V523C251 518.582 254.582 515 259 515H371C375.418 515 379 518.582 379 523V539C379 543.418 375.418 547 371 547ZM359 525C355.686 525 353 527.686 353 531C353 534.314 355.686 537 359 537C362.314 537 365 534.314 365 531C365 527.686 362.314 525 359 525ZM343 525C339.686 525 337 527.686 337 531C337 534.314 339.686 537 343 537C346.314 537 349 534.314 349 531C349 527.686 346.314 525 343 525ZM371 587H259C254.582 587 251 583.418 251 579V563C251 558.582 254.582 555 259 555H371C375.418 555 379 558.582 379 563V579C379 583.418 375.418 587 371 587ZM359 565C355.686 565 353 567.686 353 571C353 574.314 355.686 577 359 577C362.314 577 365 574.314 365 571C365 567.686 362.314 565 359 565ZM343 565C339.686 565 337 567.686 337 571C337 574.314 339.686 577 343 577C346.314 577 349 574.314 349 571C349 567.686 346.314 565 343 565ZM371 627H259C254.582 627 251 623.418 251 619V603C251 598.582 254.582 595 259 595H371C375.418 595 379 598.582 379 603V619C379 623.418 375.418 627 371 627ZM359 605C355.686 605 353 607.686 353 611C353 614.314 355.686 617 359 617C362.314 617 365 614.314 365 611C365 607.686 362.314 605 359 605ZM343 605C339.686 605 337 607.686 337 611C337 614.314 339.686 617 343 617C346.314 617 349 614.314 349 611C349 607.686 346.314 605 343 605Z" fill="#743E29"/>
<path d="M434.232 568.732C433.255 569.709 433.255 571.291 434.232 572.268L450.142 588.178C451.118 589.154 452.701 589.154 453.677 588.178C454.654 587.201 454.654 585.618 453.677 584.642L439.535 570.5L453.677 556.358C454.654 555.382 454.654 553.799 453.677 552.822C452.701 551.846 451.118 551.846 450.142 552.822L434.232 568.732ZM792.001 568L436 568L436 573L792.001 573L792.001 568Z" fill="#743E29"/>
<path d="M941.768 298.232C940.791 297.256 939.209 297.256 938.232 298.232L922.322 314.142C921.346 315.118 921.346 316.701 922.322 317.678C923.299 318.654 924.882 318.654 925.858 317.678L940 303.536L954.142 317.678C955.118 318.654 956.701 318.654 957.678 317.678C958.654 316.701 958.654 315.118 957.678 314.142L941.768 298.232ZM942.5 440L942.5 300L937.5 300L937.5 440L942.5 440Z" fill="#743E29"/>
<path d="M897.333 157C897.333 153.464 898.738 150.073 901.238 147.572C903.739 145.072 907.13 143.667 910.666 143.667H972C973.751 143.667 975.484 144.012 977.102 144.682C978.72 145.352 980.19 146.334 981.428 147.572C982.666 148.81 983.648 150.28 984.318 151.898C984.988 153.516 985.333 155.249 985.333 157V233C985.333 234.061 984.912 235.079 984.161 235.829C983.411 236.579 982.394 237 981.333 237H905.333C905.333 238.415 905.895 239.771 906.895 240.772C907.895 241.772 909.252 242.334 910.666 242.334H981.333C982.394 242.334 983.411 242.755 984.161 243.505C984.912 244.255 985.333 245.273 985.333 246.334C985.333 247.395 984.912 248.412 984.161 249.162C983.411 249.912 982.394 250.334 981.333 250.334H910.666C907.13 250.334 903.739 248.929 901.238 246.428C898.738 243.928 897.333 240.537 897.333 237V157ZM941.333 175.667C942.747 175.667 944.104 175.105 945.104 174.105C946.104 173.105 946.666 171.748 946.666 170.334C946.666 168.919 946.104 167.563 945.104 166.562C944.104 165.562 942.747 165 941.333 165C939.919 165 938.562 165.562 937.562 166.562C936.562 167.563 936 168.919 936 170.334C936 171.748 936.562 173.105 937.562 174.105C938.562 175.105 939.919 175.667 941.333 175.667V175.667ZM937.333 185V211.667C937.333 212.728 937.754 213.745 938.505 214.495C939.255 215.246 940.272 215.667 941.333 215.667C942.394 215.667 943.411 215.246 944.161 214.495C944.912 213.745 945.333 212.728 945.333 211.667V185C945.333 183.939 944.912 182.922 944.161 182.172C943.411 181.422 942.394 181 941.333 181C940.272 181 939.255 181.422 938.505 182.172C937.754 182.922 937.333 183.939 937.333 185Z" fill="#743E29"/>
<path d="M1657 188H1569C1562.38 188 1557 193.375 1557 200V288C1557 294.625 1562.38 300 1569 300H1657C1663.62 300 1669 294.625 1669 288V200C1669 193.375 1663.62 188 1657 188ZM1588.75 276.125C1587.38 278.525 1584.3 279.325 1581.92 277.95C1579.52 276.575 1578.73 273.5 1580.1 271.125L1583.67 264.95C1587.7 263.725 1591 264.675 1593.58 267.8L1588.75 276.125ZM1623.47 262.65H1578C1575.25 262.65 1573 260.4 1573 257.65C1573 254.9 1575.25 252.65 1578 252.65H1590.75L1607.1 224.35L1601.97 215.5C1600.6 213.1 1601.42 210.05 1603.8 208.675C1606.2 207.3 1609.25 208.125 1610.62 210.5L1612.85 214.35L1615.08 210.5C1616.45 208.1 1619.53 207.3 1621.9 208.675C1624.3 210.05 1625.1 213.125 1623.72 215.5L1602.28 252.65H1617.8C1622.85 252.65 1625.67 258.575 1623.47 262.65V262.65ZM1648 262.65H1640.75L1645.65 271.125C1647.03 273.525 1646.2 276.575 1643.82 277.95C1641.42 279.325 1638.38 278.5 1637 276.125C1628.77 261.9 1622.62 251.2 1618.5 244.1C1614.32 236.85 1617.3 229.6 1620.28 227.15C1623.55 232.825 1628.45 241.325 1635 252.65H1648C1650.75 252.65 1653 254.9 1653 257.65C1653 260.425 1650.75 262.65 1648 262.65V262.65Z" fill="#743E29"/>
<path d="M1509.76 569.412C1511.32 570.975 1513.85 570.975 1515.42 569.412L1518.24 566.585C1519.81 565.022 1519.81 562.49 1518.24 560.928L1509.31 552L1518.24 543.07C1519.8 541.507 1519.8 538.975 1518.24 537.412L1515.41 534.585C1513.85 533.022 1511.32 533.022 1509.76 534.585L1495.17 549.17C1493.61 550.732 1493.61 553.265 1495.17 554.827L1509.76 569.412V569.412ZM1533.76 566.588L1536.59 569.415C1538.15 570.978 1540.68 570.978 1542.25 569.415L1556.83 554.83C1558.39 553.268 1558.39 550.735 1556.83 549.173L1542.25 534.587C1540.68 533.025 1538.15 533.025 1536.59 534.587L1533.76 537.415C1532.2 538.978 1532.2 541.51 1533.76 543.072L1542.69 552L1533.76 560.93C1532.2 562.493 1532.2 565.025 1533.76 566.588V566.588ZM1602 608H1541.39C1541.2 612.952 1537.71 616 1533.2 616H1518C1513.33 616 1509.74 611.632 1509.81 608H1450C1447.8 608 1446 609.8 1446 612V616C1446 624.8 1453.2 632 1462 632H1590C1598.8 632 1606 624.8 1606 616V612C1606 609.8 1604.2 608 1602 608ZM1590 516C1590 509.4 1584.6 504 1578 504H1474C1467.4 504 1462 509.4 1462 516V600H1590V516ZM1574 584H1478V520H1574V584Z" fill="#743E29"/>
<path d="M1580.4 884.65C1581.42 881.975 1582 879.05 1582 876C1582 862.75 1571.25 852 1558 852C1553.07 852 1548.48 853.5 1544.68 856.05C1537.75 844.05 1524.82 836 1510 836C1487.9 836 1470 853.9 1470 876C1470 876.675 1470.02 877.35 1470.05 878.025C1456.05 882.95 1446 896.3 1446 912C1446 931.875 1462.12 948 1482 948H1574C1591.67 948 1606 933.675 1606 916C1606 900.525 1595 887.6 1580.4 884.65Z" fill="#743E29"/>
<path d="M1458 238.575L1402.82 183.25L1473.02 223.55L1458 238.575V238.575ZM1388.42 180C1385.18 181.7 1383 184.8 1383 188.825V299.15C1383 303.175 1385.18 306.275 1388.42 307.975L1452.58 243.975L1388.42 180ZM1494.72 236.4L1480 227.875L1463.57 244L1480 260.125L1495.02 251.6C1499.52 248.025 1499.52 239.975 1494.72 236.4V236.4ZM1402.82 304.75L1473.02 264.45L1458 249.425L1402.82 304.75Z" fill="#743E29"/>
<path d="M1355.43 261.598C1355.76 260.257 1354.94 258.903 1353.6 258.573L1331.75 253.191C1330.41 252.861 1329.06 253.68 1328.73 255.021C1328.4 256.361 1329.21 257.716 1330.56 258.046L1349.97 262.83L1345.19 282.249C1344.86 283.59 1345.68 284.944 1347.02 285.274C1348.36 285.605 1349.72 284.786 1350.05 283.445L1355.43 261.598ZM1058.29 442.139L1354.29 263.139L1351.71 258.861L1055.71 437.861L1058.29 442.139Z" fill="#743E29"/>
<path d="M1384.77 571.762C1385.75 570.783 1385.74 569.2 1384.76 568.227L1368.8 552.366C1367.82 551.392 1366.24 551.397 1365.27 552.377C1364.29 553.356 1364.3 554.939 1365.28 555.912L1379.46 570.011L1365.37 584.196C1364.39 585.176 1364.4 586.759 1365.38 587.732C1366.36 588.705 1367.94 588.7 1368.91 587.721L1384.77 571.762ZM1057.01 573.5L1383.01 572.5L1382.99 567.5L1056.99 568.5L1057.01 573.5Z" fill="#743E29"/>
<path d="M1383.6 899.426C1384.94 899.092 1385.76 897.736 1385.43 896.396L1379.99 874.563C1379.65 873.223 1378.3 872.407 1376.96 872.741C1375.62 873.075 1374.8 874.431 1375.14 875.771L1379.97 895.178L1360.56 900.011C1359.22 900.345 1358.41 901.702 1358.74 903.042C1359.07 904.381 1360.43 905.197 1361.77 904.863L1383.6 899.426ZM1055.71 703.143L1381.71 899.143L1384.29 894.857L1058.29 698.857L1055.71 703.143Z" fill="#743E29"/>
<defs>
<linearGradient id="paint0_linear_201_202" x1="818" y1="473" x2="913.981" y2="473" gradientUnits="userSpaceOnUse">
<stop stop-color="#0095D5"/>
<stop offset="1" stop-color="#3178C6"/>
</linearGradient>
<linearGradient id="paint1_linear_201_202" x1="792" y1="475" x2="940" y2="475" gradientUnits="userSpaceOnUse">
<stop stop-color="#0095D5"/>
<stop offset="1" stop-color="#3178C6"/>
</linearGradient>
<linearGradient id="paint2_linear_201_202" x1="818" y1="504" x2="914" y2="504" gradientUnits="userSpaceOnUse">
<stop stop-color="#0095D5"/>
<stop offset="1" stop-color="#3178C6"/>
</linearGradient>
</defs>
</svg>
