<svg width="1920" height="1080" viewBox="0 0 1920 1080" fill="none" xmlns="http://www.w3.org/2000/svg">
<rect width="1920" height="1080" fill="#FDF2EF"/>
<path d="M1657 166H1569C1562.38 166 1557 171.375 1557 178V266C1557 272.625 1562.38 278 1569 278H1657C1663.62 278 1669 272.625 1669 266V178C1669 171.375 1663.62 166 1657 166ZM1588.75 254.125C1587.38 256.525 1584.3 257.325 1581.92 255.95C1579.52 254.575 1578.73 251.5 1580.1 249.125L1583.67 242.95C1587.7 241.725 1591 242.675 1593.58 245.8L1588.75 254.125ZM1623.47 240.65H1578C1575.25 240.65 1573 238.4 1573 235.65C1573 232.9 1575.25 230.65 1578 230.65H1590.75L1607.1 202.35L1601.97 193.5C1600.6 191.1 1601.42 188.05 1603.8 186.675C1606.2 185.3 1609.25 186.125 1610.62 188.5L1612.85 192.35L1615.08 188.5C1616.45 186.1 1619.53 185.3 1621.9 186.675C1624.3 188.05 1625.1 191.125 1623.72 193.5L1602.28 230.65H1617.8C1622.85 230.65 1625.67 236.575 1623.47 240.65V240.65ZM1648 240.65H1640.75L1645.65 249.125C1647.03 251.525 1646.2 254.575 1643.82 255.95C1641.42 257.325 1638.38 256.5 1637 254.125C1628.77 239.9 1622.62 229.2 1618.5 222.1C1614.32 214.85 1617.3 207.6 1620.28 205.15C1623.55 210.825 1628.45 219.325 1635 230.65H1648C1650.75 230.65 1653 232.9 1653 235.65C1653 238.425 1650.75 240.65 1648 240.65V240.65Z" fill="#743E29"/>
<path d="M1509.76 547.412C1511.32 548.975 1513.85 548.975 1515.42 547.412L1518.24 544.585C1519.81 543.022 1519.81 540.49 1518.24 538.928L1509.31 530L1518.24 521.07C1519.8 519.507 1519.8 516.975 1518.24 515.412L1515.41 512.585C1513.85 511.022 1511.32 511.022 1509.76 512.585L1495.17 527.17C1493.61 528.732 1493.61 531.265 1495.17 532.827L1509.76 547.412V547.412ZM1533.76 544.588L1536.59 547.415C1538.15 548.978 1540.68 548.978 1542.25 547.415L1556.83 532.83C1558.39 531.268 1558.39 528.735 1556.83 527.173L1542.25 512.587C1540.68 511.025 1538.15 511.025 1536.59 512.587L1533.76 515.415C1532.2 516.978 1532.2 519.51 1533.76 521.072L1542.69 530L1533.76 538.93C1532.2 540.493 1532.2 543.025 1533.76 544.588V544.588ZM1602 586H1541.39C1541.2 590.952 1537.71 594 1533.2 594H1518C1513.33 594 1509.74 589.632 1509.81 586H1450C1447.8 586 1446 587.8 1446 590V594C1446 602.8 1453.2 610 1462 610H1590C1598.8 610 1606 602.8 1606 594V590C1606 587.8 1604.2 586 1602 586ZM1590 494C1590 487.4 1584.6 482 1578 482H1474C1467.4 482 1462 487.4 1462 494V578H1590V494ZM1574 562H1478V498H1574V562Z" fill="#743E29"/>
<path d="M1580.4 862.65C1581.42 859.975 1582 857.05 1582 854C1582 840.75 1571.25 830 1558 830C1553.07 830 1548.48 831.5 1544.68 834.05C1537.75 822.05 1524.82 814 1510 814C1487.9 814 1470 831.9 1470 854C1470 854.675 1470.02 855.35 1470.05 856.025C1456.05 860.95 1446 874.3 1446 890C1446 909.875 1462.12 926 1482 926H1574C1591.67 926 1606 911.675 1606 894C1606 878.525 1595 865.6 1580.4 862.65Z" fill="#743E29"/>
<path d="M1458 216.575L1402.82 161.25L1473.02 201.55L1458 216.575V216.575ZM1388.42 158C1385.18 159.7 1383 162.8 1383 166.825V277.15C1383 281.175 1385.18 284.275 1388.42 285.975L1452.58 221.975L1388.42 158ZM1494.72 214.4L1480 205.875L1463.57 222L1480 238.125L1495.02 229.6C1499.52 226.025 1499.52 217.975 1494.72 214.4V214.4ZM1402.82 282.75L1473.02 242.45L1458 227.425L1402.82 282.75Z" fill="#743E29"/>
<path d="M1355.43 239.598C1355.76 238.257 1354.94 236.903 1353.6 236.573L1331.75 231.191C1330.41 230.861 1329.06 231.68 1328.73 233.021C1328.4 234.361 1329.21 235.716 1330.56 236.046L1349.97 240.83L1345.19 260.249C1344.86 261.59 1345.68 262.944 1347.02 263.274C1348.36 263.605 1349.72 262.786 1350.05 261.445L1355.43 239.598ZM1058.29 420.139L1354.29 241.139L1351.71 236.861L1055.71 415.861L1058.29 420.139Z" fill="#F2A587"/>
<path d="M1384.77 549.762C1385.75 548.783 1385.74 547.2 1384.76 546.227L1368.8 530.366C1367.82 529.392 1366.24 529.397 1365.27 530.377C1364.29 531.356 1364.3 532.939 1365.28 533.912L1379.46 548.011L1365.37 562.196C1364.39 563.176 1364.4 564.759 1365.38 565.732C1366.36 566.705 1367.94 566.7 1368.91 565.721L1384.77 549.762ZM1057.01 551.5L1383.01 550.5L1382.99 545.5L1056.99 546.5L1057.01 551.5Z" fill="#F2A587"/>
<path d="M941.768 276.232C940.791 275.256 939.209 275.256 938.232 276.232L922.322 292.142C921.346 293.118 921.346 294.701 922.322 295.678C923.299 296.654 924.882 296.654 925.858 295.678L940 281.536L954.142 295.678C955.118 296.654 956.701 296.654 957.678 295.678C958.654 294.701 958.654 293.118 957.678 292.142L941.768 276.232ZM942.5 418L942.5 278L937.5 278L937.5 418L942.5 418Z" fill="#F2A587"/>
<path d="M905 536H900C897.348 536 894.804 534.946 892.929 533.071C891.054 531.196 890 528.652 890 526V506C890 503.348 891.054 500.804 892.929 498.929C894.804 497.054 897.348 496 900 496H980C982.652 496 985.196 497.054 987.071 498.929C988.946 500.804 990 503.348 990 506V526C990 528.652 988.946 531.196 987.071 533.071C985.196 534.946 982.652 536 980 536H975M905 556H900C897.348 556 894.804 557.054 892.929 558.929C891.054 560.804 890 563.348 890 566V586C890 588.652 891.054 591.196 892.929 593.071C894.804 594.946 897.348 596 900 596H980C982.652 596 985.196 594.946 987.071 593.071C988.946 591.196 990 588.652 990 586V566C990 563.348 988.946 560.804 987.071 558.929C985.196 557.054 982.652 556 980 556H975M910 516H910.05M910 576H910.05" stroke="#743E29" stroke-width="10" stroke-linecap="round" stroke-linejoin="round"/>
<path d="M940 561C948.284 561 955 554.284 955 546C955 537.716 948.284 531 940 531C931.716 531 925 537.716 925 546C925 554.284 931.716 561 940 561Z" stroke="#743E29" stroke-width="10" stroke-linecap="round" stroke-linejoin="round"/>
<path d="M940 526V531M940 561V566M960 546H955M925 546H920M955 531L950.6 535.4M929.4 556.6L925 561M955 561L950.6 556.6M929.4 535.4L925 531" stroke="#743E29" stroke-width="10" stroke-linecap="round" stroke-linejoin="round"/>
<rect x="805" y="388" width="115" height="134" fill="#FDF2EF"/>
<path d="M910.457 411.495L889.486 390.524C887.236 388.275 884.187 387 881.013 387H829.998C823.374 387.025 818 392.399 818 399.023V503.002C818 509.626 823.374 515 829.998 515H901.984C908.607 515 913.981 509.626 913.981 503.002V419.994C913.981 416.819 912.707 413.745 910.457 411.495ZM901.009 419.019H881.988V399.997L901.009 419.019ZM829.998 503.002V399.023H869.99V425.018C869.99 428.342 872.664 431.016 875.989 431.016H901.984V503.002H829.998Z" fill="url(#paint0_linear_201_38)"/>
<path d="M846.674 466.288C845.594 466.288 844.664 466.036 843.884 465.532C843.116 465.028 842.522 464.344 842.102 463.48C841.694 462.616 841.49 461.644 841.49 460.564V444.976C841.49 443.884 841.694 442.912 842.102 442.06C842.522 441.196 843.116 440.512 843.884 440.008C844.664 439.504 845.594 439.252 846.674 439.252C847.754 439.252 848.678 439.504 849.446 440.008C850.226 440.512 850.82 441.196 851.228 442.06C851.648 442.924 851.858 443.896 851.858 444.976V460.564C851.858 461.644 851.648 462.616 851.228 463.48C850.82 464.344 850.226 465.028 849.446 465.532C848.678 466.036 847.754 466.288 846.674 466.288ZM846.674 462.508C847.154 462.508 847.49 462.31 847.682 461.914C847.874 461.506 847.97 461.056 847.97 460.564V444.976C847.97 444.484 847.868 444.04 847.664 443.644C847.46 443.236 847.13 443.032 846.674 443.032C846.23 443.032 845.9 443.236 845.684 443.644C845.48 444.04 845.378 444.484 845.378 444.976V460.564C845.378 461.056 845.48 461.506 845.684 461.914C845.888 462.31 846.218 462.508 846.674 462.508ZM854.573 466V439.54H858.461C859.937 439.54 861.167 439.864 862.151 440.512C863.147 441.16 863.891 442.078 864.383 443.266C864.875 444.454 865.121 445.852 865.121 447.46C865.121 449.068 864.863 450.454 864.347 451.618C863.831 452.782 863.075 453.694 862.079 454.354C861.095 455.002 859.889 455.356 858.461 455.416V466H854.573ZM858.461 451.456C859.145 451.456 859.685 451.324 860.081 451.06C860.477 450.784 860.759 450.352 860.927 449.764C861.107 449.176 861.197 448.42 861.197 447.496C861.197 446.56 861.107 445.798 860.927 445.21C860.759 444.622 860.471 444.19 860.063 443.914C859.667 443.638 859.133 443.5 858.461 443.5V451.456ZM867.229 466V439.54H876.121V443.536H871.117V450.664H874.717V454.552H871.117V462.004H876.121V466H867.229ZM879.006 466V439.54H882.642L886.242 453.328L886.566 454.552H886.782V439.54H890.346V466H887.07L883.11 452.212L882.786 450.988H882.57V466H879.006Z" fill="url(#paint1_linear_201_38)"/>
<path d="M849.913 495L853.909 468.54H858.661L862.657 495H858.877L858.157 489.6H854.413L853.693 495H849.913ZM854.953 485.496H857.617L856.501 476.604L856.393 475.2H856.177L856.069 476.604L854.953 485.496ZM864.715 495V468.54H868.603C870.079 468.54 871.309 468.864 872.293 469.512C873.289 470.16 874.033 471.078 874.525 472.266C875.017 473.454 875.263 474.852 875.263 476.46C875.263 478.068 875.005 479.454 874.489 480.618C873.973 481.782 873.217 482.694 872.221 483.354C871.237 484.002 870.031 484.356 868.603 484.416V495H864.715ZM868.603 480.456C869.287 480.456 869.827 480.324 870.223 480.06C870.619 479.784 870.901 479.352 871.069 478.764C871.249 478.176 871.339 477.42 871.339 476.496C871.339 475.56 871.249 474.798 871.069 474.21C870.901 473.622 870.613 473.19 870.205 472.914C869.809 472.638 869.275 472.5 868.603 472.5V480.456ZM877.372 495V468.54H881.26V495H877.372Z" fill="url(#paint2_linear_201_38)"/>
<path d="M371 525H259C254.582 525 251 521.418 251 517V501C251 496.582 254.582 493 259 493H371C375.418 493 379 496.582 379 501V517C379 521.418 375.418 525 371 525ZM359 503C355.686 503 353 505.686 353 509C353 512.314 355.686 515 359 515C362.314 515 365 512.314 365 509C365 505.686 362.314 503 359 503ZM343 503C339.686 503 337 505.686 337 509C337 512.314 339.686 515 343 515C346.314 515 349 512.314 349 509C349 505.686 346.314 503 343 503ZM371 565H259C254.582 565 251 561.418 251 557V541C251 536.582 254.582 533 259 533H371C375.418 533 379 536.582 379 541V557C379 561.418 375.418 565 371 565ZM359 543C355.686 543 353 545.686 353 549C353 552.314 355.686 555 359 555C362.314 555 365 552.314 365 549C365 545.686 362.314 543 359 543ZM343 543C339.686 543 337 545.686 337 549C337 552.314 339.686 555 343 555C346.314 555 349 552.314 349 549C349 545.686 346.314 543 343 543ZM371 605H259C254.582 605 251 601.418 251 597V581C251 576.582 254.582 573 259 573H371C375.418 573 379 576.582 379 581V597C379 601.418 375.418 605 371 605ZM359 583C355.686 583 353 585.686 353 589C353 592.314 355.686 595 359 595C362.314 595 365 592.314 365 589C365 585.686 362.314 583 359 583ZM343 583C339.686 583 337 585.686 337 589C337 592.314 339.686 595 343 595C346.314 595 349 592.314 349 589C349 585.686 346.314 583 343 583Z" fill="#743E29"/>
<path d="M434.232 546.732C433.255 547.709 433.255 549.291 434.232 550.268L450.142 566.178C451.118 567.154 452.701 567.154 453.677 566.178C454.654 565.201 454.654 563.618 453.677 562.642L439.535 548.5L453.677 534.358C454.654 533.382 454.654 531.799 453.677 530.822C452.701 529.846 451.118 529.846 450.142 530.822L434.232 546.732ZM792.001 546L436 546L436 551L792.001 551L792.001 546Z" fill="#F2A587"/>
<path d="M897.333 135C897.333 131.464 898.738 128.072 901.238 125.572C903.739 123.071 907.13 121.667 910.666 121.667H972C973.751 121.667 975.484 122.012 977.102 122.682C978.72 123.352 980.19 124.334 981.428 125.572C982.666 126.81 983.648 128.28 984.318 129.898C984.988 131.515 985.333 133.249 985.333 135V211C985.333 212.061 984.912 213.078 984.161 213.828C983.411 214.579 982.394 215 981.333 215H905.333C905.333 216.414 905.895 217.771 906.895 218.771C907.895 219.771 909.252 220.333 910.666 220.333H981.333C982.394 220.333 983.411 220.755 984.161 221.505C984.912 222.255 985.333 223.272 985.333 224.333C985.333 225.394 984.912 226.412 984.161 227.162C983.411 227.912 982.394 228.333 981.333 228.333H910.666C907.13 228.333 903.739 226.929 901.238 224.428C898.738 221.928 897.333 218.536 897.333 215V135ZM941.333 153.667C942.747 153.667 944.104 153.105 945.104 152.105C946.104 151.104 946.666 149.748 946.666 148.333C946.666 146.919 946.104 145.562 945.104 144.562C944.104 143.562 942.747 143 941.333 143C939.919 143 938.562 143.562 937.562 144.562C936.562 145.562 936 146.919 936 148.333C936 149.748 936.562 151.104 937.562 152.105C938.562 153.105 939.919 153.667 941.333 153.667V153.667ZM937.333 163V189.667C937.333 190.727 937.754 191.745 938.505 192.495C939.255 193.245 940.272 193.667 941.333 193.667C942.394 193.667 943.411 193.245 944.161 192.495C944.912 191.745 945.333 190.727 945.333 189.667V163C945.333 161.939 944.912 160.922 944.161 160.172C943.411 159.421 942.394 159 941.333 159C940.272 159 939.255 159.421 938.505 160.172C937.754 160.922 937.333 161.939 937.333 163Z" fill="#743E29"/>
<path d="M1383.6 877.426C1384.94 877.092 1385.76 875.736 1385.43 874.396L1379.99 852.563C1379.65 851.223 1378.3 850.407 1376.96 850.741C1375.62 851.075 1374.8 852.431 1375.14 853.771L1379.97 873.178L1360.56 878.011C1359.22 878.345 1358.41 879.702 1358.74 881.042C1359.07 882.381 1360.43 883.197 1361.77 882.863L1383.6 877.426ZM1055.71 681.143L1381.71 877.143L1384.29 872.857L1058.29 676.857L1055.71 681.143Z" fill="#F2A587"/>
<path d="M215.899 661H209.967L219.006 634.818H226.139L235.165 661H229.233L222.675 640.801H222.47L215.899 661ZM215.528 650.709H229.54V655.03H215.528V650.709ZM237.956 661V634.818H248.286C250.271 634.818 251.963 635.197 253.361 635.956C254.759 636.706 255.824 637.75 256.557 639.088C257.298 640.418 257.669 641.952 257.669 643.69C257.669 645.429 257.294 646.963 256.544 648.293C255.794 649.622 254.708 650.658 253.284 651.399C251.869 652.141 250.156 652.511 248.145 652.511H241.561V648.075H247.25C248.315 648.075 249.193 647.892 249.884 647.526C250.583 647.151 251.102 646.635 251.443 645.979C251.793 645.314 251.967 644.551 251.967 643.69C251.967 642.821 251.793 642.062 251.443 641.415C251.102 640.759 250.583 640.251 249.884 639.893C249.185 639.527 248.298 639.344 247.225 639.344H243.492V661H237.956ZM266.44 634.818V661H260.905V634.818H266.44ZM278.504 668.364V641.364H283.874V644.662H284.117C284.355 644.134 284.7 643.597 285.152 643.051C285.612 642.497 286.209 642.037 286.942 641.67C287.683 641.295 288.604 641.108 289.703 641.108C291.135 641.108 292.456 641.483 293.666 642.233C294.876 642.974 295.844 644.095 296.568 645.595C297.293 647.087 297.655 648.957 297.655 651.207C297.655 653.398 297.301 655.247 296.594 656.756C295.895 658.256 294.94 659.393 293.73 660.169C292.528 660.936 291.182 661.32 289.69 661.32C288.634 661.32 287.734 661.145 286.993 660.795C286.26 660.446 285.659 660.007 285.19 659.479C284.722 658.942 284.364 658.401 284.117 657.855H283.95V668.364H278.504ZM283.835 651.182C283.835 652.349 283.997 653.368 284.321 654.237C284.645 655.107 285.114 655.784 285.727 656.27C286.341 656.747 287.087 656.986 287.965 656.986C288.851 656.986 289.601 656.743 290.215 656.257C290.828 655.763 291.293 655.081 291.608 654.212C291.932 653.334 292.094 652.324 292.094 651.182C292.094 650.048 291.936 649.051 291.621 648.19C291.305 647.33 290.841 646.656 290.227 646.17C289.614 645.685 288.859 645.442 287.965 645.442C287.078 645.442 286.328 645.676 285.715 646.145C285.109 646.614 284.645 647.278 284.321 648.139C283.997 649 283.835 650.014 283.835 651.182ZM300.926 661V641.364H306.205V644.79H306.41C306.768 643.571 307.369 642.651 308.212 642.028C309.056 641.398 310.028 641.082 311.127 641.082C311.4 641.082 311.694 641.099 312.009 641.134C312.325 641.168 312.602 641.214 312.84 641.274V646.107C312.585 646.03 312.231 645.962 311.779 645.902C311.328 645.842 310.914 645.812 310.539 645.812C309.738 645.812 309.022 645.987 308.391 646.337C307.769 646.678 307.275 647.155 306.909 647.768C306.551 648.382 306.372 649.089 306.372 649.891V661H300.926ZM323.254 661.384C321.268 661.384 319.551 660.962 318.102 660.118C316.662 659.266 315.55 658.081 314.765 656.564C313.981 655.038 313.589 653.27 313.589 651.259C313.589 649.23 313.981 647.457 314.765 645.94C315.55 644.415 316.662 643.23 318.102 642.386C319.551 641.534 321.268 641.108 323.254 641.108C325.24 641.108 326.953 641.534 328.393 642.386C329.842 643.23 330.959 644.415 331.743 645.94C332.527 647.457 332.919 649.23 332.919 651.259C332.919 653.27 332.527 655.038 331.743 656.564C330.959 658.081 329.842 659.266 328.393 660.118C326.953 660.962 325.24 661.384 323.254 661.384ZM323.28 657.165C324.183 657.165 324.937 656.909 325.542 656.398C326.148 655.878 326.604 655.17 326.91 654.276C327.226 653.381 327.383 652.362 327.383 651.22C327.383 650.078 327.226 649.06 326.91 648.165C326.604 647.27 326.148 646.562 325.542 646.043C324.937 645.523 324.183 645.263 323.28 645.263C322.368 645.263 321.601 645.523 320.979 646.043C320.365 646.562 319.9 647.27 319.585 648.165C319.278 649.06 319.125 650.078 319.125 651.22C319.125 652.362 319.278 653.381 319.585 654.276C319.9 655.17 320.365 655.878 320.979 656.398C321.601 656.909 322.368 657.165 323.28 657.165ZM353.774 641.364L346.909 661H340.773L333.908 641.364H339.66L343.739 655.413H343.943L348.008 641.364H353.774ZM356.201 661V641.364H361.647V661H356.201ZM358.937 638.832C358.127 638.832 357.433 638.564 356.853 638.027C356.282 637.482 355.996 636.83 355.996 636.071C355.996 635.321 356.282 634.678 356.853 634.141C357.433 633.595 358.127 633.322 358.937 633.322C359.746 633.322 360.437 633.595 361.008 634.141C361.587 634.678 361.877 635.321 361.877 636.071C361.877 636.83 361.587 637.482 361.008 638.027C360.437 638.564 359.746 638.832 358.937 638.832ZM372.885 661.32C371.394 661.32 370.043 660.936 368.833 660.169C367.631 659.393 366.677 658.256 365.969 656.756C365.27 655.247 364.921 653.398 364.921 651.207C364.921 648.957 365.283 647.087 366.008 645.595C366.732 644.095 367.695 642.974 368.897 642.233C370.107 641.483 371.432 641.108 372.873 641.108C373.972 641.108 374.888 641.295 375.621 641.67C376.363 642.037 376.959 642.497 377.411 643.051C377.871 643.597 378.221 644.134 378.459 644.662H378.625V634.818H384.059V661H378.689V657.855H378.459C378.204 658.401 377.841 658.942 377.373 659.479C376.912 660.007 376.312 660.446 375.57 660.795C374.837 661.145 373.942 661.32 372.885 661.32ZM374.611 656.986C375.489 656.986 376.231 656.747 376.836 656.27C377.449 655.784 377.918 655.107 378.242 654.237C378.574 653.368 378.741 652.349 378.741 651.182C378.741 650.014 378.579 649 378.255 648.139C377.931 647.278 377.462 646.614 376.848 646.145C376.235 645.676 375.489 645.442 374.611 645.442C373.716 645.442 372.962 645.685 372.348 646.17C371.735 646.656 371.27 647.33 370.955 648.19C370.64 649.051 370.482 650.048 370.482 651.182C370.482 652.324 370.64 653.334 370.955 654.212C371.279 655.081 371.743 655.763 372.348 656.257C372.962 656.743 373.716 656.986 374.611 656.986ZM397.125 661.384C395.105 661.384 393.367 660.974 391.909 660.156C390.46 659.33 389.344 658.162 388.56 656.653C387.776 655.136 387.384 653.342 387.384 651.271C387.384 649.251 387.776 647.479 388.56 645.953C389.344 644.428 390.448 643.239 391.871 642.386C393.303 641.534 394.982 641.108 396.908 641.108C398.203 641.108 399.409 641.317 400.526 641.734C401.651 642.143 402.631 642.761 403.466 643.588C404.31 644.415 404.966 645.455 405.435 646.707C405.904 647.952 406.138 649.409 406.138 651.08V652.575H389.557V649.2H401.012C401.012 648.416 400.841 647.722 400.5 647.116C400.159 646.511 399.686 646.038 399.081 645.697C398.485 645.348 397.79 645.173 396.997 645.173C396.171 645.173 395.438 645.365 394.799 645.749C394.168 646.124 393.674 646.631 393.316 647.27C392.958 647.901 392.774 648.604 392.766 649.379V652.588C392.766 653.56 392.945 654.399 393.303 655.107C393.669 655.814 394.185 656.359 394.85 656.743C395.514 657.126 396.303 657.318 397.215 657.318C397.82 657.318 398.374 657.233 398.877 657.062C399.379 656.892 399.81 656.636 400.168 656.295C400.526 655.955 400.799 655.537 400.986 655.043L406.023 655.375C405.767 656.585 405.243 657.642 404.45 658.545C403.666 659.44 402.652 660.139 401.408 660.642C400.172 661.136 398.745 661.384 397.125 661.384ZM409.332 661V641.364H414.612V644.79H414.816C415.174 643.571 415.775 642.651 416.619 642.028C417.463 641.398 418.434 641.082 419.534 641.082C419.806 641.082 420.1 641.099 420.416 641.134C420.731 641.168 421.008 641.214 421.247 641.274V646.107C420.991 646.03 420.637 645.962 420.186 645.902C419.734 645.842 419.321 645.812 418.946 645.812C418.144 645.812 417.429 645.987 416.798 646.337C416.176 646.678 415.681 647.155 415.315 647.768C414.957 648.382 414.778 649.089 414.778 649.891V661H409.332Z" fill="#743E29"/>
<path d="M818.873 93H809.592V66.8182H818.95C821.583 66.8182 823.85 67.3423 825.751 68.3906C827.651 69.4304 829.113 70.9261 830.136 72.8778C831.167 74.8295 831.683 77.1648 831.683 79.8835C831.683 82.6108 831.167 84.9545 830.136 86.9148C829.113 88.875 827.643 90.3793 825.725 91.4276C823.816 92.4759 821.532 93 818.873 93ZM815.127 88.2571H818.643C820.279 88.2571 821.656 87.9673 822.772 87.3878C823.897 86.7997 824.741 85.892 825.303 84.6648C825.874 83.429 826.16 81.8352 826.16 79.8835C826.16 77.9489 825.874 76.3679 825.303 75.1406C824.741 73.9134 823.901 73.0099 822.785 72.4304C821.669 71.8509 820.292 71.5611 818.656 71.5611H815.127V88.2571ZM844.193 93.3835C842.207 93.3835 840.49 92.9616 839.041 92.1179C837.601 91.2656 836.489 90.081 835.704 88.5639C834.92 87.0384 834.528 85.2699 834.528 83.2585C834.528 81.2301 834.92 79.4574 835.704 77.9403C836.489 76.4148 837.601 75.2301 839.041 74.3864C840.49 73.5341 842.207 73.108 844.193 73.108C846.179 73.108 847.892 73.5341 849.332 74.3864C850.781 75.2301 851.898 76.4148 852.682 77.9403C853.466 79.4574 853.858 81.2301 853.858 83.2585C853.858 85.2699 853.466 87.0384 852.682 88.5639C851.898 90.081 850.781 91.2656 849.332 92.1179C847.892 92.9616 846.179 93.3835 844.193 93.3835ZM844.219 89.1648C845.122 89.1648 845.876 88.9091 846.481 88.3977C847.087 87.8778 847.543 87.1705 847.849 86.2756C848.165 85.3807 848.322 84.3622 848.322 83.2202C848.322 82.0781 848.165 81.0597 847.849 80.1648C847.543 79.2699 847.087 78.5625 846.481 78.0426C845.876 77.5227 845.122 77.2628 844.219 77.2628C843.307 77.2628 842.54 77.5227 841.918 78.0426C841.304 78.5625 840.839 79.2699 840.524 80.1648C840.217 81.0597 840.064 82.0781 840.064 83.2202C840.064 84.3622 840.217 85.3807 840.524 86.2756C840.839 87.1705 841.304 87.8778 841.918 88.3977C842.54 88.9091 843.307 89.1648 844.219 89.1648ZM865.911 93.3835C863.9 93.3835 862.17 92.9574 860.721 92.1051C859.281 91.2443 858.173 90.0511 857.397 88.5256C856.63 87 856.246 85.2443 856.246 83.2585C856.246 81.2472 856.634 79.483 857.41 77.9659C858.194 76.4403 859.306 75.2514 860.746 74.3991C862.187 73.5384 863.9 73.108 865.886 73.108C867.599 73.108 869.099 73.419 870.386 74.0412C871.673 74.6634 872.691 75.5369 873.441 76.6619C874.191 77.7869 874.604 79.108 874.681 80.625H869.542C869.397 79.6449 869.014 78.8565 868.391 78.2599C867.778 77.6548 866.972 77.3523 865.975 77.3523C865.131 77.3523 864.394 77.5824 863.764 78.0426C863.141 78.4943 862.656 79.1548 862.306 80.0241C861.957 80.8935 861.782 81.946 861.782 83.1818C861.782 84.4347 861.952 85.5 862.293 86.3778C862.643 87.2557 863.133 87.9247 863.764 88.3849C864.394 88.8452 865.131 89.0753 865.975 89.0753C866.597 89.0753 867.156 88.9474 867.65 88.6918C868.153 88.4361 868.566 88.0653 868.89 87.5795C869.222 87.0852 869.44 86.4929 869.542 85.8026H874.681C874.596 87.3026 874.187 88.6236 873.454 89.7656C872.729 90.8991 871.728 91.7855 870.45 92.4247C869.171 93.0639 867.658 93.3835 865.911 93.3835ZM890.4 84.6392V73.3636H895.846V93H890.618V89.4332H890.413C889.97 90.5838 889.233 91.5085 888.201 92.2074C887.179 92.9062 885.93 93.2557 884.456 93.2557C883.143 93.2557 881.988 92.9574 880.991 92.3608C879.994 91.7642 879.214 90.9162 878.652 89.8168C878.098 88.7173 877.817 87.4006 877.808 85.8665V73.3636H883.254V84.8949C883.263 86.054 883.574 86.9702 884.187 87.6435C884.801 88.3168 885.623 88.6534 886.655 88.6534C887.311 88.6534 887.924 88.5043 888.495 88.206C889.067 87.8991 889.527 87.4474 889.876 86.8509C890.234 86.2543 890.409 85.517 890.4 84.6392ZM899.843 93V73.3636H905.033V76.8281H905.263C905.672 75.6776 906.354 74.7699 907.308 74.1051C908.263 73.4403 909.405 73.108 910.735 73.108C912.081 73.108 913.227 73.4446 914.173 74.1179C915.12 74.7827 915.75 75.6861 916.066 76.8281H916.27C916.671 75.7031 917.395 74.804 918.443 74.1307C919.5 73.4489 920.749 73.108 922.189 73.108C924.021 73.108 925.509 73.6918 926.651 74.8594C927.801 76.0185 928.377 77.6634 928.377 79.794V93H922.943V80.8679C922.943 79.777 922.654 78.9588 922.074 78.4134C921.495 77.8679 920.77 77.5952 919.901 77.5952C918.912 77.5952 918.141 77.9105 917.587 78.5412C917.033 79.1634 916.756 79.9858 916.756 81.0085V93H911.476V80.7528C911.476 79.7898 911.199 79.0227 910.645 78.4517C910.1 77.8807 909.379 77.5952 908.485 77.5952C907.879 77.5952 907.334 77.7486 906.848 78.0554C906.371 78.3537 905.992 78.7756 905.71 79.321C905.429 79.858 905.289 80.4886 905.289 81.2131V93H899.843ZM941.267 93.3835C939.247 93.3835 937.509 92.9744 936.051 92.1562C934.603 91.3295 933.486 90.1619 932.702 88.6534C931.918 87.1364 931.526 85.3423 931.526 83.2713C931.526 81.2514 931.918 79.4787 932.702 77.9531C933.486 76.4276 934.59 75.2386 936.013 74.3864C937.445 73.5341 939.124 73.108 941.05 73.108C942.345 73.108 943.551 73.3168 944.668 73.7344C945.793 74.1435 946.773 74.7614 947.608 75.5881C948.452 76.4148 949.108 77.4545 949.577 78.7074C950.046 79.9517 950.28 81.4091 950.28 83.0795V84.5753H933.699V81.2003H945.154C945.154 80.4162 944.983 79.7216 944.642 79.1165C944.301 78.5114 943.828 78.0384 943.223 77.6974C942.627 77.348 941.932 77.1733 941.139 77.1733C940.313 77.1733 939.58 77.3651 938.941 77.7486C938.31 78.1236 937.816 78.6307 937.458 79.2699C937.1 79.9006 936.916 80.6037 936.908 81.3793V84.5881C936.908 85.5597 937.087 86.3991 937.445 87.1065C937.811 87.8139 938.327 88.3594 938.992 88.7429C939.657 89.1264 940.445 89.3182 941.357 89.3182C941.962 89.3182 942.516 89.233 943.019 89.0625C943.522 88.892 943.952 88.6364 944.31 88.2955C944.668 87.9545 944.941 87.5369 945.128 87.0426L950.165 87.375C949.909 88.5852 949.385 89.642 948.593 90.5455C947.809 91.4403 946.794 92.1392 945.55 92.642C944.314 93.1364 942.887 93.3835 941.267 93.3835ZM958.92 81.6477V93H953.474V73.3636H958.664V76.8281H958.895C959.329 75.6861 960.058 74.7827 961.081 74.1179C962.103 73.4446 963.343 73.108 964.801 73.108C966.164 73.108 967.353 73.4062 968.368 74.0028C969.382 74.5994 970.17 75.4517 970.733 76.5597C971.295 77.6591 971.576 78.9716 971.576 80.4972V93H966.13V81.4688C966.139 80.267 965.832 79.3295 965.21 78.6562C964.588 77.9744 963.731 77.6335 962.64 77.6335C961.907 77.6335 961.26 77.7912 960.697 78.1065C960.143 78.4219 959.708 78.8821 959.393 79.4872C959.086 80.0838 958.929 80.804 958.92 81.6477ZM985.953 73.3636V77.4545H974.128V73.3636H985.953ZM976.813 68.6591H982.259V86.9659C982.259 87.4687 982.335 87.8608 982.489 88.142C982.642 88.4148 982.855 88.6065 983.128 88.7173C983.409 88.8281 983.733 88.8835 984.1 88.8835C984.355 88.8835 984.611 88.8622 984.867 88.8196C985.122 88.7685 985.318 88.7301 985.455 88.7045L986.311 92.7571C986.038 92.8423 985.655 92.9403 985.161 93.0511C984.666 93.1705 984.065 93.2429 983.358 93.2685C982.046 93.3196 980.895 93.1449 979.906 92.7443C978.926 92.3437 978.163 91.7216 977.618 90.8778C977.073 90.0341 976.804 88.9687 976.813 87.6818V68.6591ZM994.74 93.3707C993.487 93.3707 992.371 93.1534 991.391 92.7188C990.411 92.2756 989.635 91.6236 989.064 90.7628C988.502 89.8935 988.22 88.8111 988.22 87.5156C988.22 86.4247 988.421 85.5085 988.821 84.767C989.222 84.0256 989.767 83.429 990.458 82.9773C991.148 82.5256 991.932 82.1847 992.81 81.9545C993.696 81.7244 994.625 81.5625 995.597 81.4688C996.739 81.3494 997.659 81.2386 998.358 81.1364C999.057 81.0256 999.564 80.8636 999.879 80.6506C1000.19 80.4375 1000.35 80.1222 1000.35 79.7045V79.6278C1000.35 78.8182 1000.1 78.1918 999.585 77.7486C999.083 77.3054 998.367 77.0838 997.438 77.0838C996.458 77.0838 995.678 77.3011 995.098 77.7358C994.519 78.1619 994.135 78.6989 993.948 79.3466L988.911 78.9375C989.166 77.7443 989.669 76.7131 990.419 75.8438C991.169 74.9659 992.137 74.2926 993.321 73.8239C994.514 73.3466 995.895 73.108 997.463 73.108C998.554 73.108 999.598 73.2358 1000.6 73.4915C1001.6 73.7472 1002.49 74.1435 1003.27 74.6804C1004.05 75.2173 1004.67 75.9077 1005.12 76.7514C1005.57 77.5866 1005.8 78.5881 1005.8 79.7557V93H1000.63V90.277H1000.48C1000.16 90.8906 999.743 91.4318 999.215 91.9006C998.686 92.3608 998.051 92.723 997.31 92.9872C996.568 93.2429 995.712 93.3707 994.74 93.3707ZM996.3 89.6122C997.101 89.6122 997.808 89.4545 998.422 89.1392C999.036 88.8153 999.517 88.3807 999.867 87.8352C1000.22 87.2898 1000.39 86.6719 1000.39 85.9815V83.8977C1000.22 84.0085 999.986 84.1108 999.688 84.2045C999.398 84.2898 999.07 84.3707 998.703 84.4474C998.337 84.5156 997.97 84.5795 997.604 84.6392C997.237 84.6903 996.905 84.7372 996.607 84.7798C995.967 84.8736 995.409 85.0227 994.932 85.2273C994.455 85.4318 994.084 85.7088 993.82 86.0582C993.556 86.3991 993.423 86.8253 993.423 87.3366C993.423 88.0781 993.692 88.6449 994.229 89.0369C994.774 89.4205 995.465 89.6122 996.3 89.6122ZM1020.11 73.3636V77.4545H1008.28V73.3636H1020.11ZM1010.97 68.6591H1016.41V86.9659C1016.41 87.4687 1016.49 87.8608 1016.64 88.142C1016.8 88.4148 1017.01 88.6065 1017.28 88.7173C1017.56 88.8281 1017.89 88.8835 1018.25 88.8835C1018.51 88.8835 1018.77 88.8622 1019.02 88.8196C1019.28 88.7685 1019.47 88.7301 1019.61 88.7045L1020.47 92.7571C1020.19 92.8423 1019.81 92.9403 1019.32 93.0511C1018.82 93.1705 1018.22 93.2429 1017.51 93.2685C1016.2 93.3196 1015.05 93.1449 1014.06 92.7443C1013.08 92.3437 1012.32 91.7216 1011.77 90.8778C1011.23 90.0341 1010.96 88.9687 1010.97 87.6818V68.6591ZM1023.3 93V73.3636H1028.74V93H1023.3ZM1026.03 70.8324C1025.22 70.8324 1024.53 70.5639 1023.95 70.027C1023.38 69.4815 1023.09 68.8295 1023.09 68.071C1023.09 67.321 1023.38 66.6776 1023.95 66.1406C1024.53 65.5952 1025.22 65.3224 1026.03 65.3224C1026.84 65.3224 1027.53 65.5952 1028.1 66.1406C1028.68 66.6776 1028.97 67.321 1028.97 68.071C1028.97 68.8295 1028.68 69.4815 1028.1 70.027C1027.53 70.5639 1026.84 70.8324 1026.03 70.8324ZM1041.62 93.3835C1039.63 93.3835 1037.91 92.9616 1036.46 92.1179C1035.02 91.2656 1033.91 90.081 1033.13 88.5639C1032.34 87.0384 1031.95 85.2699 1031.95 83.2585C1031.95 81.2301 1032.34 79.4574 1033.13 77.9403C1033.91 76.4148 1035.02 75.2301 1036.46 74.3864C1037.91 73.5341 1039.63 73.108 1041.62 73.108C1043.6 73.108 1045.32 73.5341 1046.76 74.3864C1048.2 75.2301 1049.32 76.4148 1050.11 77.9403C1050.89 79.4574 1051.28 81.2301 1051.28 83.2585C1051.28 85.2699 1050.89 87.0384 1050.11 88.5639C1049.32 90.081 1048.2 91.2656 1046.76 92.1179C1045.32 92.9616 1043.6 93.3835 1041.62 93.3835ZM1041.64 89.1648C1042.55 89.1648 1043.3 88.9091 1043.9 88.3977C1044.51 87.8778 1044.97 87.1705 1045.27 86.2756C1045.59 85.3807 1045.75 84.3622 1045.75 83.2202C1045.75 82.0781 1045.59 81.0597 1045.27 80.1648C1044.97 79.2699 1044.51 78.5625 1043.9 78.0426C1043.3 77.5227 1042.55 77.2628 1041.64 77.2628C1040.73 77.2628 1039.96 77.5227 1039.34 78.0426C1038.73 78.5625 1038.26 79.2699 1037.95 80.1648C1037.64 81.0597 1037.49 82.0781 1037.49 83.2202C1037.49 84.3622 1037.64 85.3807 1037.95 86.2756C1038.26 87.1705 1038.73 87.8778 1039.34 88.3977C1039.96 88.9091 1040.73 89.1648 1041.64 89.1648ZM1059.91 81.6477V93H1054.46V73.3636H1059.65V76.8281H1059.88C1060.32 75.6861 1061.05 74.7827 1062.07 74.1179C1063.09 73.4446 1064.33 73.108 1065.79 73.108C1067.15 73.108 1068.34 73.4062 1069.36 74.0028C1070.37 74.5994 1071.16 75.4517 1071.72 76.5597C1072.28 77.6591 1072.56 78.9716 1072.56 80.4972V93H1067.12V81.4688C1067.13 80.267 1066.82 79.3295 1066.2 78.6562C1065.58 77.9744 1064.72 77.6335 1063.63 77.6335C1062.9 77.6335 1062.25 77.7912 1061.69 78.1065C1061.13 78.4219 1060.7 78.8821 1060.38 79.4872C1060.07 80.0838 1059.92 80.804 1059.91 81.6477Z" fill="#743E29"/>
<path d="M1350.6 340V313.818H1360.93C1362.91 313.818 1364.6 314.197 1366 314.956C1367.4 315.706 1368.46 316.75 1369.2 318.088C1369.94 319.418 1370.31 320.952 1370.31 322.69C1370.31 324.429 1369.93 325.963 1369.18 327.293C1368.43 328.622 1367.35 329.658 1365.92 330.399C1364.51 331.141 1362.8 331.511 1360.78 331.511H1354.2V327.075H1359.89C1360.96 327.075 1361.83 326.892 1362.52 326.526C1363.22 326.151 1363.74 325.635 1364.08 324.979C1364.43 324.314 1364.61 323.551 1364.61 322.69C1364.61 321.821 1364.43 321.062 1364.08 320.415C1363.74 319.759 1363.22 319.251 1362.52 318.893C1361.82 318.527 1360.94 318.344 1359.86 318.344H1356.13V340H1350.6ZM1378.89 313.818V340H1373.44V313.818H1378.89ZM1388.49 340.371C1387.24 340.371 1386.12 340.153 1385.14 339.719C1384.16 339.276 1383.39 338.624 1382.81 337.763C1382.25 336.893 1381.97 335.811 1381.97 334.516C1381.97 333.425 1382.17 332.509 1382.57 331.767C1382.97 331.026 1383.52 330.429 1384.21 329.977C1384.9 329.526 1385.68 329.185 1386.56 328.955C1387.45 328.724 1388.38 328.562 1389.35 328.469C1390.49 328.349 1391.41 328.239 1392.11 328.136C1392.81 328.026 1393.31 327.864 1393.63 327.651C1393.94 327.437 1394.1 327.122 1394.1 326.705V326.628C1394.1 325.818 1393.85 325.192 1393.34 324.749C1392.83 324.305 1392.12 324.084 1391.19 324.084C1390.21 324.084 1389.43 324.301 1388.85 324.736C1388.27 325.162 1387.89 325.699 1387.7 326.347L1382.66 325.938C1382.92 324.744 1383.42 323.713 1384.17 322.844C1384.92 321.966 1385.89 321.293 1387.07 320.824C1388.26 320.347 1389.65 320.108 1391.21 320.108C1392.3 320.108 1393.35 320.236 1394.35 320.491C1395.35 320.747 1396.24 321.143 1397.02 321.68C1397.8 322.217 1398.42 322.908 1398.87 323.751C1399.32 324.587 1399.55 325.588 1399.55 326.756V340H1394.38V337.277H1394.23C1393.92 337.891 1393.49 338.432 1392.96 338.901C1392.44 339.361 1391.8 339.723 1391.06 339.987C1390.32 340.243 1389.46 340.371 1388.49 340.371ZM1390.05 336.612C1390.85 336.612 1391.56 336.455 1392.17 336.139C1392.79 335.815 1393.27 335.381 1393.62 334.835C1393.97 334.29 1394.14 333.672 1394.14 332.982V330.898C1393.97 331.009 1393.74 331.111 1393.44 331.205C1393.15 331.29 1392.82 331.371 1392.45 331.447C1392.09 331.516 1391.72 331.58 1391.35 331.639C1390.99 331.69 1390.66 331.737 1390.36 331.78C1389.72 331.874 1389.16 332.023 1388.68 332.227C1388.2 332.432 1387.83 332.709 1387.57 333.058C1387.31 333.399 1387.17 333.825 1387.17 334.337C1387.17 335.078 1387.44 335.645 1387.98 336.037C1388.52 336.42 1389.21 336.612 1390.05 336.612ZM1413.86 320.364V324.455H1402.03V320.364H1413.86ZM1404.72 315.659H1410.16V333.966C1410.16 334.469 1410.24 334.861 1410.39 335.142C1410.55 335.415 1410.76 335.607 1411.03 335.717C1411.31 335.828 1411.64 335.884 1412 335.884C1412.26 335.884 1412.52 335.862 1412.77 335.82C1413.03 335.768 1413.22 335.73 1413.36 335.705L1414.22 339.757C1413.94 339.842 1413.56 339.94 1413.07 340.051C1412.57 340.17 1411.97 340.243 1411.26 340.268C1409.95 340.32 1408.8 340.145 1407.81 339.744C1406.83 339.344 1406.07 338.722 1405.52 337.878C1404.98 337.034 1404.71 335.969 1404.72 334.682V315.659ZM1427.61 320.364V324.455H1415.49V320.364H1427.61ZM1418.26 340V318.945C1418.26 317.521 1418.54 316.341 1419.09 315.403C1419.65 314.466 1420.42 313.763 1421.39 313.294C1422.36 312.825 1423.47 312.591 1424.7 312.591C1425.54 312.591 1426.3 312.655 1426.99 312.783C1427.69 312.911 1428.21 313.026 1428.55 313.128L1427.58 317.219C1427.37 317.151 1427.1 317.087 1426.79 317.027C1426.48 316.967 1426.17 316.938 1425.84 316.938C1425.04 316.938 1424.48 317.125 1424.17 317.5C1423.85 317.866 1423.69 318.382 1423.69 319.047V340H1418.26ZM1438.74 340.384C1436.76 340.384 1435.04 339.962 1433.59 339.118C1432.15 338.266 1431.04 337.081 1430.25 335.564C1429.47 334.038 1429.08 332.27 1429.08 330.259C1429.08 328.23 1429.47 326.457 1430.25 324.94C1431.04 323.415 1432.15 322.23 1433.59 321.386C1435.04 320.534 1436.76 320.108 1438.74 320.108C1440.73 320.108 1442.44 320.534 1443.88 321.386C1445.33 322.23 1446.45 323.415 1447.23 324.94C1448.01 326.457 1448.41 328.23 1448.41 330.259C1448.41 332.27 1448.01 334.038 1447.23 335.564C1446.45 337.081 1445.33 338.266 1443.88 339.118C1442.44 339.962 1440.73 340.384 1438.74 340.384ZM1438.77 336.165C1439.67 336.165 1440.42 335.909 1441.03 335.398C1441.64 334.878 1442.09 334.17 1442.4 333.276C1442.71 332.381 1442.87 331.362 1442.87 330.22C1442.87 329.078 1442.71 328.06 1442.4 327.165C1442.09 326.27 1441.64 325.562 1441.03 325.043C1440.42 324.523 1439.67 324.263 1438.77 324.263C1437.86 324.263 1437.09 324.523 1436.47 325.043C1435.85 325.562 1435.39 326.27 1435.07 327.165C1434.77 328.06 1434.61 329.078 1434.61 330.22C1434.61 331.362 1434.77 332.381 1435.07 333.276C1435.39 334.17 1435.85 334.878 1436.47 335.398C1437.09 335.909 1437.86 336.165 1438.77 336.165ZM1451.59 340V320.364H1456.87V323.79H1457.07C1457.43 322.571 1458.03 321.651 1458.87 321.028C1459.72 320.398 1460.69 320.082 1461.79 320.082C1462.06 320.082 1462.36 320.099 1462.67 320.134C1462.99 320.168 1463.26 320.214 1463.5 320.274V325.107C1463.25 325.03 1462.89 324.962 1462.44 324.902C1461.99 324.842 1461.58 324.812 1461.2 324.812C1460.4 324.812 1459.68 324.987 1459.05 325.337C1458.43 325.678 1457.94 326.155 1457.57 326.768C1457.21 327.382 1457.03 328.089 1457.03 328.891V340H1451.59ZM1465.96 340V320.364H1471.15V323.828H1471.38C1471.79 322.678 1472.47 321.77 1473.42 321.105C1474.38 320.44 1475.52 320.108 1476.85 320.108C1478.2 320.108 1479.34 320.445 1480.29 321.118C1481.24 321.783 1481.87 322.686 1482.18 323.828H1482.39C1482.79 322.703 1483.51 321.804 1484.56 321.131C1485.62 320.449 1486.86 320.108 1488.3 320.108C1490.14 320.108 1491.62 320.692 1492.77 321.859C1493.92 323.018 1494.49 324.663 1494.49 326.794V340H1489.06V327.868C1489.06 326.777 1488.77 325.959 1488.19 325.413C1487.61 324.868 1486.89 324.595 1486.02 324.595C1485.03 324.595 1484.26 324.911 1483.7 325.541C1483.15 326.163 1482.87 326.986 1482.87 328.009V340H1477.59V327.753C1477.59 326.79 1477.31 326.023 1476.76 325.452C1476.22 324.881 1475.49 324.595 1474.6 324.595C1473.99 324.595 1473.45 324.749 1472.96 325.055C1472.49 325.354 1472.11 325.776 1471.83 326.321C1471.54 326.858 1471.4 327.489 1471.4 328.213V340H1465.96ZM1511.85 328.648V340H1506.41V320.364H1511.6V323.828H1511.83C1512.26 322.686 1512.99 321.783 1514.01 321.118C1515.04 320.445 1516.28 320.108 1517.73 320.108C1519.1 320.108 1520.29 320.406 1521.3 321.003C1522.31 321.599 1523.1 322.452 1523.66 323.56C1524.23 324.659 1524.51 325.972 1524.51 327.497V340H1519.06V328.469C1519.07 327.267 1518.76 326.33 1518.14 325.656C1517.52 324.974 1516.66 324.634 1515.57 324.634C1514.84 324.634 1514.19 324.791 1513.63 325.107C1513.08 325.422 1512.64 325.882 1512.33 326.487C1512.02 327.084 1511.86 327.804 1511.85 328.648ZM1534.04 340.371C1532.79 340.371 1531.67 340.153 1530.69 339.719C1529.71 339.276 1528.93 338.624 1528.36 337.763C1527.8 336.893 1527.52 335.811 1527.52 334.516C1527.52 333.425 1527.72 332.509 1528.12 331.767C1528.52 331.026 1529.07 330.429 1529.76 329.977C1530.45 329.526 1531.23 329.185 1532.11 328.955C1533 328.724 1533.92 328.562 1534.9 328.469C1536.04 328.349 1536.96 328.239 1537.66 328.136C1538.36 328.026 1538.86 327.864 1539.18 327.651C1539.49 327.437 1539.65 327.122 1539.65 326.705V326.628C1539.65 325.818 1539.4 325.192 1538.89 324.749C1538.38 324.305 1537.67 324.084 1536.74 324.084C1535.76 324.084 1534.98 324.301 1534.4 324.736C1533.82 325.162 1533.43 325.699 1533.25 326.347L1528.21 325.938C1528.47 324.744 1528.97 323.713 1529.72 322.844C1530.47 321.966 1531.44 321.293 1532.62 320.824C1533.81 320.347 1535.19 320.108 1536.76 320.108C1537.85 320.108 1538.9 320.236 1539.9 320.491C1540.9 320.747 1541.79 321.143 1542.57 321.68C1543.35 322.217 1543.97 322.908 1544.42 323.751C1544.87 324.587 1545.1 325.588 1545.1 326.756V340H1539.93V337.277H1539.78C1539.46 337.891 1539.04 338.432 1538.51 338.901C1537.99 339.361 1537.35 339.723 1536.61 339.987C1535.87 340.243 1535.01 340.371 1534.04 340.371ZM1535.6 336.612C1536.4 336.612 1537.11 336.455 1537.72 336.139C1538.34 335.815 1538.82 335.381 1539.17 334.835C1539.52 334.29 1539.69 333.672 1539.69 332.982V330.898C1539.52 331.009 1539.29 331.111 1538.99 331.205C1538.7 331.29 1538.37 331.371 1538 331.447C1537.64 331.516 1537.27 331.58 1536.9 331.639C1536.54 331.69 1536.2 331.737 1535.91 331.78C1535.27 331.874 1534.71 332.023 1534.23 332.227C1533.75 332.432 1533.38 332.709 1533.12 333.058C1532.86 333.399 1532.72 333.825 1532.72 334.337C1532.72 335.078 1532.99 335.645 1533.53 336.037C1534.07 336.42 1534.76 336.612 1535.6 336.612ZM1559.41 320.364V324.455H1547.58V320.364H1559.41ZM1550.27 315.659H1555.71V333.966C1555.71 334.469 1555.79 334.861 1555.94 335.142C1556.1 335.415 1556.31 335.607 1556.58 335.717C1556.86 335.828 1557.19 335.884 1557.55 335.884C1557.81 335.884 1558.07 335.862 1558.32 335.82C1558.58 335.768 1558.77 335.73 1558.91 335.705L1559.77 339.757C1559.49 339.842 1559.11 339.94 1558.62 340.051C1558.12 340.17 1557.52 340.243 1556.81 340.268C1555.5 340.32 1554.35 340.145 1553.36 339.744C1552.38 339.344 1551.62 338.722 1551.07 337.878C1550.53 337.034 1550.26 335.969 1550.27 334.682V315.659ZM1562.6 340V320.364H1568.04V340H1562.6ZM1565.33 317.832C1564.52 317.832 1563.83 317.564 1563.25 317.027C1562.68 316.482 1562.39 315.83 1562.39 315.071C1562.39 314.321 1562.68 313.678 1563.25 313.141C1563.83 312.595 1564.52 312.322 1565.33 312.322C1566.14 312.322 1566.83 312.595 1567.4 313.141C1567.98 313.678 1568.27 314.321 1568.27 315.071C1568.27 315.83 1567.98 316.482 1567.4 317.027C1566.83 317.564 1566.14 317.832 1565.33 317.832ZM1590.35 320.364L1583.49 340H1577.35L1570.48 320.364H1576.24L1580.32 334.413H1580.52L1584.59 320.364H1590.35ZM1601.09 340.384C1599.07 340.384 1597.34 339.974 1595.88 339.156C1594.43 338.33 1593.31 337.162 1592.53 335.653C1591.74 334.136 1591.35 332.342 1591.35 330.271C1591.35 328.251 1591.74 326.479 1592.53 324.953C1593.31 323.428 1594.42 322.239 1595.84 321.386C1597.27 320.534 1598.95 320.108 1600.88 320.108C1602.17 320.108 1603.38 320.317 1604.49 320.734C1605.62 321.143 1606.6 321.761 1607.43 322.588C1608.28 323.415 1608.93 324.455 1609.4 325.707C1609.87 326.952 1610.11 328.409 1610.11 330.08V331.575H1593.53V328.2H1604.98C1604.98 327.416 1604.81 326.722 1604.47 326.116C1604.13 325.511 1603.66 325.038 1603.05 324.697C1602.45 324.348 1601.76 324.173 1600.97 324.173C1600.14 324.173 1599.41 324.365 1598.77 324.749C1598.14 325.124 1597.64 325.631 1597.28 326.27C1596.93 326.901 1596.74 327.604 1596.73 328.379V331.588C1596.73 332.56 1596.91 333.399 1597.27 334.107C1597.64 334.814 1598.15 335.359 1598.82 335.743C1599.48 336.126 1600.27 336.318 1601.18 336.318C1601.79 336.318 1602.34 336.233 1602.85 336.062C1603.35 335.892 1603.78 335.636 1604.14 335.295C1604.49 334.955 1604.77 334.537 1604.95 334.043L1609.99 334.375C1609.74 335.585 1609.21 336.642 1608.42 337.545C1607.64 338.44 1606.62 339.139 1605.38 339.642C1604.14 340.136 1602.71 340.384 1601.09 340.384ZM1626.87 340.371C1625.62 340.371 1624.5 340.153 1623.52 339.719C1622.54 339.276 1621.77 338.624 1621.2 337.763C1620.63 336.893 1620.35 335.811 1620.35 334.516C1620.35 333.425 1620.55 332.509 1620.95 331.767C1621.35 331.026 1621.9 330.429 1622.59 329.977C1623.28 329.526 1624.06 329.185 1624.94 328.955C1625.83 328.724 1626.76 328.562 1627.73 328.469C1628.87 328.349 1629.79 328.239 1630.49 328.136C1631.19 328.026 1631.7 327.864 1632.01 327.651C1632.33 327.437 1632.48 327.122 1632.48 326.705V326.628C1632.48 325.818 1632.23 325.192 1631.72 324.749C1631.21 324.305 1630.5 324.084 1629.57 324.084C1628.59 324.084 1627.81 324.301 1627.23 324.736C1626.65 325.162 1626.27 325.699 1626.08 326.347L1621.04 325.938C1621.3 324.744 1621.8 323.713 1622.55 322.844C1623.3 321.966 1624.27 321.293 1625.45 320.824C1626.65 320.347 1628.03 320.108 1629.6 320.108C1630.69 320.108 1631.73 320.236 1632.73 320.491C1633.73 320.747 1634.62 321.143 1635.4 321.68C1636.18 322.217 1636.8 322.908 1637.25 323.751C1637.7 324.587 1637.93 325.588 1637.93 326.756V340H1632.77V337.277H1632.61C1632.3 337.891 1631.87 338.432 1631.35 338.901C1630.82 339.361 1630.18 339.723 1629.44 339.987C1628.7 340.243 1627.84 340.371 1626.87 340.371ZM1628.43 336.612C1629.23 336.612 1629.94 336.455 1630.55 336.139C1631.17 335.815 1631.65 335.381 1632 334.835C1632.35 334.29 1632.52 333.672 1632.52 332.982V330.898C1632.35 331.009 1632.12 331.111 1631.82 331.205C1631.53 331.29 1631.2 331.371 1630.84 331.447C1630.47 331.516 1630.1 331.58 1629.74 331.639C1629.37 331.69 1629.04 331.737 1628.74 331.78C1628.1 331.874 1627.54 332.023 1627.06 332.227C1626.59 332.432 1626.22 332.709 1625.95 333.058C1625.69 333.399 1625.56 333.825 1625.56 334.337C1625.56 335.078 1625.82 335.645 1626.36 336.037C1626.91 336.42 1627.6 336.612 1628.43 336.612ZM1641.8 347.364V320.364H1647.16V323.662H1647.41C1647.65 323.134 1647.99 322.597 1648.44 322.051C1648.9 321.497 1649.5 321.037 1650.23 320.67C1650.97 320.295 1651.89 320.108 1652.99 320.108C1654.43 320.108 1655.75 320.483 1656.96 321.233C1658.17 321.974 1659.14 323.095 1659.86 324.595C1660.58 326.087 1660.95 327.957 1660.95 330.207C1660.95 332.398 1660.59 334.247 1659.89 335.756C1659.19 337.256 1658.23 338.393 1657.02 339.169C1655.82 339.936 1654.47 340.32 1652.98 340.32C1651.92 340.32 1651.03 340.145 1650.28 339.795C1649.55 339.446 1648.95 339.007 1648.48 338.479C1648.01 337.942 1647.65 337.401 1647.41 336.855H1647.24V347.364H1641.8ZM1647.13 330.182C1647.13 331.349 1647.29 332.368 1647.61 333.237C1647.94 334.107 1648.4 334.784 1649.02 335.27C1649.63 335.747 1650.38 335.986 1651.26 335.986C1652.14 335.986 1652.89 335.743 1653.51 335.257C1654.12 334.763 1654.58 334.081 1654.9 333.212C1655.22 332.334 1655.39 331.324 1655.39 330.182C1655.39 329.048 1655.23 328.051 1654.91 327.19C1654.6 326.33 1654.13 325.656 1653.52 325.17C1652.9 324.685 1652.15 324.442 1651.26 324.442C1650.37 324.442 1649.62 324.676 1649.01 325.145C1648.4 325.614 1647.94 326.278 1647.61 327.139C1647.29 328 1647.13 329.014 1647.13 330.182ZM1664.22 347.364V320.364H1669.59V323.662H1669.83C1670.07 323.134 1670.41 322.597 1670.86 322.051C1671.32 321.497 1671.92 321.037 1672.65 320.67C1673.4 320.295 1674.32 320.108 1675.42 320.108C1676.85 320.108 1678.17 320.483 1679.38 321.233C1680.59 321.974 1681.56 323.095 1682.28 324.595C1683.01 326.087 1683.37 327.957 1683.37 330.207C1683.37 332.398 1683.01 334.247 1682.31 335.756C1681.61 337.256 1680.65 338.393 1679.44 339.169C1678.24 339.936 1676.89 340.32 1675.4 340.32C1674.35 340.32 1673.45 340.145 1672.71 339.795C1671.97 339.446 1671.37 339.007 1670.9 338.479C1670.43 337.942 1670.08 337.401 1669.83 336.855H1669.66V347.364H1664.22ZM1669.55 330.182C1669.55 331.349 1669.71 332.368 1670.03 333.237C1670.36 334.107 1670.83 334.784 1671.44 335.27C1672.05 335.747 1672.8 335.986 1673.68 335.986C1674.56 335.986 1675.31 335.743 1675.93 335.257C1676.54 334.763 1677.01 334.081 1677.32 333.212C1677.64 332.334 1677.81 331.324 1677.81 330.182C1677.81 329.048 1677.65 328.051 1677.33 327.19C1677.02 326.33 1676.55 325.656 1675.94 325.17C1675.33 324.685 1674.57 324.442 1673.68 324.442C1672.79 324.442 1672.04 324.676 1671.43 325.145C1670.82 325.614 1670.36 326.278 1670.03 327.139C1669.71 328 1669.55 329.014 1669.55 330.182ZM1702.98 325.963L1697.99 326.27C1697.91 325.844 1697.72 325.46 1697.44 325.119C1697.16 324.77 1696.79 324.493 1696.33 324.288C1695.88 324.075 1695.34 323.969 1694.7 323.969C1693.86 323.969 1693.15 324.148 1692.57 324.506C1691.99 324.855 1691.7 325.324 1691.7 325.912C1691.7 326.381 1691.89 326.777 1692.26 327.101C1692.64 327.425 1693.28 327.685 1694.19 327.881L1697.75 328.597C1699.66 328.989 1701.08 329.619 1702.02 330.489C1702.95 331.358 1703.42 332.5 1703.42 333.915C1703.42 335.202 1703.04 336.331 1702.29 337.303C1701.54 338.274 1700.5 339.033 1699.19 339.578C1697.89 340.115 1696.38 340.384 1694.68 340.384C1692.08 340.384 1690.01 339.842 1688.47 338.76C1686.93 337.669 1686.03 336.186 1685.77 334.311L1691.13 334.03C1691.29 334.822 1691.68 335.428 1692.3 335.845C1692.92 336.254 1693.72 336.459 1694.69 336.459C1695.65 336.459 1696.41 336.276 1696.99 335.909C1697.58 335.534 1697.88 335.053 1697.89 334.464C1697.88 333.97 1697.67 333.565 1697.26 333.25C1696.85 332.926 1696.22 332.679 1695.37 332.509L1691.97 331.831C1690.05 331.447 1688.62 330.783 1687.69 329.837C1686.76 328.891 1686.29 327.685 1686.29 326.219C1686.29 324.957 1686.63 323.871 1687.32 322.959C1688.01 322.047 1688.97 321.344 1690.22 320.849C1691.47 320.355 1692.94 320.108 1694.62 320.108C1697.1 320.108 1699.05 320.632 1700.47 321.68C1701.9 322.729 1702.74 324.156 1702.98 325.963Z" fill="#743E29"/>
<path d="M1383.58 661L1376.08 634.818H1382.13L1386.47 653.01H1386.68L1391.46 634.818H1396.64L1401.41 653.048H1401.64L1405.97 634.818H1412.02L1404.53 661H1399.13L1394.15 643.882H1393.94L1388.97 661H1383.58ZM1421.36 661.384C1419.34 661.384 1417.6 660.974 1416.14 660.156C1414.7 659.33 1413.58 658.162 1412.8 656.653C1412.01 655.136 1411.62 653.342 1411.62 651.271C1411.62 649.251 1412.01 647.479 1412.8 645.953C1413.58 644.428 1414.68 643.239 1416.11 642.386C1417.54 641.534 1419.22 641.108 1421.14 641.108C1422.44 641.108 1423.64 641.317 1424.76 641.734C1425.89 642.143 1426.87 642.761 1427.7 643.588C1428.55 644.415 1429.2 645.455 1429.67 646.707C1430.14 647.952 1430.37 649.409 1430.37 651.08V652.575H1413.79V649.2H1425.25C1425.25 648.416 1425.08 647.722 1424.74 647.116C1424.39 646.511 1423.92 646.038 1423.32 645.697C1422.72 645.348 1422.03 645.173 1421.23 645.173C1420.41 645.173 1419.67 645.365 1419.03 645.749C1418.4 646.124 1417.91 646.631 1417.55 647.27C1417.19 647.901 1417.01 648.604 1417 649.379V652.588C1417 653.56 1417.18 654.399 1417.54 655.107C1417.9 655.814 1418.42 656.359 1419.09 656.743C1419.75 657.126 1420.54 657.318 1421.45 657.318C1422.06 657.318 1422.61 657.233 1423.11 657.062C1423.61 656.892 1424.05 656.636 1424.4 656.295C1424.76 655.955 1425.03 655.537 1425.22 655.043L1430.26 655.375C1430 656.585 1429.48 657.642 1428.69 658.545C1427.9 659.44 1426.89 660.139 1425.64 660.642C1424.41 661.136 1422.98 661.384 1421.36 661.384ZM1433.67 661V634.818H1439.12V644.662H1439.28C1439.52 644.134 1439.87 643.597 1440.32 643.051C1440.78 642.497 1441.37 642.037 1442.11 641.67C1442.85 641.295 1443.77 641.108 1444.87 641.108C1446.3 641.108 1447.62 641.483 1448.83 642.233C1450.04 642.974 1451.01 644.095 1451.73 645.595C1452.46 647.087 1452.82 648.957 1452.82 651.207C1452.82 653.398 1452.47 655.247 1451.76 656.756C1451.06 658.256 1450.11 659.393 1448.9 660.169C1447.69 660.936 1446.35 661.32 1444.86 661.32C1443.8 661.32 1442.9 661.145 1442.16 660.795C1441.43 660.446 1440.82 660.007 1440.36 659.479C1439.89 658.942 1439.53 658.401 1439.28 657.855H1439.04V661H1433.67ZM1439 651.182C1439 652.349 1439.16 653.368 1439.49 654.237C1439.81 655.107 1440.28 655.784 1440.89 656.27C1441.51 656.747 1442.25 656.986 1443.13 656.986C1444.02 656.986 1444.77 656.743 1445.38 656.257C1445.99 655.763 1446.46 655.081 1446.77 654.212C1447.1 653.334 1447.26 652.324 1447.26 651.182C1447.26 650.048 1447.1 649.051 1446.79 648.19C1446.47 647.33 1446.01 646.656 1445.39 646.17C1444.78 645.685 1444.02 645.442 1443.13 645.442C1442.24 645.442 1441.49 645.676 1440.88 646.145C1440.27 646.614 1439.81 647.278 1439.49 648.139C1439.16 649 1439 650.014 1439 651.182ZM1472.43 646.963L1467.45 647.27C1467.36 646.844 1467.18 646.46 1466.9 646.119C1466.62 645.77 1466.24 645.493 1465.78 645.288C1465.33 645.075 1464.79 644.969 1464.16 644.969C1463.32 644.969 1462.61 645.148 1462.03 645.506C1461.45 645.855 1461.16 646.324 1461.16 646.912C1461.16 647.381 1461.34 647.777 1461.72 648.101C1462.09 648.425 1462.74 648.685 1463.65 648.881L1467.2 649.597C1469.11 649.989 1470.54 650.619 1471.47 651.489C1472.41 652.358 1472.88 653.5 1472.88 654.915C1472.88 656.202 1472.5 657.331 1471.74 658.303C1470.99 659.274 1469.96 660.033 1468.65 660.578C1467.34 661.115 1465.84 661.384 1464.14 661.384C1461.54 661.384 1459.46 660.842 1457.92 659.76C1456.39 658.669 1455.49 657.186 1455.22 655.311L1460.58 655.03C1460.74 655.822 1461.14 656.428 1461.76 656.845C1462.38 657.254 1463.18 657.459 1464.15 657.459C1465.1 657.459 1465.87 657.276 1466.45 656.909C1467.04 656.534 1467.34 656.053 1467.34 655.464C1467.34 654.97 1467.13 654.565 1466.72 654.25C1466.31 653.926 1465.68 653.679 1464.83 653.509L1461.43 652.831C1459.51 652.447 1458.08 651.783 1457.14 650.837C1456.21 649.891 1455.75 648.685 1455.75 647.219C1455.75 645.957 1456.09 644.871 1456.77 643.959C1457.46 643.047 1458.43 642.344 1459.67 641.849C1460.93 641.355 1462.39 641.108 1464.07 641.108C1466.55 641.108 1468.5 641.632 1469.93 642.68C1471.36 643.729 1472.19 645.156 1472.43 646.963ZM1475.95 661V641.364H1481.39V661H1475.95ZM1478.68 638.832C1477.88 638.832 1477.18 638.564 1476.6 638.027C1476.03 637.482 1475.74 636.83 1475.74 636.071C1475.74 635.321 1476.03 634.678 1476.6 634.141C1477.18 633.595 1477.88 633.322 1478.68 633.322C1479.49 633.322 1480.18 633.595 1480.76 634.141C1481.34 634.678 1481.63 635.321 1481.63 636.071C1481.63 636.83 1481.34 637.482 1480.76 638.027C1480.18 638.564 1479.49 638.832 1478.68 638.832ZM1495.84 641.364V645.455H1484.02V641.364H1495.84ZM1486.7 636.659H1492.15V654.966C1492.15 655.469 1492.22 655.861 1492.38 656.142C1492.53 656.415 1492.74 656.607 1493.02 656.717C1493.3 656.828 1493.62 656.884 1493.99 656.884C1494.24 656.884 1494.5 656.862 1494.76 656.82C1495.01 656.768 1495.21 656.73 1495.34 656.705L1496.2 660.757C1495.93 660.842 1495.54 660.94 1495.05 661.051C1494.56 661.17 1493.95 661.243 1493.25 661.268C1491.93 661.32 1490.78 661.145 1489.8 660.744C1488.82 660.344 1488.05 659.722 1487.51 658.878C1486.96 658.034 1486.69 656.969 1486.7 655.682V636.659ZM1507.77 661.384C1505.75 661.384 1504.01 660.974 1502.55 660.156C1501.1 659.33 1499.99 658.162 1499.2 656.653C1498.42 655.136 1498.03 653.342 1498.03 651.271C1498.03 649.251 1498.42 647.479 1499.2 645.953C1499.99 644.428 1501.09 643.239 1502.51 642.386C1503.95 641.534 1505.62 641.108 1507.55 641.108C1508.85 641.108 1510.05 641.317 1511.17 641.734C1512.29 642.143 1513.27 642.761 1514.11 643.588C1514.95 644.415 1515.61 645.455 1516.08 646.707C1516.55 647.952 1516.78 649.409 1516.78 651.08V652.575H1500.2V649.2H1511.65C1511.65 648.416 1511.48 647.722 1511.14 647.116C1510.8 646.511 1510.33 646.038 1509.72 645.697C1509.13 645.348 1508.43 645.173 1507.64 645.173C1506.81 645.173 1506.08 645.365 1505.44 645.749C1504.81 646.124 1504.32 646.631 1503.96 647.27C1503.6 647.901 1503.42 648.604 1503.41 649.379V652.588C1503.41 653.56 1503.59 654.399 1503.95 655.107C1504.31 655.814 1504.83 656.359 1505.49 656.743C1506.16 657.126 1506.95 657.318 1507.86 657.318C1508.46 657.318 1509.02 657.233 1509.52 657.062C1510.02 656.892 1510.45 656.636 1510.81 656.295C1511.17 655.955 1511.44 655.537 1511.63 655.043L1516.67 655.375C1516.41 656.585 1515.89 657.642 1515.09 658.545C1514.31 659.44 1513.29 660.139 1512.05 660.642C1510.81 661.136 1509.39 661.384 1507.77 661.384ZM1536.31 646.963L1531.33 647.27C1531.24 646.844 1531.06 646.46 1530.78 646.119C1530.5 645.77 1530.12 645.493 1529.66 645.288C1529.21 645.075 1528.67 644.969 1528.04 644.969C1527.2 644.969 1526.49 645.148 1525.91 645.506C1525.33 645.855 1525.04 646.324 1525.04 646.912C1525.04 647.381 1525.22 647.777 1525.6 648.101C1525.97 648.425 1526.62 648.685 1527.53 648.881L1531.08 649.597C1532.99 649.989 1534.42 650.619 1535.35 651.489C1536.29 652.358 1536.76 653.5 1536.76 654.915C1536.76 656.202 1536.38 657.331 1535.62 658.303C1534.87 659.274 1533.84 660.033 1532.53 660.578C1531.22 661.115 1529.72 661.384 1528.02 661.384C1525.42 661.384 1523.35 660.842 1521.8 659.76C1520.27 658.669 1519.37 657.186 1519.11 655.311L1524.46 655.03C1524.62 655.822 1525.02 656.428 1525.64 656.845C1526.26 657.254 1527.06 657.459 1528.03 657.459C1528.98 657.459 1529.75 657.276 1530.33 656.909C1530.92 656.534 1531.22 656.053 1531.22 655.464C1531.22 654.97 1531.01 654.565 1530.6 654.25C1530.19 653.926 1529.56 653.679 1528.71 653.509L1525.31 652.831C1523.39 652.447 1521.96 651.783 1521.02 650.837C1520.09 649.891 1519.63 648.685 1519.63 647.219C1519.63 645.957 1519.97 644.871 1520.65 643.959C1521.34 643.047 1522.31 642.344 1523.55 641.849C1524.81 641.355 1526.27 641.108 1527.95 641.108C1530.43 641.108 1532.38 641.632 1533.81 642.68C1535.24 643.729 1536.07 645.156 1536.31 646.963ZM1555.83 661.384C1554.02 661.384 1552.46 661.06 1551.15 660.412C1549.84 659.764 1548.83 658.886 1548.12 657.778C1547.42 656.662 1547.07 655.418 1547.07 654.045C1547.07 653.023 1547.28 652.115 1547.69 651.322C1548.1 650.53 1548.67 649.801 1549.4 649.136C1550.13 648.463 1550.98 647.794 1551.96 647.129L1557.03 643.793C1557.69 643.375 1558.17 642.936 1558.48 642.476C1558.78 642.007 1558.94 641.5 1558.94 640.955C1558.94 640.435 1558.73 639.953 1558.31 639.51C1557.89 639.067 1557.3 638.849 1556.53 638.858C1556.02 638.858 1555.58 638.973 1555.2 639.203C1554.83 639.425 1554.53 639.719 1554.32 640.085C1554.12 640.443 1554.01 640.844 1554.01 641.287C1554.01 641.832 1554.17 642.386 1554.47 642.949C1554.78 643.511 1555.19 644.108 1555.7 644.739C1556.21 645.361 1556.77 646.034 1557.38 646.759L1569.79 661H1564.11L1553.76 649.469C1553.08 648.693 1552.4 647.884 1551.71 647.04C1551.04 646.187 1550.48 645.284 1550.03 644.33C1549.57 643.366 1549.35 642.322 1549.35 641.197C1549.35 639.928 1549.64 638.786 1550.23 637.771C1550.83 636.757 1551.66 635.956 1552.74 635.368C1553.81 634.771 1555.06 634.473 1556.49 634.473C1557.89 634.473 1559.1 634.759 1560.11 635.33C1561.14 635.892 1561.92 636.642 1562.46 637.58C1563.02 638.509 1563.3 639.531 1563.3 640.648C1563.3 641.884 1562.99 643.004 1562.38 644.01C1561.77 645.007 1560.92 645.902 1559.82 646.695L1554.47 650.543C1553.75 651.071 1553.21 651.612 1552.86 652.166C1552.52 652.712 1552.35 653.236 1552.35 653.739C1552.35 654.361 1552.51 654.919 1552.81 655.413C1553.12 655.908 1553.55 656.3 1554.12 656.589C1554.68 656.871 1555.34 657.011 1556.1 657.011C1557.02 657.011 1557.93 656.803 1558.82 656.385C1559.72 655.959 1560.54 655.358 1561.28 654.582C1562.02 653.798 1562.61 652.869 1563.05 651.795C1563.5 650.722 1563.72 649.533 1563.72 648.229H1568.23C1568.23 649.831 1568.06 651.276 1567.71 652.562C1567.36 653.841 1566.87 654.957 1566.25 655.912C1565.63 656.858 1564.91 657.634 1564.11 658.239C1563.86 658.401 1563.61 658.554 1563.37 658.699C1563.13 658.844 1562.89 658.997 1562.63 659.159C1561.66 659.943 1560.57 660.51 1559.37 660.859C1558.18 661.209 1557 661.384 1555.83 661.384ZM1591.91 648.088V652.409H1579.97V648.088H1591.91ZM1601.79 661.371C1600.53 661.371 1599.42 661.153 1598.44 660.719C1597.46 660.276 1596.68 659.624 1596.11 658.763C1595.55 657.893 1595.27 656.811 1595.27 655.516C1595.27 654.425 1595.47 653.509 1595.87 652.767C1596.27 652.026 1596.81 651.429 1597.5 650.977C1598.19 650.526 1598.98 650.185 1599.86 649.955C1600.74 649.724 1601.67 649.562 1602.64 649.469C1603.78 649.349 1604.7 649.239 1605.4 649.136C1606.1 649.026 1606.61 648.864 1606.92 648.651C1607.24 648.437 1607.4 648.122 1607.4 647.705V647.628C1607.4 646.818 1607.14 646.192 1606.63 645.749C1606.13 645.305 1605.41 645.084 1604.48 645.084C1603.5 645.084 1602.72 645.301 1602.14 645.736C1601.56 646.162 1601.18 646.699 1600.99 647.347L1595.96 646.938C1596.21 645.744 1596.71 644.713 1597.46 643.844C1598.21 642.966 1599.18 642.293 1600.37 641.824C1601.56 641.347 1602.94 641.108 1604.51 641.108C1605.6 641.108 1606.64 641.236 1607.64 641.491C1608.65 641.747 1609.54 642.143 1610.31 642.68C1611.1 643.217 1611.71 643.908 1612.17 644.751C1612.62 645.587 1612.84 646.588 1612.84 647.756V661H1607.68V658.277H1607.53C1607.21 658.891 1606.79 659.432 1606.26 659.901C1605.73 660.361 1605.1 660.723 1604.36 660.987C1603.61 661.243 1602.76 661.371 1601.79 661.371ZM1603.35 657.612C1604.15 657.612 1604.85 657.455 1605.47 657.139C1606.08 656.815 1606.56 656.381 1606.91 655.835C1607.26 655.29 1607.44 654.672 1607.44 653.982V651.898C1607.27 652.009 1607.03 652.111 1606.73 652.205C1606.44 652.29 1606.12 652.371 1605.75 652.447C1605.38 652.516 1605.02 652.58 1604.65 652.639C1604.28 652.69 1603.95 652.737 1603.65 652.78C1603.01 652.874 1602.45 653.023 1601.98 653.227C1601.5 653.432 1601.13 653.709 1600.87 654.058C1600.6 654.399 1600.47 654.825 1600.47 655.337C1600.47 656.078 1600.74 656.645 1601.27 657.037C1601.82 657.42 1602.51 657.612 1603.35 657.612ZM1616.71 668.364V641.364H1622.08V644.662H1622.32C1622.56 644.134 1622.9 643.597 1623.36 643.051C1623.82 642.497 1624.41 642.037 1625.15 641.67C1625.89 641.295 1626.81 641.108 1627.91 641.108C1629.34 641.108 1630.66 641.483 1631.87 642.233C1633.08 642.974 1634.05 644.095 1634.77 645.595C1635.5 647.087 1635.86 648.957 1635.86 651.207C1635.86 653.398 1635.51 655.247 1634.8 656.756C1634.1 658.256 1633.15 659.393 1631.93 660.169C1630.73 660.936 1629.39 661.32 1627.9 661.32C1626.84 661.32 1625.94 661.145 1625.2 660.795C1624.46 660.446 1623.86 660.007 1623.4 659.479C1622.93 658.942 1622.57 658.401 1622.32 657.855H1622.15V668.364H1616.71ZM1622.04 651.182C1622.04 652.349 1622.2 653.368 1622.53 654.237C1622.85 655.107 1623.32 655.784 1623.93 656.27C1624.55 656.747 1625.29 656.986 1626.17 656.986C1627.06 656.986 1627.81 656.743 1628.42 656.257C1629.03 655.763 1629.5 655.081 1629.81 654.212C1630.14 653.334 1630.3 652.324 1630.3 651.182C1630.3 650.048 1630.14 649.051 1629.83 648.19C1629.51 647.33 1629.05 646.656 1628.43 646.17C1627.82 645.685 1627.06 645.442 1626.17 645.442C1625.28 645.442 1624.53 645.676 1623.92 646.145C1623.31 646.614 1622.85 647.278 1622.53 648.139C1622.2 649 1622.04 650.014 1622.04 651.182ZM1639.13 668.364V641.364H1644.5V644.662H1644.74C1644.98 644.134 1645.33 643.597 1645.78 643.051C1646.24 642.497 1646.83 642.037 1647.57 641.67C1648.31 641.295 1649.23 641.108 1650.33 641.108C1651.76 641.108 1653.08 641.483 1654.29 642.233C1655.5 642.974 1656.47 644.095 1657.19 645.595C1657.92 647.087 1658.28 648.957 1658.28 651.207C1658.28 653.398 1657.93 655.247 1657.22 656.756C1656.52 658.256 1655.57 659.393 1654.36 660.169C1653.15 660.936 1651.81 661.32 1650.32 661.32C1649.26 661.32 1648.36 661.145 1647.62 660.795C1646.89 660.446 1646.28 660.007 1645.82 659.479C1645.35 658.942 1644.99 658.401 1644.74 657.855H1644.58V668.364H1639.13ZM1644.46 651.182C1644.46 652.349 1644.62 653.368 1644.95 654.237C1645.27 655.107 1645.74 655.784 1646.35 656.27C1646.97 656.747 1647.71 656.986 1648.59 656.986C1649.48 656.986 1650.23 656.743 1650.84 656.257C1651.45 655.763 1651.92 655.081 1652.23 654.212C1652.56 653.334 1652.72 652.324 1652.72 651.182C1652.72 650.048 1652.56 649.051 1652.25 648.19C1651.93 647.33 1651.47 646.656 1650.85 646.17C1650.24 645.685 1649.49 645.442 1648.59 645.442C1647.7 645.442 1646.95 645.676 1646.34 646.145C1645.74 646.614 1645.27 647.278 1644.95 648.139C1644.62 649 1644.46 650.014 1644.46 651.182ZM1677.89 646.963L1672.9 647.27C1672.82 646.844 1672.64 646.46 1672.35 646.119C1672.07 645.77 1671.7 645.493 1671.24 645.288C1670.79 645.075 1670.25 644.969 1669.62 644.969C1668.77 644.969 1668.06 645.148 1667.48 645.506C1666.9 645.855 1666.61 646.324 1666.61 646.912C1666.61 647.381 1666.8 647.777 1667.18 648.101C1667.55 648.425 1668.19 648.685 1669.11 648.881L1672.66 649.597C1674.57 649.989 1675.99 650.619 1676.93 651.489C1677.87 652.358 1678.34 653.5 1678.34 654.915C1678.34 656.202 1677.96 657.331 1677.2 658.303C1676.45 659.274 1675.42 660.033 1674.11 660.578C1672.8 661.115 1671.3 661.384 1669.59 661.384C1666.99 661.384 1664.92 660.842 1663.38 659.76C1661.85 658.669 1660.95 657.186 1660.68 655.311L1666.04 655.03C1666.2 655.822 1666.59 656.428 1667.21 656.845C1667.84 657.254 1668.63 657.459 1669.61 657.459C1670.56 657.459 1671.33 657.276 1671.91 656.909C1672.49 656.534 1672.79 656.053 1672.8 655.464C1672.79 654.97 1672.58 654.565 1672.17 654.25C1671.77 653.926 1671.14 653.679 1670.28 653.509L1666.88 652.831C1664.96 652.447 1663.54 651.783 1662.6 650.837C1661.67 649.891 1661.21 648.685 1661.21 647.219C1661.21 645.957 1661.55 644.871 1662.23 643.959C1662.92 643.047 1663.89 642.344 1665.13 641.849C1666.38 641.355 1667.85 641.108 1669.53 641.108C1672.01 641.108 1673.96 641.632 1675.38 642.68C1676.82 643.729 1677.65 645.156 1677.89 646.963Z" fill="#743E29"/>
<path d="M1433.45 960.984H1427.85C1427.75 960.26 1427.54 959.616 1427.22 959.054C1426.91 958.483 1426.5 957.997 1426.01 957.597C1425.51 957.196 1424.94 956.889 1424.3 956.676C1423.66 956.463 1422.96 956.357 1422.21 956.357C1420.86 956.357 1419.68 956.693 1418.67 957.366C1417.66 958.031 1416.88 959.003 1416.33 960.281C1415.78 961.551 1415.5 963.094 1415.5 964.909C1415.5 966.776 1415.78 968.344 1416.33 969.614C1416.89 970.884 1417.68 971.842 1418.68 972.49C1419.69 973.138 1420.85 973.462 1422.17 973.462C1422.91 973.462 1423.6 973.364 1424.23 973.168C1424.87 972.972 1425.44 972.686 1425.93 972.311C1426.43 971.928 1426.83 971.463 1427.16 970.918C1427.49 970.372 1427.72 969.75 1427.85 969.051L1433.45 969.077C1433.3 970.278 1432.94 971.438 1432.36 972.554C1431.79 973.662 1431.02 974.655 1430.05 975.533C1429.08 976.402 1427.93 977.092 1426.6 977.604C1425.27 978.107 1423.76 978.358 1422.08 978.358C1419.75 978.358 1417.66 977.83 1415.82 976.773C1413.99 975.716 1412.54 974.186 1411.47 972.183C1410.42 970.18 1409.89 967.756 1409.89 964.909C1409.89 962.054 1410.42 959.625 1411.5 957.622C1412.57 955.619 1414.03 954.094 1415.87 953.045C1417.71 951.989 1419.78 951.46 1422.08 951.46C1423.6 951.46 1425.01 951.673 1426.3 952.099C1427.61 952.526 1428.76 953.148 1429.77 953.966C1430.77 954.776 1431.59 955.768 1432.22 956.945C1432.86 958.121 1433.27 959.467 1433.45 960.984ZM1442.4 951.818V978H1436.96V951.818H1442.4ZM1455.28 978.384C1453.29 978.384 1451.57 977.962 1450.12 977.118C1448.68 976.266 1447.57 975.081 1446.79 973.564C1446 972.038 1445.61 970.27 1445.61 968.259C1445.61 966.23 1446 964.457 1446.79 962.94C1447.57 961.415 1448.68 960.23 1450.12 959.386C1451.57 958.534 1453.29 958.108 1455.28 958.108C1457.26 958.108 1458.98 958.534 1460.42 959.386C1461.86 960.23 1462.98 961.415 1463.77 962.94C1464.55 964.457 1464.94 966.23 1464.94 968.259C1464.94 970.27 1464.55 972.038 1463.77 973.564C1462.98 975.081 1461.86 976.266 1460.42 977.118C1458.98 977.962 1457.26 978.384 1455.28 978.384ZM1455.3 974.165C1456.21 974.165 1456.96 973.909 1457.56 973.398C1458.17 972.878 1458.63 972.17 1458.93 971.276C1459.25 970.381 1459.41 969.362 1459.41 968.22C1459.41 967.078 1459.25 966.06 1458.93 965.165C1458.63 964.27 1458.17 963.562 1457.56 963.043C1456.96 962.523 1456.21 962.263 1455.3 962.263C1454.39 962.263 1453.62 962.523 1453 963.043C1452.39 963.562 1451.92 964.27 1451.61 965.165C1451.3 966.06 1451.15 967.078 1451.15 968.22C1451.15 969.362 1451.3 970.381 1451.61 971.276C1451.92 972.17 1452.39 972.878 1453 973.398C1453.62 973.909 1454.39 974.165 1455.3 974.165ZM1480.71 969.639V958.364H1486.16V978H1480.93V974.433H1480.73C1480.28 975.584 1479.55 976.509 1478.52 977.207C1477.49 977.906 1476.24 978.256 1474.77 978.256C1473.46 978.256 1472.3 977.957 1471.31 977.361C1470.31 976.764 1469.53 975.916 1468.97 974.817C1468.41 973.717 1468.13 972.401 1468.12 970.866V958.364H1473.57V969.895C1473.58 971.054 1473.89 971.97 1474.5 972.643C1475.12 973.317 1475.94 973.653 1476.97 973.653C1477.63 973.653 1478.24 973.504 1478.81 973.206C1479.38 972.899 1479.84 972.447 1480.19 971.851C1480.55 971.254 1480.72 970.517 1480.71 969.639ZM1497.39 978.32C1495.9 978.32 1494.55 977.936 1493.34 977.169C1492.14 976.393 1491.18 975.256 1490.48 973.756C1489.78 972.247 1489.43 970.398 1489.43 968.207C1489.43 965.957 1489.79 964.087 1490.51 962.595C1491.24 961.095 1492.2 959.974 1493.4 959.233C1494.61 958.483 1495.94 958.108 1497.38 958.108C1498.48 958.108 1499.4 958.295 1500.13 958.67C1500.87 959.037 1501.47 959.497 1501.92 960.051C1502.38 960.597 1502.73 961.134 1502.97 961.662H1503.13V951.818H1508.57V978H1503.2V974.855H1502.97C1502.71 975.401 1502.35 975.942 1501.88 976.479C1501.42 977.007 1500.82 977.446 1500.08 977.795C1499.34 978.145 1498.45 978.32 1497.39 978.32ZM1499.12 973.986C1500 973.986 1500.74 973.747 1501.34 973.27C1501.96 972.784 1502.43 972.107 1502.75 971.237C1503.08 970.368 1503.25 969.349 1503.25 968.182C1503.25 967.014 1503.09 966 1502.76 965.139C1502.44 964.278 1501.97 963.614 1501.36 963.145C1500.74 962.676 1500 962.442 1499.12 962.442C1498.22 962.442 1497.47 962.685 1496.86 963.17C1496.24 963.656 1495.78 964.33 1495.46 965.19C1495.15 966.051 1494.99 967.048 1494.99 968.182C1494.99 969.324 1495.15 970.334 1495.46 971.212C1495.79 972.081 1496.25 972.763 1496.86 973.257C1497.47 973.743 1498.22 973.986 1499.12 973.986ZM1536.99 963.963L1532.01 964.27C1531.92 963.844 1531.74 963.46 1531.46 963.119C1531.18 962.77 1530.81 962.493 1530.35 962.288C1529.89 962.075 1529.35 961.969 1528.72 961.969C1527.88 961.969 1527.17 962.148 1526.59 962.506C1526.01 962.855 1525.72 963.324 1525.72 963.912C1525.72 964.381 1525.91 964.777 1526.28 965.101C1526.66 965.425 1527.3 965.685 1528.21 965.881L1531.77 966.597C1533.67 966.989 1535.1 967.619 1536.03 968.489C1536.97 969.358 1537.44 970.5 1537.44 971.915C1537.44 973.202 1537.06 974.331 1536.3 975.303C1535.55 976.274 1534.52 977.033 1533.21 977.578C1531.91 978.115 1530.4 978.384 1528.7 978.384C1526.1 978.384 1524.03 977.842 1522.48 976.76C1520.95 975.669 1520.05 974.186 1519.79 972.311L1525.14 972.03C1525.3 972.822 1525.7 973.428 1526.32 973.845C1526.94 974.254 1527.74 974.459 1528.71 974.459C1529.66 974.459 1530.43 974.276 1531.01 973.909C1531.6 973.534 1531.9 973.053 1531.91 972.464C1531.9 971.97 1531.69 971.565 1531.28 971.25C1530.87 970.926 1530.24 970.679 1529.39 970.509L1525.99 969.831C1524.07 969.447 1522.64 968.783 1521.7 967.837C1520.78 966.891 1520.31 965.685 1520.31 964.219C1520.31 962.957 1520.65 961.871 1521.33 960.959C1522.02 960.047 1522.99 959.344 1524.24 958.849C1525.49 958.355 1526.95 958.108 1528.63 958.108C1531.11 958.108 1533.06 958.632 1534.49 959.68C1535.92 960.729 1536.76 962.156 1536.99 963.963ZM1549.46 978.384C1547.44 978.384 1545.7 977.974 1544.24 977.156C1542.79 976.33 1541.68 975.162 1540.89 973.653C1540.11 972.136 1539.72 970.342 1539.72 968.271C1539.72 966.251 1540.11 964.479 1540.89 962.953C1541.68 961.428 1542.78 960.239 1544.21 959.386C1545.64 958.534 1547.32 958.108 1549.24 958.108C1550.54 958.108 1551.74 958.317 1552.86 958.734C1553.98 959.143 1554.97 959.761 1555.8 960.588C1556.64 961.415 1557.3 962.455 1557.77 963.707C1558.24 964.952 1558.47 966.409 1558.47 968.08V969.575H1541.89V966.2H1553.35C1553.35 965.416 1553.18 964.722 1552.83 964.116C1552.49 963.511 1552.02 963.038 1551.42 962.697C1550.82 962.348 1550.12 962.173 1549.33 962.173C1548.5 962.173 1547.77 962.365 1547.13 962.749C1546.5 963.124 1546.01 963.631 1545.65 964.27C1545.29 964.901 1545.11 965.604 1545.1 966.379V969.588C1545.1 970.56 1545.28 971.399 1545.64 972.107C1546 972.814 1546.52 973.359 1547.18 973.743C1547.85 974.126 1548.64 974.318 1549.55 974.318C1550.15 974.318 1550.71 974.233 1551.21 974.062C1551.71 973.892 1552.14 973.636 1552.5 973.295C1552.86 972.955 1553.13 972.537 1553.32 972.043L1558.36 972.375C1558.1 973.585 1557.58 974.642 1556.78 975.545C1556 976.44 1554.99 977.139 1553.74 977.642C1552.51 978.136 1551.08 978.384 1549.46 978.384ZM1561.67 978V958.364H1566.95V961.79H1567.15C1567.51 960.571 1568.11 959.651 1568.95 959.028C1569.8 958.398 1570.77 958.082 1571.87 958.082C1572.14 958.082 1572.43 958.099 1572.75 958.134C1573.07 958.168 1573.34 958.214 1573.58 958.274V963.107C1573.33 963.03 1572.97 962.962 1572.52 962.902C1572.07 962.842 1571.65 962.812 1571.28 962.812C1570.48 962.812 1569.76 962.987 1569.13 963.337C1568.51 963.678 1568.02 964.155 1567.65 964.768C1567.29 965.382 1567.11 966.089 1567.11 966.891V978H1561.67ZM1594.94 958.364L1588.08 978H1581.94L1575.07 958.364H1580.83L1584.91 972.413H1585.11L1589.18 958.364H1594.94ZM1597.37 978V958.364H1602.81V978H1597.37ZM1600.1 955.832C1599.29 955.832 1598.6 955.564 1598.02 955.027C1597.45 954.482 1597.16 953.83 1597.16 953.071C1597.16 952.321 1597.45 951.678 1598.02 951.141C1598.6 950.595 1599.29 950.322 1600.1 950.322C1600.91 950.322 1601.6 950.595 1602.17 951.141C1602.75 951.678 1603.04 952.321 1603.04 953.071C1603.04 953.83 1602.75 954.482 1602.17 955.027C1601.6 955.564 1600.91 955.832 1600.1 955.832ZM1615.69 978.384C1613.68 978.384 1611.95 977.957 1610.5 977.105C1609.06 976.244 1607.95 975.051 1607.17 973.526C1606.41 972 1606.02 970.244 1606.02 968.259C1606.02 966.247 1606.41 964.483 1607.19 962.966C1607.97 961.44 1609.08 960.251 1610.52 959.399C1611.96 958.538 1613.68 958.108 1615.66 958.108C1617.38 958.108 1618.88 958.419 1620.16 959.041C1621.45 959.663 1622.47 960.537 1623.22 961.662C1623.97 962.787 1624.38 964.108 1624.46 965.625H1619.32C1619.17 964.645 1618.79 963.857 1618.17 963.26C1617.56 962.655 1616.75 962.352 1615.75 962.352C1614.91 962.352 1614.17 962.582 1613.54 963.043C1612.92 963.494 1612.43 964.155 1612.08 965.024C1611.73 965.893 1611.56 966.946 1611.56 968.182C1611.56 969.435 1611.73 970.5 1612.07 971.378C1612.42 972.256 1612.91 972.925 1613.54 973.385C1614.17 973.845 1614.91 974.075 1615.75 974.075C1616.37 974.075 1616.93 973.947 1617.43 973.692C1617.93 973.436 1618.34 973.065 1618.67 972.58C1619 972.085 1619.22 971.493 1619.32 970.803H1624.46C1624.37 972.303 1623.96 973.624 1623.23 974.766C1622.51 975.899 1621.51 976.786 1620.23 977.425C1618.95 978.064 1617.44 978.384 1615.69 978.384ZM1636.53 978.384C1634.51 978.384 1632.78 977.974 1631.32 977.156C1629.87 976.33 1628.75 975.162 1627.97 973.653C1627.18 972.136 1626.79 970.342 1626.79 968.271C1626.79 966.251 1627.18 964.479 1627.97 962.953C1628.75 961.428 1629.86 960.239 1631.28 959.386C1632.71 958.534 1634.39 958.108 1636.32 958.108C1637.61 958.108 1638.82 958.317 1639.93 958.734C1641.06 959.143 1642.04 959.761 1642.88 960.588C1643.72 961.415 1644.38 962.455 1644.84 963.707C1645.31 964.952 1645.55 966.409 1645.55 968.08V969.575H1628.97V966.2H1640.42C1640.42 965.416 1640.25 964.722 1639.91 964.116C1639.57 963.511 1639.1 963.038 1638.49 962.697C1637.89 962.348 1637.2 962.173 1636.41 962.173C1635.58 962.173 1634.85 962.365 1634.21 962.749C1633.58 963.124 1633.08 963.631 1632.72 964.27C1632.37 964.901 1632.18 965.604 1632.18 966.379V969.588C1632.18 970.56 1632.35 971.399 1632.71 972.107C1633.08 972.814 1633.59 973.359 1634.26 973.743C1634.92 974.126 1635.71 974.318 1636.62 974.318C1637.23 974.318 1637.78 974.233 1638.29 974.062C1638.79 973.892 1639.22 973.636 1639.58 973.295C1639.93 972.955 1640.21 972.537 1640.4 972.043L1645.43 972.375C1645.18 973.585 1644.65 974.642 1643.86 975.545C1643.08 976.44 1642.06 977.139 1640.82 977.642C1639.58 978.136 1638.15 978.384 1636.53 978.384ZM1441.23 1014.38C1439.22 1014.38 1437.49 1013.96 1436.04 1013.11C1434.6 1012.24 1433.49 1011.05 1432.72 1009.53C1431.95 1008 1431.57 1006.24 1431.57 1004.26C1431.57 1002.25 1431.95 1000.48 1432.73 998.966C1433.51 997.44 1434.63 996.251 1436.07 995.399C1437.51 994.538 1439.22 994.108 1441.21 994.108C1442.92 994.108 1444.42 994.419 1445.71 995.041C1446.99 995.663 1448.01 996.537 1448.76 997.662C1449.51 998.787 1449.92 1000.11 1450 1001.62H1444.86C1444.72 1000.64 1444.33 999.857 1443.71 999.26C1443.1 998.655 1442.29 998.352 1441.3 998.352C1440.45 998.352 1439.71 998.582 1439.08 999.043C1438.46 999.494 1437.98 1000.15 1437.63 1001.02C1437.28 1001.89 1437.1 1002.95 1437.1 1004.18C1437.1 1005.43 1437.27 1006.5 1437.61 1007.38C1437.96 1008.26 1438.45 1008.92 1439.08 1009.38C1439.71 1009.85 1440.45 1010.08 1441.3 1010.08C1441.92 1010.08 1442.48 1009.95 1442.97 1009.69C1443.47 1009.44 1443.89 1009.07 1444.21 1008.58C1444.54 1008.09 1444.76 1007.49 1444.86 1006.8H1450C1449.92 1008.3 1449.51 1009.62 1448.77 1010.77C1448.05 1011.9 1447.05 1012.79 1445.77 1013.42C1444.49 1014.06 1442.98 1014.38 1441.23 1014.38ZM1462 1014.38C1460.01 1014.38 1458.3 1013.96 1456.85 1013.12C1455.41 1012.27 1454.3 1011.08 1453.51 1009.56C1452.73 1008.04 1452.34 1006.27 1452.34 1004.26C1452.34 1002.23 1452.73 1000.46 1453.51 998.94C1454.3 997.415 1455.41 996.23 1456.85 995.386C1458.3 994.534 1460.01 994.108 1462 994.108C1463.99 994.108 1465.7 994.534 1467.14 995.386C1468.59 996.23 1469.71 997.415 1470.49 998.94C1471.27 1000.46 1471.67 1002.23 1471.67 1004.26C1471.67 1006.27 1471.27 1008.04 1470.49 1009.56C1469.71 1011.08 1468.59 1012.27 1467.14 1013.12C1465.7 1013.96 1463.99 1014.38 1462 1014.38ZM1462.03 1010.16C1462.93 1010.16 1463.68 1009.91 1464.29 1009.4C1464.89 1008.88 1465.35 1008.17 1465.66 1007.28C1465.97 1006.38 1466.13 1005.36 1466.13 1004.22C1466.13 1003.08 1465.97 1002.06 1465.66 1001.16C1465.35 1000.27 1464.89 999.562 1464.29 999.043C1463.68 998.523 1462.93 998.263 1462.03 998.263C1461.11 998.263 1460.35 998.523 1459.72 999.043C1459.11 999.562 1458.65 1000.27 1458.33 1001.16C1458.02 1002.06 1457.87 1003.08 1457.87 1004.22C1457.87 1005.36 1458.02 1006.38 1458.33 1007.28C1458.65 1008.17 1459.11 1008.88 1459.72 1009.4C1460.35 1009.91 1461.11 1010.16 1462.03 1010.16ZM1480.29 1002.65V1014H1474.85V994.364H1480.04V997.828H1480.27C1480.7 996.686 1481.43 995.783 1482.45 995.118C1483.48 994.445 1484.72 994.108 1486.17 994.108C1487.54 994.108 1488.73 994.406 1489.74 995.003C1490.75 995.599 1491.54 996.452 1492.1 997.56C1492.67 998.659 1492.95 999.972 1492.95 1001.5V1014H1487.5V1002.47C1487.51 1001.27 1487.2 1000.33 1486.58 999.656C1485.96 998.974 1485.1 998.634 1484.01 998.634C1483.28 998.634 1482.63 998.791 1482.07 999.107C1481.52 999.422 1481.08 999.882 1480.77 1000.49C1480.46 1001.08 1480.3 1001.8 1480.29 1002.65ZM1513.22 999.963L1508.23 1000.27C1508.15 999.844 1507.96 999.46 1507.68 999.119C1507.4 998.77 1507.03 998.493 1506.57 998.288C1506.12 998.075 1505.58 997.969 1504.95 997.969C1504.1 997.969 1503.39 998.148 1502.81 998.506C1502.23 998.855 1501.94 999.324 1501.94 999.912C1501.94 1000.38 1502.13 1000.78 1502.51 1001.1C1502.88 1001.42 1503.52 1001.68 1504.44 1001.88L1507.99 1002.6C1509.9 1002.99 1511.32 1003.62 1512.26 1004.49C1513.2 1005.36 1513.67 1006.5 1513.67 1007.91C1513.67 1009.2 1513.29 1010.33 1512.53 1011.3C1511.78 1012.27 1510.75 1013.03 1509.43 1013.58C1508.13 1014.12 1506.63 1014.38 1504.92 1014.38C1502.32 1014.38 1500.25 1013.84 1498.71 1012.76C1497.17 1011.67 1496.28 1010.19 1496.01 1008.31L1501.37 1008.03C1501.53 1008.82 1501.92 1009.43 1502.54 1009.85C1503.17 1010.25 1503.96 1010.46 1504.93 1010.46C1505.89 1010.46 1506.66 1010.28 1507.24 1009.91C1507.82 1009.53 1508.12 1009.05 1508.13 1008.46C1508.12 1007.97 1507.91 1007.57 1507.5 1007.25C1507.1 1006.93 1506.46 1006.68 1505.61 1006.51L1502.21 1005.83C1500.29 1005.45 1498.87 1004.78 1497.93 1003.84C1497 1002.89 1496.54 1001.68 1496.54 1000.22C1496.54 998.957 1496.88 997.871 1497.56 996.959C1498.25 996.047 1499.22 995.344 1500.46 994.849C1501.71 994.355 1503.18 994.108 1504.86 994.108C1507.34 994.108 1509.29 994.632 1510.71 995.68C1512.15 996.729 1512.98 998.156 1513.22 999.963ZM1529.33 1005.64V994.364H1534.77V1014H1529.55V1010.43H1529.34C1528.9 1011.58 1528.16 1012.51 1527.13 1013.21C1526.11 1013.91 1524.86 1014.26 1523.38 1014.26C1522.07 1014.26 1520.92 1013.96 1519.92 1013.36C1518.92 1012.76 1518.14 1011.92 1517.58 1010.82C1517.03 1009.72 1516.74 1008.4 1516.74 1006.87V994.364H1522.18V1005.89C1522.19 1007.05 1522.5 1007.97 1523.12 1008.64C1523.73 1009.32 1524.55 1009.65 1525.58 1009.65C1526.24 1009.65 1526.85 1009.5 1527.42 1009.21C1527.99 1008.9 1528.45 1008.45 1528.8 1007.85C1529.16 1007.25 1529.34 1006.52 1529.33 1005.64ZM1538.77 1014V994.364H1543.96V997.828H1544.19C1544.6 996.678 1545.28 995.77 1546.24 995.105C1547.19 994.44 1548.33 994.108 1549.66 994.108C1551.01 994.108 1552.16 994.445 1553.1 995.118C1554.05 995.783 1554.68 996.686 1554.99 997.828H1555.2C1555.6 996.703 1556.32 995.804 1557.37 995.131C1558.43 994.449 1559.68 994.108 1561.12 994.108C1562.95 994.108 1564.44 994.692 1565.58 995.859C1566.73 997.018 1567.3 998.663 1567.3 1000.79V1014H1561.87V1001.87C1561.87 1000.78 1561.58 999.959 1561 999.413C1560.42 998.868 1559.7 998.595 1558.83 998.595C1557.84 998.595 1557.07 998.911 1556.51 999.541C1555.96 1000.16 1555.68 1000.99 1555.68 1002.01V1014H1550.4V1001.75C1550.4 1000.79 1550.13 1000.02 1549.57 999.452C1549.03 998.881 1548.31 998.595 1547.41 998.595C1546.81 998.595 1546.26 998.749 1545.78 999.055C1545.3 999.354 1544.92 999.776 1544.64 1000.32C1544.36 1000.86 1544.22 1001.49 1544.22 1002.21V1014H1538.77ZM1580.2 1014.38C1578.18 1014.38 1576.44 1013.97 1574.98 1013.16C1573.53 1012.33 1572.41 1011.16 1571.63 1009.65C1570.85 1008.14 1570.45 1006.34 1570.45 1004.27C1570.45 1002.25 1570.85 1000.48 1571.63 998.953C1572.41 997.428 1573.52 996.239 1574.94 995.386C1576.37 994.534 1578.05 994.108 1579.98 994.108C1581.27 994.108 1582.48 994.317 1583.6 994.734C1584.72 995.143 1585.7 995.761 1586.54 996.588C1587.38 997.415 1588.04 998.455 1588.5 999.707C1588.97 1000.95 1589.21 1002.41 1589.21 1004.08V1005.58H1572.63V1002.2H1584.08C1584.08 1001.42 1583.91 1000.72 1583.57 1000.12C1583.23 999.511 1582.76 999.038 1582.15 998.697C1581.55 998.348 1580.86 998.173 1580.07 998.173C1579.24 998.173 1578.51 998.365 1577.87 998.749C1577.24 999.124 1576.74 999.631 1576.39 1000.27C1576.03 1000.9 1575.84 1001.6 1575.84 1002.38V1005.59C1575.84 1006.56 1576.01 1007.4 1576.37 1008.11C1576.74 1008.81 1577.25 1009.36 1577.92 1009.74C1578.58 1010.13 1579.37 1010.32 1580.28 1010.32C1580.89 1010.32 1581.44 1010.23 1581.95 1010.06C1582.45 1009.89 1582.88 1009.64 1583.24 1009.3C1583.6 1008.95 1583.87 1008.54 1584.06 1008.04L1589.09 1008.38C1588.84 1009.59 1588.31 1010.64 1587.52 1011.55C1586.74 1012.44 1585.72 1013.14 1584.48 1013.64C1583.24 1014.14 1581.81 1014.38 1580.2 1014.38ZM1592.4 1014V994.364H1597.68V997.79H1597.89C1598.24 996.571 1598.85 995.651 1599.69 995.028C1600.53 994.398 1601.5 994.082 1602.6 994.082C1602.88 994.082 1603.17 994.099 1603.49 994.134C1603.8 994.168 1604.08 994.214 1604.32 994.274V999.107C1604.06 999.03 1603.71 998.962 1603.26 998.902C1602.8 998.842 1602.39 998.812 1602.02 998.812C1601.21 998.812 1600.5 998.987 1599.87 999.337C1599.25 999.678 1598.75 1000.15 1598.38 1000.77C1598.03 1001.38 1597.85 1002.09 1597.85 1002.89V1014H1592.4ZM1623.11 999.963L1618.12 1000.27C1618.04 999.844 1617.86 999.46 1617.57 999.119C1617.29 998.77 1616.92 998.493 1616.46 998.288C1616.01 998.075 1615.47 997.969 1614.84 997.969C1614 997.969 1613.28 998.148 1612.7 998.506C1612.12 998.855 1611.83 999.324 1611.83 999.912C1611.83 1000.38 1612.02 1000.78 1612.4 1001.1C1612.77 1001.42 1613.42 1001.68 1614.33 1001.88L1617.88 1002.6C1619.79 1002.99 1621.21 1003.62 1622.15 1004.49C1623.09 1005.36 1623.56 1006.5 1623.56 1007.91C1623.56 1009.2 1623.18 1010.33 1622.42 1011.3C1621.67 1012.27 1620.64 1013.03 1619.33 1013.58C1618.02 1014.12 1616.52 1014.38 1614.81 1014.38C1612.21 1014.38 1610.14 1013.84 1608.6 1012.76C1607.07 1011.67 1606.17 1010.19 1605.9 1008.31L1611.26 1008.03C1611.42 1008.82 1611.81 1009.43 1612.44 1009.85C1613.06 1010.25 1613.85 1010.46 1614.83 1010.46C1615.78 1010.46 1616.55 1010.28 1617.13 1009.91C1617.72 1009.53 1618.01 1009.05 1618.02 1008.46C1618.01 1007.97 1617.81 1007.57 1617.4 1007.25C1616.99 1006.93 1616.36 1006.68 1615.5 1006.51L1612.1 1005.83C1610.19 1005.45 1608.76 1004.78 1607.82 1003.84C1606.89 1002.89 1606.43 1001.68 1606.43 1000.22C1606.43 998.957 1606.77 997.871 1607.45 996.959C1608.14 996.047 1609.11 995.344 1610.35 994.849C1611.6 994.355 1613.07 994.108 1614.75 994.108C1617.23 994.108 1619.18 994.632 1620.6 995.68C1622.04 996.729 1622.87 998.156 1623.11 999.963Z" fill="#743E29"/>
<path d="M817.617 649V622.818H823.153V644.436H834.377V649H817.617ZM846.453 649.384C844.467 649.384 842.75 648.962 841.301 648.118C839.861 647.266 838.748 646.081 837.964 644.564C837.18 643.038 836.788 641.27 836.788 639.259C836.788 637.23 837.18 635.457 837.964 633.94C838.748 632.415 839.861 631.23 841.301 630.386C842.75 629.534 844.467 629.108 846.453 629.108C848.439 629.108 850.152 629.534 851.592 630.386C853.041 631.23 854.157 632.415 854.942 633.94C855.726 635.457 856.118 637.23 856.118 639.259C856.118 641.27 855.726 643.038 854.942 644.564C854.157 646.081 853.041 647.266 851.592 648.118C850.152 648.962 848.439 649.384 846.453 649.384ZM846.478 645.165C847.382 645.165 848.136 644.909 848.741 644.398C849.346 643.878 849.802 643.17 850.109 642.276C850.424 641.381 850.582 640.362 850.582 639.22C850.582 638.078 850.424 637.06 850.109 636.165C849.802 635.27 849.346 634.562 848.741 634.043C848.136 633.523 847.382 633.263 846.478 633.263C845.567 633.263 844.799 633.523 844.177 634.043C843.564 634.562 843.099 635.27 842.784 636.165C842.477 637.06 842.324 638.078 842.324 639.22C842.324 640.362 842.477 641.381 842.784 642.276C843.099 643.17 843.564 643.878 844.177 644.398C844.799 644.909 845.567 645.165 846.478 645.165ZM868.171 649.384C866.16 649.384 864.43 648.957 862.981 648.105C861.54 647.244 860.432 646.051 859.657 644.526C858.89 643 858.506 641.244 858.506 639.259C858.506 637.247 858.894 635.483 859.67 633.966C860.454 632.44 861.566 631.251 863.006 630.399C864.447 629.538 866.16 629.108 868.145 629.108C869.859 629.108 871.359 629.419 872.645 630.041C873.932 630.663 874.951 631.537 875.701 632.662C876.451 633.787 876.864 635.108 876.941 636.625H871.802C871.657 635.645 871.273 634.857 870.651 634.26C870.037 633.655 869.232 633.352 868.235 633.352C867.391 633.352 866.654 633.582 866.023 634.043C865.401 634.494 864.915 635.155 864.566 636.024C864.216 636.893 864.042 637.946 864.042 639.182C864.042 640.435 864.212 641.5 864.553 642.378C864.903 643.256 865.393 643.925 866.023 644.385C866.654 644.845 867.391 645.075 868.235 645.075C868.857 645.075 869.415 644.947 869.91 644.692C870.412 644.436 870.826 644.065 871.15 643.58C871.482 643.085 871.699 642.493 871.802 641.803H876.941C876.856 643.303 876.447 644.624 875.714 645.766C874.989 646.899 873.988 647.786 872.709 648.425C871.431 649.064 869.918 649.384 868.171 649.384ZM885.667 649.371C884.414 649.371 883.298 649.153 882.318 648.719C881.338 648.276 880.562 647.624 879.991 646.763C879.429 645.893 879.147 644.811 879.147 643.516C879.147 642.425 879.348 641.509 879.748 640.767C880.149 640.026 880.694 639.429 881.385 638.977C882.075 638.526 882.859 638.185 883.737 637.955C884.623 637.724 885.552 637.562 886.524 637.469C887.666 637.349 888.586 637.239 889.285 637.136C889.984 637.026 890.491 636.864 890.806 636.651C891.122 636.437 891.279 636.122 891.279 635.705V635.628C891.279 634.818 891.024 634.192 890.512 633.749C890.01 633.305 889.294 633.084 888.365 633.084C887.385 633.084 886.605 633.301 886.025 633.736C885.446 634.162 885.062 634.699 884.875 635.347L879.838 634.938C880.093 633.744 880.596 632.713 881.346 631.844C882.096 630.966 883.063 630.293 884.248 629.824C885.441 629.347 886.822 629.108 888.39 629.108C889.481 629.108 890.525 629.236 891.522 629.491C892.528 629.747 893.419 630.143 894.194 630.68C894.978 631.217 895.596 631.908 896.048 632.751C896.5 633.587 896.725 634.588 896.725 635.756V649H891.561V646.277H891.407C891.092 646.891 890.67 647.432 890.142 647.901C889.613 648.361 888.978 648.723 888.237 648.987C887.495 649.243 886.639 649.371 885.667 649.371ZM887.227 645.612C888.028 645.612 888.735 645.455 889.349 645.139C889.963 644.815 890.444 644.381 890.794 643.835C891.143 643.29 891.318 642.672 891.318 641.982V639.898C891.147 640.009 890.913 640.111 890.615 640.205C890.325 640.29 889.997 640.371 889.63 640.447C889.264 640.516 888.897 640.58 888.531 640.639C888.164 640.69 887.832 640.737 887.534 640.78C886.894 640.874 886.336 641.023 885.859 641.227C885.382 641.432 885.011 641.709 884.747 642.058C884.483 642.399 884.35 642.825 884.35 643.337C884.35 644.078 884.619 644.645 885.156 645.037C885.701 645.42 886.392 645.612 887.227 645.612ZM906.037 622.818V649H900.591V622.818H906.037ZM918.011 649V629.364H923.202V632.828H923.432C923.841 631.678 924.523 630.77 925.477 630.105C926.432 629.44 927.574 629.108 928.903 629.108C930.25 629.108 931.396 629.445 932.342 630.118C933.288 630.783 933.919 631.686 934.234 632.828H934.439C934.839 631.703 935.564 630.804 936.612 630.131C937.669 629.449 938.917 629.108 940.358 629.108C942.19 629.108 943.677 629.692 944.819 630.859C945.97 632.018 946.545 633.663 946.545 635.794V649H941.112V636.868C941.112 635.777 940.822 634.959 940.243 634.413C939.663 633.868 938.939 633.595 938.069 633.595C937.081 633.595 936.309 633.911 935.756 634.541C935.202 635.163 934.925 635.986 934.925 637.009V649H929.645V636.753C929.645 635.79 929.368 635.023 928.814 634.452C928.268 633.881 927.548 633.595 926.653 633.595C926.048 633.595 925.503 633.749 925.017 634.055C924.54 634.354 924.16 634.776 923.879 635.321C923.598 635.858 923.457 636.489 923.457 637.213V649H918.011ZM959.359 649.384C957.373 649.384 955.656 648.962 954.207 648.118C952.767 647.266 951.655 646.081 950.871 644.564C950.087 643.038 949.695 641.27 949.695 639.259C949.695 637.23 950.087 635.457 950.871 633.94C951.655 632.415 952.767 631.23 954.207 630.386C955.656 629.534 957.373 629.108 959.359 629.108C961.345 629.108 963.058 629.534 964.498 630.386C965.947 631.23 967.064 632.415 967.848 633.94C968.632 635.457 969.024 637.23 969.024 639.259C969.024 641.27 968.632 643.038 967.848 644.564C967.064 646.081 965.947 647.266 964.498 648.118C963.058 648.962 961.345 649.384 959.359 649.384ZM959.385 645.165C960.288 645.165 961.043 644.909 961.648 644.398C962.253 643.878 962.709 643.17 963.016 642.276C963.331 641.381 963.489 640.362 963.489 639.22C963.489 638.078 963.331 637.06 963.016 636.165C962.709 635.27 962.253 634.562 961.648 634.043C961.043 633.523 960.288 633.263 959.385 633.263C958.473 633.263 957.706 633.523 957.084 634.043C956.47 634.562 956.006 635.27 955.69 636.165C955.383 637.06 955.23 638.078 955.23 639.22C955.23 640.362 955.383 641.381 955.69 642.276C956.006 643.17 956.47 643.878 957.084 644.398C957.706 644.909 958.473 645.165 959.385 645.165ZM981.077 649.384C979.066 649.384 977.336 648.957 975.887 648.105C974.447 647.244 973.339 646.051 972.563 644.526C971.796 643 971.413 641.244 971.413 639.259C971.413 637.247 971.8 635.483 972.576 633.966C973.36 632.44 974.472 631.251 975.913 630.399C977.353 629.538 979.066 629.108 981.052 629.108C982.765 629.108 984.265 629.419 985.552 630.041C986.839 630.663 987.857 631.537 988.607 632.662C989.357 633.787 989.771 635.108 989.847 636.625H984.708C984.563 635.645 984.18 634.857 983.558 634.26C982.944 633.655 982.138 633.352 981.141 633.352C980.298 633.352 979.56 633.582 978.93 634.043C978.308 634.494 977.822 635.155 977.472 636.024C977.123 636.893 976.948 637.946 976.948 639.182C976.948 640.435 977.119 641.5 977.46 642.378C977.809 643.256 978.299 643.925 978.93 644.385C979.56 644.845 980.298 645.075 981.141 645.075C981.763 645.075 982.322 644.947 982.816 644.692C983.319 644.436 983.732 644.065 984.056 643.58C984.388 643.085 984.606 642.493 984.708 641.803H989.847C989.762 643.303 989.353 644.624 988.62 645.766C987.896 646.899 986.894 647.786 985.616 648.425C984.337 649.064 982.825 649.384 981.077 649.384ZM997.909 643.349L997.922 636.817H998.714L1005 629.364H1011.26L1002.81 639.233H1001.51L997.909 643.349ZM992.974 649V622.818H998.42V649H992.974ZM1005.25 649L999.468 640.447L1003.1 636.599L1011.63 649H1005.25ZM1013.57 649V629.364H1019.01V649H1013.57ZM1016.3 626.832C1015.49 626.832 1014.8 626.564 1014.22 626.027C1013.65 625.482 1013.36 624.83 1013.36 624.071C1013.36 623.321 1013.65 622.678 1014.22 622.141C1014.8 621.595 1015.49 621.322 1016.3 621.322C1017.11 621.322 1017.8 621.595 1018.37 622.141C1018.95 622.678 1019.24 623.321 1019.24 624.071C1019.24 624.83 1018.95 625.482 1018.37 626.027C1017.8 626.564 1017.11 626.832 1016.3 626.832ZM1028.46 637.648V649H1023.02V629.364H1028.21V632.828H1028.44C1028.87 631.686 1029.6 630.783 1030.62 630.118C1031.65 629.445 1032.89 629.108 1034.34 629.108C1035.71 629.108 1036.9 629.406 1037.91 630.003C1038.92 630.599 1039.71 631.452 1040.27 632.56C1040.84 633.659 1041.12 634.972 1041.12 636.497V649H1035.67V637.469C1035.68 636.267 1035.37 635.33 1034.75 634.656C1034.13 633.974 1033.27 633.634 1032.18 633.634C1031.45 633.634 1030.8 633.791 1030.24 634.107C1029.68 634.422 1029.25 634.882 1028.93 635.487C1028.63 636.084 1028.47 636.804 1028.46 637.648ZM1053.9 656.773C1052.13 656.773 1050.62 656.53 1049.36 656.044C1048.11 655.567 1047.11 654.915 1046.37 654.088C1045.63 653.261 1045.14 652.332 1044.92 651.301L1049.96 650.624C1050.11 651.016 1050.36 651.382 1050.69 651.723C1051.02 652.064 1051.46 652.337 1052 652.541C1052.56 652.754 1053.23 652.861 1054.02 652.861C1055.21 652.861 1056.19 652.571 1056.95 651.991C1057.73 651.42 1058.12 650.462 1058.12 649.115V645.523H1057.89C1057.65 646.068 1057.29 646.584 1056.81 647.07C1056.33 647.555 1055.72 647.952 1054.97 648.259C1054.22 648.565 1053.33 648.719 1052.29 648.719C1050.81 648.719 1049.47 648.378 1048.26 647.696C1047.06 647.006 1046.1 645.953 1045.38 644.538C1044.68 643.115 1044.32 641.317 1044.32 639.143C1044.32 636.919 1044.68 635.061 1045.41 633.57C1046.13 632.078 1047.1 630.962 1048.3 630.22C1049.51 629.479 1050.83 629.108 1052.27 629.108C1053.37 629.108 1054.29 629.295 1055.03 629.67C1055.78 630.037 1056.37 630.497 1056.82 631.051C1057.28 631.597 1057.64 632.134 1057.89 632.662H1058.09V629.364H1063.5V649.192C1063.5 650.862 1063.09 652.26 1062.27 653.385C1061.45 654.51 1060.32 655.354 1058.87 655.916C1057.43 656.487 1055.77 656.773 1053.9 656.773ZM1054.01 644.628C1054.89 644.628 1055.63 644.411 1056.24 643.976C1056.85 643.533 1057.32 642.902 1057.64 642.084C1057.98 641.257 1058.14 640.268 1058.14 639.118C1058.14 637.967 1057.98 636.97 1057.66 636.126C1057.33 635.274 1056.86 634.614 1056.25 634.145C1055.64 633.676 1054.89 633.442 1054.01 633.442C1053.12 633.442 1052.36 633.685 1051.75 634.17C1051.14 634.648 1050.67 635.312 1050.36 636.165C1050.04 637.017 1049.88 638.001 1049.88 639.118C1049.88 640.251 1050.04 641.232 1050.36 642.058C1050.68 642.876 1051.14 643.511 1051.75 643.963C1052.36 644.406 1053.12 644.628 1054.01 644.628ZM903.029 670.963L898.043 671.27C897.958 670.844 897.774 670.46 897.493 670.119C897.212 669.77 896.841 669.493 896.381 669.288C895.929 669.075 895.388 668.969 894.757 668.969C893.913 668.969 893.202 669.148 892.622 669.506C892.043 669.855 891.753 670.324 891.753 670.912C891.753 671.381 891.94 671.777 892.315 672.101C892.69 672.425 893.334 672.685 894.246 672.881L897.8 673.597C899.709 673.989 901.132 674.619 902.07 675.489C903.007 676.358 903.476 677.5 903.476 678.915C903.476 680.202 903.097 681.331 902.338 682.303C901.588 683.274 900.557 684.033 899.244 684.578C897.94 685.115 896.436 685.384 894.732 685.384C892.132 685.384 890.061 684.842 888.519 683.76C886.985 682.669 886.085 681.186 885.821 679.311L891.178 679.03C891.34 679.822 891.732 680.428 892.354 680.845C892.976 681.254 893.773 681.459 894.744 681.459C895.699 681.459 896.466 681.276 897.046 680.909C897.634 680.534 897.932 680.053 897.94 679.464C897.932 678.97 897.723 678.565 897.314 678.25C896.905 677.926 896.274 677.679 895.422 677.509L892.021 676.831C890.104 676.447 888.676 675.783 887.739 674.837C886.81 673.891 886.345 672.685 886.345 671.219C886.345 669.957 886.686 668.871 887.368 667.959C888.058 667.047 889.026 666.344 890.27 665.849C891.523 665.355 892.989 665.108 894.668 665.108C897.148 665.108 899.1 665.632 900.523 666.68C901.955 667.729 902.79 669.156 903.029 670.963ZM915.494 685.384C913.474 685.384 911.736 684.974 910.278 684.156C908.829 683.33 907.713 682.162 906.929 680.653C906.145 679.136 905.753 677.342 905.753 675.271C905.753 673.251 906.145 671.479 906.929 669.953C907.713 668.428 908.817 667.239 910.24 666.386C911.672 665.534 913.351 665.108 915.277 665.108C916.572 665.108 917.778 665.317 918.895 665.734C920.02 666.143 921 666.761 921.835 667.588C922.679 668.415 923.335 669.455 923.804 670.707C924.273 671.952 924.507 673.409 924.507 675.08V676.575H907.926V673.2H919.381C919.381 672.416 919.21 671.722 918.869 671.116C918.528 670.511 918.055 670.038 917.45 669.697C916.854 669.348 916.159 669.173 915.366 669.173C914.54 669.173 913.807 669.365 913.167 669.749C912.537 670.124 912.042 670.631 911.685 671.27C911.327 671.901 911.143 672.604 911.135 673.379V676.588C911.135 677.56 911.314 678.399 911.672 679.107C912.038 679.814 912.554 680.359 913.219 680.743C913.883 681.126 914.672 681.318 915.584 681.318C916.189 681.318 916.743 681.233 917.246 681.062C917.748 680.892 918.179 680.636 918.537 680.295C918.895 679.955 919.167 679.537 919.355 679.043L924.392 679.375C924.136 680.585 923.612 681.642 922.819 682.545C922.035 683.44 921.021 684.139 919.777 684.642C918.541 685.136 917.114 685.384 915.494 685.384ZM927.701 685V665.364H932.981V668.79H933.185C933.543 667.571 934.144 666.651 934.988 666.028C935.832 665.398 936.803 665.082 937.903 665.082C938.175 665.082 938.469 665.099 938.785 665.134C939.1 665.168 939.377 665.214 939.616 665.274V670.107C939.36 670.03 939.006 669.962 938.555 669.902C938.103 669.842 937.69 669.812 937.315 669.812C936.513 669.812 935.798 669.987 935.167 670.337C934.545 670.678 934.05 671.155 933.684 671.768C933.326 672.382 933.147 673.089 933.147 673.891V685H927.701ZM960.976 665.364L954.111 685H947.974L941.109 665.364H946.862L950.94 679.413H951.145L955.21 665.364H960.976ZM971.719 685.384C969.699 685.384 967.96 684.974 966.503 684.156C965.054 683.33 963.938 682.162 963.154 680.653C962.369 679.136 961.977 677.342 961.977 675.271C961.977 673.251 962.369 671.479 963.154 669.953C963.938 668.428 965.041 667.239 966.465 666.386C967.896 665.534 969.575 665.108 971.502 665.108C972.797 665.108 974.003 665.317 975.119 665.734C976.244 666.143 977.225 666.761 978.06 667.588C978.904 668.415 979.56 669.455 980.029 670.707C980.497 671.952 980.732 673.409 980.732 675.08V676.575H964.151V673.2H975.605C975.605 672.416 975.435 671.722 975.094 671.116C974.753 670.511 974.28 670.038 973.675 669.697C973.078 669.348 972.384 669.173 971.591 669.173C970.764 669.173 970.031 669.365 969.392 669.749C968.761 670.124 968.267 670.631 967.909 671.27C967.551 671.901 967.368 672.604 967.359 673.379V676.588C967.359 677.56 967.538 678.399 967.896 679.107C968.263 679.814 968.779 680.359 969.443 680.743C970.108 681.126 970.896 681.318 971.808 681.318C972.413 681.318 972.967 681.233 973.47 681.062C973.973 680.892 974.404 680.636 974.761 680.295C975.119 679.955 975.392 679.537 975.58 679.043L980.617 679.375C980.361 680.585 979.837 681.642 979.044 682.545C978.26 683.44 977.246 684.139 976.002 684.642C974.766 685.136 973.338 685.384 971.719 685.384ZM983.926 685V665.364H989.205V668.79H989.41C989.768 667.571 990.369 666.651 991.213 666.028C992.056 665.398 993.028 665.082 994.127 665.082C994.4 665.082 994.694 665.099 995.009 665.134C995.325 665.168 995.602 665.214 995.84 665.274V670.107C995.585 670.03 995.231 669.962 994.779 669.902C994.328 669.842 993.914 669.812 993.539 669.812C992.738 669.812 992.022 669.987 991.392 670.337C990.769 670.678 990.275 671.155 989.909 671.768C989.551 672.382 989.372 673.089 989.372 673.891V685H983.926Z" fill="#743E29"/>
<defs>
<linearGradient id="paint0_linear_201_38" x1="818" y1="451" x2="913.981" y2="451" gradientUnits="userSpaceOnUse">
<stop stop-color="#0095D5"/>
<stop offset="1" stop-color="#3178C6"/>
</linearGradient>
<linearGradient id="paint1_linear_201_38" x1="818" y1="453" x2="914" y2="453" gradientUnits="userSpaceOnUse">
<stop stop-color="#0095D5"/>
<stop offset="1" stop-color="#3178C6"/>
</linearGradient>
<linearGradient id="paint2_linear_201_38" x1="835" y1="482" x2="897" y2="482" gradientUnits="userSpaceOnUse">
<stop stop-color="#0095D5"/>
<stop offset="1" stop-color="#3178C6"/>
</linearGradient>
</defs>
</svg>
