<svg width="1920" height="1080" viewBox="0 0 1920 1080" fill="none" xmlns="http://www.w3.org/2000/svg">
<rect width="1920" height="1080" fill="#FDF2EF"/>
<path d="M1319.43 233.598C1319.76 232.257 1318.94 230.903 1317.6 230.573L1295.75 225.191C1294.41 224.861 1293.06 225.68 1292.73 227.021C1292.4 228.361 1293.21 229.716 1294.56 230.046L1313.97 234.83L1309.19 254.249C1308.86 255.59 1309.68 256.944 1311.02 257.274C1312.36 257.605 1313.72 256.786 1314.05 255.445L1319.43 233.598ZM1022.29 414.139L1318.29 235.139L1315.71 230.861L1019.71 409.861L1022.29 414.139Z" fill="#743E29"/>
<path d="M398.232 537.732C397.255 538.709 397.255 540.291 398.232 541.268L414.142 557.178C415.118 558.154 416.701 558.154 417.677 557.178C418.654 556.201 418.654 554.618 417.677 553.642L403.535 539.5L417.677 525.358C418.654 524.382 418.654 522.799 417.677 521.822C416.701 520.846 415.118 520.846 414.142 521.822L398.232 537.732ZM756.001 537L400 537L400 542L756.001 542L756.001 537Z" fill="#743E29"/>
<path d="M1348.77 543.762C1349.75 542.783 1349.74 541.2 1348.76 540.227L1332.8 524.366C1331.82 523.392 1330.24 523.397 1329.27 524.377C1328.29 525.356 1328.3 526.939 1329.28 527.912L1343.46 542.011L1329.37 556.196C1328.39 557.176 1328.4 558.759 1329.38 559.732C1330.36 560.705 1331.94 560.7 1332.91 559.721L1348.77 543.762ZM1021.01 545.5L1347.01 544.5L1346.99 539.5L1020.99 540.5L1021.01 545.5Z" fill="#743E29"/>
<path d="M1347.6 866.426C1348.94 866.092 1349.76 864.736 1349.43 863.396L1343.99 841.563C1343.65 840.223 1342.3 839.407 1340.96 839.741C1339.62 840.075 1338.8 841.431 1339.14 842.771L1343.97 862.178L1324.56 867.011C1323.22 867.345 1322.41 868.702 1322.74 870.042C1323.07 871.381 1324.43 872.197 1325.77 871.863L1347.6 866.426ZM1019.71 670.143L1345.71 866.143L1348.29 861.857L1022.29 665.857L1019.71 670.143Z" fill="#743E29"/>
<path d="M244.336 407.829C238.144 412.184 231.127 417.12 227.367 425.286C220.836 439.532 240.731 455.072 241.581 455.727C241.779 455.879 242.015 455.955 242.251 455.955C242.501 455.955 242.752 455.869 242.956 455.699C243.351 455.368 243.463 454.807 243.226 454.35C243.154 454.212 236.012 440.341 236.278 430.389C236.372 426.923 241.222 422.992 246.357 418.829C251.06 415.016 256.391 410.695 259.511 405.64C266.358 394.513 258.747 383.571 258.67 383.462C258.367 383.037 257.809 382.884 257.332 383.093C256.856 383.303 256.592 383.818 256.701 384.328C256.716 384.401 258.196 391.636 254.078 399.091C252.381 402.171 248.653 404.793 244.336 407.829Z" fill="#DB380E"/>
<path d="M270.422 412.736C270.859 412.407 270.988 411.807 270.723 411.328C270.459 410.849 269.883 410.638 269.372 410.832C268.32 411.232 243.614 420.755 243.614 432.262C243.614 440.194 247.002 444.384 249.477 447.444C250.447 448.644 251.285 449.68 251.561 450.565C252.338 453.115 250.497 457.724 249.722 459.285C249.499 459.734 249.608 460.277 249.988 460.605C250.193 460.782 250.45 460.872 250.706 460.872C250.924 460.872 251.144 460.807 251.333 460.676C251.758 460.38 261.715 453.341 259.929 444.859C259.264 441.635 257.68 439.28 256.282 437.201C254.116 433.981 252.552 431.654 254.925 427.358C257.705 422.347 270.295 412.831 270.422 412.736Z" fill="#DB380E"/>
<path d="M206.113 461.054C205.69 462.322 205.89 463.58 206.691 464.693C209.369 468.411 218.855 470.458 233.404 470.458C233.405 470.458 233.405 470.458 233.406 470.458C235.377 470.458 237.458 470.419 239.59 470.343C262.85 469.51 271.478 462.264 271.834 461.956C272.221 461.62 272.325 461.061 272.084 460.609C271.843 460.157 271.323 459.93 270.826 460.066C262.634 462.303 247.337 463.097 236.727 463.097C224.854 463.097 218.808 462.242 217.328 461.61C218.087 460.567 222.772 458.705 228.577 457.563C229.132 457.454 229.513 456.942 229.458 456.379C229.404 455.816 228.931 455.387 228.365 455.387C224.962 455.387 207.897 455.66 206.113 461.054Z" fill="#73A1FB"/>
<path d="M283.947 453.59C279.15 453.59 274.6 455.995 274.409 456.097C273.965 456.334 273.74 456.843 273.862 457.332C273.984 457.82 274.423 458.163 274.926 458.164C275.028 458.164 285.16 458.247 286.078 464.036C286.891 469.03 276.491 477.122 272.415 479.819C271.975 480.11 271.804 480.673 272.009 481.159C272.183 481.574 272.586 481.833 273.021 481.833C273.097 481.833 273.174 481.825 273.25 481.809C274.218 481.602 296.911 476.601 294.512 463.388C293.048 455.29 287.959 453.59 283.947 453.59Z" fill="#73A1FB"/>
<path d="M268.384 478.202C268.463 477.779 268.287 477.348 267.935 477.101L262.494 473.289C262.228 473.103 261.893 473.045 261.582 473.128C261.525 473.142 255.834 474.638 247.573 475.555C244.294 475.923 240.622 476.117 236.952 476.117C228.693 476.117 223.292 475.147 222.506 474.435C222.402 474.235 222.435 474.144 222.453 474.094C222.596 473.696 223.362 473.224 223.855 473.037C224.401 472.836 224.695 472.243 224.525 471.688C224.356 471.131 223.782 470.804 223.217 470.939C217.758 472.257 215.089 474.099 215.283 476.414C215.628 480.519 225.137 482.626 233.176 483.183C234.332 483.262 235.582 483.302 236.891 483.302C236.892 483.302 236.892 483.302 236.893 483.302C250.26 483.302 267.396 479.108 267.568 479.066C267.986 478.964 268.305 478.626 268.384 478.202Z" fill="#73A1FB"/>
<path d="M227.361 487.012C227.773 486.744 227.956 486.235 227.81 485.765C227.664 485.296 227.225 484.988 226.732 484.994C226 485.014 219.574 485.304 219.124 489.395C218.988 490.618 219.338 491.735 220.166 492.715C222.473 495.45 228.701 497.075 239.203 497.684C240.446 497.758 241.708 497.796 242.955 497.796C256.307 497.796 265.299 493.615 265.675 493.437C266.04 493.265 266.281 492.906 266.303 492.503C266.324 492.1 266.123 491.717 265.778 491.507L258.902 487.309C258.663 487.163 258.378 487.115 258.105 487.171C258.062 487.18 253.696 488.085 247.106 488.98C245.859 489.15 244.298 489.236 242.466 489.236C235.884 489.236 228.562 488.16 227.158 487.456C227.138 487.325 227.164 487.158 227.361 487.012Z" fill="#73A1FB"/>
<path d="M236.732 510.418C267.315 510.392 283.729 504.953 286.891 501.531C288.011 500.32 288.132 499.174 288.037 498.425C287.801 496.583 286.123 495.455 285.933 495.332C285.474 495.037 284.858 495.114 284.5 495.527C284.142 495.94 284.134 496.544 284.493 496.956C284.685 497.204 284.797 497.62 284.233 498.184C282.969 499.365 270.219 502.949 248.991 504.025C246.083 504.176 243.033 504.253 239.926 504.254C220.919 504.254 207.009 501.65 205.183 500.133C205.887 499.122 210.807 497.506 216.039 496.592C216.629 496.49 217.027 495.934 216.936 495.342C216.845 494.751 216.3 494.344 215.704 494.422C215.556 494.442 215.055 494.471 214.475 494.507C205.842 495.034 195.865 496.209 195.344 500.657C195.186 502.013 195.589 503.244 196.542 504.315C198.873 506.934 205.575 510.418 236.731 510.418C236.731 510.418 236.731 510.418 236.732 510.418Z" fill="#73A1FB"/>
<path d="M292.898 502.495C292.466 502.295 291.955 502.396 291.632 502.744C291.588 502.793 286.989 507.601 273.164 510.424C267.872 511.485 257.937 512.023 243.636 512.023C229.308 512.023 215.674 511.459 215.538 511.453C214.969 511.425 214.482 511.839 214.404 512.4C214.326 512.96 214.688 513.488 215.237 513.619C215.379 513.653 229.667 517 249.203 517C258.573 517 267.691 516.239 276.304 514.737C292.363 511.922 293.487 503.959 293.527 503.621C293.583 503.15 293.33 502.695 292.898 502.495Z" fill="#73A1FB"/>
<g clip-path="url(#clip0_201_271)">
<path d="M1541.5 476H1438.5C1431.6 476 1426 481.596 1426 488.5V591.5C1426 598.404 1431.6 604 1438.5 604H1541.5C1548.4 604 1554 598.404 1554 591.5V488.5C1554 481.596 1548.4 476 1541.5 476Z" fill="#3178C6"/>
<path d="M1541.5 476H1438.5C1431.6 476 1426 481.596 1426 488.5V591.5C1426 598.404 1431.6 604 1438.5 604H1541.5C1548.4 604 1554 598.404 1554 591.5V488.5C1554 481.596 1548.4 476 1541.5 476Z" fill="#3178C6"/>
<path fill-rule="evenodd" clip-rule="evenodd" d="M1505.23 577.856V590.371C1507.27 591.414 1509.68 592.196 1512.45 592.718C1515.23 593.239 1518.16 593.5 1521.24 593.5C1524.24 593.5 1527.09 593.213 1529.79 592.64C1532.49 592.066 1534.85 591.121 1536.89 589.804C1538.92 588.488 1540.53 586.767 1541.72 584.642C1542.91 582.517 1543.5 579.89 1543.5 576.761C1543.5 574.493 1543.16 572.505 1542.48 570.797C1541.8 569.089 1540.83 567.57 1539.55 566.241C1538.27 564.911 1536.74 563.718 1534.95 562.662C1533.16 561.606 1531.15 560.608 1528.91 559.67C1527.26 558.992 1525.79 558.334 1524.48 557.695C1523.18 557.056 1522.07 556.404 1521.16 555.74C1520.25 555.075 1519.54 554.371 1519.05 553.628C1518.55 552.884 1518.3 552.044 1518.3 551.105C1518.3 550.245 1518.52 549.469 1518.97 548.778C1519.41 548.087 1520.04 547.494 1520.85 546.998C1521.65 546.503 1522.65 546.118 1523.82 545.844C1524.99 545.571 1526.3 545.434 1527.73 545.434C1528.78 545.434 1529.88 545.512 1531.04 545.669C1532.2 545.825 1533.37 546.066 1534.54 546.392C1535.71 546.718 1536.86 547.129 1537.96 547.624C1539.07 548.12 1540.1 548.693 1541.04 549.345V537.651C1539.13 536.921 1537.05 536.38 1534.79 536.028C1532.54 535.676 1529.95 535.5 1527.03 535.5C1524.05 535.5 1521.24 535.819 1518.58 536.458C1515.92 537.097 1513.58 538.094 1511.55 539.45C1509.53 540.806 1507.93 542.533 1506.76 544.632C1505.59 546.731 1505 549.241 1505 552.161C1505 555.889 1506.08 559.07 1508.23 561.704C1510.38 564.337 1513.65 566.566 1518.03 568.392C1519.75 569.096 1521.35 569.786 1522.84 570.464C1524.33 571.142 1525.61 571.846 1526.7 572.576C1527.78 573.306 1528.63 574.101 1529.26 574.962C1529.88 575.822 1530.2 576.8 1530.2 577.895C1530.2 578.703 1530 579.453 1529.61 580.144C1529.22 580.835 1528.63 581.435 1527.83 581.943C1527.03 582.452 1526.04 582.849 1524.86 583.136C1523.67 583.423 1522.28 583.566 1520.69 583.566C1517.98 583.566 1515.29 583.09 1512.63 582.138C1509.97 581.187 1507.5 579.76 1505.23 577.856V577.856ZM1484.19 547.021H1500.25V536.75H1455.5V547.021H1471.48V592.75H1484.19V547.021Z" fill="#FDF2EF"/>
</g>
<path d="M1633.99 187.454C1633.98 186.166 1633.97 184.88 1633.94 183.591C1633.86 180.787 1633.69 177.958 1633.2 175.185C1632.69 172.368 1631.86 169.749 1630.56 167.19C1629.28 164.678 1627.61 162.378 1625.62 160.384C1623.62 158.39 1621.32 156.719 1618.81 155.44C1616.25 154.138 1613.63 153.312 1610.82 152.806C1608.05 152.307 1605.22 152.142 1602.41 152.066C1601.12 152.031 1599.84 152.017 1598.55 152.009C1597.02 152 1595.49 152 1593.96 152H1546.04C1544.51 152 1542.98 152 1541.45 152.009C1540.17 152.017 1538.88 152.031 1537.59 152.066C1536.89 152.085 1536.19 152.11 1535.48 152.144C1533.37 152.245 1531.26 152.432 1529.18 152.807C1527.07 153.186 1525.07 153.746 1523.12 154.55C1522.47 154.819 1521.83 155.114 1521.19 155.44C1519.31 156.399 1517.54 157.579 1515.94 158.95C1515.4 159.407 1514.88 159.886 1514.38 160.384C1512.39 162.378 1510.72 164.677 1509.44 167.19C1508.14 169.749 1507.31 172.368 1506.81 175.185C1506.31 177.958 1506.14 180.787 1506.07 183.591C1506.03 184.879 1506.02 186.166 1506.01 187.453C1506 188.982 1506 190.512 1506 192.04V239.959C1506 241.489 1506 243.017 1506.01 244.547C1506.02 245.834 1506.03 247.121 1506.07 248.408C1506.14 251.213 1506.31 254.042 1506.81 256.814C1507.31 259.63 1508.14 262.252 1509.44 264.81C1510.72 267.323 1512.39 269.622 1514.38 271.615C1516.38 273.61 1518.68 275.281 1521.19 276.561C1523.75 277.863 1526.37 278.688 1529.18 279.193C1531.96 279.693 1534.79 279.859 1537.59 279.934C1538.88 279.968 1540.17 279.983 1541.45 279.99C1542.98 280.001 1544.51 280 1546.04 280H1593.96C1595.49 280 1597.02 280.001 1598.55 279.99C1599.84 279.983 1601.12 279.968 1602.41 279.934C1605.22 279.859 1608.05 279.692 1610.82 279.193C1613.63 278.688 1616.25 277.862 1618.81 276.561C1621.32 275.281 1623.62 273.61 1625.62 271.615C1627.61 269.622 1629.28 267.323 1630.56 264.81C1631.86 262.252 1632.69 259.63 1633.2 256.814C1633.69 254.042 1633.86 251.213 1633.94 248.408C1633.97 247.121 1633.98 245.834 1633.99 244.547C1634 243.017 1634 241.489 1634 239.959V192.04C1634 190.512 1634 188.982 1633.99 187.454H1633.99Z" fill="#F05138"/>
<path d="M1607.43 231.013C1607.42 231.009 1607.42 231.006 1607.42 231.003C1607.56 230.521 1607.71 230.042 1607.83 229.548C1613.14 208.382 1600.18 183.357 1578.23 170.182C1587.85 183.217 1592.1 199.004 1588.32 212.812C1587.99 214.044 1587.58 215.226 1587.13 216.375C1586.65 216.055 1586.04 215.693 1585.21 215.24C1585.21 215.24 1563.39 201.764 1539.73 177.929C1539.11 177.303 1552.35 196.845 1567.37 212.714C1560.29 208.743 1540.57 194.394 1528.08 182.968C1529.62 185.526 1531.44 187.989 1533.45 190.36C1543.87 203.582 1557.47 219.895 1573.76 232.424C1562.31 239.428 1546.14 239.972 1530.04 232.431C1526.06 230.565 1522.31 228.313 1518.85 225.754C1525.66 236.656 1536.16 246.062 1548.94 251.554C1564.17 258.102 1579.32 257.658 1590.61 251.662L1590.6 251.674C1590.65 251.642 1590.72 251.606 1590.77 251.573C1591.23 251.324 1591.69 251.071 1592.14 250.803C1597.57 247.988 1608.28 245.133 1614.02 256.317C1615.43 259.055 1618.42 244.549 1607.43 231.017L1607.43 231.013Z" fill="#FDF2EF"/>
<g clip-path="url(#clip1_201_271)">
<path d="M1348 280L1412.21 215.787L1476 280H1348Z" fill="url(#paint0_linear_201_271)"/>
<path d="M1348 152H1412.21L1348 221.333V152Z" fill="url(#paint1_linear_201_271)"/>
<path d="M1412.21 152L1348 219.627V280L1412.21 215.787L1476 152H1412.21Z" fill="url(#paint2_linear_201_271)"/>
</g>
<path d="M1690.85 969.771C1715.24 969.771 1735.01 949.998 1735.01 925.607C1735.01 901.217 1715.24 881.444 1690.85 881.444C1666.46 881.444 1646.69 901.217 1646.69 925.607C1646.69 949.998 1666.46 969.771 1690.85 969.771Z" fill="#05930C"/>
<path opacity="0.1" d="M1660.24 893.865C1655.75 897.865 1652.12 902.741 1649.59 908.192C1647.05 913.643 1645.65 919.556 1645.48 925.567C1645.3 931.578 1646.36 937.561 1648.58 943.149C1650.8 948.737 1654.14 953.813 1658.39 958.065C1662.64 962.317 1667.72 965.656 1673.31 967.877C1678.9 970.098 1684.88 971.155 1690.89 970.982C1696.9 970.809 1702.81 969.41 1708.26 966.872C1713.72 964.333 1718.59 960.708 1722.59 956.218L1660.24 893.865Z" fill="#FDF2EF"/>
<path d="M1688.68 941.547C1685.68 943.009 1682.36 943.711 1679.02 943.59C1676.82 943.687 1674.61 943.311 1672.56 942.487C1670.51 941.664 1668.67 940.411 1667.14 938.815C1664.07 935.376 1662.47 930.873 1662.68 926.27C1662.57 923.8 1662.96 921.335 1663.83 919.019C1664.69 916.703 1666.01 914.583 1667.71 912.786C1669.36 911.091 1671.35 909.76 1673.55 908.878C1675.76 907.996 1678.12 907.584 1680.48 907.666C1683.28 907.559 1686.07 908.029 1688.68 909.046V913.393C1686.15 911.987 1683.3 911.268 1680.4 911.309C1678.6 911.249 1676.81 911.576 1675.14 912.266C1673.47 912.956 1671.97 913.995 1670.74 915.312C1668.16 918.257 1666.82 922.093 1667.01 926.007C1666.82 929.706 1668.07 933.336 1670.49 936.137C1671.65 937.386 1673.07 938.37 1674.65 939.02C1676.23 939.67 1677.92 939.972 1679.63 939.905C1682.81 939.984 1685.95 939.177 1688.7 937.573L1688.68 941.547Z" fill="#FDF2EF"/>
<path d="M1719.5 917.961L1718.95 920.528H1712.6L1711.08 927.815H1717.9L1717.25 930.382H1710.57L1708.43 940.043H1705.38L1707.47 930.382H1701.39L1699.35 940.043H1696.37L1698.41 930.382H1692.01L1692.49 927.815H1698.92L1700.4 920.542H1693.68L1694.19 917.975H1700.91L1702.95 908.218H1706.03L1703.99 917.975H1710.1L1712.19 908.218H1715.17L1713.12 917.975L1719.5 917.961ZM1709.61 920.528H1703.48L1701.89 927.815H1708.05L1709.61 920.528Z" fill="#FDF2EF"/>
<path d="M1371.09 908.56C1370.62 908.56 1370.51 908.327 1370.74 907.977L1373.19 904.826C1373.42 904.476 1374.01 904.242 1374.47 904.242H1416.14C1416.61 904.242 1416.72 904.592 1416.49 904.942L1414.51 907.977C1414.27 908.327 1413.69 908.677 1413.34 908.677L1371.09 908.56Z" fill="#00ACD7"/>
<path d="M1353.47 919.298C1353 919.298 1352.88 919.064 1353.12 918.714L1355.57 915.563C1355.8 915.213 1356.38 914.979 1356.85 914.979H1410.07C1410.54 914.979 1410.77 915.33 1410.65 915.68L1409.72 918.481C1409.6 918.948 1409.14 919.181 1408.67 919.181L1353.47 919.298Z" fill="#00ACD7"/>
<path d="M1381.71 930.035C1381.24 930.035 1381.13 929.685 1381.36 929.335L1382.99 926.417C1383.23 926.067 1383.7 925.717 1384.16 925.717H1407.5C1407.97 925.717 1408.2 926.067 1408.2 926.534L1407.97 929.335C1407.97 929.802 1407.5 930.152 1407.15 930.152L1381.71 930.035Z" fill="#00ACD7"/>
<path d="M1502.86 906.46C1495.5 908.327 1490.48 909.728 1483.25 911.595C1481.5 912.062 1481.38 912.179 1479.86 910.428C1478.11 908.444 1476.83 907.16 1474.38 905.993C1467.03 902.375 1459.91 903.425 1453.25 907.744C1445.32 912.879 1441.23 920.465 1441.35 929.918C1441.47 939.255 1447.89 946.958 1457.11 948.242C1465.04 949.292 1471.69 946.491 1476.95 940.539C1478 939.255 1478.93 937.855 1480.1 936.221C1475.9 936.221 1470.64 936.221 1457.57 936.221C1455.12 936.221 1454.54 934.703 1455.36 932.719C1456.87 929.101 1459.67 923.033 1461.31 919.998C1461.66 919.298 1462.47 918.131 1464.23 918.131C1470.18 918.131 1492.12 918.131 1506.71 918.131C1506.47 921.282 1506.47 924.433 1506.01 927.584C1504.72 935.987 1501.57 943.69 1496.44 950.459C1488.03 961.547 1477.06 968.433 1463.17 970.3C1451.74 971.817 1441.12 969.6 1431.78 962.597C1423.14 956.061 1418.24 947.425 1416.96 936.688C1415.44 923.966 1419.18 912.529 1426.88 902.492C1435.16 891.638 1446.14 884.752 1459.56 882.301C1470.53 880.317 1481.03 881.601 1490.48 888.02C1496.67 892.104 1501.11 897.707 1504.02 904.476C1504.72 905.526 1504.26 906.11 1502.86 906.46Z" fill="#00ACD7"/>
<path d="M1541.49 971C1530.87 970.767 1521.18 967.732 1513.01 960.73C1506.12 954.777 1501.8 947.191 1500.4 938.205C1498.3 925.016 1501.92 913.345 1509.86 902.958C1518.38 891.754 1528.65 885.919 1542.54 883.468C1554.44 881.367 1565.64 882.534 1575.8 889.42C1585.02 895.722 1590.74 904.242 1592.25 915.446C1594.24 931.202 1589.69 944.04 1578.83 955.011C1571.13 962.83 1561.68 967.732 1550.82 969.95C1547.67 970.533 1544.52 970.65 1541.49 971ZM1569.26 923.849C1569.15 922.332 1569.15 921.165 1568.91 919.998C1566.81 908.444 1556.19 901.908 1545.1 904.476C1534.25 906.926 1527.25 913.812 1524.68 924.783C1522.58 933.886 1527.01 943.106 1535.42 946.841C1541.84 949.642 1548.26 949.292 1554.44 946.141C1563.66 941.356 1568.68 933.886 1569.26 923.849Z" fill="#00ACD7"/>
<path fill-rule="evenodd" clip-rule="evenodd" d="M1570.1 766C1569.87 766.003 1569.64 766.058 1569.43 766.179C1569.02 766.42 1568.76 766.863 1568.76 767.339V801.491C1568.76 801.826 1568.6 802.126 1568.31 802.295C1568.02 802.463 1567.67 802.463 1567.38 802.295L1561.8 799.08C1560.97 798.601 1559.95 798.601 1559.12 799.08L1536.84 811.937C1536.01 812.418 1535.5 813.342 1535.5 814.303V840.017C1535.5 840.978 1536.01 841.858 1536.84 842.339L1559.12 855.196C1559.95 855.676 1560.96 855.676 1561.8 855.196L1584.07 842.339C1584.91 841.858 1585.41 840.978 1585.41 840.017V775.911C1585.41 774.936 1584.88 774.02 1584.03 773.545L1570.77 766.134C1570.56 766.018 1570.33 765.998 1570.1 766V766ZM1426.8 798.098C1426.37 798.115 1425.97 798.189 1425.59 798.411L1403.32 811.268C1402.49 811.747 1401.98 812.621 1401.98 813.589L1402.02 848.098C1402.02 848.578 1402.27 849.023 1402.69 849.259C1403.1 849.506 1403.62 849.506 1404.03 849.259L1417.24 841.669C1418.08 841.172 1418.63 840.307 1418.63 839.348V823.232C1418.63 822.271 1419.13 821.388 1419.97 820.91L1425.59 817.652C1426.01 817.409 1426.46 817.294 1426.93 817.294C1427.39 817.294 1427.86 817.409 1428.27 817.652L1433.9 820.91C1434.73 821.388 1435.24 822.271 1435.24 823.232V839.348C1435.24 840.307 1435.79 841.177 1436.62 841.669L1449.83 849.259C1450.25 849.506 1450.76 849.506 1451.17 849.259C1451.58 849.023 1451.84 848.578 1451.84 848.098L1451.89 813.589C1451.89 812.621 1451.38 811.747 1450.55 811.268L1428.27 798.411C1427.89 798.189 1427.49 798.115 1427.07 798.098H1426.8H1426.8ZM1626.97 798.411C1626.51 798.41 1626.05 798.528 1625.64 798.768L1603.36 811.625C1602.53 812.105 1602.02 812.985 1602.02 813.946V839.66C1602.02 840.627 1602.56 841.504 1603.4 841.982L1625.5 854.571C1626.32 855.037 1627.31 855.072 1628.14 854.615L1641.53 847.16C1641.95 846.924 1642.24 846.484 1642.24 845.999C1642.25 845.514 1641.99 845.08 1641.57 844.838L1619.16 831.981C1618.74 831.742 1618.45 831.257 1618.45 830.776V822.74C1618.45 822.26 1618.75 821.82 1619.16 821.58L1626.13 817.562C1626.54 817.322 1627.05 817.322 1627.47 817.562L1634.43 821.58C1634.85 821.82 1635.1 822.26 1635.1 822.74V829.08C1635.1 829.561 1635.35 830 1635.77 830.24C1636.19 830.481 1636.69 830.482 1637.11 830.24L1650.46 822.473C1651.29 821.991 1651.8 821.109 1651.8 820.151V813.946C1651.8 812.987 1651.29 812.106 1650.46 811.624L1628.31 798.767C1627.9 798.526 1627.44 798.411 1626.97 798.41V798.411ZM1560.37 817.607C1560.48 817.607 1560.62 817.635 1560.73 817.695L1568.36 822.115C1568.57 822.235 1568.72 822.456 1568.72 822.695V831.535C1568.72 831.775 1568.57 831.996 1568.36 832.115L1560.73 836.535C1560.52 836.653 1560.26 836.653 1560.06 836.535L1552.42 832.115C1552.21 831.995 1552.06 831.775 1552.06 831.535V822.695C1552.06 822.456 1552.21 822.236 1552.42 822.115L1560.06 817.696C1560.16 817.636 1560.25 817.608 1560.37 817.608V817.607Z" fill="#404137"/>
<path fill-rule="evenodd" clip-rule="evenodd" d="M1693.72 797.786C1692.94 797.786 1692.19 797.945 1691.53 798.321L1670.5 810.464C1669.14 811.248 1668.31 812.728 1668.31 814.303V838.544C1668.31 840.119 1669.14 841.598 1670.5 842.383L1675.99 845.553C1678.66 846.868 1679.64 846.848 1680.86 846.848C1684.81 846.848 1687.06 844.451 1687.06 840.285V816.357C1687.06 816.019 1686.77 815.777 1686.44 815.777H1683.8C1683.47 815.777 1683.18 816.019 1683.18 816.357V840.285C1683.18 842.132 1681.26 843.989 1678.14 842.428L1672.42 839.08C1672.22 838.97 1672.06 838.776 1672.06 838.544V814.303C1672.06 814.073 1672.22 813.84 1672.42 813.723L1693.4 801.625C1693.6 801.512 1693.83 801.512 1694.03 801.625L1715.01 813.723C1715.21 813.843 1715.37 814.066 1715.37 814.303V838.544C1715.37 838.776 1715.25 839.013 1715.05 839.125L1694.03 851.223C1693.85 851.33 1693.6 851.33 1693.4 851.223L1688 848.009C1687.84 847.914 1687.62 847.921 1687.47 848.009C1685.97 848.854 1685.69 848.952 1684.3 849.437C1683.95 849.557 1683.43 849.744 1684.47 850.33L1691.53 854.482C1692.2 854.87 1692.95 855.062 1693.72 855.062C1694.49 855.062 1695.23 854.87 1695.9 854.482L1716.93 842.383C1718.29 841.592 1719.12 840.119 1719.12 838.544V814.303C1719.12 812.728 1718.29 811.251 1716.93 810.464L1695.9 798.321C1695.24 797.945 1694.49 797.786 1693.72 797.786V797.786ZM1493.72 798.277C1493.25 798.277 1492.79 798.394 1492.38 798.634L1470.1 811.446C1469.27 811.926 1468.76 812.852 1468.76 813.812V839.526C1468.76 840.488 1469.27 841.367 1470.1 841.848L1492.38 854.705C1493.21 855.186 1494.22 855.186 1495.06 854.705L1517.33 841.848C1518.16 841.367 1518.67 840.488 1518.67 839.526V813.812C1518.67 812.85 1518.17 811.926 1517.33 811.446L1495.06 798.634C1494.64 798.394 1494.18 798.277 1493.72 798.277ZM1724.92 798.411V799.036H1726.66V803.634H1727.38V799.036H1729.16V798.411H1724.92V798.411ZM1729.79 798.411V803.634H1730.46V800.554C1730.46 800.428 1730.46 800.234 1730.46 799.973C1730.45 799.708 1730.46 799.478 1730.46 799.348V799.214L1731.93 803.634H1732.64L1734.16 799.214C1734.16 799.495 1734.12 799.767 1734.12 800.018C1734.11 800.262 1734.12 800.445 1734.12 800.553V803.634H1734.79V798.411H1733.8L1732.29 802.83L1730.81 798.411H1729.79L1729.79 798.411ZM1699.34 815.107C1693.35 815.107 1689.79 817.655 1689.79 821.893C1689.79 826.49 1693.33 827.753 1699.07 828.321C1705.95 828.994 1706.48 830.004 1706.48 831.357C1706.48 833.704 1704.61 834.705 1700.19 834.705C1694.63 834.705 1693.41 833.318 1693 830.554C1692.95 830.257 1692.72 830.018 1692.42 830.018H1689.7C1689.36 830.018 1689.07 830.307 1689.07 830.643C1689.07 834.181 1691 838.366 1700.19 838.366C1706.84 838.366 1710.68 835.754 1710.68 831.179C1710.68 826.642 1707.58 825.425 1701.13 824.571C1694.6 823.709 1693.98 823.286 1693.98 821.759C1693.98 820.498 1694.51 818.813 1699.34 818.813C1703.65 818.813 1705.25 819.743 1705.9 822.652C1705.96 822.925 1706.2 823.143 1706.48 823.143H1709.21C1709.37 823.143 1709.54 823.04 1709.65 822.92C1709.77 822.791 1709.85 822.646 1709.83 822.473C1709.41 817.464 1706.07 815.107 1699.34 815.107V815.107ZM1626.93 821.223C1626.84 821.223 1626.74 821.223 1626.66 821.268L1622.38 823.768C1622.22 823.859 1622.11 824.029 1622.11 824.214V829.125C1622.11 829.31 1622.22 829.479 1622.38 829.571L1626.66 832.026C1626.82 832.119 1626.99 832.119 1627.15 832.026L1631.44 829.571C1631.6 829.48 1631.71 829.31 1631.71 829.125V824.214C1631.71 824.029 1631.6 823.86 1631.44 823.768L1627.15 821.268C1627.07 821.22 1627.02 821.223 1626.93 821.223Z" fill="#83CD29"/>
<path d="M197.79 663.196L202.391 665.852L253.639 577.09L249.038 574.434L197.79 663.196Z" fill="#E535AB"/>
<path d="M299.232 656.104H196.736V661.416H299.232V656.104Z" fill="#E535AB"/>
<path d="M198.765 659.088L250.032 688.688L252.688 684.088L201.421 654.488L198.765 659.088Z" fill="#E535AB"/>
<path d="M243.301 581.943L294.568 611.543L297.224 606.943L245.957 577.343L243.301 581.943Z" fill="#E535AB"/>
<path d="M198.78 606.923L201.436 611.523L252.703 581.923L250.047 577.323L198.78 606.923Z" fill="#E535AB"/>
<path d="M242.374 577.091L293.622 665.853L298.222 663.197L246.974 574.435L242.374 577.091Z" fill="#E535AB"/>
<path d="M206.113 603.4H200.801V662.6H206.113V603.4Z" fill="#E535AB"/>
<path d="M295.201 603.4H289.889V662.6H295.201V603.4Z" fill="#E535AB"/>
<path d="M246.808 682.422L249.128 686.44L293.717 660.696L291.397 656.678L246.808 682.422Z" fill="#E535AB"/>
<path d="M302.241 664.328C299.169 669.672 292.321 671.496 286.977 668.424C281.633 665.352 279.809 658.504 282.881 653.16C285.953 647.816 292.801 645.992 298.145 649.064C303.521 652.168 305.345 658.984 302.241 664.328Z" fill="#E535AB"/>
<path d="M213.089 612.84C210.017 618.184 203.169 620.008 197.825 616.936C192.481 613.864 190.657 607.016 193.729 601.672C196.801 596.328 203.649 594.504 208.993 597.576C214.337 600.68 216.161 607.496 213.089 612.84Z" fill="#E535AB"/>
<path d="M193.761 664.328C190.689 658.984 192.513 652.168 197.857 649.064C203.201 645.992 210.017 647.816 213.121 653.16C216.193 658.504 214.369 665.32 209.025 668.424C203.649 671.496 196.833 669.672 193.761 664.328Z" fill="#E535AB"/>
<path d="M282.912 612.84C279.84 607.496 281.664 600.68 287.008 597.576C292.352 594.504 299.168 596.328 302.272 601.672C305.344 607.016 303.52 613.832 298.176 616.936C292.832 620.008 285.984 618.184 282.912 612.84Z" fill="#E535AB"/>
<path d="M248.001 695.656C241.825 695.656 236.833 690.664 236.833 684.488C236.833 678.312 241.825 673.32 248.001 673.32C254.177 673.32 259.169 678.312 259.169 684.488C259.169 690.632 254.177 695.656 248.001 695.656Z" fill="#E535AB"/>
<path d="M248.001 592.68C241.825 592.68 236.833 587.688 236.833 581.512C236.833 575.336 241.825 570.344 248.001 570.344C254.177 570.344 259.169 575.336 259.169 581.512C259.169 587.688 254.177 592.68 248.001 592.68Z" fill="#E535AB"/>
<g opacity="0.1">
<path d="M856 534H851C848.348 534 845.804 532.946 843.929 531.071C842.054 529.196 841 526.652 841 524V504C841 501.348 842.054 498.804 843.929 496.929C845.804 495.054 848.348 494 851 494H931C933.652 494 936.196 495.054 938.071 496.929C939.946 498.804 941 501.348 941 504V524C941 526.652 939.946 529.196 938.071 531.071C936.196 532.946 933.652 534 931 534H926M856 554H851C848.348 554 845.804 555.054 843.929 556.929C842.054 558.804 841 561.348 841 564V584C841 586.652 842.054 589.196 843.929 591.071C845.804 592.946 848.348 594 851 594H931C933.652 594 936.196 592.946 938.071 591.071C939.946 589.196 941 586.652 941 584V564C941 561.348 939.946 558.804 938.071 556.929C936.196 555.054 933.652 554 931 554H926M861 514H861.05M861 574H861.05" stroke="#743E29" stroke-width="10" stroke-linecap="round" stroke-linejoin="round"/>
<path d="M891 559C899.284 559 906 552.284 906 544C906 535.716 899.284 529 891 529C882.716 529 876 535.716 876 544C876 552.284 882.716 559 891 559Z" stroke="#743E29" stroke-width="10" stroke-linecap="round" stroke-linejoin="round"/>
<path d="M891 524V529M891 559V564M911 544H906M876 544H871M906 529L901.6 533.4M880.4 554.6L876 559M906 559L901.6 554.6M880.4 533.4L876 529" stroke="#743E29" stroke-width="10" stroke-linecap="round" stroke-linejoin="round"/>
</g>
<rect x="756" y="386" width="115" height="134" fill="#FDF2EF"/>
<path d="M861.457 409.495L840.486 388.524C838.236 386.275 835.187 385 832.013 385H780.998C774.374 385.025 769 390.399 769 397.023V501.002C769 507.626 774.374 513 780.998 513H852.984C859.607 513 864.981 507.626 864.981 501.002V417.994C864.981 414.819 863.707 411.745 861.457 409.495ZM852.009 417.019H832.988V397.997L852.009 417.019ZM780.998 501.002V397.023H820.99V423.018C820.99 426.342 823.664 429.016 826.989 429.016H852.984V501.002H780.998Z" fill="url(#paint3_linear_201_271)"/>
<path d="M797.674 464.288C796.594 464.288 795.664 464.036 794.884 463.532C794.116 463.028 793.522 462.344 793.102 461.48C792.694 460.616 792.49 459.644 792.49 458.564V442.976C792.49 441.884 792.694 440.912 793.102 440.06C793.522 439.196 794.116 438.512 794.884 438.008C795.664 437.504 796.594 437.252 797.674 437.252C798.754 437.252 799.678 437.504 800.446 438.008C801.226 438.512 801.82 439.196 802.228 440.06C802.648 440.924 802.858 441.896 802.858 442.976V458.564C802.858 459.644 802.648 460.616 802.228 461.48C801.82 462.344 801.226 463.028 800.446 463.532C799.678 464.036 798.754 464.288 797.674 464.288ZM797.674 460.508C798.154 460.508 798.49 460.31 798.682 459.914C798.874 459.506 798.97 459.056 798.97 458.564V442.976C798.97 442.484 798.868 442.04 798.664 441.644C798.46 441.236 798.13 441.032 797.674 441.032C797.23 441.032 796.9 441.236 796.684 441.644C796.48 442.04 796.378 442.484 796.378 442.976V458.564C796.378 459.056 796.48 459.506 796.684 459.914C796.888 460.31 797.218 460.508 797.674 460.508ZM805.573 464V437.54H809.461C810.937 437.54 812.167 437.864 813.151 438.512C814.147 439.16 814.891 440.078 815.383 441.266C815.875 442.454 816.121 443.852 816.121 445.46C816.121 447.068 815.863 448.454 815.347 449.618C814.831 450.782 814.075 451.694 813.079 452.354C812.095 453.002 810.889 453.356 809.461 453.416V464H805.573ZM809.461 449.456C810.145 449.456 810.685 449.324 811.081 449.06C811.477 448.784 811.759 448.352 811.927 447.764C812.107 447.176 812.197 446.42 812.197 445.496C812.197 444.56 812.107 443.798 811.927 443.21C811.759 442.622 811.471 442.19 811.063 441.914C810.667 441.638 810.133 441.5 809.461 441.5V449.456ZM818.229 464V437.54H827.121V441.536H822.117V448.664H825.717V452.552H822.117V460.004H827.121V464H818.229ZM830.006 464V437.54H833.642L837.242 451.328L837.566 452.552H837.782V437.54H841.346V464H838.07L834.11 450.212L833.786 448.988H833.57V464H830.006Z" fill="url(#paint4_linear_201_271)"/>
<path d="M800.913 493L804.909 466.54H809.661L813.657 493H809.877L809.157 487.6H805.413L804.693 493H800.913ZM805.953 483.496H808.617L807.501 474.604L807.393 473.2H807.177L807.069 474.604L805.953 483.496ZM815.715 493V466.54H819.603C821.079 466.54 822.309 466.864 823.293 467.512C824.289 468.16 825.033 469.078 825.525 470.266C826.017 471.454 826.263 472.852 826.263 474.46C826.263 476.068 826.005 477.454 825.489 478.618C824.973 479.782 824.217 480.694 823.221 481.354C822.237 482.002 821.031 482.356 819.603 482.416V493H815.715ZM819.603 478.456C820.287 478.456 820.827 478.324 821.223 478.06C821.619 477.784 821.901 477.352 822.069 476.764C822.249 476.176 822.339 475.42 822.339 474.496C822.339 473.56 822.249 472.798 822.069 472.21C821.901 471.622 821.613 471.19 821.205 470.914C820.809 470.638 820.275 470.5 819.603 470.5V478.456ZM828.372 493V466.54H832.26V493H828.372Z" fill="url(#paint5_linear_201_271)"/>
<g opacity="0.1">
<path d="M892.768 274.232C891.791 273.256 890.209 273.256 889.232 274.232L873.322 290.142C872.346 291.118 872.346 292.701 873.322 293.678C874.299 294.654 875.882 294.654 876.858 293.678L891 279.536L905.142 293.678C906.118 294.654 907.701 294.654 908.678 293.678C909.654 292.701 909.654 291.118 908.678 290.142L892.768 274.232ZM893.5 416L893.5 276L888.5 276L888.5 416L893.5 416Z" fill="#743E29"/>
<path d="M848.333 133C848.333 129.464 849.738 126.072 852.238 123.572C854.739 121.071 858.13 119.667 861.666 119.667H923C924.751 119.667 926.484 120.011 928.102 120.681C929.72 121.352 931.19 122.334 932.428 123.572C933.666 124.81 934.648 126.28 935.318 127.897C935.988 129.515 936.333 131.249 936.333 133V209C936.333 210.061 935.912 211.078 935.161 211.828C934.411 212.578 933.394 213 932.333 213H856.333C856.333 214.414 856.895 215.771 857.895 216.771C858.895 217.771 860.252 218.333 861.666 218.333H932.333C933.394 218.333 934.411 218.755 935.161 219.505C935.912 220.255 936.333 221.272 936.333 222.333C936.333 223.394 935.912 224.411 935.161 225.162C934.411 225.912 933.394 226.333 932.333 226.333H861.666C858.13 226.333 854.739 224.928 852.238 222.428C849.738 219.927 848.333 216.536 848.333 213V133ZM892.333 151.667C893.747 151.667 895.104 151.105 896.104 150.104C897.104 149.104 897.666 147.748 897.666 146.333C897.666 144.919 897.104 143.562 896.104 142.562C895.104 141.562 893.747 141 892.333 141C890.919 141 889.562 141.562 888.562 142.562C887.562 143.562 887 144.919 887 146.333C887 147.748 887.562 149.104 888.562 150.104C889.562 151.105 890.919 151.667 892.333 151.667V151.667ZM888.333 161V187.667C888.333 188.727 888.754 189.745 889.505 190.495C890.255 191.245 891.272 191.667 892.333 191.667C893.394 191.667 894.411 191.245 895.161 190.495C895.912 189.745 896.333 188.727 896.333 187.667V161C896.333 159.939 895.912 158.922 895.161 158.171C894.411 157.421 893.394 157 892.333 157C891.272 157 890.255 157.421 889.505 158.171C888.754 158.922 888.333 159.939 888.333 161Z" fill="#743E29"/>
</g>
<defs>
<linearGradient id="paint0_linear_201_271" x1="1382.05" y1="309.897" x2="1442.52" y2="249.422" gradientUnits="userSpaceOnUse">
<stop offset="0.09677" stop-color="#0095D5"/>
<stop offset="0.3007" stop-color="#238AD9"/>
<stop offset="0.6211" stop-color="#557BDE"/>
<stop offset="0.8643" stop-color="#7472E2"/>
<stop offset="1" stop-color="#806EE3"/>
</linearGradient>
<linearGradient id="paint1_linear_201_271" x1="1356.98" y1="177.726" x2="1392.1" y2="142.603" gradientUnits="userSpaceOnUse">
<stop offset="0.1183" stop-color="#0095D5"/>
<stop offset="0.4178" stop-color="#3C83DC"/>
<stop offset="0.6962" stop-color="#6D74E1"/>
<stop offset="0.8333" stop-color="#806EE3"/>
</linearGradient>
<linearGradient id="paint2_linear_201_271" x1="1326.45" y1="269.683" x2="1445.56" y2="150.572" gradientUnits="userSpaceOnUse">
<stop offset="0.1075" stop-color="#C757BC"/>
<stop offset="0.2138" stop-color="#D0609A"/>
<stop offset="0.4254" stop-color="#E1725C"/>
<stop offset="0.6048" stop-color="#EE7E2F"/>
<stop offset="0.743" stop-color="#F58613"/>
<stop offset="0.8232" stop-color="#F88909"/>
</linearGradient>
<linearGradient id="paint3_linear_201_271" x1="769" y1="449" x2="864.981" y2="449" gradientUnits="userSpaceOnUse">
<stop stop-color="#0095D5"/>
<stop offset="1" stop-color="#3178C6"/>
</linearGradient>
<linearGradient id="paint4_linear_201_271" x1="778" y1="451" x2="856" y2="451" gradientUnits="userSpaceOnUse">
<stop stop-color="#0095D5"/>
<stop offset="1" stop-color="#3178C6"/>
</linearGradient>
<linearGradient id="paint5_linear_201_271" x1="792" y1="480" x2="842" y2="480" gradientUnits="userSpaceOnUse">
<stop stop-color="#0095D5"/>
<stop offset="1" stop-color="#3178C6"/>
</linearGradient>
<clipPath id="clip0_201_271">
<rect width="128" height="128" fill="white" transform="translate(1426 476)"/>
</clipPath>
<clipPath id="clip1_201_271">
<rect width="128" height="128" fill="white" transform="translate(1348 152)"/>
</clipPath>
</defs>
</svg>
