<svg version="1.0" xmlns="http://www.w3.org/2000/svg" viewBox="0 0 752 752" fill="#7e396c">
    <path
        d="M372.4 168.9c-5 1.2-9.9 4.7-11.9 8.5-1.7 3.1-2.3 3.4-4.5 2.8-1.4-.4-4.9-.7-7.8-.6-6.4.1-12.5 3.9-15.9 9.9-2.2 3.9-2.3 4.6-2.3 38.1v34.1l-6.2-3.1c-5.3-2.7-7.3-3.1-13.8-3.1-12.3.1-23 6.3-23 13.4 0 2.5 16.2 47.3 23.5 65.1 4.6 11.1 11.2 23.2 17 30.9 5.4 7.1 5.5 7.4 3.8 9.3-1.7 1.9-1.8 5.6-2.1 53.2-.3 57.1-.4 55.6 6.7 60.3l3.4 2.3h46.1c44.2 0 46.2-.1 49.4-2 1.8-1.1 4.1-3.4 5.2-5.2 1.9-3.2 2-5.2 2-54.4 0-48.2-.1-51.3-1.8-53.5-1.8-2.2-1.8-2.4 1.5-10.3 4.9-11.5 8-24.7 9.2-38.3 1.4-15.4 1.4-89.4 0-95.3-2.4-10.4-13-17.3-23.2-15l-3.7.8v-8.7c0-10.7-2.3-16.1-8.8-20.6-3.9-2.7-5.2-3-11.7-3-7.2 0-7.4-.1-7.9-2.7-1.6-8.2-14.1-15.1-23.2-12.9zM382 183c1.9 1.9 2 3.3 2 54.9 0 49.5.1 53 1.8 55.1 2.4 3 7 3 9.4 0 1.7-2.1 1.8-5.3 1.8-47.5v-45.4l2.6-2c1.5-1.2 3.3-2.1 4-2.1 2.6 0 6.2 2.3 7.3 4.7.7 1.6 1.1 16.4 1.1 46.6 0 24.3.4 44.7.8 45.3.4.6 1.7 1.6 3 2.3 2.3 1.2 5.8.1 7.4-2.3.4-.6.8-14.2.8-30.2 0-27.9.1-29.2 2.1-31.8 2.6-3.3 7.9-3.6 10.9-.6 1.9 1.9 2 3.3 2 48.9 0 37.4-.3 48.6-1.5 55.7-1.8 10.6-4.5 19.5-8.7 28.6l-3.1 6.8-39.1-.1h-39.1l-5.5-6.5c-7-8.3-13-18.1-18-29.4-6.9-15.8-24.2-63.2-23.3-64 .4-.5 2.7-1.3 5-1.8 6.5-1.5 12.8.3 17.3 4.8 3.6 3.6 4.4 5.5 6.5 16.8.4 1.8 1.3 3.9 2.2 4.7 1.9 2 6.2 1.9 8.5-.2 1.7-1.5 1.8-4.4 1.8-49.7.1-38.1.3-48.5 1.4-49.8 3-4 9.2-3.9 12.2 0 1.1 1.3 1.3 11.8 1.4 49.3 0 46 .1 47.6 2 49.4 1 .9 3.1 1.8 4.5 1.7 5.6 0 5.4 2.2 5.7-56.4l.3-54 2.4-1.9c3-2.5 7.6-2.4 10.1.1zm-21.8 212.1c2.6 1.4 4.9 6.9 4.1 10-.8 3.4-2.3 5-6 6.6-2.8 1.1-3.8 1.1-6.7-.1-4-1.7-5.6-4.2-5.6-8.9 0-6.8 7.8-11 14.2-7.6zM232.2 334c-1.8 1.1-4 3.3-5 4.9-1.5 2.4-2 2.7-4.2 1.9-3.8-1.4-10.6 0-14 2.9-5.9 4.9-6 5.7-6 35.3 0 15-.3 27-.7 26.8-6.9-3.5-9.5-4.3-15.3-4.3-8.5 0-15.6 3.3-17.6 8.1-1.4 3.3-1.1 4.2 9.2 31.6 10.8 29 14.4 36.6 22.1 47.6 4.2 5.9 4.3 6.3 2.9 8.4-1.4 1.9-1.6 7.4-1.6 39.1 0 40.1.2 41.6 5.6 45.2 2.7 1.9 5.1 2 37.9 2.3 39.3.3 41.3.1 45.2-5.7 2.3-3.4 2.3-3.5 2.3-41 0-31.9-.2-38-1.5-39.8-1.4-2-1.2-2.8 1.6-9.9 6.3-15.7 6.9-21.4 6.9-66.2 0-43.2 0-43.1-5.2-47.8-3.2-3-9-4.6-13.2-3.8l-3.6.6V363c0-8.6-1.6-12.6-6.7-16-2.8-1.9-4.9-2.5-9.2-2.5-5.6 0-5.6 0-7.6-4-1.1-2.2-3.5-5-5.4-6.2-4.4-3-12.3-3.1-16.9-.3zm13 9.8c1 1.2 1.4 11.4 1.6 44.9l.3 43.4 2.2.8c2.4.9 4.8.4 5.9-1.3.4-.6.8-16.9.8-36.3 0-24.7.3-36 1.2-37.8 2-4.4 8.9-4.6 10.5-.2.4 1.2.8 18.3.8 37.9 0 26 .3 36 1.2 36.9 1.6 1.6 6.3 1.5 7.4-.2.5-.8.9-11.8.9-24.5 0-21.9.1-23.3 2.1-25.8 2.4-3.1 5.9-3.4 8.3-.7 1.6 1.7 1.7 5.3 1.4 44.2-.4 46.9-.5 47.1-7.7 62.5l-3 6.4h-60.8l-4.6-4.9c-5.5-5.8-11-14.2-14.4-22-6.3-14.1-20.4-53.4-19.5-54.3.6-.6 3-1.3 5.5-1.5 8.8-1 14.7 4.2 16.7 14.7 1.2 6.2 2.4 8 5.6 8 5.2 0 5.4-1.3 5.4-42.4 0-33.9.2-38.1 1.7-39.8 2.3-2.6 5.8-2.2 8.2.8 2 2.6 2.1 3.7 2.1 40.5 0 37 0 37.8 2.1 39.2 2.1 1.6 5.4 1.2 6.7-.7.4-.6.9-20.7 1.2-44.6l.5-43.4 2.3-1.2c2.7-1.4 5.6-.8 7.4 1.4zm-17 174.1c3 2.9 3.2 6.5.5 9.6-4.7 5.6-12.7 2.7-12.7-4.5 0-6.9 7.2-10 12.2-5.1zM515 334.4c-2 1.3-4.1 3.5-4.9 4.9-1.2 2.2-1.6 2.4-4.7 1.4-4-1.2-9.7.2-13.9 3.5-5.1 4-5.5 6.4-5.5 35.3 0 14.6-.2 26.5-.4 26.5-.3 0-2-.9-3.9-2-10.5-6.2-29.7-.9-29.7 8.2 0 3.9 18.1 52.1 23.6 62.8 2.4 4.7 6.2 10.9 8.4 13.8l4.1 5.4-1.6 4.2c-1.4 3.6-1.6 9.1-1.3 40.6.3 33.2.5 36.7 2.1 39.1 3.5 5.2 5.2 5.4 44.4 5.4 35.1 0 36.2-.1 39-2.1 5.3-3.9 5.3-4.1 5.3-44.8 0-32.5-.2-38.2-1.5-39.6-1.4-1.5-1.3-2.3 1-7.3 7.1-16.1 8.7-31.3 8.3-76.3l-.3-33.1-2.5-3.5c-3.4-5.1-7.5-7.2-13.6-7.2h-5.2l-.4-7.2c-.6-8.9-2.8-12.9-8.8-16.2-3.6-1.9-5.5-2.3-9.2-1.8-4.5.5-4.7.4-5.3-2.3-.6-2.9-4.4-7-8.2-9-3.9-2-11.5-1.3-15.3 1.3zm12.5 9.1 2.5 2.4v42.5c0 42.1 0 42.5 2.1 44 1.2.8 2.9 1.2 3.8.9 4-1.4 4.1-2.4 4.1-39.7 0-32 .2-36.1 1.7-37.8 2.1-2.4 5.8-2.3 8.3.2 1.9 1.9 2 3.3 2 38.4 0 36 0 36.5 2.1 38 1.2.8 2.9 1.2 3.8.9 3.9-1.4 4.1-3 4.1-27.4 0-23.4 0-23.8 2.2-25.3 3.2-2.3 5.4-2 7.7 1 2 2.6 2.1 3.8 2.1 36.8 0 18.8-.5 38-1.1 42.6-1.1 9-5.8 24.7-9 29.9L562 494l-30.7-.2-30.7-.3-5.7-6.8c-3.2-3.7-7.6-10.4-9.9-14.8-4.7-9.1-23.2-57.7-22.5-59 .3-.4 2.1-1.1 4-1.5 9.5-1.7 16.5 3.3 18.4 13.1.6 3.3 1.5 6.7 2 7.5 1.1 2.1 5.5 2.4 7.5.5 1.4-1.5 1.6-6 1.6-40.5v-38.9l2.2-1.5c3-2.1 5.4-2 7.8.4 1.9 1.9 2 3.3 2 40.4 0 38 0 38.5 2.1 40 1.2.8 2.9 1.2 3.8.9 4-1.4 4.1-2.1 4.1-45.8 0-43.5.1-44.4 4-45.8 2.6-.9 3-.8 5.5 1.8zm-15.7 175.1c2.5 2.8 2.7 4.2 1.1 7.8-1.7 3.6-6 5.1-9.6 3.4-5.4-2.6-5.6-10.8-.3-13.5 3.1-1.6 5.9-.8 8.8 2.3z" />
</svg>