<svg width="1080" height="1080" viewBox="0 0 1080 1080" fill="none" xmlns="http://www.w3.org/2000/svg">
<rect width="1080" height="1080" fill="#fef9f6"/>
<g clip-path="url(#clip0_109_1658)">
<rect width="1080" height="1080" fill="#E5E5E5"/>
<path d="M900 180H180V900H900V180Z" fill="#fef9f6"/>
<path d="M544.667 260H406.667V398H544.667V260Z" fill="#fbdfd4"/>
<path d="M874 589.333H406.667V1038H874V589.333Z" fill="#fbdfd4"/>
<path fill-rule="evenodd" clip-rule="evenodd" d="M440 623.333C447.364 623.333 453.333 617.364 453.333 610C453.333 602.636 447.364 596.667 440 596.667C432.636 596.667 426.667 602.636 426.667 610C426.667 617.364 432.636 623.333 440 623.333ZM443.167 606.667C443.167 608.508 441.675 610 439.833 610C437.992 610 436.5 608.508 436.5 606.667C436.5 604.825 437.992 603.333 439.833 603.333C441.675 603.333 443.167 604.825 443.167 606.667ZM441.732 610.833H442.167C444.099 610.833 445.667 612.401 445.667 614.333V615.417C445.667 616.107 445.107 616.667 444.417 616.667H435.25C434.56 616.667 434 616.107 434 615.417V614.333C434 612.401 435.568 610.833 437.5 610.833H437.935C438.515 611.099 439.156 611.25 439.833 611.25C440.511 611.25 441.153 611.099 441.732 610.833Z" fill="#743e29"/>
<path d="M594 606.667H474.667C473.562 606.667 472.667 607.562 472.667 608.667V611.333C472.667 612.438 473.562 613.333 474.667 613.333H594C595.105 613.333 596 612.438 596 611.333V608.667C596 607.562 595.105 606.667 594 606.667Z" fill="#f2a587"/>
<path d="M694 606.667H624.667C623.562 606.667 622.667 607.562 622.667 608.667V611.333C622.667 612.438 623.562 613.333 624.667 613.333H694C695.105 613.333 696 612.438 696 611.333V608.667C696 607.562 695.105 606.667 694 606.667Z" fill="#f2a587"/>
<path d="M794 606.667H724.667C723.562 606.667 722.667 607.562 722.667 608.667V611.333C722.667 612.438 723.562 613.333 724.667 613.333H794C795.105 613.333 796 612.438 796 611.333V608.667C796 607.562 795.105 606.667 794 606.667Z" fill="#f2a587"/>
<path d="M821.865 606.957L823.627 608.719C823.701 608.793 823.701 608.914 823.627 608.989L819.361 613.255L817.547 613.456C817.305 613.483 817.1 613.278 817.127 613.036L817.329 611.223L821.595 606.957C821.669 606.883 821.791 606.883 821.865 606.957ZM825.029 606.509L824.076 605.556C823.779 605.259 823.297 605.259 822.998 605.556L822.306 606.247C822.232 606.322 822.232 606.443 822.306 606.517L824.069 608.279C824.143 608.353 824.264 608.353 824.338 608.279L825.029 607.588C825.327 607.289 825.327 606.806 825.029 606.509ZM821.501 612.095V614.083H815.25V607.832H819.739C819.802 607.832 819.861 607.807 819.905 607.763L820.687 606.982C820.835 606.833 820.73 606.581 820.521 606.581H814.938C814.42 606.581 814 607.001 814 607.519V614.395C814 614.913 814.42 615.333 814.938 615.333H821.814C822.332 615.333 822.752 614.913 822.752 614.395V611.313C822.752 611.104 822.5 611.001 822.351 611.147L821.57 611.929C821.527 611.973 821.501 612.032 821.501 612.095Z" fill="#743e29"/>
<path d="M847.107 605.959H844.761L844.577 605.593C844.538 605.515 844.478 605.449 844.404 605.403C844.329 605.357 844.244 605.333 844.157 605.333H841.925C841.837 605.333 841.752 605.357 841.678 605.403C841.604 605.449 841.545 605.515 841.507 605.593L841.323 605.959H838.979C838.896 605.959 838.817 605.991 838.758 606.05C838.699 606.109 838.667 606.188 838.667 606.271V606.896C838.667 606.979 838.699 607.058 838.758 607.117C838.817 607.175 838.896 607.209 838.979 607.209H847.107C847.187 607.209 847.267 607.175 847.327 607.117C847.387 607.058 847.413 606.979 847.413 606.896V606.271C847.413 606.188 847.387 606.109 847.327 606.05C847.267 605.991 847.187 605.959 847.107 605.959ZM839.706 614.455C839.721 614.693 839.826 614.916 839.999 615.079C840.173 615.243 840.403 615.333 840.641 615.333H845.442C845.681 615.333 845.91 615.243 846.084 615.079C846.257 614.916 846.363 614.693 846.377 614.455L846.793 607.833H839.291L839.706 614.455Z" fill="#743e29"/>
<path fill-rule="evenodd" clip-rule="evenodd" d="M440 786C447.364 786 453.333 780.031 453.333 772.667C453.333 765.303 447.364 759.333 440 759.333C432.636 759.333 426.667 765.303 426.667 772.667C426.667 780.031 432.636 786 440 786ZM443.167 769.333C443.167 771.175 441.675 772.667 439.833 772.667C437.992 772.667 436.5 771.175 436.5 769.333C436.5 767.492 437.992 766 439.833 766C441.675 766 443.167 767.492 443.167 769.333ZM441.732 773.5H442.167C444.099 773.5 445.667 775.068 445.667 777V778.083C445.667 778.773 445.107 779.333 444.417 779.333H435.25C434.56 779.333 434 778.773 434 778.083V777C434 775.068 435.568 773.5 437.5 773.5H437.935C438.515 773.765 439.156 773.917 439.833 773.917C440.511 773.917 441.153 773.765 441.732 773.5Z" fill="#743e29"/>
<path d="M594 769.333H474.667C473.562 769.333 472.667 770.229 472.667 771.333V774C472.667 775.105 473.562 776 474.667 776H594C595.105 776 596 775.105 596 774V771.333C596 770.229 595.105 769.333 594 769.333Z" fill="#f2a587"/>
<path d="M694 769.333H624.667C623.562 769.333 622.667 770.229 622.667 771.333V774C622.667 775.105 623.562 776 624.667 776H694C695.105 776 696 775.105 696 774V771.333C696 770.229 695.105 769.333 694 769.333Z" fill="#f2a587"/>
<path d="M794 769.333H724.667C723.562 769.333 722.667 770.229 722.667 771.333V774C722.667 775.105 723.562 776 724.667 776H794C795.105 776 796 775.105 796 774V771.333C796 770.229 795.105 769.333 794 769.333Z" fill="#f2a587"/>
<path d="M821.865 769.623L823.627 771.385C823.701 771.459 823.701 771.581 823.627 771.655L819.361 775.921L817.547 776.123C817.305 776.15 817.1 775.945 817.127 775.703L817.329 773.89L821.595 769.623C821.669 769.549 821.791 769.549 821.865 769.623ZM825.029 769.176L824.076 768.223C823.779 767.926 823.297 767.926 822.998 768.223L822.306 768.914C822.232 768.989 822.232 769.109 822.306 769.184L824.069 770.946C824.143 771.02 824.264 771.02 824.338 770.946L825.029 770.255C825.327 769.955 825.327 769.473 825.029 769.176ZM821.501 774.761V776.75H815.25V770.499H819.739C819.802 770.499 819.861 770.473 819.905 770.43L820.687 769.649C820.835 769.5 820.73 769.248 820.521 769.248H814.938C814.42 769.248 814 769.668 814 770.186V777.062C814 777.58 814.42 778 814.938 778H821.814C822.332 778 822.752 777.58 822.752 777.062V773.98C822.752 773.771 822.5 773.667 822.351 773.813L821.57 774.595C821.527 774.64 821.501 774.699 821.501 774.761Z" fill="#743e29"/>
<path d="M847.107 768.625H844.761L844.577 768.26C844.538 768.182 844.478 768.116 844.404 768.07C844.329 768.024 844.244 768 844.157 768H841.925C841.837 768 841.752 768.024 841.678 768.07C841.604 768.116 841.545 768.181 841.507 768.26L841.323 768.625H838.979C838.896 768.625 838.817 768.658 838.758 768.717C838.699 768.775 838.667 768.855 838.667 768.937V769.563C838.667 769.645 838.699 769.725 838.758 769.783C838.817 769.842 838.896 769.875 838.979 769.875H847.107C847.187 769.875 847.267 769.842 847.327 769.783C847.387 769.725 847.413 769.645 847.413 769.563V768.937C847.413 768.855 847.387 768.775 847.327 768.717C847.267 768.658 847.187 768.625 847.107 768.625ZM839.706 777.121C839.721 777.359 839.826 777.583 839.999 777.746C840.173 777.909 840.403 778 840.641 778H845.442C845.681 778 845.91 777.909 846.084 777.746C846.257 777.583 846.363 777.359 846.377 777.121L846.793 770.5H839.291L839.706 777.121Z" fill="#743e29"/>
<path fill-rule="evenodd" clip-rule="evenodd" d="M440 703.333C447.364 703.333 453.333 697.364 453.333 690C453.333 682.636 447.364 676.667 440 676.667C432.636 676.667 426.667 682.636 426.667 690C426.667 697.364 432.636 703.333 440 703.333ZM443.167 686.667C443.167 688.508 441.675 690 439.833 690C437.992 690 436.5 688.508 436.5 686.667C436.5 684.825 437.992 683.333 439.833 683.333C441.675 683.333 443.167 684.825 443.167 686.667ZM441.732 690.833H442.167C444.099 690.833 445.667 692.401 445.667 694.333V695.417C445.667 696.107 445.107 696.667 444.417 696.667H435.25C434.56 696.667 434 696.107 434 695.417V694.333C434 692.401 435.568 690.833 437.5 690.833H437.935C438.515 691.099 439.156 691.25 439.833 691.25C440.511 691.25 441.153 691.099 441.732 690.833Z" fill="#743e29"/>
<path d="M594 686.667H474.667C473.562 686.667 472.667 687.562 472.667 688.667V691.333C472.667 692.438 473.562 693.333 474.667 693.333H594C595.105 693.333 596 692.438 596 691.333V688.667C596 687.562 595.105 686.667 594 686.667Z" fill="#f2a587"/>
<path d="M694 686.667H624.667C623.562 686.667 622.667 687.562 622.667 688.667V691.333C622.667 692.438 623.562 693.333 624.667 693.333H694C695.105 693.333 696 692.438 696 691.333V688.667C696 687.562 695.105 686.667 694 686.667Z" fill="#f2a587"/>
<path d="M794 686.667H724.667C723.562 686.667 722.667 687.562 722.667 688.667V691.333C722.667 692.438 723.562 693.333 724.667 693.333H794C795.105 693.333 796 692.438 796 691.333V688.667C796 687.562 795.105 686.667 794 686.667Z" fill="#f2a587"/>
<path d="M821.865 686.957L823.627 688.719C823.701 688.793 823.701 688.914 823.627 688.989L819.361 693.255L817.547 693.456C817.305 693.483 817.1 693.278 817.127 693.036L817.329 691.223L821.595 686.957C821.669 686.883 821.791 686.883 821.865 686.957ZM825.029 686.509L824.076 685.556C823.779 685.259 823.297 685.259 822.998 685.556L822.306 686.247C822.232 686.322 822.232 686.443 822.306 686.517L824.069 688.279C824.143 688.353 824.264 688.353 824.338 688.279L825.029 687.588C825.327 687.289 825.327 686.806 825.029 686.509ZM821.501 692.095V694.083H815.25V687.832H819.739C819.802 687.832 819.861 687.807 819.905 687.763L820.687 686.982C820.835 686.833 820.73 686.581 820.521 686.581H814.938C814.42 686.581 814 687.001 814 687.519V694.395C814 694.913 814.42 695.333 814.938 695.333H821.814C822.332 695.333 822.752 694.913 822.752 694.395V691.313C822.752 691.104 822.5 691.001 822.351 691.147L821.57 691.929C821.527 691.973 821.501 692.032 821.501 692.095Z" fill="#743e29"/>
<path d="M847.107 685.959H844.761L844.577 685.593C844.538 685.515 844.478 685.449 844.404 685.403C844.329 685.357 844.244 685.333 844.157 685.333H841.925C841.837 685.333 841.752 685.357 841.678 685.403C841.604 685.449 841.545 685.515 841.507 685.593L841.323 685.959H838.979C838.896 685.959 838.817 685.991 838.758 686.05C838.699 686.109 838.667 686.188 838.667 686.271V686.896C838.667 686.979 838.699 687.058 838.758 687.117C838.817 687.175 838.896 687.209 838.979 687.209H847.107C847.187 687.209 847.267 687.175 847.327 687.117C847.387 687.058 847.413 686.979 847.413 686.896V686.271C847.413 686.188 847.387 686.109 847.327 686.05C847.267 685.991 847.187 685.959 847.107 685.959ZM839.706 694.455C839.721 694.693 839.826 694.916 839.999 695.079C840.173 695.243 840.403 695.333 840.641 695.333H845.442C845.681 695.333 845.91 695.243 846.084 695.079C846.257 694.916 846.363 694.693 846.377 694.455L846.793 687.833H839.291L839.706 694.455Z" fill="#743e29"/>
<path fill-rule="evenodd" clip-rule="evenodd" d="M440 866C447.364 866 453.333 860.033 453.333 852.667C453.333 845.303 447.364 839.333 440 839.333C432.636 839.333 426.667 845.303 426.667 852.667C426.667 860.033 432.636 866 440 866ZM443.167 849.333C443.167 851.173 441.675 852.667 439.833 852.667C437.992 852.667 436.5 851.173 436.5 849.333C436.5 847.493 437.992 846 439.833 846C441.675 846 443.167 847.493 443.167 849.333ZM441.732 853.5H442.167C444.099 853.5 445.667 855.067 445.667 857V858.08C445.667 858.773 445.107 859.333 444.417 859.333H435.25C434.56 859.333 434 858.773 434 858.08V857C434 855.067 435.568 853.5 437.5 853.5H437.935C438.515 853.767 439.156 853.92 439.833 853.92C440.511 853.92 441.153 853.767 441.732 853.5Z" fill="#743e29"/>
<path d="M594 849.333H474.667C473.562 849.333 472.667 850.229 472.667 851.333V854C472.667 855.105 473.562 856 474.667 856H594C595.105 856 596 855.105 596 854V851.333C596 850.229 595.105 849.333 594 849.333Z" fill="#f2a587"/>
<path d="M694 849.333H624.667C623.562 849.333 622.667 850.229 622.667 851.333V854C622.667 855.105 623.562 856 624.667 856H694C695.105 856 696 855.105 696 854V851.333C696 850.229 695.105 849.333 694 849.333Z" fill="#f2a587"/>
<path d="M794 849.333H724.667C723.562 849.333 722.667 850.229 722.667 851.333V854C722.667 855.105 723.562 856 724.667 856H794C795.105 856 796 855.105 796 854V851.333C796 850.229 795.105 849.333 794 849.333Z" fill="#f2a587"/>
<path d="M821.865 849.627L823.627 851.387C823.701 851.46 823.701 851.58 823.627 851.653L819.361 855.92L817.547 856.12C817.305 856.153 817.1 855.947 817.127 855.7L817.329 853.887L821.595 849.627C821.669 849.547 821.791 849.547 821.865 849.627ZM825.029 849.173L824.076 848.22C823.779 847.927 823.297 847.927 822.998 848.22L822.306 848.913C822.232 848.987 822.232 849.107 822.306 849.187L824.069 850.947C824.143 851.02 824.264 851.02 824.338 850.947L825.029 850.253C825.327 849.953 825.327 849.473 825.029 849.173ZM821.501 854.76V856.747H815.25V850.5H819.739C819.802 850.5 819.861 850.473 819.905 850.433L820.687 849.647C820.835 849.5 820.73 849.247 820.521 849.247H814.938C814.42 849.247 814 849.667 814 850.187V857.06C814 857.58 814.42 858 814.938 858H821.814C822.332 858 822.752 857.58 822.752 857.06V853.98C822.752 853.773 822.5 853.667 822.351 853.813L821.57 854.593C821.527 854.64 821.501 854.7 821.501 854.76Z" fill="#743e29"/>
<path d="M847.107 848.627H844.761L844.577 848.26C844.538 848.18 844.478 848.113 844.404 848.073C844.329 848.027 844.244 848 844.157 848H841.925C841.837 848 841.752 848.027 841.678 848.067C841.604 848.113 841.545 848.18 841.507 848.26L841.323 848.627H838.979C838.896 848.627 838.817 848.66 838.758 848.713C838.699 848.773 838.667 848.853 838.667 848.94V849.56C838.667 849.647 838.699 849.727 838.758 849.787C838.817 849.84 838.896 849.873 838.979 849.873H847.107C847.187 849.873 847.267 849.84 847.327 849.787C847.387 849.727 847.413 849.647 847.413 849.56V848.94C847.413 848.853 847.387 848.773 847.327 848.713C847.267 848.66 847.187 848.627 847.107 848.627ZM839.706 857.12C839.721 857.36 839.826 857.58 839.999 857.747C840.173 857.907 840.403 858 840.641 858H845.442C845.681 858 845.91 857.907 846.084 857.747C846.257 857.58 846.363 857.36 846.377 857.12L846.793 850.5H839.291L839.706 857.12Z" fill="#743e29"/>
<path fill-rule="evenodd" clip-rule="evenodd" d="M440 663.333C447.364 663.333 453.333 657.364 453.333 650C453.333 642.636 447.364 636.667 440 636.667C432.636 636.667 426.667 642.636 426.667 650C426.667 657.364 432.636 663.333 440 663.333ZM443.167 646.667C443.167 648.508 441.675 650 439.833 650C437.992 650 436.5 648.508 436.5 646.667C436.5 644.825 437.992 643.333 439.833 643.333C441.675 643.333 443.167 644.825 443.167 646.667ZM441.732 650.833H442.167C444.099 650.833 445.667 652.401 445.667 654.333V655.417C445.667 656.107 445.107 656.667 444.417 656.667H435.25C434.56 656.667 434 656.107 434 655.417V654.333C434 652.401 435.568 650.833 437.5 650.833H437.935C438.515 651.099 439.156 651.25 439.833 651.25C440.511 651.25 441.153 651.099 441.732 650.833Z" fill="#743e29"/>
<path d="M594 646.667H474.667C473.562 646.667 472.667 647.562 472.667 648.667V651.333C472.667 652.438 473.562 653.333 474.667 653.333H594C595.105 653.333 596 652.438 596 651.333V648.667C596 647.562 595.105 646.667 594 646.667Z" fill="#f2a587"/>
<path d="M694 646.667H624.667C623.562 646.667 622.667 647.562 622.667 648.667V651.333C622.667 652.438 623.562 653.333 624.667 653.333H694C695.105 653.333 696 652.438 696 651.333V648.667C696 647.562 695.105 646.667 694 646.667Z" fill="#f2a587"/>
<path d="M794 646.667H724.667C723.562 646.667 722.667 647.562 722.667 648.667V651.333C722.667 652.438 723.562 653.333 724.667 653.333H794C795.105 653.333 796 652.438 796 651.333V648.667C796 647.562 795.105 646.667 794 646.667Z" fill="#f2a587"/>
<path d="M821.865 646.957L823.627 648.719C823.701 648.793 823.701 648.914 823.627 648.989L819.361 653.255L817.547 653.456C817.305 653.483 817.1 653.278 817.127 653.036L817.329 651.223L821.595 646.957C821.669 646.883 821.791 646.883 821.865 646.957ZM825.029 646.509L824.076 645.556C823.779 645.259 823.297 645.259 822.998 645.556L822.306 646.247C822.232 646.322 822.232 646.443 822.306 646.517L824.069 648.279C824.143 648.353 824.264 648.353 824.338 648.279L825.029 647.588C825.327 647.289 825.327 646.806 825.029 646.509ZM821.501 652.095V654.083H815.25V647.832H819.739C819.802 647.832 819.861 647.807 819.905 647.763L820.687 646.982C820.835 646.833 820.73 646.581 820.521 646.581H814.938C814.42 646.581 814 647.001 814 647.519V654.395C814 654.913 814.42 655.333 814.938 655.333H821.814C822.332 655.333 822.752 654.913 822.752 654.395V651.313C822.752 651.104 822.5 651.001 822.351 651.147L821.57 651.929C821.527 651.973 821.501 652.032 821.501 652.095Z" fill="#743e29"/>
<path d="M847.107 645.959H844.761L844.577 645.593C844.538 645.515 844.478 645.449 844.404 645.403C844.329 645.357 844.244 645.333 844.157 645.333H841.925C841.837 645.333 841.752 645.357 841.678 645.403C841.604 645.449 841.545 645.515 841.507 645.593L841.323 645.959H838.979C838.896 645.959 838.817 645.991 838.758 646.05C838.699 646.109 838.667 646.188 838.667 646.271V646.896C838.667 646.979 838.699 647.058 838.758 647.117C838.817 647.175 838.896 647.209 838.979 647.209H847.107C847.187 647.209 847.267 647.175 847.327 647.117C847.387 647.058 847.413 646.979 847.413 646.896V646.271C847.413 646.188 847.387 646.109 847.327 646.05C847.267 645.991 847.187 645.959 847.107 645.959ZM839.706 654.455C839.721 654.693 839.826 654.916 839.999 655.079C840.173 655.243 840.403 655.333 840.641 655.333H845.442C845.681 655.333 845.91 655.243 846.084 655.079C846.257 654.916 846.363 654.693 846.377 654.455L846.793 647.833H839.291L839.706 654.455Z" fill="#743e29"/>
<path fill-rule="evenodd" clip-rule="evenodd" d="M440 826C447.364 826 453.333 820.031 453.333 812.667C453.333 805.303 447.364 799.333 440 799.333C432.636 799.333 426.667 805.303 426.667 812.667C426.667 820.031 432.636 826 440 826ZM443.167 809.333C443.167 811.175 441.675 812.667 439.833 812.667C437.992 812.667 436.5 811.175 436.5 809.333C436.5 807.492 437.992 806 439.833 806C441.675 806 443.167 807.492 443.167 809.333ZM441.732 813.5H442.167C444.099 813.5 445.667 815.068 445.667 817V818.083C445.667 818.773 445.107 819.333 444.417 819.333H435.25C434.56 819.333 434 818.773 434 818.083V817C434 815.068 435.568 813.5 437.5 813.5H437.935C438.515 813.765 439.156 813.917 439.833 813.917C440.511 813.917 441.153 813.765 441.732 813.5Z" fill="#743e29"/>
<path d="M594 809.333H474.667C473.562 809.333 472.667 810.229 472.667 811.333V814C472.667 815.105 473.562 816 474.667 816H594C595.105 816 596 815.105 596 814V811.333C596 810.229 595.105 809.333 594 809.333Z" fill="#f2a587"/>
<path d="M694 809.333H624.667C623.562 809.333 622.667 810.229 622.667 811.333V814C622.667 815.105 623.562 816 624.667 816H694C695.105 816 696 815.105 696 814V811.333C696 810.229 695.105 809.333 694 809.333Z" fill="#f2a587"/>
<path d="M794 809.333H724.667C723.562 809.333 722.667 810.229 722.667 811.333V814C722.667 815.105 723.562 816 724.667 816H794C795.105 816 796 815.105 796 814V811.333C796 810.229 795.105 809.333 794 809.333Z" fill="#f2a587"/>
<path d="M821.865 809.623L823.627 811.385C823.701 811.459 823.701 811.581 823.627 811.655L819.361 815.921L817.547 816.123C817.305 816.15 817.1 815.945 817.127 815.703L817.329 813.89L821.595 809.623C821.669 809.549 821.791 809.549 821.865 809.623ZM825.029 809.176L824.076 808.223C823.779 807.926 823.297 807.926 822.998 808.223L822.306 808.914C822.232 808.989 822.232 809.109 822.306 809.184L824.069 810.946C824.143 811.02 824.264 811.02 824.338 810.946L825.029 810.255C825.327 809.955 825.327 809.473 825.029 809.176ZM821.501 814.761V816.75H815.25V810.499H819.739C819.802 810.499 819.861 810.473 819.905 810.43L820.687 809.649C820.835 809.5 820.73 809.248 820.521 809.248H814.938C814.42 809.248 814 809.668 814 810.186V817.062C814 817.58 814.42 818 814.938 818H821.814C822.332 818 822.752 817.58 822.752 817.062V813.98C822.752 813.771 822.5 813.667 822.351 813.813L821.57 814.595C821.527 814.64 821.501 814.699 821.501 814.761Z" fill="#743e29"/>
<path d="M847.107 808.625H844.761L844.577 808.26C844.538 808.182 844.478 808.116 844.404 808.07C844.329 808.024 844.244 808 844.157 808H841.925C841.837 808 841.752 808.024 841.678 808.07C841.604 808.116 841.545 808.181 841.507 808.26L841.323 808.625H838.979C838.896 808.625 838.817 808.658 838.758 808.717C838.699 808.775 838.667 808.855 838.667 808.937V809.563C838.667 809.645 838.699 809.725 838.758 809.783C838.817 809.842 838.896 809.875 838.979 809.875H847.107C847.187 809.875 847.267 809.842 847.327 809.783C847.387 809.725 847.413 809.645 847.413 809.563V808.937C847.413 808.855 847.387 808.775 847.327 808.717C847.267 808.658 847.187 808.625 847.107 808.625ZM839.706 817.121C839.721 817.359 839.826 817.583 839.999 817.746C840.173 817.909 840.403 818 840.641 818H845.442C845.681 818 845.91 817.909 846.084 817.746C846.257 817.583 846.363 817.359 846.377 817.121L846.793 810.5H839.291L839.706 817.121Z" fill="#743e29"/>
<path fill-rule="evenodd" clip-rule="evenodd" d="M440 743.333C447.364 743.333 453.333 737.364 453.333 730C453.333 722.636 447.364 716.667 440 716.667C432.636 716.667 426.667 722.636 426.667 730C426.667 737.364 432.636 743.333 440 743.333ZM443.167 726.667C443.167 728.508 441.675 730 439.833 730C437.992 730 436.5 728.508 436.5 726.667C436.5 724.825 437.992 723.333 439.833 723.333C441.675 723.333 443.167 724.825 443.167 726.667ZM441.732 730.833H442.167C444.099 730.833 445.667 732.401 445.667 734.333V735.417C445.667 736.107 445.107 736.667 444.417 736.667H435.25C434.56 736.667 434 736.107 434 735.417V734.333C434 732.401 435.568 730.833 437.5 730.833H437.935C438.515 731.099 439.156 731.25 439.833 731.25C440.511 731.25 441.153 731.099 441.732 730.833Z" fill="#743e29"/>
<path d="M594 726.667H474.667C473.562 726.667 472.667 727.562 472.667 728.667V731.333C472.667 732.438 473.562 733.333 474.667 733.333H594C595.105 733.333 596 732.438 596 731.333V728.667C596 727.562 595.105 726.667 594 726.667Z" fill="#f2a587"/>
<path d="M694 726.667H624.667C623.562 726.667 622.667 727.562 622.667 728.667V731.333C622.667 732.438 623.562 733.333 624.667 733.333H694C695.105 733.333 696 732.438 696 731.333V728.667C696 727.562 695.105 726.667 694 726.667Z" fill="#f2a587"/>
<path d="M794 726.667H724.667C723.562 726.667 722.667 727.562 722.667 728.667V731.333C722.667 732.438 723.562 733.333 724.667 733.333H794C795.105 733.333 796 732.438 796 731.333V728.667C796 727.562 795.105 726.667 794 726.667Z" fill="#f2a587"/>
<path d="M821.865 726.957L823.627 728.719C823.701 728.793 823.701 728.914 823.627 728.989L819.361 733.255L817.547 733.456C817.305 733.483 817.1 733.278 817.127 733.036L817.329 731.223L821.595 726.957C821.669 726.883 821.791 726.883 821.865 726.957ZM825.029 726.509L824.076 725.556C823.779 725.259 823.297 725.259 822.998 725.556L822.306 726.247C822.232 726.322 822.232 726.443 822.306 726.517L824.069 728.279C824.143 728.353 824.264 728.353 824.338 728.279L825.029 727.588C825.327 727.289 825.327 726.806 825.029 726.509ZM821.501 732.095V734.083H815.25V727.832H819.739C819.802 727.832 819.861 727.807 819.905 727.763L820.687 726.982C820.835 726.833 820.73 726.581 820.521 726.581H814.938C814.42 726.581 814 727.001 814 727.519V734.395C814 734.913 814.42 735.333 814.938 735.333H821.814C822.332 735.333 822.752 734.913 822.752 734.395V731.313C822.752 731.104 822.5 731.001 822.351 731.147L821.57 731.929C821.527 731.973 821.501 732.032 821.501 732.095Z" fill="#743e29"/>
<path d="M847.107 725.959H844.761L844.577 725.593C844.538 725.515 844.478 725.449 844.404 725.403C844.329 725.357 844.244 725.333 844.157 725.333H841.925C841.837 725.333 841.752 725.357 841.678 725.403C841.604 725.449 841.545 725.515 841.507 725.593L841.323 725.959H838.979C838.896 725.959 838.817 725.991 838.758 726.05C838.699 726.109 838.667 726.188 838.667 726.271V726.896C838.667 726.979 838.699 727.058 838.758 727.117C838.817 727.175 838.896 727.209 838.979 727.209H847.107C847.187 727.209 847.267 727.175 847.327 727.117C847.387 727.058 847.413 726.979 847.413 726.896V726.271C847.413 726.188 847.387 726.109 847.327 726.05C847.267 725.991 847.187 725.959 847.107 725.959ZM839.706 734.455C839.721 734.693 839.826 734.916 839.999 735.079C840.173 735.243 840.403 735.333 840.641 735.333H845.442C845.681 735.333 845.91 735.243 846.084 735.079C846.257 734.916 846.363 734.693 846.377 734.455L846.793 727.833H839.291L839.706 734.455Z" fill="#743e29"/>
<path fill-rule="evenodd" clip-rule="evenodd" d="M440 906C447.364 906 453.333 900.033 453.333 892.667C453.333 885.3 447.364 879.333 440 879.333C432.636 879.333 426.667 885.3 426.667 892.667C426.667 900.033 432.636 906 440 906ZM443.167 889.333C443.167 891.173 441.675 892.667 439.833 892.667C437.992 892.667 436.5 891.173 436.5 889.333C436.5 887.493 437.992 886 439.833 886C441.675 886 443.167 887.493 443.167 889.333ZM441.732 893.5H442.167C444.099 893.5 445.667 895.067 445.667 897V898.08C445.667 898.773 445.107 899.333 444.417 899.333H435.25C434.56 899.333 434 898.773 434 898.08V897C434 895.067 435.568 893.5 437.5 893.5H437.935C438.515 893.767 439.156 893.92 439.833 893.92C440.511 893.92 441.153 893.767 441.732 893.5Z" fill="#743e29"/>
<path d="M594 889.333H474.667C473.562 889.333 472.667 890.229 472.667 891.333V894C472.667 895.105 473.562 896 474.667 896H594C595.105 896 596 895.105 596 894V891.333C596 890.229 595.105 889.333 594 889.333Z" fill="#f2a587"/>
<path d="M694 889.333H624.667C623.562 889.333 622.667 890.229 622.667 891.333V894C622.667 895.105 623.562 896 624.667 896H694C695.105 896 696 895.105 696 894V891.333C696 890.229 695.105 889.333 694 889.333Z" fill="#f2a587"/>
<path d="M794 889.333H724.667C723.562 889.333 722.667 890.229 722.667 891.333V894C722.667 895.105 723.562 896 724.667 896H794C795.105 896 796 895.105 796 894V891.333C796 890.229 795.105 889.333 794 889.333Z" fill="#f2a587"/>
<path d="M821.865 889.627L823.627 891.387C823.701 891.46 823.701 891.58 823.627 891.653L819.361 895.92L817.547 896.12C817.305 896.153 817.1 895.947 817.127 895.7L817.329 893.887L821.595 889.627C821.669 889.547 821.791 889.547 821.865 889.627ZM825.029 889.173L824.076 888.22C823.779 887.927 823.297 887.927 822.998 888.22L822.306 888.913C822.232 888.987 822.232 889.107 822.306 889.187L824.069 890.947C824.143 891.02 824.264 891.02 824.338 890.947L825.029 890.253C825.327 889.953 825.327 889.473 825.029 889.173ZM821.501 894.76V896.747H815.25V890.5H819.739C819.802 890.5 819.861 890.473 819.905 890.433L820.687 889.647C820.835 889.5 820.73 889.247 820.521 889.247H814.938C814.42 889.247 814 889.667 814 890.187V897.06C814 897.58 814.42 898 814.938 898H821.814C822.332 898 822.752 897.58 822.752 897.06V893.98C822.752 893.773 822.5 893.667 822.351 893.813L821.57 894.593C821.527 894.64 821.501 894.7 821.501 894.76Z" fill="#743e29"/>
<path d="M847.107 888.627H844.761L844.577 888.26C844.538 888.18 844.478 888.113 844.404 888.073C844.329 888.027 844.244 888 844.157 888H841.925C841.837 888 841.752 888.027 841.678 888.067C841.604 888.113 841.545 888.18 841.507 888.26L841.323 888.627H838.979C838.896 888.627 838.817 888.66 838.758 888.713C838.699 888.773 838.667 888.853 838.667 888.94V889.56C838.667 889.647 838.699 889.727 838.758 889.787C838.817 889.84 838.896 889.873 838.979 889.873H847.107C847.187 889.873 847.267 889.84 847.327 889.787C847.387 889.727 847.413 889.647 847.413 889.56V888.94C847.413 888.853 847.387 888.773 847.327 888.713C847.267 888.66 847.187 888.627 847.107 888.627ZM839.706 897.12C839.721 897.36 839.826 897.58 839.999 897.747C840.173 897.907 840.403 898 840.641 898H845.442C845.681 898 845.91 897.907 846.084 897.747C846.257 897.58 846.363 897.36 846.377 897.12L846.793 890.5H839.291L839.706 897.12Z" fill="#743e29"/>
<path d="M874 629.333H405.333V630H874V629.333Z" fill="#fef9f6"/>
<path d="M874 792H405.333V792.667H874V792Z" fill="#fef9f6"/>
<path d="M874 670H405.333V670.667H874V670Z" fill="#fef9f6"/>
<path d="M874 832.667H405.333V833.333H874V832.667Z" fill="#fef9f6"/>
<path d="M874 710H405.333V710.667H874V710Z" fill="#fef9f6"/>
<path d="M874 872.667H405.333V873.333H874V872.667Z" fill="#fef9f6"/>
<path d="M874 750H405.333V750.667H874V750Z" fill="#fef9f6"/>
<path d="M874 260H571.333V562.667H874V260Z" fill="#fbdfd4"/>
<path d="M666.282 333.759C666.305 333.542 666.373 333.337 666.373 333.119C666.373 329.087 663.095 325.809 659.063 325.809C657.623 325.809 656.299 326.243 655.167 326.951C653.157 322.519 648.713 319.411 643.527 319.411C636.468 319.411 630.733 325.135 630.733 332.205C630.733 332.548 630.813 332.868 630.836 333.199C625.171 333.622 620.681 338.305 620.681 344.085C620.681 350.14 625.593 355.052 631.647 355.052H662.718C668.773 355.052 673.685 350.14 673.685 344.085C673.685 339.277 670.577 335.244 666.282 333.759ZM617.117 331.177C612.125 326.185 612.125 318.075 617.117 313.095C622.109 308.103 630.219 308.103 635.211 313.095C636.319 314.203 637.142 315.482 637.759 316.83C638.878 316.407 640.055 316.145 641.265 315.973L644.67 305.818C645.127 304.459 643.836 303.179 642.477 303.625L632.447 306.972L627.707 297.513C627.078 296.234 625.251 296.234 624.611 297.513L619.881 306.972L609.841 303.625C608.493 303.179 607.202 304.47 607.647 305.818L610.995 315.847L601.536 320.588C600.257 321.228 600.257 323.044 601.536 323.684L610.995 328.413L607.647 338.443C607.191 339.802 608.481 341.081 609.841 340.636L618.533 337.746C619.231 336.329 620.133 335.039 621.229 333.919C619.733 333.302 618.328 332.388 617.117 331.177ZM616.569 322.13C616.569 326.791 619.916 330.675 624.325 331.531C625.239 330.995 626.187 330.526 627.204 330.195C627.821 325.135 630.745 320.771 634.903 318.201C633.395 314.877 630.048 312.546 626.164 312.546C620.875 312.546 616.569 316.841 616.569 322.13Z" fill="#743e29"/>
<path d="M702.748 319.887H715.191V316.87H707.862V316.751L710.41 314.254C713.998 310.981 714.961 309.345 714.961 307.359C714.961 304.333 712.489 302.194 708.748 302.194C705.083 302.194 702.569 304.385 702.577 307.811H706.081C706.072 306.14 707.129 305.117 708.723 305.117C710.257 305.117 711.399 306.072 711.399 307.606C711.399 308.995 710.547 309.95 708.961 311.475L702.748 317.228V319.887ZM724.181 302.194C720.277 302.177 717.644 304.734 717.661 308.245C717.669 311.501 719.928 313.862 723.021 313.862C724.939 313.862 726.644 312.933 727.419 311.399H727.539C727.53 314.859 726.329 316.964 724.053 316.964C722.715 316.964 721.751 316.231 721.471 314.961H717.831C718.172 317.901 720.559 320.126 724.053 320.126C728.374 320.126 731.161 316.631 731.152 310.708C731.144 304.385 727.769 302.211 724.181 302.194ZM724.206 305.092C725.902 305.092 727.155 306.473 727.172 308.135C727.181 309.805 725.859 311.185 724.172 311.185C722.467 311.185 721.249 309.856 721.24 308.143C721.223 306.439 722.493 305.092 724.206 305.092ZM737.809 310.691C740.127 310.691 741.993 308.816 741.993 306.507C741.993 304.189 740.127 302.313 737.809 302.313C735.499 302.313 733.624 304.189 733.624 306.507C733.624 308.816 735.499 310.691 737.809 310.691ZM737.809 308.271C736.837 308.271 736.044 307.478 736.044 306.507C736.044 305.527 736.837 304.734 737.809 304.734C738.789 304.734 739.573 305.527 739.573 306.507C739.573 307.478 738.789 308.271 737.809 308.271Z" fill="#743e29"/>
<path fill-rule="evenodd" clip-rule="evenodd" d="M863.327 452.149C862.84 452.634 862.84 453.421 863.327 453.906C863.813 454.391 864.6 454.391 865.08 453.906L872.32 446.667H874V452.018L859.633 466.385C859.147 466.87 859.147 467.657 859.633 468.142C860.12 468.627 860.907 468.627 861.393 468.142L874 455.532V462.561L873.867 462.692C873.387 463.177 873.387 463.964 873.867 464.449C873.913 464.491 873.953 464.529 874 464.563V473.105L870.173 476.928C869.693 477.413 869.693 478.2 870.173 478.685C870.66 479.171 871.447 479.171 871.933 478.685L874 476.619V483.649L870.967 486.68C868.893 486.533 866.833 486.239 864.8 485.821L865.693 484.925C866.18 484.439 866.18 483.653 865.693 483.167C865.207 482.682 864.42 482.682 863.94 483.167L861.947 485.155C860.147 484.684 858.367 484.121 856.593 483.484L869.387 470.689C869.873 470.203 869.873 469.417 869.387 468.931C868.9 468.447 868.113 468.447 867.627 468.931L854.047 482.514C852.407 481.855 850.78 481.137 849.16 480.372L855.153 474.381C855.633 473.896 855.633 473.109 855.153 472.624C854.667 472.139 853.88 472.139 853.393 472.624L846.8 479.219C845.179 478.406 843.571 477.551 841.974 476.667C842.229 476.63 842.475 476.513 842.672 476.316L858.84 460.145C859.327 459.66 859.327 458.873 858.84 458.388C858.36 457.903 857.573 457.903 857.087 458.388L840.915 474.559C840.545 474.929 840.457 475.475 840.651 475.928C838.925 474.953 837.213 473.95 835.511 472.933L844.607 463.838C845.093 463.353 845.093 462.566 844.607 462.081C844.122 461.595 843.335 461.595 842.85 462.081L833.318 471.613C831.979 470.801 830.648 469.985 829.324 469.175H829.323L829.322 469.174L829.32 469.172C826.986 467.743 824.675 466.328 822.386 464.972L834.064 453.294C834.549 452.809 834.549 452.022 834.064 451.537C833.579 451.051 832.792 451.051 832.307 451.537L820.169 463.674C818.633 462.787 817.106 461.933 815.589 461.127C815.809 460.665 815.729 460.094 815.346 459.711C814.861 459.226 814.074 459.226 813.589 459.711L813.337 459.963C811.725 459.155 810.123 458.407 808.532 457.739L819.604 446.667H826.633L819.828 453.472C819.343 453.957 819.343 454.744 819.828 455.229C820.313 455.715 821.1 455.715 821.585 455.229L830.148 446.667H838.283C838.343 446.807 838.431 446.939 838.546 447.055C839.031 447.54 839.818 447.54 840.303 447.055L840.691 446.667H858.267L849.087 455.841C848.607 456.326 848.607 457.113 849.087 457.598C849.573 458.083 850.36 458.083 850.847 457.598L861.78 446.667H868.807L863.327 452.149ZM689.335 459.199C688.85 458.713 688.85 457.927 689.335 457.441L700.11 446.667H693.079C693.062 446.685 693.045 446.703 693.028 446.72L676.857 462.891C676.372 463.377 675.585 463.377 675.1 462.891C674.615 462.406 674.615 461.619 675.1 461.134L689.567 446.667H682.538L680.549 448.655C680.064 449.141 679.277 449.141 678.792 448.655C678.307 448.17 678.307 447.383 678.792 446.898L679.023 446.667H671.994L666.313 452.347C665.828 452.833 665.041 452.833 664.556 452.347C664.071 451.862 664.071 451.075 664.556 450.59L668.48 446.667H661.451L647.595 460.522C647.11 461.007 646.323 461.007 645.838 460.522C645.353 460.037 645.353 459.25 645.838 458.765L657.936 446.667H649.791C649.989 447.121 649.903 447.671 649.531 448.043L633.359 464.215C632.874 464.699 632.087 464.699 631.602 464.215C631.117 463.729 631.117 462.943 631.602 462.457L647.393 446.667H640.364L637.052 449.979C636.567 450.464 635.78 450.464 635.295 449.979C634.809 449.493 634.809 448.707 635.295 448.221L636.849 446.667H629.82L622.816 453.671C622.331 454.156 621.544 454.156 621.059 453.671C620.573 453.185 620.573 452.399 621.059 451.913L626.305 446.667H619.277L604.098 461.845C603.613 462.331 602.826 462.331 602.341 461.845C601.855 461.36 601.855 460.573 602.341 460.088L615.762 446.667H598.189L593.555 451.301C593.069 451.787 592.283 451.787 591.797 451.301C591.312 450.817 591.312 450.029 591.797 449.545L594.675 446.667H587.646L579.319 454.994C578.833 455.479 578.047 455.479 577.561 454.994C577.076 454.509 577.076 453.722 577.561 453.237L584.131 446.667H577.009C576.95 446.786 576.871 446.898 576.771 446.997L571.333 452.435V459.465C571.819 458.991 572.597 458.995 573.079 459.476C573.564 459.961 573.564 460.748 573.079 461.233L571.333 462.979V470.008L585.558 455.783C586.043 455.299 586.83 455.299 587.315 455.783C587.8 456.269 587.8 457.055 587.315 457.541L571.333 473.523V480.552L581.865 470.019C582.351 469.535 583.137 469.535 583.623 470.019C584.108 470.505 584.108 471.291 583.623 471.777L571.333 484.066V495.075C573.147 495.353 575.109 495.574 577.241 495.731L592.409 480.563C592.894 480.078 593.681 480.078 594.166 480.563C594.651 481.049 594.651 481.835 594.166 482.321L580.571 495.916C582.002 495.971 583.503 496 585.08 496C590.245 496 594.84 495.681 598.955 495.104L602.953 491.107C603.438 490.621 604.225 490.621 604.71 491.107C605.195 491.592 605.195 492.379 604.71 492.864L603.182 494.392C606.849 493.663 610.095 492.715 613.001 491.603L617.189 487.415C617.674 486.929 618.461 486.929 618.946 487.415C619.299 487.768 619.395 488.281 619.234 488.721C626.161 484.913 630.838 480.136 635.165 475.716C640.017 470.76 644.429 466.253 651.081 464.066L658.317 456.829C658.802 456.345 659.589 456.345 660.074 456.829C660.559 457.315 660.559 458.101 660.074 458.587L655.659 463.003C657.145 462.788 658.736 462.674 660.45 462.674C661.317 462.674 662.161 462.685 662.983 462.707L672.553 453.137C673.038 452.652 673.825 452.652 674.31 453.137C674.795 453.623 674.795 454.409 674.31 454.895L666.342 462.863C672.264 463.257 677.031 464.234 681.293 465.484L683.096 463.681C683.581 463.195 684.368 463.195 684.853 463.681C685.339 464.166 685.339 464.953 684.853 465.438L683.97 466.321C685.745 466.91 687.451 467.538 689.142 468.179L701.814 455.507C702.299 455.021 703.086 455.021 703.571 455.507C704.057 455.992 704.057 456.779 703.571 457.264L691.684 469.151C695.771 470.719 699.926 472.288 704.913 473.495L712.358 466.05C712.843 465.565 713.63 465.565 714.115 466.05C714.6 466.535 714.6 467.322 714.115 467.807L707.793 474.129C709.685 474.506 711.699 474.828 713.871 475.08L726.594 462.358C727.079 461.873 727.866 461.873 728.351 462.358C728.836 462.843 728.836 463.63 728.351 464.115L717.077 475.389C719.497 475.576 722.103 475.679 724.934 475.679C728.667 475.679 732.054 475.385 735.174 474.865L737.137 472.901C737.623 472.416 738.409 472.416 738.895 472.901C739.201 473.208 739.314 473.636 739.233 474.031C743.467 472.995 747.205 471.542 750.691 469.891L755.855 464.727C756.341 464.241 757.127 464.241 757.613 464.727C757.991 465.106 758.075 465.669 757.861 466.128C758.67 465.675 759.473 465.218 760.276 464.762L760.279 464.76C765.489 461.8 770.659 458.863 776.817 456.853C776.639 456.795 776.472 456.694 776.331 456.553C775.845 456.067 775.845 455.281 776.331 454.795L784.459 446.667H777.43L763.852 460.245C763.367 460.73 762.58 460.73 762.095 460.245C761.609 459.759 761.609 458.973 762.095 458.487L773.915 446.667H756.343L753.308 449.701C752.823 450.187 752.036 450.187 751.551 449.701C751.066 449.216 751.066 448.429 751.551 447.944L752.828 446.667H745.799L734.591 457.875C734.105 458.361 733.319 458.361 732.833 457.875C732.348 457.391 732.348 456.603 732.833 456.119L742.285 446.667H735.256L720.355 461.568C719.869 462.053 719.083 462.053 718.597 461.568C718.112 461.083 718.112 460.296 718.597 459.811L731.741 446.667H724.712L724.047 447.332C723.561 447.817 722.775 447.817 722.289 447.332C722.101 447.144 721.986 446.911 721.944 446.667H714.169L709.811 451.025C709.325 451.509 708.539 451.509 708.053 451.025C707.568 450.539 707.568 449.753 708.053 449.267L710.654 446.667H703.625L691.093 459.199C690.607 459.684 689.821 459.684 689.335 459.199ZM787.973 446.667L778.224 456.416C780.937 455.615 783.846 454.997 787.033 454.636L788.809 452.86C789.295 452.375 790.081 452.375 790.567 452.86C790.967 453.261 791.037 453.867 790.776 454.339C791.696 454.297 792.638 454.275 793.605 454.275C794.946 454.275 796.293 454.375 797.647 454.565L803.045 449.167C803.53 448.683 804.317 448.683 804.802 449.167C805.287 449.653 805.287 450.44 804.802 450.925L800.611 455.117C802.399 455.528 804.199 456.079 806.011 456.745L816.089 446.667H798.517L796.806 448.378C796.321 448.863 795.534 448.863 795.049 448.378C794.578 447.908 794.563 447.155 795.005 446.667H787.973ZM571.333 446.667H573.588L571.333 448.921V446.667ZM598.648 476.081C598.163 475.596 598.163 474.809 598.648 474.324L614.819 458.153C615.305 457.667 616.091 457.667 616.577 458.153C617.062 458.638 617.062 459.425 616.577 459.91L600.405 476.081C599.92 476.567 599.133 476.567 598.648 476.081ZM588.105 465.537C587.619 465.052 587.619 464.265 588.105 463.78L604.276 447.609C604.761 447.124 605.548 447.124 606.033 447.609C606.518 448.095 606.518 448.881 606.033 449.367L589.862 465.537C589.377 466.023 588.59 466.023 588.105 465.537ZM609.192 486.625C608.707 486.139 608.707 485.353 609.192 484.867L625.363 468.697C625.848 468.211 626.635 468.211 627.12 468.697C627.605 469.182 627.605 469.969 627.12 470.454L610.949 486.625C610.464 487.11 609.677 487.11 609.192 486.625ZM729.141 470.354C728.655 470.839 728.655 471.626 729.141 472.111C729.626 472.597 730.413 472.597 730.898 472.111L747.069 455.941C747.554 455.455 747.554 454.669 747.069 454.183C746.583 453.698 745.797 453.698 745.311 454.183L729.141 470.354ZM743.377 466.662C742.891 467.147 742.891 467.934 743.377 468.419C743.862 468.905 744.649 468.905 745.134 468.419L761.305 452.248C761.79 451.763 761.79 450.976 761.305 450.491C760.819 450.005 760.033 450.005 759.547 450.491L743.377 466.662ZM830.371 464.015C829.886 464.501 829.886 465.287 830.371 465.773C830.857 466.258 831.643 466.258 832.129 465.773L848.3 449.602C848.787 449.117 848.787 448.33 848.3 447.845C847.813 447.359 847.027 447.359 846.543 447.845L830.371 464.015ZM590.474 494.799C589.989 494.314 589.989 493.527 590.474 493.042L606.645 476.871C607.13 476.385 607.917 476.385 608.402 476.871C608.887 477.356 608.887 478.143 608.402 478.628L592.231 494.799C591.746 495.285 590.959 495.285 590.474 494.799ZM579.931 484.255C579.445 483.77 579.445 482.983 579.931 482.498L596.101 466.327C596.587 465.842 597.373 465.842 597.859 466.327C598.344 466.813 598.344 467.599 597.859 468.085L581.687 484.255C581.203 484.741 580.415 484.741 579.931 484.255ZM612.884 472.389C612.399 471.903 612.399 471.117 612.884 470.631L629.055 454.461C629.541 453.975 630.327 453.975 630.813 454.461C631.298 454.946 631.298 455.733 630.813 456.218L614.641 472.389C614.156 472.874 613.369 472.874 612.884 472.389ZM699.879 469.743C699.394 469.257 699.394 468.471 699.879 467.985L716.05 451.814C716.535 451.329 717.322 451.329 717.807 451.814C718.293 452.299 718.293 453.086 717.807 453.571L701.637 469.743C701.151 470.227 700.365 470.227 699.879 469.743ZM623.428 482.933C622.943 482.447 622.943 481.661 623.428 481.175L639.599 465.004C640.084 464.519 640.871 464.519 641.356 465.004C641.841 465.489 641.841 466.276 641.356 466.761L625.185 482.933C624.7 483.417 623.913 483.417 623.428 482.933Z" fill="#f2a587"/>
<path fill-rule="evenodd" clip-rule="evenodd" d="M874 374.331V453.787H571.333V345.41C583.845 349.161 595.562 371.339 606.681 392.385C617.589 413.03 627.921 432.586 637.861 432.586C650.843 432.586 658.845 418.535 666.954 404.294C675.286 389.663 683.732 374.831 697.81 374.831C711.986 374.831 719.69 383.968 727.235 392.918C734.477 401.507 741.572 409.923 754.103 409.923C765.031 409.923 770.225 393.523 776.177 374.731C784.162 349.519 793.511 320 819.9 320C838.692 320 845.181 334.491 851.487 348.573C856.76 360.345 861.907 371.831 874 374.331Z" fill="#743e29"/>
<path d="M591.589 517.273V526H593.379V520.298H593.451L595.709 525.957H596.928L599.187 520.319H599.259V526H601.049V517.273H598.773L596.37 523.137H596.267L593.864 517.273H591.589ZM605.493 526.128C607.478 526.128 608.714 524.769 608.714 522.753C608.714 520.725 607.478 519.369 605.493 519.369C603.507 519.369 602.271 520.725 602.271 522.753C602.271 524.769 603.507 526.128 605.493 526.128ZM605.501 524.721C604.585 524.721 604.116 523.882 604.116 522.74C604.116 521.598 604.585 520.754 605.501 520.754C606.4 520.754 606.869 521.598 606.869 522.74C606.869 523.882 606.4 524.721 605.501 524.721Z" fill="#743e29"/>
<path d="M590.301 547.333H596.523V545.825H592.858V545.765L594.132 544.517C595.926 542.88 596.408 542.062 596.408 541.069C596.408 539.557 595.172 538.487 593.301 538.487C591.469 538.487 590.211 539.582 590.216 541.295H591.967C591.963 540.46 592.491 539.949 593.289 539.949C594.055 539.949 594.627 540.425 594.627 541.193C594.627 541.887 594.2 542.365 593.408 543.127L590.301 546.004V547.333ZM601.047 547.453C602.991 547.453 604.311 546.187 604.307 544.423C604.311 542.753 603.144 541.551 601.571 541.551C600.804 541.551 600.144 541.87 599.837 542.301H599.786L600.012 540.115H603.825V538.606H598.491L598.077 543.208L599.718 543.503C599.986 543.14 600.506 542.914 601.021 542.914C601.899 542.919 602.53 543.553 602.53 544.47C602.53 545.377 601.912 546.004 601.047 546.004C600.314 546.004 599.722 545.543 599.679 544.866H597.889C597.923 546.375 599.241 547.453 601.047 547.453ZM607.644 542.735C608.803 542.735 609.736 541.798 609.736 540.643C609.736 539.484 608.803 538.547 607.644 538.547C606.489 538.547 605.551 539.484 605.551 540.643C605.551 541.798 606.489 542.735 607.644 542.735ZM607.644 541.525C607.158 541.525 606.762 541.129 606.762 540.643C606.762 540.153 607.158 539.757 607.644 539.757C608.134 539.757 608.526 540.153 608.526 540.643C608.526 541.129 608.134 541.525 607.644 541.525Z" fill="#743e29"/>
<path d="M634.465 518.794H637.137V526H638.96V518.794H641.632V517.273H634.465V518.794ZM646.085 523.213C646.089 524.091 645.489 524.551 644.837 524.551C644.151 524.551 643.707 524.069 643.703 523.298V519.455H641.888V523.622C641.892 525.152 642.787 526.085 644.104 526.085C645.088 526.085 645.795 525.578 646.089 524.811H646.158V526H647.901V519.455H646.085V523.213Z" fill="#743e29"/>
<path d="M631.6 547.333H637.821V545.825H634.157V545.765L635.431 544.517C637.225 542.88 637.707 542.062 637.707 541.069C637.707 539.557 636.471 538.487 634.6 538.487C632.767 538.487 631.511 539.582 631.515 541.295H633.266C633.262 540.46 633.79 539.949 634.587 539.949C635.354 539.949 635.925 540.425 635.925 541.193C635.925 541.887 635.499 542.365 634.707 543.127L631.6 546.004V547.333ZM639.504 547.333H641.409L645.031 540.136V538.606H638.907V540.115H643.121V540.174L639.504 547.333ZM648.345 542.735C649.504 542.735 650.437 541.798 650.437 540.643C650.437 539.484 649.504 538.547 648.345 538.547C647.19 538.547 646.253 539.484 646.253 540.643C646.253 541.798 647.19 542.735 648.345 542.735ZM648.345 541.525C647.859 541.525 647.463 541.129 647.463 540.643C647.463 540.153 647.859 539.757 648.345 539.757C648.835 539.757 649.227 540.153 649.227 540.643C649.227 541.129 648.835 541.525 648.345 541.525Z" fill="#743e29"/>
<path d="M675.605 526H677.403L679.061 520.294H679.129L680.791 526H682.589L685.087 517.273H683.071L681.627 523.349H681.55L679.96 517.273H678.235L676.641 523.337H676.568L675.123 517.273H673.108L675.605 526ZM688.32 526.128C689.939 526.128 691.03 525.339 691.286 524.125L689.607 524.014C689.424 524.513 688.955 524.773 688.35 524.773C687.442 524.773 686.867 524.172 686.867 523.196V523.192H691.324V522.693C691.324 520.469 689.978 519.369 688.247 519.369C686.321 519.369 685.073 520.737 685.073 522.757C685.073 524.833 686.305 526.128 688.32 526.128ZM686.867 522.067C686.905 521.321 687.472 520.725 688.277 520.725C689.066 520.725 689.611 521.287 689.615 522.067H686.867Z" fill="#743e29"/>
<path d="M672.301 547.333H678.523V545.825H674.858V545.765L676.132 544.517C677.926 542.88 678.408 542.062 678.408 541.069C678.408 539.557 677.172 538.487 675.301 538.487C673.469 538.487 672.211 539.582 672.216 541.295H673.967C673.963 540.46 674.491 539.949 675.289 539.949C676.055 539.949 676.627 540.425 676.627 541.193C676.627 541.887 676.2 542.365 675.408 543.127L672.301 546.004V547.333ZM683.047 547.453C684.991 547.453 686.311 546.187 686.307 544.423C686.311 542.753 685.144 541.551 683.571 541.551C682.804 541.551 682.144 541.87 681.837 542.301H681.786L682.012 540.115H685.825V538.606H680.491L680.077 543.208L681.718 543.503C681.986 543.14 682.506 542.914 683.021 542.914C683.899 542.919 684.53 543.553 684.53 544.47C684.53 545.377 683.912 546.004 683.047 546.004C682.314 546.004 681.722 545.543 681.679 544.866H679.889C679.923 546.375 681.241 547.453 683.047 547.453ZM689.644 542.735C690.803 542.735 691.736 541.798 691.736 540.643C691.736 539.484 690.803 538.547 689.644 538.547C688.489 538.547 687.551 539.484 687.551 540.643C687.551 541.798 688.489 542.735 689.644 542.735ZM689.644 541.525C689.158 541.525 688.762 541.129 688.762 540.643C688.762 540.153 689.158 539.757 689.644 539.757C690.134 539.757 690.526 540.153 690.526 540.643C690.526 541.129 690.134 541.525 689.644 541.525Z" fill="#743e29"/>
<path d="M716.007 518.794H718.679V526H720.503V518.794H723.175V517.273H716.007V518.794ZM726.137 522.216C726.141 521.372 726.657 520.878 727.398 520.878C728.135 520.878 728.57 521.351 728.566 522.156V526H730.381V521.833C730.385 520.298 729.482 519.369 728.118 519.369C727.125 519.369 726.461 519.838 726.163 520.609H726.085V517.273H724.321V526H726.137V522.216Z" fill="#743e29"/>
<path d="M713.6 547.333H719.821V545.825H716.157V545.765L717.431 544.517C719.225 542.88 719.707 542.062 719.707 541.069C719.707 539.557 718.471 538.487 716.6 538.487C714.767 538.487 713.511 539.582 713.515 541.295H715.266C715.262 540.46 715.79 539.949 716.587 539.949C717.354 539.949 717.925 540.425 717.925 541.193C717.925 541.887 717.499 542.365 716.707 543.127L713.6 546.004V547.333ZM721.504 547.333H723.409L727.031 540.136V538.606H720.907V540.115H725.121V540.174L721.504 547.333ZM730.345 542.735C731.504 542.735 732.437 541.798 732.437 540.643C732.437 539.484 731.504 538.547 730.345 538.547C729.19 538.547 728.253 539.484 728.253 540.643C728.253 541.798 729.19 542.735 730.345 542.735ZM730.345 541.525C729.859 541.525 729.463 541.129 729.463 540.643C729.463 540.153 729.859 539.757 730.345 539.757C730.835 539.757 731.227 540.153 731.227 540.643C731.227 541.129 730.835 541.525 730.345 541.525Z" fill="#743e29"/>
<path d="M757.545 526H759.39V522.395H762.94V520.873H759.39V518.794H763.323V517.273H757.545V526ZM764.425 526H766.24V522.297C766.24 521.491 766.829 520.937 767.629 520.937C767.881 520.937 768.226 520.98 768.397 521.035V519.425C768.235 519.387 768.009 519.361 767.825 519.361C767.093 519.361 766.492 519.787 766.253 520.597H766.185V519.455H764.425V526ZM769.335 526H771.151V519.455H769.335V526ZM770.247 518.611C770.788 518.611 771.231 518.197 771.231 517.691C771.231 517.187 770.788 516.774 770.247 516.774C769.71 516.774 769.267 517.187 769.267 517.691C769.267 518.197 769.71 518.611 770.247 518.611Z" fill="#743e29"/>
<path d="M754.196 547.333H760.417V545.825H756.753V545.765L758.027 544.517C759.821 542.88 760.302 542.062 760.302 541.069C760.302 539.557 759.067 538.487 757.196 538.487C755.363 538.487 754.106 539.582 754.111 541.295H755.862C755.857 540.46 756.386 539.949 757.183 539.949C757.95 539.949 758.521 540.425 758.521 541.193C758.521 541.887 758.095 542.365 757.302 543.127L754.196 546.004V547.333ZM761.435 545.799H765.623V547.333H767.388V545.799H768.47V544.321H767.388V538.606H765.078L761.435 544.346V545.799ZM765.658 544.321H763.293V544.253L765.589 540.617H765.658V544.321ZM771.749 542.735C772.909 542.735 773.841 541.798 773.841 540.643C773.841 539.484 772.909 538.547 771.749 538.547C770.595 538.547 769.657 539.484 769.657 540.643C769.657 541.798 770.595 542.735 771.749 542.735ZM771.749 541.525C771.263 541.525 770.867 541.129 770.867 540.643C770.867 540.153 771.263 539.757 771.749 539.757C772.239 539.757 772.631 540.153 772.631 540.643C772.631 541.129 772.239 541.525 771.749 541.525Z" fill="#743e29"/>
<path d="M803.747 519.783H805.516C805.491 518.227 804.212 517.153 802.269 517.153C800.355 517.153 798.953 518.21 798.962 519.795C798.958 521.083 799.865 521.819 801.34 522.173L802.29 522.412C803.241 522.642 803.769 522.915 803.773 523.503C803.769 524.142 803.163 524.577 802.226 524.577C801.267 524.577 800.577 524.133 800.517 523.26H798.732C798.779 525.148 800.129 526.123 802.247 526.123C804.378 526.123 805.631 525.105 805.635 523.507C805.631 522.054 804.536 521.283 803.019 520.942L802.235 520.754C801.476 520.579 800.841 520.298 800.854 519.672C800.854 519.109 801.353 518.696 802.256 518.696C803.138 518.696 803.679 519.097 803.747 519.783ZM808.709 526.123C809.676 526.123 810.303 525.702 810.622 525.092H810.673V526H812.395V521.585C812.395 520.025 811.074 519.369 809.617 519.369C808.048 519.369 807.017 520.119 806.765 521.313L808.445 521.449C808.568 521.014 808.956 520.695 809.608 520.695C810.226 520.695 810.579 521.006 810.579 521.543V521.568C810.579 521.99 810.132 522.045 808.994 522.156C807.699 522.275 806.535 522.71 806.535 524.172C806.535 525.467 807.46 526.123 808.709 526.123ZM809.229 524.871C808.671 524.871 808.27 524.611 808.27 524.112C808.27 523.601 808.692 523.349 809.331 523.26C809.727 523.205 810.375 523.111 810.592 522.966V523.661C810.592 524.347 810.025 524.871 809.229 524.871Z" fill="#743e29"/>
<path d="M795.535 547.333H801.757V545.825H798.092V545.765L799.366 544.517C801.16 542.88 801.641 542.062 801.641 541.069C801.641 539.557 800.405 538.487 798.535 538.487C796.703 538.487 795.445 539.582 795.449 541.295H797.201C797.197 540.46 797.725 539.949 798.522 539.949C799.289 539.949 799.86 540.425 799.86 541.193C799.86 541.887 799.434 542.365 798.641 543.127L795.535 546.004V547.333ZM806.349 547.453C808.318 547.453 809.733 546.4 809.737 544.985C809.733 543.895 808.893 543.004 807.845 542.829V542.769C808.757 542.582 809.409 541.793 809.413 540.835C809.409 539.484 808.113 538.487 806.349 538.487C804.581 538.487 803.285 539.484 803.289 540.835C803.285 541.789 803.929 542.582 804.857 542.769V542.829C803.792 543.004 802.961 543.895 802.965 544.985C802.961 546.4 804.381 547.453 806.349 547.453ZM806.349 546.097C805.471 546.097 804.883 545.577 804.883 544.841C804.883 544.086 805.501 543.541 806.349 543.541C807.193 543.541 807.815 544.086 807.815 544.841C807.815 545.582 807.223 546.097 806.349 546.097ZM806.349 542.199C805.612 542.199 805.088 541.717 805.088 541.027C805.088 540.345 805.603 539.876 806.349 539.876C807.091 539.876 807.611 540.349 807.611 541.027C807.611 541.717 807.082 542.199 806.349 542.199ZM813.077 542.735C814.236 542.735 815.169 541.798 815.169 540.643C815.169 539.484 814.236 538.547 813.077 538.547C811.922 538.547 810.985 539.484 810.985 540.643C810.985 541.798 811.922 542.735 813.077 542.735ZM813.077 541.525C812.591 541.525 812.195 541.129 812.195 540.643C812.195 540.153 812.591 539.757 813.077 539.757C813.567 539.757 813.959 540.153 813.959 540.643C813.959 541.129 813.567 541.525 813.077 541.525Z" fill="#743e29"/>
<path d="M843.495 519.783H845.264C845.239 518.227 843.96 517.153 842.017 517.153C840.103 517.153 838.701 518.21 838.71 519.795C838.706 521.083 839.613 521.819 841.088 522.173L842.038 522.412C842.989 522.642 843.517 522.915 843.521 523.503C843.517 524.142 842.912 524.577 841.974 524.577C841.015 524.577 840.325 524.133 840.265 523.26H838.48C838.527 525.148 839.877 526.123 841.995 526.123C844.126 526.123 845.379 525.105 845.383 523.507C845.379 522.054 844.284 521.283 842.767 520.942L841.983 520.754C841.224 520.579 840.589 520.298 840.602 519.672C840.602 519.109 841.101 518.696 842.004 518.696C842.886 518.696 843.427 519.097 843.495 519.783ZM850.787 523.213C850.793 524.091 850.193 524.551 849.54 524.551C848.853 524.551 848.407 524.069 848.407 523.298V519.455H846.59V523.622C846.595 525.152 847.487 526.085 848.807 526.085C849.793 526.085 850.5 525.578 850.793 524.811H850.86V526H852.6V519.455H850.787V523.213Z" fill="#743e29"/>
<path d="M839.949 547.453C841.91 547.453 843.312 546.375 843.307 544.883C843.312 543.797 842.621 543.021 841.339 542.859V542.791C842.315 542.616 842.988 541.925 842.983 540.945C842.988 539.569 841.782 538.487 839.975 538.487C838.185 538.487 836.839 539.535 836.813 541.043H838.581C838.603 540.379 839.212 539.949 839.967 539.949C840.712 539.949 841.211 540.4 841.207 541.057C841.211 541.743 840.627 542.207 839.787 542.207H838.973V543.562H839.787C840.776 543.562 841.394 544.057 841.39 544.759C841.394 545.454 840.797 545.931 839.954 545.931C839.14 545.931 838.531 545.505 838.497 544.866H836.639C836.668 546.391 838.032 547.453 839.949 547.453ZM848.433 538.606H846.693L844.536 539.974V541.61L846.535 540.357H846.585V547.333H848.433V538.606ZM852.553 542.735C853.713 542.735 854.647 541.798 854.647 540.643C854.647 539.484 853.713 538.547 852.553 538.547C851.4 538.547 850.46 539.484 850.46 540.643C850.46 541.798 851.4 542.735 852.553 542.735ZM852.553 541.525C852.067 541.525 851.673 541.129 851.673 540.643C851.673 540.153 852.067 539.757 852.553 539.757C853.047 539.757 853.44 540.153 853.44 540.643C853.44 541.129 853.047 541.525 852.553 541.525Z" fill="#743e29"/>
<path d="M543.333 424.667H405.333V562.667H543.333V424.667Z" fill="#fbdfd4"/>
<path d="M468.431 498.834V458.049C468.431 456.408 466.991 455.059 465.37 455.289C444.925 458.184 429.296 476.077 430.024 497.523C430.772 519.547 449.701 537.607 471.696 537.331C480.343 537.222 488.333 534.431 494.903 529.763C496.258 528.8 496.347 526.801 495.172 525.624L468.431 498.834Z" fill="#8e4c32"/>
<path d="M479.549 449.339C500.045 450.756 516.423 467.163 517.836 487.695C517.945 489.263 516.627 490.583 515.059 490.583H476.667V452.124C476.667 450.553 477.984 449.231 479.549 449.339Z" fill="#f2a587"/>
<path d="M479.841 498.834H520.552C522.191 498.834 523.537 500.276 523.307 501.902C521.967 511.398 517.4 519.845 510.761 526.112C509.695 527.117 507.99 527.033 506.953 525.995L479.841 498.834Z" fill="#b25f3e"/>
<g opacity="0.15">
<path d="M380 233.333H180V900H380V233.333Z" fill="#fbdfd4"/>
<path d="M338 260H195.333C194.228 260 193.333 260.895 193.333 262V264.667C193.333 265.771 194.228 266.667 195.333 266.667H338C339.104 266.667 340 265.771 340 264.667V262C340 260.895 339.104 260 338 260Z" fill="#f2a587"/>
<path d="M366.101 263.775L361.04 268.836C360.796 269.081 360.4 269.081 360.156 268.836L359.566 268.246C359.322 268.003 359.322 267.607 359.565 267.363L363.576 263.333L359.565 259.303C359.322 259.059 359.322 258.665 359.566 258.421L360.156 257.831C360.4 257.586 360.796 257.586 361.04 257.831L366.101 262.891C366.345 263.135 366.345 263.531 366.101 263.775Z" fill="#743e29"/>
<path d="M380 290.667H180V290H380V290.667Z" fill="#fef9f6"/>
<path d="M338 368H195.333C194.228 368 193.333 368.895 193.333 370V372.667C193.333 373.771 194.228 374.667 195.333 374.667H338C339.104 374.667 340 373.771 340 372.667V370C340 368.895 339.104 368 338 368Z" fill="#f2a587"/>
<path d="M366.101 371.775L361.04 376.836C360.796 377.081 360.4 377.081 360.156 376.836L359.566 376.246C359.322 376.003 359.322 375.607 359.565 375.363L363.576 371.333L359.565 367.303C359.322 367.059 359.322 366.665 359.566 366.421L360.156 365.831C360.4 365.586 360.796 365.586 361.04 365.831L366.101 370.891C366.345 371.135 366.345 371.531 366.101 371.775Z" fill="#743e29"/>
<path d="M380 398.667H180V398H380V398.667Z" fill="#fef9f6"/>
<path d="M338 314H195.333C194.228 314 193.333 314.895 193.333 316V318.667C193.333 319.771 194.228 320.667 195.333 320.667H338C339.104 320.667 340 319.771 340 318.667V316C340 314.895 339.104 314 338 314Z" fill="#f2a587"/>
<path d="M366.101 317.775L361.04 322.836C360.796 323.081 360.4 323.081 360.156 322.836L359.566 322.246C359.322 322.003 359.322 321.607 359.565 321.363L363.576 317.333L359.565 313.303C359.322 313.059 359.322 312.665 359.566 312.421L360.156 311.831C360.4 311.586 360.796 311.586 361.04 311.831L366.101 316.891C366.345 317.135 366.345 317.531 366.101 317.775Z" fill="#743e29"/>
<path d="M380 344.667H180V344H380V344.667Z" fill="#fef9f6"/>
<path d="M338 422H195.333C194.228 422 193.333 422.895 193.333 424V426.667C193.333 427.771 194.228 428.667 195.333 428.667H338C339.104 428.667 340 427.771 340 426.667V424C340 422.895 339.104 422 338 422Z" fill="#f2a587"/>
<path d="M366.101 425.775L361.04 430.836C360.796 431.081 360.4 431.081 360.156 430.836L359.566 430.246C359.322 430.003 359.322 429.607 359.565 429.363L363.576 425.333L359.565 421.303C359.322 421.059 359.322 420.665 359.566 420.421L360.156 419.831C360.4 419.586 360.796 419.586 361.04 419.831L366.101 424.891C366.345 425.135 366.345 425.531 366.101 425.775Z" fill="#743e29"/>
<path d="M380 452.667H180V452H380V452.667Z" fill="#fef9f6"/>
<path d="M314.667 873.333H245.333C244.229 873.333 243.333 874.229 243.333 875.333V878C243.333 879.105 244.229 880 245.333 880H314.667C315.771 880 316.667 879.105 316.667 878V875.333C316.667 874.229 315.771 873.333 314.667 873.333Z" fill="#f2a587"/>
<path d="M900 180H180V233.333H900V180Z" fill="#743e29"/>
<path d="M843.333 203.333H767.333C766.229 203.333 765.333 204.229 765.333 205.333V208C765.333 209.105 766.229 210 767.333 210H843.333C844.438 210 845.333 209.105 845.333 208V205.333C845.333 204.229 844.438 203.333 843.333 203.333Z" fill="#f2a587"/>
<path d="M867.06 210.101L862 205.04C861.753 204.796 861.753 204.4 862 204.156L862.587 203.566C862.833 203.322 863.227 203.322 863.473 203.565L867.5 207.576L871.527 203.565C871.773 203.322 872.167 203.322 872.413 203.566L873 204.156C873.247 204.4 873.247 204.796 873 205.04L867.94 210.101C867.7 210.345 867.3 210.345 867.06 210.101Z" fill="#fef9f6"/>
<path d="M194.345 212.667H196.805V208.894H198.873C201.549 208.894 203.106 207.297 203.106 204.973C203.106 202.661 201.578 201.03 198.936 201.03H194.345V212.667ZM196.805 206.922V203.042H198.464C199.885 203.042 200.572 203.814 200.572 204.973C200.572 206.127 199.885 206.922 198.475 206.922H196.805ZM208.495 212.837C210.654 212.837 212.109 211.786 212.45 210.167L210.211 210.019C209.967 210.684 209.342 211.03 208.535 211.03C207.325 211.03 206.558 210.229 206.558 208.928V208.922H212.501V208.258C212.501 205.292 210.706 203.826 208.399 203.826C205.831 203.826 204.166 205.65 204.166 208.343C204.166 211.11 205.808 212.837 208.495 212.837ZM206.558 207.422C206.609 206.428 207.365 205.633 208.439 205.633C209.49 205.633 210.217 206.383 210.223 207.422H206.558ZM218.723 203.939H217.081V201.848H214.66V203.939H213.467V205.758H214.66V210.303C214.649 212.013 215.814 212.86 217.569 212.786C218.194 212.763 218.637 212.638 218.882 212.559L218.501 210.758C218.382 210.78 218.126 210.837 217.899 210.837C217.416 210.837 217.081 210.655 217.081 209.985V205.758H218.723V203.939ZM224.183 212.837C226.342 212.837 227.796 211.786 228.137 210.167L225.899 210.019C225.654 210.684 225.029 211.03 224.223 211.03C223.012 211.03 222.245 210.229 222.245 208.928V208.922H228.189V208.258C228.189 205.292 226.393 203.826 224.086 203.826C221.518 203.826 219.853 205.65 219.853 208.343C219.853 211.11 221.495 212.837 224.183 212.837ZM222.245 207.422C222.296 206.428 223.052 205.633 224.126 205.633C225.177 205.633 225.904 206.383 225.91 207.422H222.245ZM229.768 212.667H232.189V207.729C232.189 206.655 232.973 205.917 234.041 205.917C234.376 205.917 234.836 205.973 235.064 206.047V203.9C234.848 203.848 234.546 203.814 234.302 203.814C233.325 203.814 232.524 204.383 232.206 205.462H232.115V203.939H229.768V212.667ZM238.609 201.03H236.791V202.269C236.791 203.229 236.45 203.928 236.069 204.53L237.137 205.161C237.939 204.491 238.609 203.297 238.609 202.258V201.03ZM246.389 206.428C246.173 204.82 244.877 203.826 242.673 203.826C240.44 203.826 238.968 204.86 238.974 206.542C238.968 207.848 239.792 208.695 241.497 209.036L243.008 209.337C243.769 209.491 244.116 209.769 244.127 210.206C244.116 210.723 243.554 211.093 242.707 211.093C241.843 211.093 241.269 210.723 241.122 210.013L238.741 210.138C238.968 211.809 240.389 212.837 242.701 212.837C244.963 212.837 246.582 211.684 246.588 209.962C246.582 208.701 245.758 207.945 244.065 207.598L242.485 207.28C241.673 207.104 241.372 206.826 241.377 206.405C241.372 205.883 241.963 205.542 242.713 205.542C243.554 205.542 244.054 206.002 244.173 206.564L246.389 206.428ZM251.729 204.667H253.548V203.428C253.548 202.536 253.843 201.837 254.269 201.167L253.201 200.536C252.411 201.178 251.729 202.4 251.729 203.439V204.667ZM255.735 212.667H258.195V208.894H260.264C262.94 208.894 264.497 207.297 264.497 204.973C264.497 202.661 262.968 201.03 260.326 201.03H255.735V212.667ZM258.195 206.922V203.042H259.855C261.275 203.042 261.963 203.814 261.963 204.973C261.963 206.127 261.275 206.922 259.866 206.922H258.195ZM271.646 208.951C271.651 210.121 270.851 210.735 269.981 210.735C269.066 210.735 268.475 210.093 268.47 209.064V203.939H266.049V209.496C266.055 211.536 267.248 212.78 269.004 212.78C270.316 212.78 271.259 212.104 271.651 211.081H271.743V212.667H274.066V203.939H271.646V208.951ZM280.645 203.939H279.003V201.848H276.582V203.939H275.389V205.758H276.582V210.303C276.571 212.013 277.735 212.86 279.491 212.786C280.116 212.763 280.559 212.638 280.803 212.559L280.423 210.758C280.303 210.78 280.048 210.837 279.821 210.837C279.337 210.837 279.003 210.655 279.003 209.985V205.758H280.645V203.939ZM286.105 212.837C288.264 212.837 289.718 211.786 290.059 210.167L287.821 210.019C287.576 210.684 286.951 211.03 286.145 211.03C284.934 211.03 284.167 210.229 284.167 208.928V208.922H290.11V208.258C290.11 205.292 288.315 203.826 286.008 203.826C283.44 203.826 281.775 205.65 281.775 208.343C281.775 211.11 283.417 212.837 286.105 212.837ZM284.167 207.422C284.218 206.428 284.974 205.633 286.048 205.633C287.099 205.633 287.826 206.383 287.832 207.422H284.167ZM291.69 212.667H294.11V207.729C294.11 206.655 294.895 205.917 295.963 205.917C296.298 205.917 296.758 205.973 296.985 206.047V203.9C296.769 203.848 296.468 203.814 296.224 203.814C295.247 203.814 294.445 204.383 294.127 205.462H294.037V203.939H291.69V212.667ZM305.498 206.428C305.282 204.82 303.987 203.826 301.782 203.826C299.549 203.826 298.077 204.86 298.083 206.542C298.077 207.848 298.901 208.695 300.606 209.036L302.117 209.337C302.879 209.491 303.225 209.769 303.237 210.206C303.225 210.723 302.663 211.093 301.816 211.093C300.953 211.093 300.379 210.723 300.231 210.013L297.851 210.138C298.077 211.809 299.498 212.837 301.811 212.837C304.072 212.837 305.691 211.684 305.697 209.962C305.691 208.701 304.867 207.945 303.174 207.598L301.595 207.28C300.782 207.104 300.481 206.826 300.487 206.405C300.481 205.883 301.072 205.542 301.822 205.542C302.663 205.542 303.163 206.002 303.282 206.564L305.498 206.428ZM315.095 212.667C318.64 212.667 320.788 210.473 320.788 206.837C320.788 203.212 318.64 201.03 315.129 201.03H310.97V212.667H315.095ZM313.43 210.559V203.138H314.998C317.18 203.138 318.333 204.252 318.333 206.837C318.333 209.434 317.18 210.559 314.993 210.559H313.43ZM325.053 212.831C326.343 212.831 327.179 212.269 327.605 211.456H327.673V212.667H329.968V206.78C329.968 204.701 328.207 203.826 326.264 203.826C324.173 203.826 322.798 204.826 322.463 206.417L324.701 206.598C324.866 206.019 325.383 205.593 326.253 205.593C327.076 205.593 327.548 206.008 327.548 206.723V206.758C327.548 207.32 326.951 207.394 325.434 207.542C323.707 207.701 322.156 208.28 322.156 210.229C322.156 211.956 323.389 212.831 325.053 212.831ZM325.747 211.161C325.003 211.161 324.468 210.814 324.468 210.15C324.468 209.468 325.031 209.133 325.883 209.013C326.411 208.939 327.275 208.814 327.565 208.621V209.547C327.565 210.462 326.809 211.161 325.747 211.161ZM339.107 206.428C338.891 204.82 337.596 203.826 335.391 203.826C333.159 203.826 331.687 204.86 331.693 206.542C331.687 207.848 332.511 208.695 334.215 209.036L335.727 209.337C336.488 209.491 336.835 209.769 336.846 210.206C336.835 210.723 336.272 211.093 335.425 211.093C334.562 211.093 333.988 210.723 333.841 210.013L331.46 210.138C331.687 211.809 333.107 212.837 335.42 212.837C337.681 212.837 339.301 211.684 339.307 209.962C339.301 208.701 338.477 207.945 336.783 207.598L335.204 207.28C334.391 207.104 334.091 206.826 334.096 206.405C334.091 205.883 334.681 205.542 335.431 205.542C336.272 205.542 336.772 206.002 336.891 206.564L339.107 206.428ZM343.251 207.621C343.257 206.496 343.944 205.837 344.933 205.837C345.916 205.837 346.495 206.468 346.489 207.542V212.667H348.91V207.11C348.916 205.064 347.711 203.826 345.893 203.826C344.569 203.826 343.683 204.451 343.285 205.479H343.183V201.03H340.831V212.667H343.251V207.621ZM350.86 212.667H353.247V211.269H353.355C353.69 211.996 354.423 212.809 355.832 212.809C357.821 212.809 359.372 211.235 359.372 208.314C359.372 205.314 357.753 203.826 355.837 203.826C354.377 203.826 353.679 204.695 353.355 205.405H353.281V201.03H350.86V212.667ZM353.229 208.303C353.229 206.746 353.889 205.752 355.065 205.752C356.264 205.752 356.9 206.792 356.9 208.303C356.9 209.826 356.253 210.883 355.065 210.883C353.9 210.883 353.229 209.86 353.229 208.303ZM364.93 212.837C367.577 212.837 369.225 211.025 369.225 208.337C369.225 205.633 367.577 203.826 364.93 203.826C362.282 203.826 360.635 205.633 360.635 208.337C360.635 211.025 362.282 212.837 364.93 212.837ZM364.941 210.962C363.72 210.962 363.095 209.843 363.095 208.32C363.095 206.797 363.72 205.672 364.941 205.672C366.14 205.672 366.765 206.797 366.765 208.32C366.765 209.843 366.14 210.962 364.941 210.962ZM373.288 212.831C374.577 212.831 375.413 212.269 375.839 211.456H375.907V212.667H378.203V206.78C378.203 204.701 376.441 203.826 374.498 203.826C372.407 203.826 371.032 204.826 370.697 206.417L372.935 206.598C373.101 206.019 373.617 205.593 374.487 205.593C375.311 205.593 375.782 206.008 375.782 206.723V206.758C375.782 207.32 375.185 207.394 373.669 207.542C371.941 207.701 370.39 208.28 370.39 210.229C370.39 211.956 371.623 212.831 373.288 212.831ZM373.981 211.161C373.237 211.161 372.703 210.814 372.703 210.15C372.703 209.468 373.265 209.133 374.117 209.013C374.646 208.939 375.509 208.814 375.799 208.621V209.547C375.799 210.462 375.043 211.161 373.981 211.161ZM380.081 212.667H382.501V207.729C382.501 206.655 383.285 205.917 384.353 205.917C384.689 205.917 385.149 205.973 385.376 206.047V203.9C385.16 203.848 384.859 203.814 384.615 203.814C383.637 203.814 382.836 204.383 382.518 205.462H382.427V203.939H380.081V212.667ZM389.437 212.809C390.846 212.809 391.579 211.996 391.914 211.269H392.017V212.667H394.403V201.03H391.988V205.405H391.914C391.591 204.695 390.891 203.826 389.431 203.826C387.517 203.826 385.897 205.314 385.897 208.314C385.897 211.235 387.449 212.809 389.437 212.809ZM390.204 210.883C389.017 210.883 388.369 209.826 388.369 208.303C388.369 206.792 389.005 205.752 390.204 205.752C391.38 205.752 392.039 206.746 392.039 208.303C392.039 209.86 391.369 210.883 390.204 210.883Z" fill="#fef9f6"/>
</g>
<path d="M488.333 342.167H494.833C495.917 342.167 497 341.083 497 340V317.25C497 316.167 495.917 315.083 494.833 315.083H488.333C487.25 315.083 486.167 316.167 486.167 317.25V340C486.167 341.083 487.25 342.167 488.333 342.167ZM455.833 342.167H462.333C463.417 342.167 464.5 341.083 464.5 340V328.083C464.5 327 463.417 325.917 462.333 325.917H455.833C454.75 325.917 453.667 327 453.667 328.083V340C453.667 341.083 454.75 342.167 455.833 342.167ZM472.083 342.167H478.583C479.667 342.167 480.75 341.083 480.75 340V306.417C480.75 305.333 479.667 304.25 478.583 304.25H472.083C471 304.25 469.917 305.333 469.917 306.417V340C469.917 341.083 471 342.167 472.083 342.167ZM515.959 353H442.833V301.541C442.833 300.045 441.621 298.833 440.125 298.833H434.708C433.212 298.833 432 300.045 432 301.541V358.417C432 361.408 434.425 363.833 437.417 363.833H515.959C517.455 363.833 518.667 362.621 518.667 361.125V355.708C518.667 354.212 517.455 353 515.959 353Z" fill="#8e4c32"/>
</g>
<rect x="182" y="182" width="716" height="716" stroke="#743e29" stroke-width="4"/>
<defs>
<clipPath id="clip0_109_1658">
<rect x="180" y="180" width="720" height="720" fill="white"/>
</clipPath>
</defs>
</svg>
